<svg xmlns="http://www.w3.org/2000/svg" xmlns:xlink="http://www.w3.org/1999/xlink" width="500" zoomAndPan="magnify" viewBox="0 0 375 374.999991" height="500" preserveAspectRatio="xMidYMid meet" version="1.0"><defs><clipPath id="83b2b2d019"><path d="M 15.835938 15.835938 L 359.335938 15.835938 L 359.335938 359.335938 L 15.835938 359.335938 Z M 15.835938 15.835938 " clip-rule="nonzero"/></clipPath><clipPath id="ee55f986d3"><path d="M 194 250 L 248 250 L 248 300.988281 L 194 300.988281 Z M 194 250 " clip-rule="nonzero"/></clipPath><clipPath id="078c0eba84"><path d="M 126 250 L 180 250 L 180 300.988281 L 126 300.988281 Z M 126 250 " clip-rule="nonzero"/></clipPath><clipPath id="8ad7c6eae0"><path d="M 126 252 L 180 252 L 180 300.988281 L 126 300.988281 Z M 126 252 " clip-rule="nonzero"/></clipPath><clipPath id="d23a427e22"><path d="M 194 268 L 248 268 L 248 300.988281 L 194 300.988281 Z M 194 268 " clip-rule="nonzero"/></clipPath><clipPath id="c46a89cbd0"><path d="M 129 73.738281 L 244 73.738281 L 244 184 L 129 184 Z M 129 73.738281 " clip-rule="nonzero"/></clipPath><clipPath id="e8fdc965c5"><path d="M 251 138 L 289.867188 138 L 289.867188 177 L 251 177 Z M 251 138 " clip-rule="nonzero"/></clipPath><clipPath id="da8309f167"><path d="M 253 140 L 289.867188 140 L 289.867188 177 L 253 177 Z M 253 140 " clip-rule="nonzero"/></clipPath><clipPath id="64694a8f66"><path d="M 85.117188 251 L 123 251 L 123 290 L 85.117188 290 Z M 85.117188 251 " clip-rule="nonzero"/></clipPath><clipPath id="06780ad630"><path d="M 9.730469 9.730469 L 365.230469 9.730469 L 365.230469 365.230469 L 9.730469 365.230469 Z M 9.730469 9.730469 " clip-rule="nonzero"/></clipPath></defs><g clip-path="url(#83b2b2d019)"><path fill="#633072" d="M 359.15625 187.496094 C 359.15625 190.304688 359.085938 193.113281 358.949219 195.921875 C 358.8125 198.726562 358.605469 201.527344 358.328125 204.324219 C 358.054688 207.117188 357.710938 209.90625 357.296875 212.683594 C 356.886719 215.464844 356.40625 218.230469 355.859375 220.984375 C 355.308594 223.742188 354.695312 226.480469 354.011719 229.207031 C 353.328125 231.933594 352.582031 234.640625 351.765625 237.328125 C 350.949219 240.015625 350.070312 242.683594 349.121094 245.328125 C 348.175781 247.972656 347.164062 250.59375 346.089844 253.1875 C 345.015625 255.785156 343.875 258.351562 342.675781 260.890625 C 341.472656 263.429688 340.210938 265.9375 338.886719 268.417969 C 337.5625 270.894531 336.179688 273.339844 334.734375 275.746094 C 333.289062 278.15625 331.789062 280.53125 330.226562 282.867188 C 328.664062 285.203125 327.046875 287.496094 325.375 289.753906 C 323.703125 292.011719 321.972656 294.226562 320.191406 296.398438 C 318.410156 298.566406 316.574219 300.695312 314.6875 302.777344 C 312.800781 304.859375 310.863281 306.890625 308.878906 308.878906 C 306.890625 310.863281 304.859375 312.800781 302.777344 314.6875 C 300.695312 316.574219 298.566406 318.410156 296.398438 320.191406 C 294.226562 321.972656 292.011719 323.703125 289.753906 325.375 C 287.496094 327.046875 285.203125 328.664062 282.867188 330.226562 C 280.53125 331.789062 278.15625 333.289062 275.746094 334.734375 C 273.339844 336.179688 270.894531 337.5625 268.417969 338.886719 C 265.9375 340.210938 263.429688 341.472656 260.890625 342.675781 C 258.351562 343.875 255.785156 345.015625 253.1875 346.089844 C 250.59375 347.164062 247.972656 348.175781 245.328125 349.121094 C 242.683594 350.070312 240.015625 350.949219 237.328125 351.765625 C 234.640625 352.582031 231.933594 353.328125 229.207031 354.011719 C 226.480469 354.695312 223.742188 355.308594 220.984375 355.859375 C 218.230469 356.40625 215.464844 356.886719 212.683594 357.296875 C 209.90625 357.710938 207.117188 358.054688 204.324219 358.328125 C 201.527344 358.605469 198.726562 358.8125 195.921875 358.949219 C 193.113281 359.085938 190.304688 359.15625 187.496094 359.15625 C 184.6875 359.15625 181.878906 359.085938 179.074219 358.949219 C 176.269531 358.8125 173.46875 358.605469 170.671875 358.328125 C 167.875 358.054688 165.089844 357.710938 162.308594 357.296875 C 159.53125 356.886719 156.761719 356.40625 154.007812 355.859375 C 151.253906 355.308594 148.511719 354.695312 145.789062 354.011719 C 143.0625 353.328125 140.355469 352.582031 137.667969 351.765625 C 134.980469 350.949219 132.3125 350.070312 129.667969 349.121094 C 127.023438 348.175781 124.402344 347.164062 121.804688 346.089844 C 119.210938 345.015625 116.644531 343.875 114.101562 342.675781 C 111.5625 341.472656 109.054688 340.210938 106.578125 338.886719 C 104.101562 337.5625 101.65625 336.179688 99.246094 334.734375 C 96.835938 333.289062 94.464844 331.789062 92.128906 330.226562 C 89.792969 328.664062 87.496094 327.046875 85.238281 325.375 C 82.984375 323.703125 80.769531 321.972656 78.597656 320.191406 C 76.425781 318.410156 74.300781 316.574219 72.21875 314.6875 C 70.136719 312.800781 68.101562 310.863281 66.117188 308.878906 C 64.128906 306.890625 62.191406 304.859375 60.304688 302.777344 C 58.417969 300.695312 56.585938 298.566406 54.800781 296.398438 C 53.019531 294.226562 51.292969 292.011719 49.617188 289.753906 C 47.945312 287.496094 46.328125 285.203125 44.765625 282.867188 C 43.207031 280.53125 41.703125 278.15625 40.257812 275.746094 C 38.816406 273.339844 37.429688 270.894531 36.105469 268.417969 C 34.78125 265.9375 33.519531 263.429688 32.320312 260.890625 C 31.117188 258.351562 29.980469 255.785156 28.90625 253.1875 C 27.828125 250.59375 26.820312 247.972656 25.871094 245.328125 C 24.925781 242.683594 24.042969 240.015625 23.230469 237.328125 C 22.414062 234.640625 21.664062 231.933594 20.980469 229.207031 C 20.300781 226.480469 19.683594 223.742188 19.136719 220.984375 C 18.585938 218.230469 18.109375 215.464844 17.695312 212.683594 C 17.285156 209.90625 16.941406 207.117188 16.664062 204.324219 C 16.390625 201.527344 16.183594 198.726562 16.042969 195.921875 C 15.90625 193.113281 15.835938 190.304688 15.835938 187.496094 C 15.835938 184.6875 15.90625 181.878906 16.042969 179.074219 C 16.183594 176.269531 16.390625 173.46875 16.664062 170.671875 C 16.941406 167.875 17.285156 165.089844 17.695312 162.308594 C 18.109375 159.53125 18.585938 156.761719 19.136719 154.007812 C 19.683594 151.253906 20.300781 148.511719 20.980469 145.789062 C 21.664062 143.0625 22.414062 140.355469 23.230469 137.667969 C 24.042969 134.980469 24.925781 132.3125 25.871094 129.667969 C 26.820312 127.023438 27.828125 124.402344 28.90625 121.804688 C 29.980469 119.210938 31.117188 116.644531 32.320312 114.101562 C 33.519531 111.5625 34.78125 109.054688 36.105469 106.578125 C 37.429688 104.101562 38.816406 101.65625 40.257812 99.246094 C 41.703125 96.835938 43.207031 94.464844 44.765625 92.128906 C 46.328125 89.792969 47.945312 87.496094 49.617188 85.238281 C 51.292969 82.984375 53.019531 80.769531 54.800781 78.597656 C 56.585938 76.425781 58.417969 74.300781 60.304688 72.21875 C 62.191406 70.136719 64.128906 68.101562 66.117188 66.117188 C 68.101562 64.128906 70.136719 62.191406 72.21875 60.304688 C 74.300781 58.417969 76.425781 56.585938 78.597656 54.800781 C 80.769531 53.019531 82.984375 51.292969 85.238281 49.617188 C 87.496094 47.945312 89.792969 46.328125 92.128906 44.765625 C 94.464844 43.207031 96.835938 41.703125 99.246094 40.257812 C 101.65625 38.816406 104.101562 37.429688 106.578125 36.105469 C 109.054688 34.78125 111.5625 33.519531 114.101562 32.320312 C 116.644531 31.117188 119.210938 29.980469 121.804688 28.90625 C 124.402344 27.828125 127.023438 26.820312 129.667969 25.871094 C 132.3125 24.925781 134.980469 24.042969 137.667969 23.230469 C 140.355469 22.414062 143.0625 21.664062 145.789062 20.980469 C 148.511719 20.300781 151.253906 19.683594 154.007812 19.136719 C 156.761719 18.585938 159.53125 18.109375 162.308594 17.695312 C 165.089844 17.285156 167.875 16.941406 170.671875 16.664062 C 173.46875 16.390625 176.269531 16.183594 179.074219 16.042969 C 181.878906 15.90625 184.6875 15.835938 187.496094 15.835938 C 190.304688 15.835938 193.113281 15.90625 195.921875 16.042969 C 198.726562 16.183594 201.527344 16.390625 204.324219 16.664062 C 207.117188 16.941406 209.90625 17.285156 212.683594 17.695312 C 215.464844 18.109375 218.230469 18.585938 220.984375 19.136719 C 223.742188 19.683594 226.480469 20.300781 229.207031 20.980469 C 231.933594 21.664062 234.640625 22.414062 237.328125 23.230469 C 240.015625 24.042969 242.683594 24.925781 245.328125 25.871094 C 247.972656 26.820312 250.59375 27.828125 253.1875 28.90625 C 255.785156 29.980469 258.351562 31.117188 260.890625 32.320312 C 263.429688 33.519531 265.9375 34.78125 268.417969 36.105469 C 270.894531 37.429688 273.339844 38.816406 275.746094 40.257812 C 278.15625 41.703125 280.53125 43.207031 282.867188 44.765625 C 285.203125 46.328125 287.496094 47.945312 289.753906 49.617188 C 292.011719 51.292969 294.226562 53.019531 296.398438 54.800781 C 298.566406 56.585938 300.695312 58.417969 302.777344 60.304688 C 304.859375 62.191406 306.890625 64.128906 308.878906 66.117188 C 310.863281 68.101562 312.800781 70.136719 314.6875 72.21875 C 316.574219 74.300781 318.410156 76.425781 320.191406 78.597656 C 321.972656 80.769531 323.703125 82.984375 325.375 85.238281 C 327.046875 87.496094 328.664062 89.792969 330.226562 92.128906 C 331.789062 94.464844 333.289062 96.835938 334.734375 99.246094 C 336.179688 101.65625 337.5625 104.101562 338.886719 106.578125 C 340.210938 109.054688 341.472656 111.5625 342.675781 114.101562 C 343.875 116.644531 345.015625 119.210938 346.089844 121.804688 C 347.164062 124.402344 348.175781 127.023438 349.121094 129.667969 C 350.070312 132.3125 350.949219 134.980469 351.765625 137.667969 C 352.582031 140.355469 353.328125 143.0625 354.011719 145.789062 C 354.695312 148.511719 355.308594 151.253906 355.859375 154.007812 C 356.40625 156.761719 356.886719 159.53125 357.296875 162.308594 C 357.710938 165.089844 358.054688 167.875 358.328125 170.671875 C 358.605469 173.46875 358.8125 176.269531 358.949219 179.074219 C 359.085938 181.878906 359.15625 184.6875 359.15625 187.496094 Z M 359.15625 187.496094 " fill-opacity="1" fill-rule="nonzero"/></g><path fill="#231f20" d="M 187.5 0 C 83.921875 0 0 83.996094 0 187.5 C 0 291.003906 83.921875 375 187.5 375 C 291.078125 375 375 291.003906 375 187.5 C 375 83.996094 291.078125 0 187.5 0 Z M 187.5 363.128906 C 90.5 363.128906 11.871094 284.5 11.871094 187.5 C 11.871094 90.5 90.5 11.871094 187.5 11.871094 C 284.5 11.871094 363.128906 90.5 363.128906 187.5 C 363.128906 284.5 284.5 363.128906 187.5 363.128906 Z M 187.5 363.128906 " fill-opacity="1" fill-rule="nonzero"/><g clip-path="url(#ee55f986d3)"><path fill="#9e443b" d="M 227.195312 251.097656 C 226.308594 250.210938 225.003906 249.914062 223.761719 250.210938 L 201.425781 255.65625 C 200.238281 255.953125 199.234375 256.839844 198.757812 258.023438 C 195.261719 267.847656 194.316406 280.511719 194.316406 285.835938 C 194.316406 291.519531 197.75 300.988281 220.855469 300.988281 C 243.960938 300.988281 247.398438 291.519531 247.398438 285.835938 C 247.398438 278.023438 237.03125 260.152344 227.195312 251.097656 Z M 227.195312 251.097656 " fill-opacity="1" fill-rule="nonzero"/></g><g clip-path="url(#078c0eba84)"><path fill="#9e443b" d="M 175.179688 259.445312 C 174.765625 258.261719 173.816406 257.371094 172.632812 257.015625 L 149.882812 250.269531 C 148.636719 249.855469 147.214844 250.210938 146.269531 251.097656 C 136.433594 260.152344 126.066406 278.023438 126.066406 285.835938 C 126.066406 291.519531 129.5 300.988281 152.605469 300.988281 C 175.710938 300.988281 179.148438 291.519531 179.148438 285.835938 C 179.148438 280.925781 178.320312 269.089844 175.179688 259.445312 Z M 175.179688 259.445312 " fill-opacity="1" fill-rule="nonzero"/></g><g clip-path="url(#8ad7c6eae0)"><path fill="#843124" d="M 175.179688 259.445312 C 174.765625 258.261719 173.816406 257.371094 172.632812 257.015625 L 157.523438 252.519531 C 158.472656 254.234375 159.421875 256.011719 160.191406 257.964844 C 176.128906 298.203125 138.566406 290.511719 126.125 287.019531 C 126.597656 292.703125 131.042969 300.988281 152.605469 300.988281 C 175.710938 300.988281 179.148438 291.519531 179.148438 285.835938 C 179.148438 280.925781 178.320312 269.089844 175.179688 259.445312 Z M 175.179688 259.445312 " fill-opacity="1" fill-rule="nonzero"/></g><path fill="#9e443b" d="M 277.140625 207.898438 C 268.429688 188.371094 238.984375 174.9375 222.160156 168.722656 C 220.855469 168.191406 219.375 168.488281 218.308594 169.433594 C 217.242188 170.441406 216.828125 171.859375 217.183594 173.222656 L 232.351562 229.382812 C 232.585938 230.210938 233.0625 230.917969 233.773438 231.453125 C 244.4375 239.203125 253.203125 243.050781 260.492188 243.050781 C 262.269531 243.050781 263.929688 242.8125 265.527344 242.339844 C 270.917969 240.800781 274.886719 236.835938 277.4375 230.445312 C 280.515625 222.871094 280.398438 215.238281 277.140625 207.898438 Z M 277.140625 207.898438 " fill-opacity="1" fill-rule="nonzero"/><path fill="#843124" d="M 277.140625 207.898438 C 276.132812 205.652344 274.828125 203.460938 273.289062 201.390625 C 270.03125 223.523438 256.820312 233.347656 242.894531 237.371094 C 249.589844 241.15625 255.398438 243.050781 260.492188 243.050781 C 262.269531 243.050781 263.929688 242.8125 265.527344 242.339844 C 270.917969 240.800781 274.886719 236.835938 277.4375 230.445312 C 280.515625 222.871094 280.398438 215.238281 277.140625 207.898438 Z M 277.140625 207.898438 " fill-opacity="1" fill-rule="nonzero"/><path fill="#9e443b" d="M 155.273438 169.433594 C 154.265625 168.488281 152.726562 168.191406 151.421875 168.664062 C 134.597656 174.9375 105.035156 188.3125 96.324219 207.898438 C 93.066406 215.238281 92.949219 222.871094 96.027344 230.445312 C 98.574219 236.835938 102.546875 240.800781 107.9375 242.339844 C 109.535156 242.8125 111.195312 243.050781 112.972656 243.050781 C 120.257812 243.050781 129.027344 239.203125 139.691406 231.453125 C 140.402344 230.917969 140.875 230.210938 141.113281 229.382812 L 156.398438 173.222656 C 156.753906 171.859375 156.339844 170.378906 155.273438 169.433594 Z M 155.273438 169.433594 " fill-opacity="1" fill-rule="nonzero"/><path fill="#843124" d="M 155.273438 169.433594 C 154.265625 168.488281 152.726562 168.191406 151.421875 168.664062 C 144.667969 171.148438 135.898438 174.820312 127.25 179.554688 C 129.855469 223.464844 112.792969 233.9375 98.515625 235.238281 C 100.945312 238.847656 104.085938 241.277344 107.9375 242.339844 C 109.535156 242.8125 111.195312 243.050781 112.972656 243.050781 C 120.257812 243.050781 129.027344 239.203125 139.691406 231.453125 C 140.402344 230.917969 140.875 230.210938 141.113281 229.382812 L 156.398438 173.222656 C 156.753906 171.859375 156.339844 170.378906 155.273438 169.433594 Z M 155.273438 169.433594 " fill-opacity="1" fill-rule="nonzero"/><g clip-path="url(#d23a427e22)"><path fill="#843124" d="M 240.761719 268.496094 C 236.972656 290.925781 208.296875 288.914062 194.316406 286.546875 C 194.613281 292.226562 198.699219 300.988281 220.855469 300.988281 C 243.960938 300.988281 247.398438 291.519531 247.398438 285.835938 C 247.398438 281.871094 244.671875 275.242188 240.761719 268.496094 Z M 240.761719 268.496094 " fill-opacity="1" fill-rule="nonzero"/></g><path fill="#9e443b" d="M 219.671875 163.277344 C 218.960938 162.628906 218.011719 162.273438 217.066406 162.273438 L 156.398438 162.273438 C 155.449219 162.273438 154.503906 162.628906 153.792969 163.277344 C 138.804688 177.1875 129.855469 198.902344 129.855469 221.449219 C 129.855469 254.117188 148.992188 270.6875 186.730469 270.6875 C 224.472656 270.6875 243.605469 254.117188 243.605469 221.449219 C 243.605469 198.902344 234.660156 177.1875 219.671875 163.277344 Z M 219.671875 163.277344 " fill-opacity="1" fill-rule="nonzero"/><g clip-path="url(#c46a89cbd0)"><path fill="#9e443b" d="M 179.148438 73.742188 L 194.316406 73.742188 C 221.566406 73.742188 243.605469 95.757812 243.605469 122.980469 L 243.605469 134.339844 C 243.605469 161.5625 221.566406 183.578125 194.316406 183.578125 L 179.148438 183.578125 C 151.894531 183.578125 129.855469 161.5625 129.855469 134.339844 L 129.855469 122.980469 C 129.855469 95.757812 151.894531 73.742188 179.148438 73.742188 Z M 179.148438 73.742188 " fill-opacity="1" fill-rule="nonzero"/></g><path fill="#843124" d="M 218.785156 80.3125 C 236.617188 177.660156 170.734375 171.03125 138.742188 162.511719 C 147.691406 175.234375 162.441406 183.578125 179.148438 183.578125 L 194.316406 183.578125 C 221.507812 183.578125 243.605469 161.503906 243.605469 134.339844 L 243.605469 122.980469 C 243.605469 104.753906 233.59375 88.773438 218.785156 80.3125 Z M 218.785156 80.3125 " fill-opacity="1" fill-rule="nonzero"/><path stroke-linecap="round" transform="matrix(3.791667, 0, 0, 3.787391, 65.398975, 66.168058)" fill="none" stroke-linejoin="round" d="M 29.999859 13.999965 C 29.999859 16.202998 28.203156 17.999667 25.999516 17.999667 C 23.796906 17.999667 22.000202 16.202998 22.000202 13.999965 C 22.000202 11.796932 23.796906 10.000263 25.999516 10.000263 C 28.203156 10.000263 29.999859 11.796932 29.999859 13.999965 Z M 29.999859 13.999965 " stroke="#c69c6d" stroke-width="2" stroke-opacity="1" stroke-miterlimit="4"/><path fill="#eaeaea" d="M 182.941406 119.191406 C 182.941406 129.667969 174.46875 138.128906 163.980469 138.128906 C 153.496094 138.128906 145.023438 129.667969 145.023438 119.191406 C 145.023438 108.71875 153.496094 100.253906 163.980469 100.253906 C 174.46875 100.253906 182.941406 108.71875 182.941406 119.191406 Z M 182.941406 119.191406 " fill-opacity="1" fill-rule="nonzero"/><path fill="#eaeaea" d="M 228.441406 119.191406 C 228.441406 129.667969 219.96875 138.128906 209.480469 138.128906 C 198.996094 138.128906 190.523438 129.667969 190.523438 119.191406 C 190.523438 108.71875 198.996094 100.253906 209.480469 100.253906 C 219.96875 100.253906 228.441406 108.71875 228.441406 119.191406 Z M 228.441406 119.191406 " fill-opacity="1" fill-rule="nonzero"/><path fill="#d9d2d2" d="M 220.855469 119.191406 C 220.855469 125.464844 215.761719 130.554688 209.480469 130.554688 C 203.203125 130.554688 198.105469 125.464844 198.105469 119.191406 C 198.105469 112.917969 203.203125 107.828125 209.480469 107.828125 C 215.761719 107.828125 220.855469 112.917969 220.855469 119.191406 Z M 220.855469 119.191406 " fill-opacity="1" fill-rule="nonzero"/><path fill="#d9d2d2" d="M 175.355469 119.191406 C 175.355469 125.464844 170.261719 130.554688 163.980469 130.554688 C 157.703125 130.554688 152.605469 125.464844 152.605469 119.191406 C 152.605469 112.917969 157.703125 107.828125 163.980469 107.828125 C 170.261719 107.828125 175.355469 112.917969 175.355469 119.191406 Z M 175.355469 119.191406 " fill-opacity="1" fill-rule="nonzero"/><path fill="#262525" d="M 209.480469 153.277344 L 205.691406 153.277344 L 205.691406 149.492188 C 205.691406 147.417969 203.972656 145.703125 201.898438 145.703125 C 199.824219 145.703125 198.105469 147.417969 198.105469 149.492188 L 198.105469 153.277344 L 190.523438 153.277344 L 190.523438 149.492188 C 190.523438 147.417969 188.804688 145.703125 186.730469 145.703125 C 184.660156 145.703125 182.941406 147.417969 182.941406 149.492188 L 182.941406 153.277344 L 175.355469 153.277344 L 175.355469 149.492188 C 175.355469 147.417969 173.640625 145.703125 171.566406 145.703125 C 169.492188 145.703125 167.773438 147.417969 167.773438 149.492188 L 167.773438 153.277344 L 163.980469 153.277344 C 161.910156 153.277344 160.191406 154.996094 160.191406 157.066406 C 160.191406 159.136719 161.910156 160.851562 163.980469 160.851562 L 167.773438 160.851562 L 167.773438 164.640625 C 167.773438 166.710938 169.492188 168.425781 171.566406 168.425781 C 173.640625 168.425781 175.355469 166.710938 175.355469 164.640625 L 175.355469 160.851562 L 182.941406 160.851562 L 182.941406 164.640625 C 182.941406 166.710938 184.660156 168.425781 186.730469 168.425781 C 188.804688 168.425781 190.523438 166.710938 190.523438 164.640625 L 190.523438 160.851562 L 198.105469 160.851562 L 198.105469 164.640625 C 198.105469 166.710938 199.824219 168.425781 201.898438 168.425781 C 203.972656 168.425781 205.691406 166.710938 205.691406 164.640625 L 205.691406 160.851562 L 209.480469 160.851562 C 211.554688 160.851562 213.273438 159.136719 213.273438 157.066406 C 213.273438 154.996094 211.554688 153.277344 209.480469 153.277344 Z M 209.480469 153.277344 " fill-opacity="1" fill-rule="nonzero"/><path fill="#d9d2d2" d="M 254.980469 213.875 C 254.625 213.875 254.269531 213.816406 253.914062 213.757812 C 251.902344 213.167969 250.777344 211.035156 251.308594 209.023438 L 266.476562 156 C 267.066406 153.988281 269.199219 152.863281 271.214844 153.394531 C 273.230469 153.988281 274.355469 156.117188 273.820312 158.128906 L 258.65625 211.152344 C 258.179688 212.8125 256.640625 213.875 254.980469 213.875 Z M 254.980469 213.875 " fill-opacity="1" fill-rule="nonzero"/><path fill="#d9d2d2" d="M 152.605469 282.050781 C 152.429688 282.050781 152.25 282.050781 152.015625 281.988281 L 102.722656 274.414062 C 100.648438 274.121094 99.226562 272.167969 99.582031 270.09375 C 99.878906 268.023438 101.835938 266.605469 103.90625 266.960938 L 153.199219 274.535156 C 155.273438 274.828125 156.695312 276.78125 156.339844 278.855469 C 156.042969 280.6875 154.445312 282.050781 152.605469 282.050781 Z M 152.605469 282.050781 " fill-opacity="1" fill-rule="nonzero"/><path fill="#262525" d="M 175.355469 232.8125 L 171.566406 232.8125 L 171.566406 225.238281 L 175.355469 225.238281 C 177.429688 225.238281 179.148438 223.523438 179.148438 221.449219 C 179.148438 219.378906 177.429688 217.664062 175.355469 217.664062 L 171.566406 217.664062 L 171.566406 213.875 C 171.566406 211.804688 169.847656 210.089844 167.773438 210.089844 C 165.699219 210.089844 163.980469 211.804688 163.980469 213.875 L 163.980469 217.664062 L 156.398438 217.664062 L 156.398438 213.875 C 156.398438 211.804688 154.679688 210.089844 152.605469 210.089844 C 150.535156 210.089844 148.816406 211.804688 148.816406 213.875 L 148.816406 217.664062 L 145.023438 217.664062 C 142.949219 217.664062 141.230469 219.378906 141.230469 221.449219 C 141.230469 223.523438 142.949219 225.238281 145.023438 225.238281 L 148.816406 225.238281 L 148.816406 232.8125 L 145.023438 232.8125 C 142.949219 232.8125 141.230469 234.53125 141.230469 236.601562 C 141.230469 238.671875 142.949219 240.386719 145.023438 240.386719 L 148.816406 240.386719 L 148.816406 244.175781 C 148.816406 246.246094 150.535156 247.960938 152.605469 247.960938 C 154.679688 247.960938 156.398438 246.246094 156.398438 244.175781 L 156.398438 240.386719 L 163.980469 240.386719 L 163.980469 244.175781 C 163.980469 246.246094 165.699219 247.960938 167.773438 247.960938 C 169.847656 247.960938 171.566406 246.246094 171.566406 244.175781 L 171.566406 240.386719 L 175.355469 240.386719 C 177.429688 240.386719 179.148438 238.671875 179.148438 236.601562 C 179.148438 234.53125 177.429688 232.8125 175.355469 232.8125 Z M 156.398438 232.8125 L 156.398438 225.238281 L 163.980469 225.238281 L 163.980469 232.8125 Z M 156.398438 232.8125 " fill-opacity="1" fill-rule="nonzero"/><g clip-path="url(#e8fdc965c5)"><path fill="#d00101" d="M 289.105469 157.066406 C 289.105469 167.539062 280.636719 176.003906 270.148438 176.003906 C 259.664062 176.003906 251.191406 167.539062 251.191406 157.066406 C 251.191406 146.589844 259.664062 138.128906 270.148438 138.128906 C 280.636719 138.128906 289.105469 146.589844 289.105469 157.066406 Z M 289.105469 157.066406 " fill-opacity="1" fill-rule="nonzero"/></g><path fill="#262525" d="M 169.3125 119.191406 L 174.230469 114.28125 C 175.710938 112.800781 175.710938 110.433594 174.230469 108.953125 C 172.75 107.472656 170.378906 107.472656 168.898438 108.953125 L 163.980469 113.867188 L 159.066406 108.953125 C 157.582031 107.472656 155.214844 107.472656 153.734375 108.953125 C 152.25 110.433594 152.25 112.800781 153.734375 114.28125 L 158.648438 119.191406 L 153.734375 124.101562 C 152.25 125.582031 152.25 127.949219 153.734375 129.429688 C 154.445312 130.199219 155.449219 130.554688 156.398438 130.554688 C 157.347656 130.554688 158.355469 130.199219 159.066406 129.429688 L 163.980469 124.515625 L 168.898438 129.429688 C 169.609375 130.199219 170.617188 130.554688 171.566406 130.554688 C 172.511719 130.554688 173.519531 130.199219 174.230469 129.429688 C 175.710938 127.949219 175.710938 125.582031 174.230469 124.101562 Z M 169.3125 119.191406 " fill-opacity="1" fill-rule="nonzero"/><path fill="#262525" d="M 214.8125 119.191406 L 219.730469 114.28125 C 221.210938 112.800781 221.210938 110.433594 219.730469 108.953125 C 218.25 107.472656 215.878906 107.472656 214.398438 108.953125 L 209.480469 113.867188 L 204.566406 108.953125 C 203.082031 107.472656 200.714844 107.472656 199.234375 108.953125 C 197.75 110.433594 197.75 112.800781 199.234375 114.28125 L 204.148438 119.191406 L 199.234375 124.101562 C 197.75 125.582031 197.75 127.949219 199.234375 129.429688 C 199.945312 130.199219 200.949219 130.554688 201.898438 130.554688 C 202.847656 130.554688 203.855469 130.199219 204.566406 129.429688 L 209.480469 124.515625 L 214.398438 129.429688 C 215.109375 130.199219 216.117188 130.554688 217.066406 130.554688 C 218.011719 130.554688 219.019531 130.199219 219.730469 129.429688 C 221.210938 127.949219 221.210938 125.582031 219.730469 124.101562 Z M 214.8125 119.191406 " fill-opacity="1" fill-rule="nonzero"/><g clip-path="url(#da8309f167)"><path fill="#9f0309" d="M 279.152344 140.496094 C 280.636719 143.21875 281.523438 146.234375 281.523438 149.492188 C 281.523438 159.90625 272.992188 168.425781 262.566406 168.425781 C 259.308594 168.425781 256.285156 167.539062 253.558594 166.058594 C 256.757812 171.917969 262.980469 176.003906 270.148438 176.003906 C 280.574219 176.003906 289.105469 167.480469 289.105469 157.066406 C 289.105469 149.90625 285.019531 143.691406 279.152344 140.496094 Z M 279.152344 140.496094 " fill-opacity="1" fill-rule="nonzero"/></g><g clip-path="url(#64694a8f66)"><path fill="#d00101" d="M 122.273438 270.6875 C 122.273438 281.160156 113.800781 289.625 103.316406 289.625 C 92.828125 289.625 84.355469 281.160156 84.355469 270.6875 C 84.355469 260.210938 92.828125 251.75 103.316406 251.75 C 113.800781 251.75 122.273438 260.210938 122.273438 270.6875 Z M 122.273438 270.6875 " fill-opacity="1" fill-rule="nonzero"/></g><path fill="#9f0309" d="M 112.320312 254.117188 C 113.800781 256.839844 114.691406 259.859375 114.691406 263.113281 C 114.691406 273.527344 106.160156 282.050781 95.730469 282.050781 C 92.472656 282.050781 89.453125 281.160156 86.726562 279.683594 C 89.925781 285.539062 96.148438 289.625 103.316406 289.625 C 113.742188 289.625 122.273438 281.101562 122.273438 270.6875 C 122.273438 263.527344 118.1875 257.3125 112.320312 254.117188 Z M 112.320312 254.117188 " fill-opacity="1" fill-rule="nonzero"/><path fill="#843124" d="M 226.128906 170.378906 C 249.648438 242.460938 163.269531 249.621094 137.144531 250.09375 C 145.851562 263.761719 162.382812 270.6875 186.730469 270.6875 C 224.472656 270.6875 243.605469 254.117188 243.605469 221.449219 C 243.605469 202.453125 237.148438 183.992188 226.128906 170.378906 Z M 226.128906 170.378906 " fill-opacity="1" fill-rule="nonzero"/><path fill="#262525" d="M 235.609375 215.949219 C 236.558594 217.839844 235.785156 220.148438 233.949219 221.035156 C 233.359375 221.332031 232.824219 221.449219 232.230469 221.449219 C 230.808594 221.449219 229.507812 220.683594 228.855469 219.378906 L 226.1875 213.996094 L 218.605469 217.308594 C 218.074219 217.546875 217.597656 217.664062 217.066406 217.664062 C 215.644531 217.664062 214.222656 216.835938 213.628906 215.414062 C 212.742188 213.519531 213.628906 211.273438 215.523438 210.445312 L 222.753906 207.1875 L 218.605469 198.84375 L 211.023438 202.160156 C 210.488281 202.394531 210.015625 202.515625 209.480469 202.515625 C 208.058594 202.515625 206.636719 201.6875 206.046875 200.265625 C 205.15625 198.371094 206.046875 196.121094 207.941406 195.292969 L 215.167969 192.039062 L 213.6875 189.082031 C 212.742188 187.1875 213.511719 184.878906 215.347656 183.992188 C 217.242188 183.042969 219.554688 183.8125 220.441406 185.648438 L 222.101562 189.023438 L 234.601562 183.398438 C 235.785156 185.648438 236.792969 187.957031 237.742188 190.382812 L 225.539062 195.769531 L 229.683594 204.171875 L 240.644531 199.257812 C 241.355469 201.746094 241.890625 204.230469 242.304688 206.773438 L 233.121094 210.917969 Z M 235.609375 215.949219 " fill-opacity="1" fill-rule="nonzero"/><g clip-path="url(#06780ad630)"><path fill="#6e3580" d="M 187.496094 9.730469 C 89.292969 9.730469 9.730469 89.367188 9.730469 187.496094 C 9.730469 285.625 89.292969 365.265625 187.496094 365.265625 C 285.699219 365.265625 365.265625 285.625 365.265625 187.496094 C 365.265625 89.367188 285.699219 9.730469 187.496094 9.730469 Z M 187.496094 354.011719 C 95.53125 354.011719 20.984375 279.460938 20.984375 187.496094 C 20.984375 95.53125 95.53125 20.984375 187.496094 20.984375 C 279.460938 20.984375 354.011719 95.53125 354.011719 187.496094 C 354.011719 279.460938 279.460938 354.011719 187.496094 354.011719 Z M 187.496094 354.011719 " fill-opacity="1" fill-rule="nonzero"/></g></svg>