<svg xmlns="http://www.w3.org/2000/svg" xmlns:xlink="http://www.w3.org/1999/xlink" width="500" zoomAndPan="magnify" viewBox="0 0 375 374.999991" height="500" preserveAspectRatio="xMidYMid meet" version="1.0"><defs><clipPath id="86c39ca9e1"><path d="M 16.148438 16.148438 L 358.898438 16.148438 L 358.898438 358.898438 L 16.148438 358.898438 Z M 16.148438 16.148438 " clip-rule="nonzero"/></clipPath><clipPath id="628217836c"><path d="M 61.789062 75.617188 L 313.039062 75.617188 L 313.039062 299.117188 L 61.789062 299.117188 Z M 61.789062 75.617188 " clip-rule="nonzero"/></clipPath><clipPath id="75adaac0a0"><path d="M 10.710938 10.710938 L 363.960938 10.710938 L 363.960938 363.960938 L 10.710938 363.960938 Z M 10.710938 10.710938 " clip-rule="nonzero"/></clipPath></defs><g clip-path="url(#86c39ca9e1)"><path fill="#8e99a2" d="M 358.84375 187.496094 C 358.84375 190.300781 358.777344 193.101562 358.640625 195.90625 C 358.5 198.707031 358.296875 201.5 358.019531 204.292969 C 357.746094 207.082031 357.402344 209.863281 356.992188 212.640625 C 356.578125 215.414062 356.101562 218.175781 355.554688 220.925781 C 355.007812 223.675781 354.390625 226.410156 353.710938 229.132812 C 353.027344 231.851562 352.28125 234.554688 351.46875 237.238281 C 350.652344 239.921875 349.773438 242.582031 348.828125 245.222656 C 347.882812 247.863281 346.875 250.476562 345.800781 253.070312 C 344.730469 255.660156 343.59375 258.222656 342.394531 260.757812 C 341.195312 263.292969 339.933594 265.796875 338.613281 268.269531 C 337.289062 270.742188 335.910156 273.183594 334.46875 275.585938 C 333.027344 277.992188 331.527344 280.363281 329.96875 282.691406 C 328.410156 285.023438 326.796875 287.316406 325.125 289.570312 C 323.453125 291.820312 321.730469 294.03125 319.953125 296.199219 C 318.171875 298.367188 316.339844 300.488281 314.457031 302.566406 C 312.574219 304.644531 310.640625 306.675781 308.660156 308.660156 C 306.675781 310.640625 304.644531 312.574219 302.566406 314.457031 C 300.488281 316.339844 298.367188 318.171875 296.199219 319.949219 C 294.03125 321.730469 291.820312 323.453125 289.570312 325.125 C 287.316406 326.796875 285.023438 328.410156 282.691406 329.96875 C 280.363281 331.527344 277.992188 333.027344 275.585938 334.46875 C 273.183594 335.910156 270.742188 337.289062 268.269531 338.613281 C 265.796875 339.933594 263.292969 341.195312 260.757812 342.394531 C 258.222656 343.59375 255.660156 344.730469 253.070312 345.800781 C 250.476562 346.875 247.863281 347.882812 245.222656 348.828125 C 242.582031 349.773438 239.921875 350.652344 237.238281 351.46875 C 234.554688 352.28125 231.851562 353.027344 229.132812 353.710938 C 226.410156 354.390625 223.675781 355.007812 220.925781 355.554688 C 218.175781 356.101562 215.414062 356.578125 212.640625 356.992188 C 209.863281 357.402344 207.082031 357.746094 204.292969 358.019531 C 201.5 358.296875 198.707031 358.5 195.90625 358.640625 C 193.101562 358.777344 190.300781 358.84375 187.496094 358.84375 C 184.691406 358.84375 181.890625 358.777344 179.089844 358.640625 C 176.289062 358.5 173.492188 358.296875 170.703125 358.019531 C 167.910156 357.746094 165.128906 357.402344 162.355469 356.992188 C 159.582031 356.578125 156.820312 356.101562 154.066406 355.554688 C 151.316406 355.007812 148.582031 354.390625 145.863281 353.710938 C 143.140625 353.027344 140.441406 352.28125 137.757812 351.46875 C 135.074219 350.652344 132.410156 349.773438 129.769531 348.828125 C 127.128906 347.882812 124.515625 346.875 121.925781 345.800781 C 119.332031 344.730469 116.769531 343.59375 114.234375 342.394531 C 111.699219 341.195312 109.195312 339.933594 106.722656 338.613281 C 104.25 337.289062 101.8125 335.910156 99.40625 334.46875 C 97 333.027344 94.632812 331.527344 92.300781 329.96875 C 89.96875 328.410156 87.675781 326.796875 85.425781 325.125 C 83.171875 323.453125 80.960938 321.730469 78.792969 319.953125 C 76.625 318.171875 74.503906 316.339844 72.425781 314.457031 C 70.347656 312.574219 68.316406 310.640625 66.335938 308.660156 C 64.351562 306.675781 62.417969 304.644531 60.535156 302.566406 C 58.652344 300.488281 56.820312 298.367188 55.042969 296.199219 C 53.261719 294.03125 51.539062 291.820312 49.867188 289.570312 C 48.199219 287.316406 46.582031 285.023438 45.023438 282.691406 C 43.46875 280.363281 41.96875 277.992188 40.527344 275.585938 C 39.085938 273.183594 37.703125 270.742188 36.378906 268.269531 C 35.058594 265.796875 33.796875 263.292969 32.597656 260.757812 C 31.398438 258.222656 30.265625 255.660156 29.191406 253.070312 C 28.117188 250.476562 27.109375 247.863281 26.164062 245.222656 C 25.21875 242.582031 24.339844 239.921875 23.527344 237.238281 C 22.710938 234.554688 21.964844 231.851562 21.28125 229.132812 C 20.601562 226.410156 19.988281 223.675781 19.441406 220.925781 C 18.894531 218.175781 18.414062 215.414062 18.003906 212.640625 C 17.589844 209.863281 17.246094 207.082031 16.972656 204.292969 C 16.699219 201.5 16.492188 198.707031 16.355469 195.90625 C 16.214844 193.101562 16.148438 190.300781 16.148438 187.496094 C 16.148438 184.691406 16.214844 181.890625 16.355469 179.089844 C 16.492188 176.289062 16.699219 173.492188 16.972656 170.703125 C 17.246094 167.910156 17.589844 165.128906 18.003906 162.355469 C 18.414062 159.582031 18.894531 156.820312 19.441406 154.066406 C 19.988281 151.316406 20.601562 148.582031 21.28125 145.863281 C 21.964844 143.140625 22.710938 140.441406 23.527344 137.757812 C 24.339844 135.074219 25.21875 132.410156 26.164062 129.769531 C 27.109375 127.128906 28.117188 124.515625 29.191406 121.925781 C 30.265625 119.332031 31.398438 116.769531 32.597656 114.234375 C 33.796875 111.699219 35.058594 109.195312 36.378906 106.722656 C 37.703125 104.25 39.085938 101.8125 40.527344 99.40625 C 41.96875 97 43.46875 94.632812 45.023438 92.300781 C 46.582031 89.96875 48.199219 87.675781 49.867188 85.425781 C 51.539062 83.171875 53.261719 80.960938 55.042969 78.792969 C 56.820312 76.625 58.652344 74.503906 60.535156 72.425781 C 62.417969 70.347656 64.351562 68.316406 66.335938 66.335938 C 68.316406 64.351562 70.347656 62.417969 72.425781 60.535156 C 74.503906 58.652344 76.625 56.820312 78.792969 55.042969 C 80.960938 53.261719 83.171875 51.539062 85.425781 49.867188 C 87.675781 48.199219 89.96875 46.582031 92.300781 45.023438 C 94.632812 43.46875 97 41.96875 99.40625 40.527344 C 101.8125 39.085938 104.25 37.703125 106.722656 36.378906 C 109.195312 35.058594 111.699219 33.796875 114.234375 32.597656 C 116.769531 31.398438 119.332031 30.265625 121.925781 29.191406 C 124.515625 28.117188 127.128906 27.109375 129.769531 26.164062 C 132.410156 25.21875 135.074219 24.339844 137.757812 23.527344 C 140.441406 22.710938 143.140625 21.964844 145.863281 21.28125 C 148.582031 20.601562 151.316406 19.988281 154.066406 19.441406 C 156.820312 18.894531 159.582031 18.414062 162.355469 18.003906 C 165.128906 17.589844 167.910156 17.246094 170.703125 16.972656 C 173.492188 16.699219 176.289062 16.492188 179.089844 16.355469 C 181.890625 16.214844 184.691406 16.148438 187.496094 16.148438 C 190.300781 16.148438 193.101562 16.214844 195.90625 16.355469 C 198.707031 16.492188 201.5 16.699219 204.292969 16.972656 C 207.082031 17.246094 209.863281 17.589844 212.640625 18.003906 C 215.414062 18.414062 218.175781 18.894531 220.925781 19.441406 C 223.675781 19.988281 226.410156 20.601562 229.132812 21.28125 C 231.851562 21.964844 234.554688 22.710938 237.238281 23.527344 C 239.921875 24.339844 242.582031 25.21875 245.222656 26.164062 C 247.863281 27.109375 250.476562 28.117188 253.070312 29.191406 C 255.660156 30.265625 258.222656 31.398438 260.757812 32.597656 C 263.292969 33.796875 265.796875 35.058594 268.269531 36.378906 C 270.742188 37.703125 273.183594 39.085938 275.585938 40.527344 C 277.992188 41.96875 280.363281 43.46875 282.691406 45.023438 C 285.023438 46.582031 287.316406 48.199219 289.570312 49.867188 C 291.820312 51.539062 294.03125 53.261719 296.199219 55.042969 C 298.367188 56.820312 300.488281 58.652344 302.566406 60.535156 C 304.644531 62.417969 306.675781 64.351562 308.660156 66.335938 C 310.640625 68.316406 312.574219 70.347656 314.457031 72.425781 C 316.339844 74.503906 318.171875 76.625 319.949219 78.792969 C 321.730469 80.960938 323.453125 83.171875 325.125 85.425781 C 326.796875 87.675781 328.410156 89.96875 329.96875 92.300781 C 331.527344 94.632812 333.027344 97 334.46875 99.40625 C 335.910156 101.8125 337.289062 104.25 338.613281 106.722656 C 339.933594 109.195312 341.195312 111.699219 342.394531 114.234375 C 343.59375 116.769531 344.730469 119.332031 345.800781 121.925781 C 346.875 124.515625 347.882812 127.128906 348.828125 129.769531 C 349.773438 132.410156 350.652344 135.074219 351.46875 137.757812 C 352.28125 140.441406 353.027344 143.140625 353.710938 145.863281 C 354.390625 148.582031 355.007812 151.316406 355.554688 154.066406 C 356.101562 156.820312 356.578125 159.582031 356.992188 162.355469 C 357.402344 165.128906 357.746094 167.910156 358.019531 170.703125 C 358.296875 173.492188 358.5 176.289062 358.640625 179.089844 C 358.777344 181.890625 358.84375 184.691406 358.84375 187.496094 Z M 358.84375 187.496094 " fill-opacity="1" fill-rule="nonzero"/></g><path fill="#231f20" d="M 187.5 0 C 83.921875 0 0 83.996094 0 187.5 C 0 291.003906 83.921875 375 187.5 375 C 291.078125 375 375 291.003906 375 187.5 C 375 83.996094 291.078125 0 187.5 0 Z M 187.5 363.128906 C 90.5 363.128906 11.871094 284.5 11.871094 187.5 C 11.871094 90.5 90.5 11.871094 187.5 11.871094 C 284.5 11.871094 363.128906 90.5 363.128906 187.5 C 363.128906 284.5 284.5 363.128906 187.5 363.128906 Z M 187.5 363.128906 " fill-opacity="1" fill-rule="nonzero"/><g clip-path="url(#628217836c)"><path fill="#000000" d="M 195.375 294.09375 C 211.085938 282 223.851562 268.089844 233.421875 252.660156 L 272.117188 252.660156 C 253.542969 276.78125 225.570312 291.8125 195.375 294.09375 Z M 102.601562 252.660156 L 141.363281 252.660156 C 150.964844 268.105469 163.777344 282.019531 179.535156 294.109375 C 149.269531 291.878906 121.210938 276.832031 102.601562 252.660156 Z M 179.074219 80.925781 C 163.167969 92.929688 150.292969 106.855469 140.710938 122.414062 L 102.539062 122.414062 C 121.058594 98.316406 148.945312 83.277344 179.074219 80.925781 Z M 272.179688 122.414062 L 233.929688 122.414062 C 224.320312 106.839844 211.402344 92.910156 195.441406 80.90625 C 225.644531 83.207031 253.617188 98.265625 272.179688 122.414062 Z M 189.824219 252.660156 L 227.589844 252.660156 C 218 267.367188 205.328125 280.605469 189.824219 292.109375 Z M 184.894531 252.660156 L 184.894531 291.972656 C 169.433594 280.511719 156.78125 267.316406 147.203125 252.660156 Z M 184.894531 122.414062 L 146.53125 122.414062 C 156.1875 107.511719 169.070312 94.199219 184.894531 82.753906 Z M 189.824219 122.414062 L 189.824219 82.886719 C 205.609375 94.296875 218.457031 107.566406 228.101562 122.414062 Z M 259.324219 187.539062 C 252.539062 194.839844 222.648438 224.683594 187.496094 224.683594 C 152.34375 224.683594 122.453125 194.839844 115.667969 187.539062 C 122.453125 180.234375 152.34375 150.394531 187.496094 150.394531 C 222.648438 150.394531 252.539062 180.234375 259.324219 187.539062 Z M 304.484375 122.414062 L 278.300781 122.414062 C 272.386719 114.167969 265.460938 106.863281 257.753906 100.617188 C 257.75 100.617188 257.75 100.613281 257.746094 100.613281 C 256.894531 99.921875 256.035156 99.246094 255.164062 98.582031 C 255.148438 98.570312 255.136719 98.5625 255.121094 98.550781 C 254.261719 97.898438 253.394531 97.253906 252.519531 96.625 C 252.492188 96.605469 252.464844 96.589844 252.441406 96.570312 C 251.574219 95.953125 250.703125 95.34375 249.820312 94.75 C 249.777344 94.722656 249.734375 94.695312 249.691406 94.664062 C 248.824219 94.082031 247.949219 93.511719 247.070312 92.953125 C 247.011719 92.917969 246.953125 92.882812 246.898438 92.847656 C 246.027344 92.300781 245.152344 91.765625 244.269531 91.242188 C 244.191406 91.195312 244.109375 91.148438 244.027344 91.101562 C 243.164062 90.59375 242.296875 90.097656 241.421875 89.613281 C 241.320312 89.554688 241.21875 89.503906 241.113281 89.445312 C 240.257812 88.976562 239.398438 88.515625 238.53125 88.066406 C 238.402344 88.003906 238.273438 87.941406 238.148438 87.875 C 237.300781 87.441406 236.445312 87.015625 235.589844 86.605469 C 235.441406 86.535156 235.289062 86.464844 235.140625 86.394531 C 234.300781 85.996094 233.457031 85.609375 232.605469 85.230469 C 232.429688 85.152344 232.25 85.078125 232.074219 85 C 231.246094 84.640625 230.417969 84.28125 229.585938 83.941406 C 229.378906 83.855469 229.167969 83.777344 228.964844 83.695312 C 228.152344 83.371094 227.339844 83.046875 226.519531 82.742188 C 226.285156 82.652344 226.046875 82.570312 225.8125 82.484375 C 225.015625 82.195312 224.222656 81.90625 223.421875 81.628906 C 223.152344 81.539062 222.882812 81.457031 222.613281 81.367188 C 221.839844 81.109375 221.066406 80.851562 220.285156 80.609375 C 219.980469 80.515625 219.675781 80.429688 219.371094 80.339844 C 218.621094 80.117188 217.871094 79.890625 217.117188 79.683594 C 216.769531 79.585938 216.421875 79.5 216.074219 79.40625 C 215.355469 79.214844 214.636719 79.023438 213.914062 78.847656 C 213.535156 78.753906 213.152344 78.671875 212.773438 78.582031 C 212.074219 78.417969 211.378906 78.253906 210.679688 78.101562 C 210.269531 78.015625 209.859375 77.9375 209.449219 77.855469 C 208.773438 77.71875 208.097656 77.578125 207.414062 77.453125 C 206.964844 77.371094 206.515625 77.300781 206.0625 77.226562 C 205.417969 77.117188 204.777344 77.003906 204.128906 76.902344 C 203.636719 76.828125 203.136719 76.765625 202.640625 76.699219 C 202.035156 76.613281 201.425781 76.523438 200.8125 76.449219 C 200.28125 76.382812 199.742188 76.335938 199.207031 76.277344 C 198.628906 76.214844 198.058594 76.148438 197.480469 76.09375 C 196.871094 76.039062 196.253906 76 195.644531 75.953125 C 195.136719 75.914062 194.632812 75.871094 194.125 75.839844 C 193.40625 75.796875 192.683594 75.769531 191.960938 75.738281 C 191.558594 75.722656 191.152344 75.699219 190.75 75.683594 C 189.621094 75.652344 188.492188 75.632812 187.359375 75.632812 C 187.316406 75.632812 187.277344 75.636719 187.234375 75.636719 C 187.210938 75.636719 187.1875 75.636719 187.167969 75.636719 C 187.160156 75.636719 187.15625 75.636719 187.152344 75.636719 C 186.027344 75.636719 184.90625 75.65625 183.785156 75.691406 C 172.59375 76.050781 161.644531 78.09375 151.265625 81.640625 C 150.230469 81.996094 149.199219 82.367188 148.171875 82.75 C 140.441406 85.652344 133.0625 89.40625 126.15625 93.929688 C 122.207031 96.511719 118.414062 99.34375 114.804688 102.421875 C 114.570312 102.621094 114.339844 102.816406 114.109375 103.019531 C 112.585938 104.335938 111.09375 105.699219 109.640625 107.101562 C 108.796875 107.914062 107.96875 108.742188 107.148438 109.582031 C 103.285156 113.554688 99.695312 117.839844 96.417969 122.410156 C 96.417969 122.414062 96.417969 122.414062 96.417969 122.414062 L 70.507812 122.414062 C 65.703125 122.414062 61.792969 126.320312 61.792969 131.128906 L 61.792969 243.945312 C 61.792969 248.75 65.703125 252.660156 70.507812 252.660156 L 96.472656 252.660156 C 99.746094 257.21875 103.328125 261.484375 107.1875 265.449219 C 109.136719 267.453125 111.164062 269.371094 113.25 271.214844 C 116.929688 274.472656 120.804688 277.484375 124.859375 280.21875 C 138.464844 289.390625 154 295.527344 170.371094 298.054688 C 171.464844 298.222656 172.558594 298.375 173.65625 298.511719 C 176.953125 298.917969 180.28125 299.179688 183.625 299.292969 C 184.742188 299.332031 185.863281 299.351562 186.980469 299.355469 C 186.984375 299.355469 186.984375 299.355469 186.984375 299.355469 C 187.109375 299.375 187.234375 299.398438 187.359375 299.398438 C 187.457031 299.398438 187.550781 299.367188 187.644531 299.355469 C 198.503906 299.328125 209.160156 297.703125 219.332031 294.660156 C 221.183594 294.105469 223.011719 293.503906 224.828125 292.855469 C 229.011719 291.363281 233.097656 289.625 237.066406 287.652344 C 240.496094 285.949219 243.839844 284.078125 247.082031 282.03125 C 249.855469 280.277344 252.554688 278.398438 255.171875 276.40625 C 258.660156 273.742188 262 270.871094 265.175781 267.796875 C 268.347656 264.726562 271.351562 261.453125 274.167969 257.992188 C 275.574219 256.261719 276.933594 254.484375 278.242188 252.660156 L 304.484375 252.660156 C 309.289062 252.660156 313.199219 248.75 313.199219 243.945312 L 313.199219 131.128906 C 313.199219 126.320312 309.289062 122.414062 304.484375 122.414062 " fill-opacity="1" fill-rule="nonzero"/></g><path fill="#000000" d="M 187.496094 175.226562 C 192.472656 175.226562 196.523438 179.273438 196.523438 184.25 C 196.523438 189.226562 192.472656 193.277344 187.496094 193.277344 C 182.519531 193.277344 178.46875 189.226562 178.46875 184.25 C 178.46875 179.273438 182.519531 175.226562 187.496094 175.226562 Z M 156.960938 184.25 C 156.960938 201.085938 170.65625 214.789062 187.496094 214.789062 C 204.332031 214.789062 218.03125 201.085938 218.03125 184.25 C 218.03125 180.304688 217.273438 176.445312 215.78125 172.769531 C 215.285156 171.554688 213.921875 170.9375 212.683594 171.371094 C 211.707031 171.710938 210.707031 171.886719 209.707031 171.886719 C 204.730469 171.886719 200.683594 167.839844 200.683594 162.859375 C 200.683594 161.742188 200.894531 160.636719 201.3125 159.574219 C 201.792969 158.347656 201.226562 156.96875 200.03125 156.425781 C 196.046875 154.628906 191.832031 153.714844 187.496094 153.714844 C 170.65625 153.714844 156.960938 167.414062 156.960938 184.25 " fill-opacity="1" fill-rule="nonzero"/><g clip-path="url(#75adaac0a0)"><path fill="#b5b9bf" d="M 187.5 10.710938 C 89.835938 10.710938 10.710938 89.910156 10.710938 187.5 C 10.710938 285.089844 89.835938 364.289062 187.5 364.289062 C 285.160156 364.289062 364.289062 285.089844 364.289062 187.5 C 364.289062 89.910156 285.160156 10.710938 187.5 10.710938 Z M 187.5 353.097656 C 96.039062 353.097656 21.902344 278.957031 21.902344 187.5 C 21.902344 96.039062 96.039062 21.902344 187.5 21.902344 C 278.957031 21.902344 353.097656 96.039062 353.097656 187.5 C 353.097656 278.957031 278.957031 353.097656 187.5 353.097656 Z M 187.5 353.097656 " fill-opacity="1" fill-rule="nonzero"/></g></svg>