<svg xmlns="http://www.w3.org/2000/svg" xmlns:xlink="http://www.w3.org/1999/xlink" width="500" zoomAndPan="magnify" viewBox="0 0 375 374.999991" height="500" preserveAspectRatio="xMidYMid meet" version="1.0"><defs><clipPath id="f79f388d81"><path d="M 16.300781 15.949219 L 359.050781 15.949219 L 359.050781 358.699219 L 16.300781 358.699219 Z M 16.300781 15.949219 " clip-rule="nonzero"/></clipPath><clipPath id="230ca11a33"><path d="M 148 72.367188 L 227 72.367188 L 227 302.617188 L 148 302.617188 Z M 148 72.367188 " clip-rule="nonzero"/></clipPath><clipPath id="1eabd1f34f"><path d="M 10.730469 10.730469 L 363.980469 10.730469 L 363.980469 363.980469 L 10.730469 363.980469 Z M 10.730469 10.730469 " clip-rule="nonzero"/></clipPath></defs><path fill="#231f20" d="M 187.5 0 C 83.921875 0 0 83.996094 0 187.5 C 0 291.003906 83.921875 375 187.5 375 C 291.078125 375 375 291.003906 375 187.5 C 375 83.996094 291.078125 0 187.5 0 Z M 187.5 363.128906 C 90.5 363.128906 11.871094 284.5 11.871094 187.5 C 11.871094 90.5 90.5 11.871094 187.5 11.871094 C 284.5 11.871094 363.128906 90.5 363.128906 187.5 C 363.128906 284.5 284.5 363.128906 187.5 363.128906 Z M 187.5 363.128906 " fill-opacity="1" fill-rule="nonzero"/><g clip-path="url(#f79f388d81)"><path fill="#c3fbff" d="M 187.503906 359.046875 C 184.695312 359.046875 181.890625 358.976562 179.085938 358.839844 C 176.28125 358.699219 173.480469 358.496094 170.6875 358.21875 C 167.894531 357.945312 165.109375 357.601562 162.332031 357.1875 C 159.554688 356.777344 156.789062 356.296875 154.035156 355.75 C 151.28125 355.203125 148.542969 354.585938 145.820312 353.902344 C 143.097656 353.222656 140.390625 352.472656 137.703125 351.660156 C 135.019531 350.84375 132.351562 349.964844 129.710938 349.015625 C 127.066406 348.070312 124.449219 347.0625 121.855469 345.988281 C 119.261719 344.914062 116.695312 343.773438 114.15625 342.574219 C 111.617188 341.375 109.109375 340.113281 106.636719 338.789062 C 104.160156 337.464844 101.71875 336.082031 99.308594 334.640625 C 96.902344 333.195312 94.53125 331.695312 92.195312 330.132812 C 89.859375 328.574219 87.566406 326.957031 85.3125 325.285156 C 83.054688 323.613281 80.84375 321.886719 78.671875 320.105469 C 76.503906 318.324219 74.378906 316.492188 72.296875 314.605469 C 70.21875 312.71875 68.183594 310.785156 66.199219 308.800781 C 64.214844 306.816406 62.277344 304.78125 60.394531 302.703125 C 58.507812 300.621094 56.675781 298.496094 54.894531 296.328125 C 53.113281 294.15625 51.386719 291.941406 49.714844 289.6875 C 48.042969 287.433594 46.425781 285.136719 44.867188 282.804688 C 43.304688 280.46875 41.804688 278.097656 40.359375 275.691406 C 38.917969 273.28125 37.535156 270.839844 36.210938 268.363281 C 34.886719 265.886719 33.625 263.382812 32.425781 260.84375 C 31.222656 258.304688 30.085938 255.738281 29.011719 253.144531 C 27.9375 250.550781 26.929688 247.933594 25.980469 245.289062 C 25.035156 242.648438 24.15625 239.980469 23.339844 237.296875 C 22.527344 234.609375 21.777344 231.902344 21.09375 229.179688 C 20.414062 226.457031 19.796875 223.71875 19.25 220.964844 C 18.703125 218.210938 18.222656 215.445312 17.8125 212.667969 C 17.398438 209.890625 17.054688 207.105469 16.78125 204.3125 C 16.503906 201.519531 16.296875 198.71875 16.160156 195.914062 C 16.023438 193.109375 15.953125 190.304688 15.953125 187.496094 C 15.953125 184.691406 16.023438 181.882812 16.160156 179.078125 C 16.296875 176.277344 16.503906 173.476562 16.78125 170.683594 C 17.054688 167.886719 17.398438 165.101562 17.8125 162.324219 C 18.222656 159.546875 18.703125 156.785156 19.25 154.03125 C 19.796875 151.277344 20.414062 148.539062 21.09375 145.8125 C 21.777344 143.089844 22.527344 140.386719 23.339844 137.699219 C 24.15625 135.011719 25.035156 132.347656 25.980469 129.703125 C 26.929688 127.0625 27.9375 124.441406 29.011719 121.847656 C 30.085938 119.253906 31.222656 116.6875 32.425781 114.152344 C 33.625 111.613281 34.886719 109.105469 36.210938 106.628906 C 37.535156 104.152344 38.917969 101.710938 40.359375 99.304688 C 41.804688 96.894531 43.304688 94.523438 44.867188 92.191406 C 46.425781 89.855469 48.042969 87.5625 49.714844 85.304688 C 51.386719 83.050781 53.113281 80.839844 54.894531 78.667969 C 56.675781 76.496094 58.507812 74.371094 60.394531 72.292969 C 62.277344 70.210938 64.214844 68.179688 66.199219 66.195312 C 68.183594 64.210938 70.21875 62.273438 72.296875 60.386719 C 74.378906 58.503906 76.503906 56.667969 78.671875 54.890625 C 80.84375 53.109375 83.054688 51.378906 85.3125 49.707031 C 87.566406 48.035156 89.859375 46.417969 92.195312 44.859375 C 94.53125 43.300781 96.902344 41.796875 99.308594 40.355469 C 101.71875 38.910156 104.160156 37.527344 106.636719 36.207031 C 109.109375 34.882812 111.617188 33.621094 114.15625 32.417969 C 116.695312 31.21875 119.261719 30.082031 121.855469 29.007812 C 124.449219 27.933594 127.066406 26.921875 129.710938 25.976562 C 132.351562 25.03125 135.019531 24.152344 137.703125 23.335938 C 140.390625 22.519531 143.097656 21.773438 145.820312 21.089844 C 148.542969 20.40625 151.28125 19.792969 154.035156 19.246094 C 156.789062 18.699219 159.554688 18.21875 162.332031 17.804688 C 165.109375 17.394531 167.894531 17.050781 170.6875 16.773438 C 173.480469 16.5 176.28125 16.292969 179.085938 16.15625 C 181.890625 16.019531 184.695312 15.949219 187.503906 15.949219 C 190.308594 15.949219 193.117188 16.019531 195.917969 16.15625 C 198.722656 16.292969 201.523438 16.5 204.316406 16.773438 C 207.109375 17.050781 209.898438 17.394531 212.671875 17.804688 C 215.449219 18.21875 218.214844 18.699219 220.96875 19.246094 C 223.722656 19.792969 226.460938 20.40625 229.183594 21.089844 C 231.910156 21.773438 234.613281 22.519531 237.300781 23.335938 C 239.988281 24.152344 242.652344 25.03125 245.296875 25.976562 C 247.9375 26.921875 250.558594 27.933594 253.152344 29.007812 C 255.746094 30.082031 258.3125 31.21875 260.847656 32.417969 C 263.386719 33.621094 265.894531 34.882812 268.371094 36.207031 C 270.84375 37.527344 273.289062 38.910156 275.695312 40.355469 C 278.105469 41.796875 280.476562 43.300781 282.808594 44.859375 C 285.144531 46.417969 287.4375 48.035156 289.695312 49.707031 C 291.949219 51.378906 294.160156 53.109375 296.332031 54.890625 C 298.5 56.667969 300.625 58.503906 302.707031 60.386719 C 304.789062 62.273438 306.820312 64.210938 308.804688 66.195312 C 310.789062 68.179688 312.726562 70.210938 314.609375 72.292969 C 316.496094 74.371094 318.328125 76.496094 320.109375 78.667969 C 321.890625 80.839844 323.617188 83.050781 325.292969 85.304688 C 326.964844 87.5625 328.578125 89.855469 330.140625 92.191406 C 331.699219 94.523438 333.199219 96.894531 334.644531 99.304688 C 336.085938 101.710938 337.472656 104.152344 338.792969 106.628906 C 340.117188 109.105469 341.378906 111.613281 342.582031 114.152344 C 343.78125 116.6875 344.917969 119.253906 345.992188 121.847656 C 347.066406 124.441406 348.078125 127.0625 349.023438 129.703125 C 349.96875 132.347656 350.847656 135.011719 351.664062 137.699219 C 352.480469 140.386719 353.226562 143.089844 353.910156 145.8125 C 354.589844 148.539062 355.207031 151.277344 355.753906 154.03125 C 356.300781 156.785156 356.78125 159.546875 357.195312 162.324219 C 357.605469 165.101562 357.949219 167.886719 358.222656 170.683594 C 358.5 173.476562 358.707031 176.277344 358.84375 179.078125 C 358.980469 181.882812 359.050781 184.691406 359.050781 187.496094 C 359.050781 190.304688 358.980469 193.109375 358.84375 195.914062 C 358.707031 198.71875 358.5 201.519531 358.222656 204.3125 C 357.949219 207.105469 357.605469 209.890625 357.195312 212.667969 C 356.78125 215.445312 356.300781 218.210938 355.753906 220.964844 C 355.207031 223.71875 354.589844 226.457031 353.910156 229.179688 C 353.226562 231.902344 352.480469 234.609375 351.664062 237.296875 C 350.847656 239.980469 349.96875 242.648438 349.023438 245.289062 C 348.078125 247.933594 347.066406 250.550781 345.992188 253.144531 C 344.917969 255.738281 343.78125 258.304688 342.582031 260.84375 C 341.378906 263.382812 340.117188 265.886719 338.792969 268.363281 C 337.472656 270.839844 336.085938 273.28125 334.644531 275.691406 C 333.199219 278.097656 331.699219 280.46875 330.140625 282.804688 C 328.578125 285.136719 326.964844 287.433594 325.292969 289.6875 C 323.617188 291.941406 321.890625 294.15625 320.109375 296.328125 C 318.328125 298.496094 316.496094 300.621094 314.609375 302.703125 C 312.726562 304.78125 310.789062 306.816406 308.804688 308.800781 C 306.820312 310.785156 304.789062 312.71875 302.707031 314.605469 C 300.625 316.492188 298.5 318.324219 296.332031 320.105469 C 294.160156 321.886719 291.949219 323.613281 289.695312 325.285156 C 287.4375 326.957031 285.144531 328.574219 282.808594 330.132812 C 280.476562 331.695312 278.105469 333.195312 275.695312 334.640625 C 273.289062 336.082031 270.84375 337.464844 268.371094 338.789062 C 265.894531 340.113281 263.386719 341.375 260.847656 342.574219 C 258.3125 343.773438 255.746094 344.914062 253.152344 345.988281 C 250.558594 347.0625 247.9375 348.070312 245.296875 349.015625 C 242.652344 349.964844 239.988281 350.84375 237.300781 351.660156 C 234.613281 352.472656 231.910156 353.222656 229.183594 353.902344 C 226.460938 354.585938 223.722656 355.203125 220.96875 355.75 C 218.214844 356.296875 215.449219 356.777344 212.671875 357.1875 C 209.898438 357.601562 207.109375 357.945312 204.316406 358.21875 C 201.523438 358.496094 198.722656 358.699219 195.917969 358.839844 C 193.117188 358.976562 190.308594 359.046875 187.503906 359.046875 Z M 187.503906 359.046875 " fill-opacity="1" fill-rule="nonzero"/></g><g clip-path="url(#230ca11a33)"><path fill="#66beff" d="M 193.894531 248.8125 L 193.894531 126.191406 L 224.773438 95.304688 C 224.773438 95.304688 229.296875 90.78125 224.773438 86.253906 C 220.25 81.730469 215.730469 86.253906 215.730469 86.253906 L 193.894531 108.097656 L 193.894531 78.761719 C 193.894531 78.761719 193.894531 72.367188 187.496094 72.367188 C 181.101562 72.367188 181.101562 78.761719 181.101562 78.761719 L 181.101562 108.097656 L 159.265625 86.253906 C 159.265625 86.253906 154.742188 81.730469 150.21875 86.253906 C 145.699219 90.78125 150.21875 95.304688 150.21875 95.304688 L 181.101562 126.191406 L 181.101562 248.8125 L 150.21875 279.691406 C 150.21875 279.691406 145.699219 284.214844 150.21875 288.738281 C 154.742188 293.257812 159.265625 288.738281 159.265625 288.738281 L 181.101562 266.898438 L 181.101562 296.234375 C 181.101562 296.234375 181.101562 302.628906 187.496094 302.628906 C 193.894531 302.628906 193.894531 296.234375 193.894531 296.234375 L 193.894531 266.898438 L 215.730469 288.738281 C 215.730469 288.738281 220.25 293.257812 224.773438 288.738281 C 229.296875 284.214844 224.773438 279.691406 224.773438 279.691406 Z M 193.894531 248.8125 " fill-opacity="1" fill-rule="nonzero"/></g><path fill="#66beff" d="M 293.8125 205.828125 C 292.15625 199.652344 285.980469 201.308594 285.980469 201.308594 L 243.796875 212.609375 L 137.601562 151.296875 L 126.296875 109.113281 C 126.296875 109.113281 124.640625 102.933594 118.464844 104.589844 C 112.277344 106.246094 113.941406 112.425781 113.941406 112.425781 L 121.9375 142.257812 L 96.53125 127.585938 C 96.53125 127.585938 90.992188 124.386719 87.792969 129.925781 C 84.59375 135.464844 90.132812 138.664062 90.132812 138.664062 L 115.535156 153.328125 L 85.703125 161.320312 C 85.703125 161.320312 79.515625 162.976562 81.179688 169.152344 C 82.835938 175.339844 89.015625 173.683594 89.015625 173.683594 L 131.203125 162.378906 L 237.398438 223.695312 L 248.703125 265.882812 C 248.703125 265.882812 250.359375 272.0625 256.535156 270.40625 C 262.714844 268.742188 261.058594 262.570312 261.058594 262.570312 L 253.0625 232.738281 L 278.46875 247.40625 C 278.46875 247.40625 284.015625 250.601562 287.214844 245.070312 C 290.410156 239.523438 284.867188 236.328125 284.867188 236.328125 L 259.464844 221.660156 L 289.292969 213.671875 C 289.292969 213.664062 295.46875 212.007812 293.8125 205.828125 Z M 293.8125 205.828125 " fill-opacity="1" fill-rule="nonzero"/><path fill="#66beff" d="M 289.292969 161.320312 L 259.460938 153.324219 L 284.867188 138.65625 C 284.867188 138.65625 290.410156 135.453125 287.214844 129.914062 C 284.007812 124.367188 278.46875 127.574219 278.46875 127.574219 L 253.070312 142.234375 L 261.058594 112.40625 C 261.058594 112.40625 262.714844 106.230469 256.535156 104.570312 C 250.359375 102.914062 248.703125 109.09375 248.703125 109.09375 L 237.398438 151.277344 L 131.199219 212.609375 L 89.023438 201.300781 C 89.023438 201.300781 82.84375 199.644531 81.1875 205.824219 C 79.523438 212.007812 85.707031 213.660156 85.707031 213.660156 L 115.535156 221.648438 L 90.132812 236.3125 C 90.132812 236.3125 84.601562 239.519531 87.800781 245.058594 C 91 250.589844 96.53125 247.390625 96.53125 247.390625 L 121.9375 232.726562 L 113.941406 262.550781 C 113.941406 262.550781 112.285156 268.734375 118.464844 270.386719 C 124.648438 272.050781 126.304688 265.871094 126.304688 265.871094 L 137.613281 223.675781 L 243.816406 162.367188 L 285.996094 173.675781 C 285.996094 173.675781 292.175781 175.332031 293.832031 169.152344 C 295.464844 162.96875 289.292969 161.320312 289.292969 161.320312 Z M 289.292969 161.320312 " fill-opacity="1" fill-rule="nonzero"/><g clip-path="url(#1eabd1f34f)"><path fill="#b5faff" d="M 187.496094 10.730469 C 89.847656 10.730469 10.730469 89.917969 10.730469 187.496094 C 10.730469 285.074219 89.847656 364.261719 187.496094 364.261719 C 285.144531 364.261719 364.261719 285.074219 364.261719 187.496094 C 364.261719 89.917969 285.144531 10.730469 187.496094 10.730469 Z M 187.496094 353.070312 C 96.046875 353.070312 21.921875 278.945312 21.921875 187.496094 C 21.921875 96.046875 96.046875 21.921875 187.496094 21.921875 C 278.945312 21.921875 353.070312 96.046875 353.070312 187.496094 C 353.070312 278.945312 278.945312 353.070312 187.496094 353.070312 Z M 187.496094 353.070312 " fill-opacity="1" fill-rule="nonzero"/></g></svg>