<svg xmlns="http://www.w3.org/2000/svg" xmlns:xlink="http://www.w3.org/1999/xlink" width="500" zoomAndPan="magnify" viewBox="0 0 375 374.999991" height="500" preserveAspectRatio="xMidYMid meet" version="1.0"><defs><clipPath id="bfc794feb9"><path d="M 13.222656 13.222656 L 361.777344 13.222656 L 361.777344 361.777344 L 13.222656 361.777344 Z M 13.222656 13.222656 " clip-rule="nonzero"/></clipPath><clipPath id="5fc342dd96"><path d="M 187.5 13.222656 C 91.25 13.222656 13.222656 91.25 13.222656 187.5 C 13.222656 283.75 91.25 361.777344 187.5 361.777344 C 283.75 361.777344 361.777344 283.75 361.777344 187.5 C 361.777344 91.25 283.75 13.222656 187.5 13.222656 Z M 187.5 13.222656 " clip-rule="nonzero"/></clipPath><clipPath id="22fd110453"><path d="M 59.570312 163.617188 L 326.660156 163.617188 L 326.660156 190 L 59.570312 190 Z M 59.570312 163.617188 " clip-rule="nonzero"/></clipPath><clipPath id="260ac2b33e"><path d="M 53.132812 262.539062 L 318.632812 262.539062 L 318.632812 269.203125 L 53.132812 269.203125 Z M 53.132812 262.539062 " clip-rule="nonzero"/></clipPath><clipPath id="330db562e0"><path d="M 57.15625 262.539062 L 321.851562 262.539062 L 321.851562 269.203125 L 57.15625 269.203125 Z M 57.15625 262.539062 " clip-rule="nonzero"/></clipPath><clipPath id="61254a7413"><path d="M 55 262.539062 L 320.242188 262.539062 L 320.242188 269.203125 L 55 269.203125 Z M 55 262.539062 " clip-rule="nonzero"/></clipPath><clipPath id="a69d6852d6"><path d="M 58.765625 241.628906 L 326.660156 241.628906 L 326.660156 252.886719 L 58.765625 252.886719 Z M 58.765625 241.628906 " clip-rule="nonzero"/></clipPath><clipPath id="1907fc22a4"><path d="M 8.996094 8.996094 L 365.996094 8.996094 L 365.996094 365.996094 L 8.996094 365.996094 Z M 8.996094 8.996094 " clip-rule="nonzero"/></clipPath></defs><g clip-path="url(#bfc794feb9)"><g clip-path="url(#5fc342dd96)"><path fill="#455094" d="M 13.222656 13.222656 L 361.777344 13.222656 L 361.777344 361.777344 L 13.222656 361.777344 Z M 13.222656 13.222656 " fill-opacity="1" fill-rule="nonzero"/></g></g><path fill="#231f20" d="M 187.5 0 C 83.921875 0 0 83.996094 0 187.5 C 0 291.003906 83.921875 375 187.5 375 C 291.078125 375 375 291.003906 375 187.5 C 375 83.996094 291.078125 0 187.5 0 Z M 187.5 363.128906 C 90.5 363.128906 11.871094 284.5 11.871094 187.5 C 11.871094 90.5 90.5 11.871094 187.5 11.871094 C 284.5 11.871094 363.128906 90.5 363.128906 187.5 C 363.128906 284.5 284.5 363.128906 187.5 363.128906 Z M 187.5 363.128906 " fill-opacity="1" fill-rule="nonzero"/><path fill="#fa3c7b" d="M 85.457031 133.523438 L 79.839844 133.523438 L 79.839844 127.648438 L 85.457031 127.648438 L 85.457031 133.523438 " fill-opacity="1" fill-rule="nonzero"/><path fill="#fa3c7b" d="M 110.109375 161.957031 L 104.488281 161.957031 L 104.488281 156.085938 L 110.109375 156.085938 L 110.109375 161.957031 " fill-opacity="1" fill-rule="nonzero"/><path fill="#fa3c7b" d="M 59.476562 184.003906 L 48.304688 184.003906 L 48.304688 178.132812 L 59.476562 178.132812 L 59.476562 184.003906 " fill-opacity="1" fill-rule="nonzero"/><path fill="#fa3c7b" d="M 155.625 156.800781 L 144.453125 156.800781 L 144.453125 150.929688 L 155.625 150.929688 L 155.625 156.800781 " fill-opacity="1" fill-rule="nonzero"/><path fill="#fa3c7b" d="M 268.710938 152.003906 L 257.539062 152.003906 L 257.539062 146.128906 L 268.710938 146.128906 L 268.710938 152.003906 " fill-opacity="1" fill-rule="nonzero"/><path fill="#fa3c7b" d="M 292.859375 207.308594 L 281.6875 207.308594 L 281.6875 201.433594 L 292.859375 201.433594 L 292.859375 207.308594 " fill-opacity="1" fill-rule="nonzero"/><path fill="#fa3c7b" d="M 218.933594 161.765625 L 207.765625 161.765625 L 207.765625 152.167969 L 218.933594 152.167969 L 218.933594 161.765625 " fill-opacity="1" fill-rule="nonzero"/><path fill="#00e6fa" d="M 233.972656 135.382812 L 222.800781 135.382812 L 222.800781 125.789062 L 233.972656 125.789062 L 233.972656 135.382812 " fill-opacity="1" fill-rule="nonzero"/><path fill="#00e6fa" d="M 138.894531 153.863281 L 127.722656 153.863281 L 127.722656 144.269531 L 138.894531 144.269531 L 138.894531 153.863281 " fill-opacity="1" fill-rule="nonzero"/><path fill="#00e6fa" d="M 95.539062 167.484375 L 84.363281 167.484375 L 84.363281 157.890625 L 95.539062 157.890625 L 95.539062 167.484375 " fill-opacity="1" fill-rule="nonzero"/><path fill="#00e6fa" d="M 317.25 132.449219 L 306.078125 132.449219 L 306.078125 122.851562 L 317.25 122.851562 L 317.25 132.449219 " fill-opacity="1" fill-rule="nonzero"/><path fill="#00e6fa" d="M 319.542969 202.035156 L 308.371094 202.035156 L 308.371094 192.441406 L 319.542969 192.441406 L 319.542969 202.035156 " fill-opacity="1" fill-rule="nonzero"/><path fill="#00e6fa" d="M 289.230469 162.6875 L 278.0625 162.6875 L 278.0625 153.089844 L 289.230469 153.089844 L 289.230469 162.6875 " fill-opacity="1" fill-rule="nonzero"/><path fill="#fa3c7b" d="M 163.480469 189.957031 L 142.164062 189.957031 C 156.125 222.199219 205.523438 222.136719 219.507812 189.957031 L 198.207031 189.957031 C 188.96875 199.601562 172.71875 199.601562 163.480469 189.957031 Z M 48.980469 193.953125 L 100.617188 193.953125 L 100.617188 212.308594 L 118.5625 212.308594 L 118.5625 193.953125 L 129.882812 193.953125 L 129.882812 189.957031 L 48.621094 189.957031 Z M 232.699219 189.957031 L 313.957031 189.957031 L 313.957031 193.953125 L 302.636719 193.953125 L 302.636719 212.308594 L 284.691406 212.308594 L 284.691406 193.953125 L 233.058594 193.953125 L 232.699219 189.957031 " fill-opacity="1" fill-rule="nonzero"/><path fill="#00e6fa" d="M 171.6875 189.957031 L 150.367188 189.957031 C 164.332031 222.199219 213.734375 222.136719 227.71875 189.957031 L 206.414062 189.957031 C 197.175781 199.601562 180.929688 199.601562 171.6875 189.957031 Z M 57.191406 193.953125 L 108.820312 193.953125 L 108.820312 212.308594 L 126.769531 212.308594 L 126.769531 193.953125 L 138.089844 193.953125 L 138.089844 189.957031 L 56.832031 189.957031 Z M 240.910156 189.957031 L 322.164062 189.957031 L 322.164062 193.953125 L 310.847656 193.953125 L 310.847656 212.308594 L 292.898438 212.308594 L 292.898438 193.953125 L 241.265625 193.953125 L 240.910156 189.957031 " fill-opacity="1" fill-rule="nonzero"/><path fill="#181a39" d="M 168.40625 189.957031 L 147.089844 189.957031 C 161.046875 222.199219 210.449219 222.136719 224.433594 189.957031 L 203.132812 189.957031 C 193.894531 199.601562 177.644531 199.601562 168.40625 189.957031 Z M 53.90625 193.953125 L 105.539062 193.953125 L 105.539062 212.308594 L 123.484375 212.308594 L 123.484375 193.953125 L 134.804688 193.953125 L 134.804688 189.957031 L 53.550781 189.957031 Z M 237.625 189.957031 L 318.882812 189.957031 L 318.882812 193.953125 L 307.5625 193.953125 L 307.5625 212.308594 L 289.613281 212.308594 L 289.613281 193.953125 L 237.984375 193.953125 L 237.625 189.957031 " fill-opacity="1" fill-rule="nonzero"/><path fill="#fa3c7b" d="M 160.652344 170.90625 L 160.652344 163.9375 L 142.566406 163.9375 L 142.566406 170.90625 C 142.566406 178.175781 143.914062 184.519531 146.269531 189.957031 L 167.585938 189.957031 C 163.398438 185.585938 160.652344 179.238281 160.652344 170.90625 Z M 288.792969 163.9375 L 288.792969 176.289062 L 256.074219 176.289062 L 265.113281 163.9375 L 243.910156 163.9375 L 235.507812 175.460938 L 236.804688 189.957031 L 318.0625 189.957031 L 318.0625 176.289062 L 306.742188 176.289062 L 306.742188 163.9375 Z M 227.332031 163.9375 L 209.246094 163.9375 L 209.246094 170.90625 C 209.246094 179.238281 206.496094 185.585938 202.3125 189.957031 L 223.613281 189.957031 C 225.976562 184.519531 227.332031 178.171875 227.332031 170.90625 Z M 133.984375 176.289062 L 133.984375 189.957031 L 52.726562 189.957031 L 51.429688 175.460938 L 59.835938 163.9375 L 81.035156 163.9375 L 72 176.289062 L 104.71875 176.289062 L 104.71875 163.9375 L 122.664062 163.9375 L 122.664062 176.289062 L 133.984375 176.289062 " fill-opacity="1" fill-rule="nonzero"/><g clip-path="url(#22fd110453)"><path fill="#00e6fa" d="M 168.859375 170.90625 L 168.859375 163.9375 L 150.769531 163.9375 L 150.769531 170.90625 C 150.769531 178.175781 152.121094 184.519531 154.472656 189.957031 L 175.792969 189.957031 C 171.609375 185.585938 168.859375 179.238281 168.859375 170.90625 Z M 297 163.9375 L 297 176.289062 L 264.285156 176.289062 L 273.324219 163.9375 L 252.117188 163.9375 L 243.710938 175.460938 L 245.011719 189.957031 L 326.269531 189.957031 L 326.269531 176.289062 L 314.949219 176.289062 L 314.949219 163.9375 Z M 235.539062 163.9375 L 217.453125 163.9375 L 217.453125 170.90625 C 217.453125 179.238281 214.703125 185.585938 210.519531 189.957031 L 231.824219 189.957031 C 234.183594 184.519531 235.539062 178.171875 235.539062 170.90625 Z M 142.195312 176.289062 L 142.195312 189.957031 L 60.9375 189.957031 L 59.636719 175.460938 L 68.042969 163.9375 L 89.246094 163.9375 L 80.207031 176.289062 L 112.925781 176.289062 L 112.925781 163.9375 L 130.871094 163.9375 L 130.871094 176.289062 L 142.195312 176.289062 " fill-opacity="1" fill-rule="nonzero"/></g><path fill="#181a39" d="M 165.574219 170.90625 L 165.574219 163.9375 L 147.492188 163.9375 L 147.492188 170.90625 C 147.492188 178.175781 148.839844 184.519531 151.191406 189.957031 L 172.507812 189.957031 C 168.324219 185.585938 165.574219 179.238281 165.574219 170.90625 Z M 293.71875 163.9375 L 293.71875 176.289062 L 261 176.289062 L 270.039062 163.9375 L 248.835938 163.9375 L 240.429688 175.460938 L 241.730469 189.957031 L 322.984375 189.957031 L 322.984375 176.289062 L 311.667969 176.289062 L 311.667969 163.9375 Z M 232.257812 163.9375 L 214.167969 163.9375 L 214.167969 170.90625 C 214.167969 179.238281 211.421875 185.585938 207.234375 189.957031 L 228.539062 189.957031 C 230.898438 184.519531 232.257812 178.171875 232.257812 170.90625 Z M 138.910156 176.289062 L 138.910156 189.957031 L 57.652344 189.957031 L 56.355469 175.460938 L 64.761719 163.9375 L 85.960938 163.9375 L 76.921875 176.289062 L 109.640625 176.289062 L 109.640625 163.9375 L 127.589844 163.9375 L 127.589844 176.289062 L 138.910156 176.289062 " fill-opacity="1" fill-rule="nonzero"/><path fill="#fa3c7b" d="M 104.183594 137.917969 L 82.917969 137.917969 L 63.9375 163.9375 L 85.140625 163.9375 Z M 108.820312 163.9375 L 126.769531 163.9375 L 126.769531 137.917969 L 108.820312 137.917969 Z M 146.671875 163.9375 L 164.753906 163.9375 L 164.753906 156.96875 C 164.753906 148.585938 167.558594 142.246094 171.816406 137.917969 L 150.367188 137.917969 C 148.019531 143.351562 146.671875 149.699219 146.671875 156.96875 Z M 213.347656 156.96875 L 213.347656 163.9375 L 231.4375 163.9375 L 231.4375 156.96875 C 231.4375 149.699219 230.078125 143.355469 227.71875 137.917969 L 206.167969 137.917969 C 210.492188 142.257812 213.347656 148.609375 213.347656 156.96875 Z M 292.898438 163.9375 L 310.847656 163.9375 L 310.847656 137.917969 L 292.898438 137.917969 Z M 248.015625 163.9375 L 266.992188 137.917969 L 288.257812 137.917969 L 269.21875 163.9375 L 248.015625 163.9375 " fill-opacity="1" fill-rule="nonzero"/><path fill="#00e6fa" d="M 113.210938 137.917969 L 91.945312 137.917969 L 72.964844 163.9375 L 94.171875 163.9375 Z M 117.851562 163.9375 L 135.796875 163.9375 L 135.796875 137.917969 L 117.851562 137.917969 Z M 155.695312 163.9375 L 173.78125 163.9375 L 173.78125 156.96875 C 173.78125 148.585938 176.585938 142.246094 180.84375 137.917969 L 159.398438 137.917969 C 157.042969 143.351562 155.695312 149.699219 155.695312 156.96875 Z M 222.378906 156.96875 L 222.378906 163.9375 L 240.460938 163.9375 L 240.460938 156.96875 C 240.460938 149.699219 239.109375 143.355469 236.746094 137.917969 L 215.199219 137.917969 C 219.519531 142.257812 222.378906 148.609375 222.378906 156.96875 Z M 301.925781 163.9375 L 319.871094 163.9375 L 319.871094 137.917969 L 301.925781 137.917969 Z M 257.042969 163.9375 L 276.023438 137.917969 L 297.285156 137.917969 L 278.242188 163.9375 L 257.042969 163.9375 " fill-opacity="1" fill-rule="nonzero"/><path fill="#181a39" d="M 109.105469 137.917969 L 87.839844 137.917969 L 68.863281 163.9375 L 90.066406 163.9375 Z M 113.746094 163.9375 L 131.695312 163.9375 L 131.695312 137.917969 L 113.746094 137.917969 Z M 151.59375 163.9375 L 169.679688 163.9375 L 169.679688 156.96875 C 169.679688 148.585938 172.484375 142.246094 176.742188 137.917969 L 155.292969 137.917969 C 152.941406 143.351562 151.59375 149.699219 151.59375 156.96875 Z M 218.273438 156.96875 L 218.273438 163.9375 L 236.359375 163.9375 L 236.359375 156.96875 C 236.359375 149.699219 235.003906 143.355469 232.644531 137.917969 L 211.09375 137.917969 C 215.417969 142.257812 218.273438 148.609375 218.273438 156.96875 Z M 297.820312 163.9375 L 315.769531 163.9375 L 315.769531 137.917969 L 297.820312 137.917969 Z M 252.9375 163.9375 L 271.917969 137.917969 L 293.179688 137.917969 L 274.144531 163.9375 L 252.9375 163.9375 " fill-opacity="1" fill-rule="nonzero"/><path fill="#fa3c7b" d="M 103.898438 131.578125 L 103.898438 137.917969 L 121.84375 137.917969 L 121.84375 115.84375 L 94.09375 115.84375 L 77.996094 137.917969 L 99.257812 137.917969 Z M 201.242188 137.917969 L 222.792969 137.917969 C 208.808594 105.734375 159.40625 105.679688 145.445312 137.917969 L 166.894531 137.917969 C 176.070312 128.589844 192.011719 128.644531 201.242188 137.917969 Z M 283.332031 137.917969 L 262.070312 137.917969 L 278.171875 115.84375 L 305.921875 115.84375 L 305.921875 137.917969 L 287.972656 137.917969 L 287.972656 131.578125 L 283.332031 137.917969 " fill-opacity="1" fill-rule="nonzero"/><path fill="#00e6fa" d="M 112.925781 131.578125 L 112.925781 137.917969 L 130.871094 137.917969 L 130.871094 115.84375 L 103.125 115.84375 L 87.019531 137.917969 L 108.285156 137.917969 Z M 210.273438 137.917969 L 231.824219 137.917969 C 217.835938 105.734375 168.433594 105.679688 154.472656 137.917969 L 175.917969 137.917969 C 185.097656 128.589844 201.035156 128.644531 210.273438 137.917969 Z M 292.359375 137.917969 L 271.097656 137.917969 L 287.199219 115.84375 L 314.949219 115.84375 L 314.949219 137.917969 L 297 137.917969 L 297 131.578125 L 292.359375 137.917969 " fill-opacity="1" fill-rule="nonzero"/><path fill="#181a39" d="M 109.640625 131.578125 L 109.640625 137.917969 L 127.589844 137.917969 L 127.589844 115.84375 L 99.839844 115.84375 L 83.738281 137.917969 L 105 137.917969 Z M 206.988281 137.917969 L 228.539062 137.917969 C 214.554688 105.734375 165.148438 105.679688 151.191406 137.917969 L 172.636719 137.917969 C 181.816406 128.589844 197.753906 128.644531 206.988281 137.917969 Z M 289.078125 137.917969 L 267.8125 137.917969 L 283.917969 115.84375 L 311.667969 115.84375 L 311.667969 137.917969 L 293.71875 137.917969 L 293.71875 131.578125 L 289.078125 137.917969 " fill-opacity="1" fill-rule="nonzero"/><path fill="#fa3c7b" d="M 56.089844 247.898438 L 53.332031 247.898438 L 53.332031 244.0625 L 56.089844 244.0625 L 56.089844 247.898438 " fill-opacity="1" fill-rule="nonzero"/><path fill="#fa3c7b" d="M 112.785156 256.847656 L 110.027344 256.847656 L 110.027344 253.011719 L 112.785156 253.011719 L 112.785156 256.847656 " fill-opacity="1" fill-rule="nonzero"/><path fill="#fa3c7b" d="M 53.894531 256.847656 L 51.132812 256.847656 L 51.132812 254.929688 L 53.894531 254.929688 L 53.894531 256.847656 " fill-opacity="1" fill-rule="nonzero"/><path fill="#fa3c7b" d="M 90.113281 247.566406 L 87.355469 247.566406 L 87.355469 245.644531 L 90.113281 245.644531 L 90.113281 247.566406 " fill-opacity="1" fill-rule="nonzero"/><path fill="#00e6fa" d="M 85.605469 239.828125 L 82.851562 239.828125 L 82.851562 237.910156 L 85.605469 237.910156 L 85.605469 239.828125 " fill-opacity="1" fill-rule="nonzero"/><path fill="#00e6fa" d="M 84.230469 260.378906 L 81.46875 260.378906 L 81.46875 256.847656 L 84.230469 256.847656 L 84.230469 260.378906 " fill-opacity="1" fill-rule="nonzero"/><path fill="#00e6fa" d="M 98.882812 250.289062 L 96.125 250.289062 L 96.125 246.757812 L 98.882812 246.757812 L 98.882812 250.289062 " fill-opacity="1" fill-rule="nonzero"/><path fill="#00e6fa" d="M 143.441406 248.085938 L 140.683594 248.085938 L 140.683594 244.554688 L 143.441406 244.554688 L 143.441406 248.085938 " fill-opacity="1" fill-rule="nonzero"/><path fill="#00e6fa" d="M 173.488281 258.492188 L 170.726562 258.492188 L 170.726562 254.960938 L 173.488281 254.960938 L 173.488281 258.492188 " fill-opacity="1" fill-rule="nonzero"/><path fill="#00e6fa" d="M 202.398438 245.335938 L 199.640625 245.335938 L 199.640625 241.804688 L 202.398438 241.804688 L 202.398438 245.335938 " fill-opacity="1" fill-rule="nonzero"/><path fill="#00e6fa" d="M 237.386719 246.453125 L 234.628906 246.453125 L 234.628906 244.167969 L 237.386719 244.167969 L 237.386719 246.453125 " fill-opacity="1" fill-rule="nonzero"/><path fill="#00e6fa" d="M 260.242188 247.566406 L 257.484375 247.566406 L 257.484375 244.167969 L 260.242188 244.167969 L 260.242188 247.566406 " fill-opacity="1" fill-rule="nonzero"/><path fill="#00e6fa" d="M 278.667969 247.007812 L 275.914062 247.007812 L 275.914062 243.617188 L 278.667969 243.617188 L 278.667969 247.007812 " fill-opacity="1" fill-rule="nonzero"/><path fill="#00e6fa" d="M 305.128906 247.109375 L 302.367188 247.109375 L 302.367188 243.71875 L 305.128906 243.71875 L 305.128906 247.109375 " fill-opacity="1" fill-rule="nonzero"/><path fill="#00e6fa" d="M 325.601562 257.96875 L 321.996094 257.96875 L 321.996094 254.578125 L 325.601562 254.578125 L 325.601562 257.96875 " fill-opacity="1" fill-rule="nonzero"/><path fill="#fa3c7b" d="M 132.34375 249.480469 L 129.582031 249.480469 L 129.582031 247.566406 L 132.34375 247.566406 L 132.34375 249.480469 " fill-opacity="1" fill-rule="nonzero"/><path fill="#fa3c7b" d="M 162.183594 246.605469 L 159.421875 246.605469 L 159.421875 244.6875 L 162.183594 244.6875 L 162.183594 246.605469 " fill-opacity="1" fill-rule="nonzero"/><path fill="#fa3c7b" d="M 190.859375 247.566406 L 188.101562 247.566406 L 188.101562 245.082031 L 190.859375 245.082031 L 190.859375 247.566406 " fill-opacity="1" fill-rule="nonzero"/><path fill="#fa3c7b" d="M 213.96875 257.96875 L 211.210938 257.96875 L 211.210938 255.484375 L 213.96875 255.484375 L 213.96875 257.96875 " fill-opacity="1" fill-rule="nonzero"/><path fill="#fa3c7b" d="M 251.136719 250.046875 L 248.378906 250.046875 L 248.378906 247.566406 L 251.136719 247.566406 L 251.136719 250.046875 " fill-opacity="1" fill-rule="nonzero"/><path fill="#fa3c7b" d="M 260.921875 260.453125 L 258.164062 260.453125 L 258.164062 257.96875 L 260.921875 257.96875 L 260.921875 260.453125 " fill-opacity="1" fill-rule="nonzero"/><path fill="#fa3c7b" d="M 295.621094 246.65625 L 292.859375 246.65625 L 292.859375 244.167969 L 295.621094 244.167969 L 295.621094 246.65625 " fill-opacity="1" fill-rule="nonzero"/><path fill="#fa3c7b" d="M 318.035156 248.804688 L 315.273438 248.804688 L 315.273438 246.320312 L 318.035156 246.320312 L 318.035156 248.804688 " fill-opacity="1" fill-rule="nonzero"/><path fill="#fa3c7b" d="M 228.886719 245.414062 L 226.128906 245.414062 L 226.128906 242.929688 L 228.886719 242.929688 L 228.886719 245.414062 " fill-opacity="1" fill-rule="nonzero"/><path fill="#fa3c7b" d="M 120.335938 238.871094 L 117.578125 238.871094 L 117.578125 236.949219 L 120.335938 236.949219 L 120.335938 238.871094 " fill-opacity="1" fill-rule="nonzero"/><g clip-path="url(#260ac2b33e)"><path fill="#fa3c7b" d="M 239.691406 263.566406 C 238.046875 263.566406 236.582031 263.230469 235.351562 262.589844 L 227.101562 262.589844 C 229.640625 266.992188 234.375 269.15625 239.644531 269.15625 C 245.132812 269.15625 249.589844 266.9375 251.941406 262.589844 L 243.824219 262.589844 C 242.679688 263.226562 241.292969 263.566406 239.691406 263.566406 Z M 203.894531 263.566406 C 201.972656 263.566406 200.347656 263.207031 198.992188 262.589844 L 190.097656 262.589844 C 192.789062 266.503906 197.335938 269.203125 203.894531 269.203125 C 210.40625 269.203125 214.886719 266.484375 217.5625 262.589844 L 208.773438 262.589844 C 207.425781 263.207031 205.808594 263.566406 203.894531 263.566406 Z M 102.464844 263.566406 C 100.539062 263.566406 98.917969 263.207031 97.566406 262.589844 L 88.671875 262.589844 C 91.359375 266.503906 95.902344 269.203125 102.464844 269.203125 C 108.976562 269.203125 113.457031 266.484375 116.132812 262.589844 L 107.34375 262.589844 C 105.992188 263.207031 104.378906 263.566406 102.464844 263.566406 Z M 53.894531 268.460938 L 60.042969 268.460938 L 60.042969 262.589844 L 53.894531 262.589844 Z M 283.558594 268.503906 L 283.558594 268.460938 L 287.378906 268.460938 L 287.378906 262.589844 L 278.953125 262.589844 Z M 292.597656 268.460938 C 296.605469 268.460938 301.410156 268.460938 305.417969 268.460938 C 311.527344 268.460938 315.808594 266.070312 318.449219 262.589844 L 292.597656 262.589844 Z M 260.25 268.460938 L 266.402344 268.460938 L 266.402344 262.589844 L 260.25 262.589844 Z M 130.246094 268.460938 L 136.398438 268.460938 L 136.398438 262.589844 L 130.246094 262.589844 Z M 159.890625 268.460938 L 166.046875 268.460938 L 166.046875 262.589844 L 159.890625 262.589844 Z M 72.59375 262.589844 L 81.023438 262.589844 L 81.023438 268.460938 L 77.199219 268.460938 L 77.199219 268.503906 L 72.59375 262.589844 " fill-opacity="1" fill-rule="nonzero"/></g><g clip-path="url(#330db562e0)"><path fill="#00e6fa" d="M 242.976562 263.566406 C 241.328125 263.566406 239.863281 263.230469 238.636719 262.589844 L 230.386719 262.589844 C 232.925781 266.992188 237.660156 269.15625 242.929688 269.15625 C 248.417969 269.15625 252.871094 266.9375 255.226562 262.589844 L 247.109375 262.589844 C 245.960938 263.226562 244.578125 263.566406 242.976562 263.566406 Z M 207.175781 263.566406 C 205.253906 263.566406 203.632812 263.207031 202.277344 262.589844 L 193.382812 262.589844 C 196.070312 266.503906 200.617188 269.203125 207.175781 269.203125 C 213.6875 269.203125 218.171875 266.484375 220.84375 262.589844 L 212.058594 262.589844 C 210.707031 263.207031 209.089844 263.566406 207.175781 263.566406 Z M 105.746094 263.566406 C 103.824219 263.566406 102.199219 263.207031 100.84375 262.589844 L 91.953125 262.589844 C 94.640625 266.503906 99.1875 269.203125 105.746094 269.203125 C 112.261719 269.203125 116.738281 266.484375 119.417969 262.589844 L 110.625 262.589844 C 109.277344 263.207031 107.660156 263.566406 105.746094 263.566406 Z M 57.175781 268.460938 L 63.328125 268.460938 L 63.328125 262.589844 L 57.175781 262.589844 Z M 286.839844 268.503906 L 286.839844 268.460938 L 290.664062 268.460938 L 290.664062 262.589844 L 282.234375 262.589844 Z M 295.882812 268.460938 C 299.886719 268.460938 304.691406 268.460938 308.699219 268.460938 C 314.808594 268.460938 319.09375 266.070312 321.734375 262.589844 L 295.882812 262.589844 Z M 263.53125 268.460938 L 269.683594 268.460938 L 269.683594 262.589844 L 263.53125 262.589844 Z M 133.527344 268.460938 L 139.679688 268.460938 L 139.679688 262.589844 L 133.527344 262.589844 Z M 163.171875 268.460938 L 169.324219 268.460938 L 169.324219 262.589844 L 163.171875 262.589844 Z M 75.875 262.589844 L 84.304688 262.589844 L 84.304688 268.460938 L 80.484375 268.460938 L 80.484375 268.503906 L 75.875 262.589844 " fill-opacity="1" fill-rule="nonzero"/></g><g clip-path="url(#61254a7413)"><path fill="#000000" d="M 241.335938 263.566406 C 239.6875 263.566406 238.222656 263.230469 236.992188 262.589844 L 228.746094 262.589844 C 231.28125 266.992188 236.015625 269.15625 241.289062 269.15625 C 246.777344 269.15625 251.230469 266.9375 253.585938 262.589844 L 245.464844 262.589844 C 244.320312 263.226562 242.9375 263.566406 241.335938 263.566406 Z M 205.535156 263.566406 C 203.613281 263.566406 201.992188 263.207031 200.636719 262.589844 L 191.742188 262.589844 C 194.429688 266.503906 198.976562 269.203125 205.535156 269.203125 C 212.046875 269.203125 216.53125 266.484375 219.203125 262.589844 L 210.414062 262.589844 C 209.066406 263.207031 207.449219 263.566406 205.535156 263.566406 Z M 104.105469 263.566406 C 102.179688 263.566406 100.558594 263.207031 99.207031 262.589844 L 90.3125 262.589844 C 93 266.503906 97.546875 269.203125 104.105469 269.203125 C 110.617188 269.203125 115.097656 266.484375 117.773438 262.589844 L 108.984375 262.589844 C 107.632812 263.207031 106.019531 263.566406 104.105469 263.566406 Z M 55.535156 268.460938 L 61.6875 268.460938 L 61.6875 262.589844 L 55.535156 262.589844 Z M 285.199219 268.503906 L 285.199219 268.460938 L 289.023438 268.460938 L 289.023438 262.589844 L 280.589844 262.589844 Z M 294.242188 268.460938 C 298.246094 268.460938 303.050781 268.460938 307.058594 268.460938 C 313.167969 268.460938 317.449219 266.070312 320.089844 262.589844 L 294.242188 262.589844 Z M 261.890625 268.460938 L 268.042969 268.460938 L 268.042969 262.589844 L 261.890625 262.589844 Z M 131.886719 268.460938 L 138.039062 268.460938 L 138.039062 262.589844 L 131.886719 262.589844 Z M 161.53125 268.460938 L 167.6875 268.460938 L 167.6875 262.589844 L 161.53125 262.589844 Z M 74.234375 262.589844 L 82.664062 262.589844 L 82.664062 268.460938 L 78.84375 268.460938 L 78.84375 268.503906 L 74.234375 262.589844 " fill-opacity="1" fill-rule="nonzero"/></g><path fill="#fa3c7b" d="M 194.816406 252.195312 C 194.792969 248.125 196.578125 243.746094 200.664062 241.804688 L 191.949219 241.804688 C 189.847656 244.800781 188.792969 248.496094 188.757812 252.195312 Z M 216.207031 252.195312 L 222.269531 252.195312 C 222.285156 248.503906 221.234375 244.804688 219.121094 241.804688 L 210.40625 241.804688 C 214.476562 243.742188 216.210938 248.121094 216.207031 252.195312 Z M 255.410156 252.195312 L 255.410156 241.804688 L 249.304688 241.804688 L 249.304688 252.195312 Z M 232.894531 252.195312 L 232.894531 241.804688 L 226.792969 241.804688 L 226.792969 252.195312 Z M 268.042969 252.195312 L 268.042969 246.460938 L 272.503906 252.195312 L 279.808594 252.195312 L 271.59375 241.804688 L 261.890625 241.804688 L 261.890625 252.195312 Z M 114.777344 252.195312 L 120.839844 252.195312 C 120.851562 248.503906 119.800781 244.804688 117.691406 241.804688 L 108.980469 241.804688 C 113.042969 243.742188 114.777344 248.121094 114.777344 252.195312 Z M 61.6875 246.460938 L 66.148438 252.195312 L 73.453125 252.195312 L 65.234375 241.804688 L 55.535156 241.804688 L 55.535156 252.195312 L 61.6875 252.195312 Z M 82.664062 252.195312 L 82.664062 241.804688 L 76.511719 241.804688 L 76.511719 252.195312 Z M 138.039062 252.195312 L 138.039062 241.804688 L 131.886719 241.804688 L 131.886719 252.195312 Z M 184.050781 252.195312 L 184.050781 250.703125 L 167.6875 250.703125 L 167.6875 241.804688 L 161.53125 241.804688 L 161.53125 252.195312 Z M 93.386719 252.195312 C 93.367188 248.125 95.152344 243.746094 99.234375 241.804688 L 90.523438 241.804688 C 88.417969 244.800781 87.359375 248.496094 87.324219 252.195312 Z M 300.347656 252.195312 L 300.347656 241.804688 L 294.242188 241.804688 L 294.242188 252.195312 Z M 317.265625 251.820312 C 317.269531 251.945312 317.265625 252.070312 317.265625 252.195312 L 323.375 252.195312 C 323.375 252.085938 323.378906 251.980469 323.378906 251.871094 C 323.3125 248.257812 322.273438 244.667969 320.144531 241.804688 L 308.914062 241.804688 C 314.664062 242.617188 317.140625 247.214844 317.265625 251.820312 Z M 282.867188 252.195312 L 282.867188 241.804688 L 289.023438 241.804688 L 289.023438 252.195312 L 282.867188 252.195312 " fill-opacity="1" fill-rule="nonzero"/><g clip-path="url(#a69d6852d6)"><path fill="#00e6fa" d="M 198.097656 252.195312 C 198.078125 248.125 199.863281 243.746094 203.945312 241.804688 L 195.234375 241.804688 C 193.128906 244.800781 192.074219 248.496094 192.039062 252.195312 Z M 219.492188 252.195312 L 225.554688 252.195312 C 225.566406 248.503906 224.519531 244.804688 222.402344 241.804688 L 213.691406 241.804688 C 217.753906 243.742188 219.492188 248.121094 219.492188 252.195312 Z M 258.695312 252.195312 L 258.695312 241.804688 L 252.589844 241.804688 L 252.589844 252.195312 Z M 236.179688 252.195312 L 236.179688 241.804688 L 230.070312 241.804688 L 230.070312 252.195312 Z M 271.328125 252.195312 L 271.328125 246.460938 L 275.785156 252.195312 L 283.09375 252.195312 L 274.875 241.804688 L 265.171875 241.804688 L 265.171875 252.195312 Z M 118.058594 252.195312 L 124.121094 252.195312 C 124.136719 248.503906 123.085938 244.804688 120.976562 241.804688 L 112.261719 241.804688 C 116.328125 243.742188 118.0625 248.121094 118.058594 252.195312 Z M 64.96875 246.460938 L 69.429688 252.195312 L 76.734375 252.195312 L 68.519531 241.804688 L 58.816406 241.804688 L 58.816406 252.195312 L 64.96875 252.195312 Z M 85.949219 252.195312 L 85.949219 241.804688 L 79.792969 241.804688 L 79.792969 252.195312 Z M 141.320312 252.195312 L 141.320312 241.804688 L 135.171875 241.804688 L 135.171875 252.195312 Z M 187.332031 252.195312 L 187.332031 250.703125 L 170.964844 250.703125 L 170.964844 241.804688 L 164.8125 241.804688 L 164.8125 252.195312 Z M 96.667969 252.195312 C 96.648438 248.125 98.433594 243.746094 102.519531 241.804688 L 93.804688 241.804688 C 91.699219 244.800781 90.644531 248.496094 90.609375 252.195312 Z M 303.632812 252.195312 L 303.632812 241.804688 L 297.523438 241.804688 L 297.523438 252.195312 Z M 320.550781 251.820312 C 320.554688 251.945312 320.546875 252.070312 320.546875 252.195312 L 326.65625 252.195312 C 326.65625 252.085938 326.660156 251.980469 326.65625 251.871094 C 326.59375 248.257812 325.558594 244.667969 323.425781 241.804688 L 312.195312 241.804688 C 317.945312 242.617188 320.421875 247.214844 320.550781 251.820312 Z M 286.152344 252.195312 L 286.152344 241.804688 L 292.304688 241.804688 L 292.304688 252.195312 L 286.152344 252.195312 " fill-opacity="1" fill-rule="nonzero"/></g><path fill="#000000" d="M 196.457031 252.195312 C 196.4375 248.125 198.222656 243.746094 202.304688 241.804688 L 193.59375 241.804688 C 191.488281 244.800781 190.433594 248.496094 190.398438 252.195312 Z M 217.851562 252.195312 L 223.914062 252.195312 C 223.925781 248.503906 222.875 244.804688 220.761719 241.804688 L 212.050781 241.804688 C 216.113281 243.742188 217.851562 248.121094 217.851562 252.195312 Z M 257.054688 252.195312 L 257.054688 241.804688 L 250.949219 241.804688 L 250.949219 252.195312 Z M 234.539062 252.195312 L 234.539062 241.804688 L 228.429688 241.804688 L 228.429688 252.195312 Z M 269.683594 252.195312 L 269.683594 246.460938 L 274.144531 252.195312 L 281.449219 252.195312 L 273.234375 241.804688 L 263.53125 241.804688 L 263.53125 252.195312 Z M 116.417969 252.195312 L 122.480469 252.195312 C 122.492188 248.503906 121.445312 244.804688 119.332031 241.804688 L 110.621094 241.804688 C 114.6875 243.742188 116.421875 248.121094 116.417969 252.195312 Z M 63.328125 246.460938 L 67.789062 252.195312 L 75.09375 252.195312 L 66.878906 241.804688 L 57.175781 241.804688 L 57.175781 252.195312 L 63.328125 252.195312 Z M 84.304688 252.195312 L 84.304688 241.804688 L 78.152344 241.804688 L 78.152344 252.195312 Z M 139.679688 252.195312 L 139.679688 241.804688 L 133.527344 241.804688 L 133.527344 252.195312 Z M 185.691406 252.195312 L 185.691406 250.703125 L 169.324219 250.703125 L 169.324219 241.804688 L 163.171875 241.804688 L 163.171875 252.195312 Z M 95.027344 252.195312 C 95.007812 248.125 96.792969 243.746094 100.878906 241.804688 L 92.164062 241.804688 C 90.058594 244.800781 89 248.496094 88.964844 252.195312 Z M 301.988281 252.195312 L 301.988281 241.804688 L 295.882812 241.804688 L 295.882812 252.195312 Z M 318.910156 251.820312 C 318.914062 251.945312 318.90625 252.070312 318.90625 252.195312 L 325.015625 252.195312 C 325.015625 252.085938 325.015625 251.980469 325.015625 251.871094 C 324.953125 248.257812 323.914062 244.667969 321.785156 241.804688 L 310.554688 241.804688 C 316.300781 242.617188 318.78125 247.214844 318.910156 251.820312 Z M 284.511719 252.195312 L 284.511719 241.804688 L 290.664062 241.804688 L 290.664062 252.195312 L 284.511719 252.195312 " fill-opacity="1" fill-rule="nonzero"/><path fill="#fa3c7b" d="M 203.894531 240.777344 C 205.792969 240.777344 207.410156 241.152344 208.765625 241.804688 L 217.480469 241.804688 C 214.734375 237.90625 210.203125 235.183594 203.894531 235.183594 C 197.558594 235.183594 193.050781 237.902344 190.308594 241.804688 L 199.023438 241.804688 C 200.390625 241.15625 202 240.777344 203.894531 240.777344 Z M 102.464844 240.777344 C 104.363281 240.777344 105.976562 241.152344 107.339844 241.804688 L 116.050781 241.804688 C 113.308594 237.90625 108.773438 235.183594 102.464844 235.183594 C 96.132812 235.183594 91.617188 237.902344 88.882812 241.804688 L 97.59375 241.804688 C 98.957031 241.15625 100.574219 240.777344 102.464844 240.777344 Z M 183.339844 241.804688 L 183.339844 235.886719 L 159.890625 235.886719 L 159.890625 241.804688 Z M 81.023438 235.789062 L 74.871094 235.789062 L 74.871094 241.804688 L 81.023438 241.804688 Z M 253.773438 235.886719 L 247.664062 235.886719 L 247.664062 241.804688 L 253.773438 241.804688 Z M 136.398438 241.429688 L 146.75 241.429688 L 146.75 235.839844 C 137.285156 235.839844 129.3125 235.839844 119.898438 235.839844 L 119.898438 241.429688 L 130.246094 241.429688 L 130.246094 241.804688 L 136.398438 241.804688 Z M 231.253906 235.886719 L 225.152344 235.886719 L 225.152344 241.804688 L 231.253906 241.804688 Z M 58.878906 235.839844 L 53.894531 235.839844 L 53.894531 241.804688 L 63.59375 241.804688 Z M 265.234375 235.839844 L 260.25 235.839844 L 260.25 241.804688 L 269.953125 241.804688 Z M 298.707031 241.664062 L 305.417969 241.664062 C 306.074219 241.664062 306.683594 241.71875 307.269531 241.804688 L 318.503906 241.804688 C 315.878906 238.269531 311.59375 235.839844 305.417969 235.839844 C 301.410156 235.839844 296.605469 235.839844 292.597656 235.839844 L 292.597656 241.804688 L 298.707031 241.804688 Z M 287.378906 241.804688 L 281.226562 241.804688 L 281.226562 235.789062 L 287.378906 235.789062 L 287.378906 241.804688 " fill-opacity="1" fill-rule="nonzero"/><path fill="#00e6fa" d="M 207.175781 240.777344 C 209.074219 240.777344 210.691406 241.152344 212.050781 241.804688 L 220.761719 241.804688 C 218.019531 237.90625 213.488281 235.183594 207.175781 235.183594 C 200.839844 235.183594 196.332031 237.902344 193.59375 241.804688 L 202.304688 241.804688 C 203.671875 241.15625 205.285156 240.777344 207.175781 240.777344 Z M 105.746094 240.777344 C 107.648438 240.777344 109.261719 241.152344 110.621094 241.804688 L 119.332031 241.804688 C 116.585938 237.90625 112.058594 235.183594 105.746094 235.183594 C 99.414062 235.183594 94.902344 237.902344 92.164062 241.804688 L 100.878906 241.804688 C 102.238281 241.15625 103.851562 240.777344 105.746094 240.777344 Z M 186.625 241.804688 L 186.625 235.886719 L 163.171875 235.886719 L 163.171875 241.804688 Z M 84.304688 235.789062 L 78.152344 235.789062 L 78.152344 241.804688 L 84.304688 241.804688 Z M 257.054688 235.886719 L 250.949219 235.886719 L 250.949219 241.804688 L 257.054688 241.804688 Z M 139.679688 241.429688 L 150.03125 241.429688 L 150.03125 235.839844 C 140.566406 235.839844 132.59375 235.839844 123.179688 235.839844 L 123.179688 241.429688 L 133.527344 241.429688 L 133.527344 241.804688 L 139.679688 241.804688 Z M 234.539062 235.886719 L 228.429688 235.886719 L 228.429688 241.804688 L 234.539062 241.804688 Z M 62.160156 235.839844 L 57.175781 235.839844 L 57.175781 241.804688 L 66.878906 241.804688 Z M 268.519531 235.839844 L 263.53125 235.839844 L 263.53125 241.804688 L 273.234375 241.804688 Z M 301.988281 241.664062 L 308.699219 241.664062 C 309.355469 241.664062 309.96875 241.71875 310.554688 241.804688 L 321.785156 241.804688 C 319.164062 238.269531 314.878906 235.839844 308.699219 235.839844 C 304.691406 235.839844 299.886719 235.839844 295.882812 235.839844 L 295.882812 241.804688 L 301.988281 241.804688 Z M 290.664062 241.804688 L 284.511719 241.804688 L 284.511719 235.789062 L 290.664062 235.789062 L 290.664062 241.804688 " fill-opacity="1" fill-rule="nonzero"/><path fill="#000000" d="M 205.535156 240.777344 C 207.433594 240.777344 209.050781 241.152344 210.40625 241.804688 L 219.121094 241.804688 C 216.378906 237.90625 211.847656 235.183594 205.535156 235.183594 C 199.199219 235.183594 194.691406 237.902344 191.949219 241.804688 L 200.664062 241.804688 C 202.03125 241.15625 203.644531 240.777344 205.535156 240.777344 Z M 104.105469 240.777344 C 106.007812 240.777344 107.621094 241.152344 108.980469 241.804688 L 117.691406 241.804688 C 114.945312 237.90625 110.414062 235.183594 104.105469 235.183594 C 97.773438 235.183594 93.261719 237.902344 90.523438 241.804688 L 99.234375 241.804688 C 100.597656 241.15625 102.210938 240.777344 104.105469 240.777344 Z M 184.980469 241.804688 L 184.980469 235.886719 L 161.53125 235.886719 L 161.53125 241.804688 Z M 82.664062 235.789062 L 76.511719 235.789062 L 76.511719 241.804688 L 82.664062 241.804688 Z M 255.410156 235.886719 L 249.304688 235.886719 L 249.304688 241.804688 L 255.410156 241.804688 Z M 138.039062 241.429688 L 148.390625 241.429688 L 148.390625 235.839844 C 138.925781 235.839844 130.953125 235.839844 121.539062 235.839844 L 121.539062 241.429688 L 131.886719 241.429688 L 131.886719 241.804688 L 138.039062 241.804688 Z M 232.894531 235.886719 L 226.792969 235.886719 L 226.792969 241.804688 L 232.894531 241.804688 Z M 60.519531 235.839844 L 55.535156 235.839844 L 55.535156 241.804688 L 65.234375 241.804688 Z M 266.875 235.839844 L 261.890625 235.839844 L 261.890625 241.804688 L 271.59375 241.804688 Z M 300.347656 241.664062 L 307.058594 241.664062 C 307.714844 241.664062 308.328125 241.71875 308.914062 241.804688 L 320.144531 241.804688 C 317.519531 238.269531 313.238281 235.839844 307.058594 235.839844 C 303.050781 235.839844 298.246094 235.839844 294.242188 235.839844 L 294.242188 241.804688 L 300.347656 241.804688 Z M 289.023438 241.804688 L 282.867188 241.804688 L 282.867188 235.789062 L 289.023438 235.789062 L 289.023438 241.804688 " fill-opacity="1" fill-rule="nonzero"/><path fill="#fa3c7b" d="M 181.585938 256.390625 L 181.585938 252.195312 L 159.066406 252.195312 L 159.066406 262.589844 L 165.222656 262.589844 L 165.222656 256.390625 Z M 192.351562 252.476562 C 192.347656 252.382812 192.355469 252.289062 192.351562 252.195312 L 186.292969 252.195312 C 186.292969 252.253906 186.289062 252.320312 186.289062 252.382812 C 186.289062 256.050781 187.269531 259.65625 189.28125 262.589844 L 198.171875 262.589844 C 194.109375 260.722656 192.457031 256.492188 192.351562 252.476562 Z M 129.421875 252.195312 L 129.421875 262.589844 L 135.578125 262.589844 L 135.578125 252.195312 Z M 230.433594 254.570312 L 230.433594 252.195312 L 224.328125 252.195312 L 224.328125 254.570312 C 224.328125 257.785156 225.050781 260.449219 226.28125 262.589844 L 234.53125 262.589844 C 231.96875 261.242188 230.433594 258.539062 230.433594 254.570312 Z M 219.808594 252.195312 L 213.746094 252.195312 C 213.746094 252.273438 213.75 252.351562 213.75 252.429688 C 213.679688 256.453125 212.03125 260.714844 207.953125 262.589844 L 216.742188 262.589844 C 218.777344 259.621094 219.769531 255.980469 219.808594 252.335938 C 219.8125 252.289062 219.808594 252.242188 219.808594 252.195312 Z M 53.070312 252.195312 L 53.070312 262.589844 L 59.222656 262.589844 L 59.222656 252.195312 Z M 118.375 252.195312 L 112.3125 252.195312 C 112.3125 252.273438 112.320312 252.351562 112.320312 252.429688 C 112.246094 256.453125 110.597656 260.714844 106.523438 262.589844 L 115.3125 262.589844 C 117.347656 259.621094 118.339844 255.980469 118.378906 252.335938 C 118.378906 252.289062 118.375 252.242188 118.375 252.195312 Z M 74.046875 252.195312 L 74.046875 256.0625 L 70.988281 252.195312 L 63.6875 252.195312 L 71.773438 262.589844 L 80.203125 262.589844 L 80.203125 252.195312 Z M 90.921875 252.476562 C 90.917969 252.382812 90.925781 252.289062 90.925781 252.195312 L 84.863281 252.195312 C 84.863281 252.253906 84.863281 252.320312 84.863281 252.382812 C 84.863281 256.050781 85.835938 259.65625 87.851562 262.589844 L 96.746094 262.589844 C 92.675781 260.722656 91.023438 256.492188 90.921875 252.476562 Z M 252.953125 252.195312 L 246.84375 252.195312 L 246.84375 254.570312 C 246.84375 258.402344 245.492188 261.199219 243.003906 262.589844 L 251.121094 262.589844 C 252.289062 260.433594 252.953125 257.765625 252.953125 254.570312 Z M 314.800781 252.195312 C 314.796875 257.386719 311.835938 262.539062 304.597656 262.539062 L 297.882812 262.539062 L 297.882812 252.195312 L 291.777344 252.195312 L 291.777344 262.589844 L 317.628906 262.589844 C 319.855469 259.644531 320.914062 255.921875 320.914062 252.195312 Z M 280.40625 252.195312 L 280.40625 256.0625 L 277.347656 252.195312 L 270.042969 252.195312 L 278.132812 262.589844 L 286.558594 262.589844 L 286.558594 252.195312 Z M 265.582031 252.195312 L 265.582031 262.589844 L 259.429688 262.589844 L 259.429688 252.195312 L 265.582031 252.195312 " fill-opacity="1" fill-rule="nonzero"/><path fill="#00e6fa" d="M 184.871094 256.390625 L 184.871094 252.195312 L 162.351562 252.195312 L 162.351562 262.589844 L 168.503906 262.589844 L 168.503906 256.390625 Z M 195.632812 252.476562 C 195.628906 252.382812 195.636719 252.289062 195.636719 252.195312 L 189.578125 252.195312 C 189.578125 252.253906 189.574219 252.320312 189.574219 252.382812 C 189.574219 256.050781 190.550781 259.65625 192.5625 262.589844 L 201.457031 262.589844 C 197.390625 260.722656 195.742188 256.492188 195.632812 252.476562 Z M 132.707031 252.195312 L 132.707031 262.589844 L 138.859375 262.589844 L 138.859375 252.195312 Z M 233.71875 254.570312 L 233.71875 252.195312 L 227.613281 252.195312 L 227.613281 254.570312 C 227.613281 257.785156 228.335938 260.449219 229.566406 262.589844 L 237.8125 262.589844 C 235.253906 261.242188 233.71875 258.539062 233.71875 254.570312 Z M 223.089844 252.195312 L 217.027344 252.195312 C 217.027344 252.273438 217.03125 252.351562 217.03125 252.429688 C 216.960938 256.453125 215.3125 260.714844 211.234375 262.589844 L 220.023438 262.589844 C 222.0625 259.621094 223.050781 255.980469 223.09375 252.335938 C 223.09375 252.289062 223.089844 252.242188 223.089844 252.195312 Z M 56.355469 252.195312 L 56.355469 262.589844 L 62.507812 262.589844 L 62.507812 252.195312 Z M 121.660156 252.195312 L 115.597656 252.195312 C 115.597656 252.273438 115.605469 252.351562 115.601562 252.429688 C 115.53125 256.453125 113.882812 260.714844 109.804688 262.589844 L 118.597656 262.589844 C 120.628906 259.621094 121.621094 255.980469 121.660156 252.335938 C 121.664062 252.289062 121.660156 252.242188 121.660156 252.195312 Z M 77.332031 252.195312 L 77.332031 256.0625 L 74.273438 252.195312 L 66.96875 252.195312 L 75.054688 262.589844 L 83.484375 262.589844 L 83.484375 252.195312 Z M 94.203125 252.476562 C 94.203125 252.382812 94.207031 252.289062 94.207031 252.195312 L 88.144531 252.195312 C 88.144531 252.253906 88.144531 252.320312 88.144531 252.382812 C 88.144531 256.050781 89.121094 259.65625 91.132812 262.589844 L 100.027344 262.589844 C 95.960938 260.722656 94.308594 256.492188 94.203125 252.476562 Z M 256.230469 252.195312 L 250.125 252.195312 L 250.125 254.570312 C 250.125 258.402344 248.769531 261.199219 246.285156 262.589844 L 254.40625 262.589844 C 255.574219 260.433594 256.230469 257.765625 256.230469 254.570312 Z M 318.085938 252.195312 C 318.082031 257.386719 315.117188 262.539062 307.878906 262.539062 L 301.167969 262.539062 L 301.167969 252.195312 L 295.0625 252.195312 L 295.0625 262.589844 L 320.910156 262.589844 C 323.140625 259.644531 324.199219 255.921875 324.195312 252.195312 Z M 283.6875 252.195312 L 283.6875 256.0625 L 280.628906 252.195312 L 273.324219 252.195312 L 281.414062 262.589844 L 289.84375 262.589844 L 289.84375 252.195312 Z M 268.863281 252.195312 L 268.863281 262.589844 L 262.710938 262.589844 L 262.710938 252.195312 L 268.863281 252.195312 " fill-opacity="1" fill-rule="nonzero"/><path fill="#000000" d="M 183.226562 256.390625 L 183.226562 252.195312 L 160.710938 252.195312 L 160.710938 262.589844 L 166.867188 262.589844 L 166.867188 256.390625 Z M 193.992188 252.476562 C 193.992188 252.382812 193.996094 252.289062 193.996094 252.195312 L 187.9375 252.195312 C 187.933594 252.253906 187.929688 252.320312 187.929688 252.382812 C 187.929688 256.050781 188.910156 259.65625 190.917969 262.589844 L 199.8125 262.589844 C 195.75 260.722656 194.097656 256.492188 193.992188 252.476562 Z M 131.066406 252.195312 L 131.066406 262.589844 L 137.21875 262.589844 L 137.21875 252.195312 Z M 232.074219 254.570312 L 232.074219 252.195312 L 225.972656 252.195312 L 225.972656 254.570312 C 225.972656 257.785156 226.691406 260.449219 227.925781 262.589844 L 236.171875 262.589844 C 233.609375 261.242188 232.074219 258.539062 232.074219 254.570312 Z M 221.449219 252.195312 L 215.386719 252.195312 C 215.386719 252.273438 215.390625 252.351562 215.390625 252.429688 C 215.320312 256.453125 213.671875 260.714844 209.59375 262.589844 L 218.382812 262.589844 C 220.421875 259.621094 221.410156 255.980469 221.453125 252.335938 C 221.453125 252.289062 221.449219 252.242188 221.449219 252.195312 Z M 54.714844 252.195312 L 54.714844 262.589844 L 60.867188 262.589844 L 60.867188 252.195312 Z M 120.019531 252.195312 L 113.953125 252.195312 C 113.953125 252.273438 113.960938 252.351562 113.960938 252.429688 C 113.890625 256.453125 112.242188 260.714844 108.164062 262.589844 L 116.953125 262.589844 C 118.988281 259.621094 119.980469 255.980469 120.019531 252.335938 C 120.019531 252.289062 120.019531 252.242188 120.019531 252.195312 Z M 75.691406 252.195312 L 75.691406 256.0625 L 72.632812 252.195312 L 65.328125 252.195312 L 73.414062 262.589844 L 81.84375 262.589844 L 81.84375 252.195312 Z M 92.5625 252.476562 C 92.5625 252.382812 92.566406 252.289062 92.566406 252.195312 L 86.503906 252.195312 C 86.503906 252.253906 86.503906 252.320312 86.503906 252.382812 C 86.503906 256.050781 87.480469 259.65625 89.492188 262.589844 L 98.386719 262.589844 C 94.320312 260.722656 92.667969 256.492188 92.5625 252.476562 Z M 254.59375 252.195312 L 248.484375 252.195312 L 248.484375 254.570312 C 248.484375 258.402344 247.132812 261.199219 244.644531 262.589844 L 252.765625 262.589844 C 253.929688 260.433594 254.59375 257.765625 254.59375 254.570312 Z M 316.445312 252.195312 C 316.4375 257.386719 313.476562 262.539062 306.238281 262.539062 L 299.527344 262.539062 L 299.527344 252.195312 L 293.417969 252.195312 L 293.417969 262.589844 L 319.269531 262.589844 C 321.5 259.644531 322.558594 255.921875 322.554688 252.195312 Z M 282.046875 252.195312 L 282.046875 256.0625 L 278.988281 252.195312 L 271.683594 252.195312 L 279.769531 262.589844 L 288.199219 262.589844 L 288.199219 252.195312 Z M 267.222656 252.195312 L 267.222656 262.589844 L 261.070312 262.589844 L 261.070312 252.195312 L 267.222656 252.195312 " fill-opacity="1" fill-rule="nonzero"/><g clip-path="url(#1907fc22a4)"><path fill="#5844ad" d="M 187.496094 8.996094 C 88.890625 8.996094 8.996094 88.960938 8.996094 187.496094 C 8.996094 286.03125 88.890625 365.996094 187.496094 365.996094 C 286.105469 365.996094 365.996094 286.03125 365.996094 187.496094 C 365.996094 88.960938 286.105469 8.996094 187.496094 8.996094 Z M 187.496094 354.695312 C 95.152344 354.695312 20.296875 279.84375 20.296875 187.496094 C 20.296875 95.152344 95.152344 20.296875 187.496094 20.296875 C 279.84375 20.296875 354.695312 95.152344 354.695312 187.496094 C 354.695312 279.84375 279.84375 354.695312 187.496094 354.695312 Z M 187.496094 354.695312 " fill-opacity="1" fill-rule="nonzero"/></g></svg>