<svg xmlns="http://www.w3.org/2000/svg" xmlns:xlink="http://www.w3.org/1999/xlink" width="500" zoomAndPan="magnify" viewBox="0 0 375 374.999991" height="500" preserveAspectRatio="xMidYMid meet" version="1.0"><defs><clipPath id="5c9044bf7a"><path d="M 17.234375 17.234375 L 357.765625 17.234375 L 357.765625 357.765625 L 17.234375 357.765625 Z M 17.234375 17.234375 " clip-rule="nonzero"/></clipPath><clipPath id="b3fc690974"><path d="M 187.5 17.234375 C 93.464844 17.234375 17.234375 93.464844 17.234375 187.5 C 17.234375 281.535156 93.464844 357.765625 187.5 357.765625 C 281.535156 357.765625 357.765625 281.535156 357.765625 187.5 C 357.765625 93.464844 281.535156 17.234375 187.5 17.234375 Z M 187.5 17.234375 " clip-rule="nonzero"/></clipPath><clipPath id="48216565d6"><path d="M 63.109375 107.734375 L 312.109375 107.734375 L 312.109375 267.484375 L 63.109375 267.484375 Z M 63.109375 107.734375 " clip-rule="nonzero"/></clipPath><clipPath id="90215d7c30"><path d="M 10.828125 10.828125 L 364.078125 10.828125 L 364.078125 364.078125 L 10.828125 364.078125 Z M 10.828125 10.828125 " clip-rule="nonzero"/></clipPath></defs><g clip-path="url(#5c9044bf7a)"><g clip-path="url(#b3fc690974)"><path fill="#2b3159" d="M 17.234375 17.234375 L 357.765625 17.234375 L 357.765625 357.765625 L 17.234375 357.765625 Z M 17.234375 17.234375 " fill-opacity="1" fill-rule="nonzero"/></g></g><path fill="#231f20" d="M 187.5 0 C 83.921875 0 0 83.996094 0 187.5 C 0 291.003906 83.921875 375 187.5 375 C 291.078125 375 375 291.003906 375 187.5 C 375 83.996094 291.078125 0 187.5 0 Z M 187.5 363.128906 C 90.5 363.128906 11.871094 284.5 11.871094 187.5 C 11.871094 90.5 90.5 11.871094 187.5 11.871094 C 284.5 11.871094 363.128906 90.5 363.128906 187.5 C 363.128906 284.5 284.5 363.128906 187.5 363.128906 Z M 187.5 363.128906 " fill-opacity="1" fill-rule="nonzero"/><g clip-path="url(#48216565d6)"><path fill="#ff9a0b" d="M 311.886719 109.359375 C 311.640625 109.027344 311.199219 108.894531 310.816406 109.046875 L 307.976562 110.152344 C 295.617188 114.957031 282.949219 119.882812 271.382812 126.324219 C 276.003906 120.964844 279.558594 114.722656 282.660156 109.28125 C 282.882812 108.886719 282.785156 108.382812 282.425781 108.105469 C 282.066406 107.824219 281.558594 107.851562 281.230469 108.167969 C 269.9375 119.070312 254.722656 124.824219 240.007812 130.390625 C 235.867188 131.957031 231.585938 133.574219 227.457031 135.285156 C 216.519531 139.8125 205.835938 146.199219 196.746094 152.183594 C 200.8125 147.496094 204.292969 142.265625 207.007812 136.738281 C 207.191406 136.363281 207.097656 135.910156 206.777344 135.636719 C 206.460938 135.367188 206 135.347656 205.65625 135.585938 C 186.507812 149.128906 161.265625 164.890625 133.640625 168.75 C 142.550781 163.1875 150.644531 156.042969 157.226562 147.910156 C 157.519531 147.550781 157.496094 147.027344 157.171875 146.695312 C 156.847656 146.363281 156.328125 146.324219 155.960938 146.605469 C 146.675781 153.695312 135.085938 157.039062 123.882812 160.269531 C 115.226562 162.765625 106.277344 165.347656 98.253906 169.644531 C 91.507812 173.257812 85.519531 177.996094 80.449219 183.730469 C 73.585938 191.484375 66.261719 201.179688 63.953125 214.246094 C 63.542969 216.578125 63.113281 219.648438 63.46875 222.714844 C 63.976562 227.109375 66.007812 231.121094 67.871094 234.53125 C 70.230469 238.851562 73.191406 243.792969 77.300781 247.71875 C 77.953125 248.339844 78.632812 248.9375 79.3125 249.53125 C 80.417969 250.5 81.460938 251.414062 82.402344 252.453125 C 83.25 253.390625 83.949219 254.359375 84.625 255.296875 C 86 257.203125 87.296875 259.003906 89.644531 260.347656 C 93.308594 262.445312 97.828125 264.144531 103.078125 265.390625 C 107.6875 266.488281 112.523438 267.429688 117.402344 267.429688 C 119.644531 267.429688 121.894531 267.230469 124.136719 266.757812 C 129.011719 265.722656 134.042969 263.800781 139.511719 260.882812 C 140.675781 260.261719 141.726562 259.585938 142.722656 258.816406 C 144.613281 257.359375 146.074219 255.734375 147.621094 254.011719 C 148.316406 253.234375 149.050781 252.417969 149.871094 251.5625 C 152.910156 248.390625 156.222656 245.515625 159.632812 242.605469 C 181.222656 224.183594 200.128906 210.308594 222.207031 202.480469 L 222.9375 202.222656 C 227.070312 200.765625 231.34375 199.261719 234.003906 195.695312 C 234.222656 195.402344 234.246094 195.011719 234.070312 194.695312 C 233.890625 194.378906 233.539062 194.195312 233.183594 194.234375 C 228.445312 194.707031 224.539062 195.367188 220.460938 197.003906 C 223.867188 189.566406 230.652344 184.09375 237.558594 179.28125 C 252.640625 168.773438 269.019531 160.183594 286.238281 153.75 C 286.640625 153.597656 286.882812 153.191406 286.828125 152.765625 C 286.769531 152.34375 286.425781 152.015625 285.996094 151.980469 C 275.820312 151.121094 265.332031 153.285156 255.429688 158.257812 C 259.519531 152.859375 263.824219 147.480469 268.863281 142.929688 C 274.445312 137.890625 281.027344 133.78125 287.394531 129.808594 C 296.167969 124.332031 305.242188 118.671875 311.859375 110.476562 C 312.121094 110.152344 312.128906 109.695312 311.886719 109.359375 Z M 311.886719 109.359375 " fill-opacity="1" fill-rule="nonzero"/></g><path fill="#fbeb4e" d="M 183.460938 210.605469 C 183.410156 210.648438 183.359375 210.6875 183.304688 210.730469 C 181.019531 212.492188 179.882812 212.710938 177.386719 212.539062 L 200.460938 193.648438 C 200.632812 193.511719 200.675781 193.269531 200.566406 193.078125 C 200.457031 192.886719 200.226562 192.804688 200.023438 192.882812 C 192.175781 195.8125 183.511719 196.179688 175.449219 193.953125 C 183.90625 191.371094 190.492188 185.027344 196.875 178.878906 C 201.519531 174.410156 206.324219 169.785156 211.835938 166.582031 C 212.039062 166.464844 212.09375 166.222656 211.996094 166.011719 C 211.898438 165.804688 211.636719 165.710938 211.414062 165.789062 C 201.296875 169.441406 190.835938 173.21875 180.414062 176.523438 C 172.914062 178.902344 164.941406 181.167969 156.972656 180.582031 C 157.160156 180.445312 157.347656 180.347656 157.566406 180.230469 C 157.890625 180.058594 158.261719 179.863281 158.742188 179.488281 C 164.503906 174.96875 168.375 168.210938 169.359375 160.949219 C 169.382812 160.777344 169.304688 160.605469 169.15625 160.511719 C 169.011719 160.417969 168.824219 160.417969 168.675781 160.511719 C 154.714844 169.292969 138.652344 174.257812 122.183594 174.890625 C 123.097656 170.410156 125.480469 166.316406 128.941406 163.296875 C 129.125 163.132812 129.144531 162.851562 128.984375 162.664062 C 128.820312 162.476562 128.535156 162.457031 128.347656 162.621094 C 125.890625 164.765625 122.699219 165.707031 119.613281 166.621094 C 118.285156 167.011719 116.914062 167.417969 115.617188 167.914062 C 111.054688 169.660156 106.773438 171.621094 102.886719 173.75 C 94.363281 178.421875 85.707031 183.898438 79.558594 191.296875 C 73.746094 198.285156 67.527344 207.148438 66.40625 216.40625 C 64.117188 235.277344 83.714844 256.378906 101.308594 260.523438 C 104.203125 261.207031 107.191406 261.402344 110.121094 261.402344 C 111.371094 261.402344 112.609375 261.363281 113.824219 261.316406 C 119.941406 261.070312 127.03125 260.421875 133.191406 257.480469 C 137.582031 255.382812 141.339844 252.234375 144.976562 249.191406 L 162.082031 234.867188 C 167.5625 230.277344 173.230469 225.53125 177.460938 219.546875 C 177.929688 218.882812 178.386719 218.199219 178.839844 217.515625 C 180.300781 215.320312 181.808594 213.054688 183.863281 211.433594 C 183.910156 211.394531 183.960938 211.355469 184.011719 211.316406 C 184.207031 211.164062 184.242188 210.882812 184.089844 210.691406 C 183.9375 210.492188 183.660156 210.457031 183.460938 210.605469 Z M 183.460938 210.605469 " fill-opacity="1" fill-rule="nonzero"/><path fill="#fbeb4e" d="M 248.980469 131.828125 C 248.792969 131.679688 248.523438 131.699219 248.363281 131.878906 C 240.632812 140.574219 229.359375 144.925781 218.453125 149.132812 C 214.828125 150.53125 211.082031 151.980469 207.519531 153.5625 C 204.34375 154.976562 200.753906 156.804688 198.214844 159.671875 C 196.214844 161.925781 195.472656 163.90625 196.222656 164.964844 C 196.488281 165.34375 196.992188 165.675781 197.941406 165.675781 C 198.714844 165.675781 199.785156 165.453125 201.265625 164.847656 L 217.855469 158.070312 C 222.464844 156.1875 227.230469 154.238281 231.449219 151.40625 C 238.757812 146.503906 243.992188 139.355469 249.058594 132.441406 C 249.199219 132.25 249.164062 131.980469 248.980469 131.828125 Z M 248.980469 131.828125 " fill-opacity="1" fill-rule="nonzero"/><path fill="#fbeb4e" d="M 243.34375 157.5625 C 242.234375 158.308594 241.277344 159.21875 240.414062 160.21875 C 234.15625 165.410156 226.542969 168.898438 219.148438 172.285156 C 215.03125 174.171875 210.777344 176.121094 206.789062 178.34375 L 206.707031 178.390625 C 204.140625 179.820312 199.367188 182.480469 198.496094 185.601562 C 198.113281 186.972656 198.289062 188.035156 199.019531 188.761719 C 199.722656 189.457031 200.859375 189.722656 202.113281 189.722656 C 203.234375 189.722656 204.445312 189.511719 205.515625 189.203125 C 218.300781 185.523438 229.496094 177.453125 237.039062 166.484375 C 237.375 165.992188 237.707031 165.496094 238.039062 164.996094 C 238.980469 163.582031 239.941406 162.140625 241.046875 160.859375 C 242.035156 160.035156 242.992188 159.167969 243.910156 158.253906 C 244.074219 158.089844 244.085938 157.828125 243.9375 157.648438 C 243.792969 157.472656 243.535156 157.433594 243.34375 157.5625 Z M 243.34375 157.5625 " fill-opacity="1" fill-rule="nonzero"/><path fill="#fbeb4e" d="M 212.9375 196.332031 C 210.113281 198.222656 206.769531 199.292969 203.535156 200.324219 C 202.289062 200.722656 201 201.136719 199.75 201.59375 C 195.925781 202.988281 190.761719 205.203125 190.082031 208.328125 C 189.8125 209.578125 189.980469 210.480469 190.578125 211.011719 C 190.992188 211.371094 191.550781 211.511719 192.183594 211.511719 C 193.441406 211.511719 194.988281 210.960938 196.246094 210.515625 C 199.464844 209.375 202.636719 207.472656 205.949219 204.707031 C 207.136719 203.71875 208.238281 202.425781 209.304688 201.175781 C 210.609375 199.644531 211.960938 198.0625 213.4375 197.078125 C 213.644531 196.941406 213.699219 196.660156 213.5625 196.453125 C 213.421875 196.25 213.144531 196.191406 212.9375 196.332031 Z M 212.9375 196.332031 " fill-opacity="1" fill-rule="nonzero"/><path fill="#8f9092" d="M 172.542969 216.253906 C 171.941406 218.503906 170.410156 219.71875 168.929688 220.902344 C 167.429688 222.085938 166.023438 223.21875 165.484375 225.433594 C 165.375 225.847656 165.285156 226.324219 165.195312 226.824219 C 164.785156 229.078125 164.210938 232.15625 161.804688 233.316406 C 160.363281 234.007812 159.417969 233.585938 158.730469 233.28125 C 158.191406 233.046875 157.804688 232.875 157.070312 233.074219 C 155.839844 233.40625 153.804688 235.953125 152.324219 237.8125 C 151.417969 238.953125 150.644531 239.929688 149.992188 240.53125 C 148.421875 242.003906 146.996094 243.59375 145.621094 245.128906 C 144.734375 246.113281 143.808594 247.136719 142.851562 248.132812 C 136.617188 254.597656 130.738281 256.578125 126.21875 253.78125 C 124.820312 254.855469 123.367188 255.878906 121.839844 256.707031 C 119.757812 257.828125 117.542969 258.582031 115.15625 258.582031 L 115.121094 258.582031 C 114.242188 258.582031 113.085938 258.625 111.75 258.671875 C 110.015625 258.734375 108.042969 258.804688 106.089844 258.804688 C 102.964844 258.804688 99.890625 258.625 97.925781 257.933594 C 95.339844 257.019531 94.523438 253.96875 93.808594 251.277344 C 93.769531 251.148438 93.734375 251.023438 93.699219 250.898438 C 93.339844 249.550781 92.972656 248.296875 92.425781 247.453125 C 91.402344 245.898438 89.5625 243.996094 87.949219 243.503906 C 87.410156 243.339844 86.792969 243.386719 86.128906 243.429688 C 85.160156 243.492188 84.054688 243.566406 83.023438 242.9375 C 82.308594 242.507812 82.027344 241.761719 81.804688 241.160156 C 81.679688 240.820312 81.542969 240.46875 81.390625 240.335938 C 80.960938 239.957031 80.476562 239.824219 79.867188 239.644531 C 79.246094 239.464844 78.558594 239.265625 77.847656 238.789062 C 75.757812 237.371094 75.101562 235.316406 74.476562 233.324219 C 74.214844 232.5 73.945312 231.636719 73.570312 230.828125 C 73.113281 229.84375 72.421875 228.855469 71.683594 227.804688 C 70.617188 226.269531 69.503906 224.683594 69.039062 222.933594 C 68.429688 220.589844 68.796875 216.785156 69.019531 214.511719 C 69.65625 208.105469 73.085938 203.796875 76.707031 199.226562 C 77.847656 197.800781 79.015625 196.328125 80.144531 194.742188 C 82.765625 191.050781 83.292969 190.828125 87.269531 189.875 L 87.582031 189.804688 C 89.519531 189.335938 91.628906 188.3125 93.539062 187.175781 C 95.449219 186.042969 97.171875 184.796875 98.347656 183.898438 C 99.871094 182.730469 101.179688 181.492188 102.445312 180.289062 C 106.230469 176.671875 109.507812 173.558594 115.382812 176.035156 C 116.773438 176.617188 118.199219 176.96875 119.6875 177.308594 L 120.578125 177.5 C 122.09375 177.832031 123.664062 178.171875 125.195312 178.726562 C 125.90625 178.980469 126.40625 179.1875 126.820312 179.355469 C 127.949219 179.8125 128.148438 179.894531 129.960938 179.839844 C 131 179.8125 132.183594 179.445312 133.332031 179.085938 C 133.78125 178.945312 134.238281 178.808594 134.695312 178.683594 C 135.011719 178.59375 135.316406 178.523438 135.613281 178.460938 C 142.886719 176.996094 147.039062 177.167969 152.40625 182.101562 C 154.640625 184.160156 156.578125 186.535156 158.460938 188.84375 C 161.949219 193.132812 165.25 197.179688 170.273438 199.34375 C 170.597656 199.480469 170.8125 199.785156 170.832031 200.132812 C 170.867188 200.949219 170.859375 201.667969 170.839844 202.359375 C 170.8125 203.671875 170.796875 204.808594 171.191406 206.058594 L 171.441406 206.855469 C 172.363281 209.738281 173.40625 213.003906 172.542969 216.253906 Z M 172.542969 216.253906 " fill-opacity="1" fill-rule="nonzero"/><path fill="#46444a" d="M 172.542969 216.253906 C 171.941406 218.503906 170.410156 219.71875 168.929688 220.902344 C 167.429688 222.085938 166.023438 223.21875 165.484375 225.433594 C 165.375 225.847656 165.285156 226.324219 165.195312 226.824219 C 164.785156 229.078125 164.210938 232.15625 161.804688 233.316406 C 160.363281 234.007812 159.417969 233.585938 158.730469 233.28125 C 158.191406 233.046875 157.804688 232.875 157.070312 233.074219 C 155.839844 233.40625 153.804688 235.953125 152.324219 237.8125 C 151.417969 238.953125 150.644531 239.929688 149.992188 240.53125 C 148.421875 242.003906 146.996094 243.59375 145.621094 245.128906 C 144.734375 246.113281 143.808594 247.136719 142.851562 248.132812 C 136.617188 254.597656 130.738281 256.578125 126.21875 253.78125 C 124.820312 254.855469 123.367188 255.878906 121.839844 256.707031 C 119.757812 257.828125 117.542969 258.582031 115.15625 258.582031 L 115.121094 258.582031 C 114.242188 258.582031 113.085938 258.625 111.75 258.671875 C 110.015625 258.734375 108.042969 258.804688 106.089844 258.804688 C 102.964844 258.804688 99.890625 258.625 97.925781 257.933594 C 95.339844 257.019531 94.523438 253.96875 93.808594 251.277344 C 93.769531 251.148438 93.734375 251.023438 93.699219 250.898438 C 94.757812 248.996094 96.121094 247.226562 97.761719 245.621094 C 98.292969 245.109375 98.859375 244.605469 99.441406 244.09375 C 100.867188 242.839844 102.339844 241.527344 103.246094 239.976562 C 103.820312 238.980469 104.140625 237.929688 104.457031 236.90625 C 104.992188 235.15625 105.550781 233.335938 107.378906 231.863281 C 108.894531 230.640625 110.582031 229.921875 112.207031 229.230469 C 115.273438 227.929688 117.929688 226.800781 118.332031 222.582031 C 118.476562 220.976562 117.921875 219.074219 117.382812 217.242188 C 116.394531 213.886719 115.375 210.410156 118.21875 207.960938 C 119.328125 207.007812 120.578125 206.695312 121.789062 206.390625 C 123.152344 206.050781 124.441406 205.726562 125.511719 204.488281 C 127.421875 202.234375 127.546875 198.5 127.027344 195.761719 C 126.480469 192.925781 125.125 188.863281 123.3125 186.160156 C 122.945312 185.613281 122.613281 185.128906 122.316406 184.695312 C 120.488281 182.066406 119.839844 181.117188 119.6875 177.308594 L 120.578125 177.5 C 122.09375 177.832031 123.664062 178.171875 125.195312 178.726562 C 125.90625 178.980469 126.40625 179.1875 126.820312 179.355469 C 127.949219 179.8125 128.148438 179.894531 129.960938 179.839844 C 131 179.8125 132.183594 179.445312 133.332031 179.085938 C 133.78125 178.941406 134.238281 178.808594 134.695312 178.683594 C 135.011719 178.59375 135.316406 178.523438 135.613281 178.457031 C 142.886719 176.996094 147.039062 177.167969 152.40625 182.101562 C 154.640625 184.15625 156.578125 186.535156 158.460938 188.84375 C 161.949219 193.132812 165.25 197.179688 170.273438 199.34375 C 170.597656 199.480469 170.8125 199.785156 170.832031 200.132812 C 170.867188 200.949219 170.859375 201.667969 170.839844 202.359375 C 170.8125 203.671875 170.796875 204.808594 171.191406 206.058594 L 171.441406 206.855469 C 172.363281 209.738281 173.40625 213.003906 172.542969 216.253906 Z M 172.542969 216.253906 " fill-opacity="1" fill-rule="nonzero"/><path fill="#343338" d="M 172.542969 216.253906 C 171.941406 218.503906 170.410156 219.71875 168.929688 220.902344 C 167.429688 222.085938 166.023438 223.21875 165.484375 225.433594 C 165.375 225.847656 165.285156 226.324219 165.195312 226.824219 C 164.785156 229.078125 164.210938 232.15625 161.804688 233.316406 C 160.363281 234.007812 159.417969 233.585938 158.730469 233.28125 C 158.191406 233.046875 157.804688 232.875 157.070312 233.074219 C 155.839844 233.40625 153.804688 235.953125 152.324219 237.8125 C 151.417969 238.953125 150.644531 239.929688 149.992188 240.53125 C 148.421875 242.003906 146.996094 243.59375 145.621094 245.128906 C 144.734375 246.113281 143.808594 247.136719 142.851562 248.132812 C 136.617188 254.597656 130.738281 256.578125 126.21875 253.78125 C 124.820312 254.855469 123.367188 255.878906 121.839844 256.707031 C 122.765625 254.335938 124.371094 251.957031 125.886719 249.722656 C 127.707031 247.039062 129.421875 244.5 129.796875 242.328125 C 130.03125 241 129.691406 239.832031 129.324219 238.59375 C 129.035156 237.605469 128.738281 236.582031 128.757812 235.496094 C 128.8125 233.324219 130.203125 231.324219 131.429688 229.5625 C 131.644531 229.257812 131.851562 228.964844 132.042969 228.675781 C 135.261719 223.882812 134.964844 220.085938 134.554688 214.84375 L 134.453125 213.625 C 134.335938 212.070312 134.167969 209.945312 134.5 208.445312 C 134.722656 207.402344 135.34375 206.542969 135.933594 205.707031 C 136.453125 204.980469 136.9375 204.300781 137.152344 203.554688 C 137.917969 200.878906 137.316406 195.863281 136.921875 192.542969 L 136.796875 191.410156 C 136.625 189.921875 136.085938 188.449219 135.566406 187.019531 C 134.722656 184.722656 133.851562 182.34375 134.507812 179.796875 C 134.597656 179.4375 134.660156 179.058594 134.695312 178.683594 C 135.011719 178.59375 135.316406 178.523438 135.609375 178.460938 C 142.886719 176.996094 147.039062 177.167969 152.40625 182.101562 C 154.636719 184.160156 156.574219 186.535156 158.460938 188.84375 C 161.949219 193.132812 165.25 197.179688 170.273438 199.34375 C 170.597656 199.480469 170.8125 199.785156 170.832031 200.132812 C 170.867188 200.949219 170.855469 201.667969 170.839844 202.359375 C 170.8125 203.671875 170.792969 204.808594 171.1875 206.058594 L 171.441406 206.855469 C 172.363281 209.738281 173.40625 213.003906 172.542969 216.253906 Z M 172.542969 216.253906 " fill-opacity="1" fill-rule="nonzero"/><path fill="#2f2e33" d="M 127.941406 248.878906 C 125.777344 251.183594 123.007812 252.628906 120.433594 252.890625 C 120.144531 252.917969 119.867188 252.933594 119.589844 252.933594 C 119.078125 252.933594 118.574219 252.882812 118.089844 252.78125 C 117.148438 252.585938 116.421875 252.039062 115.9375 251.175781 C 114.691406 248.941406 115.410156 244.902344 116.1875 242.738281 C 117.480469 239.15625 121.5 236.824219 122.691406 236.1875 C 122.773438 236.140625 122.855469 236.105469 122.945312 236.070312 C 123.320312 235.890625 123.726562 235.765625 124.128906 235.691406 C 126.9375 235.199219 129.90625 237.238281 130.742188 240.253906 C 131.492188 242.980469 130.453125 246.203125 127.941406 248.878906 Z M 127.941406 248.878906 " fill-opacity="1" fill-rule="nonzero"/><path fill="#2f2e33" d="M 119.589844 253.292969 C 119.066406 253.292969 118.539062 253.242188 118.019531 253.132812 C 116.988281 252.917969 116.160156 252.304688 115.625 251.351562 C 114.320312 249.015625 115.046875 244.847656 115.851562 242.617188 C 117.136719 239.058594 120.945312 236.714844 122.523438 235.871094 C 122.613281 235.820312 122.707031 235.777344 122.8125 235.738281 C 123.1875 235.554688 123.617188 235.417969 124.066406 235.339844 C 127.050781 234.816406 130.203125 236.976562 131.085938 240.15625 C 131.875 243.011719 130.796875 246.363281 128.203125 249.125 C 126.003906 251.46875 123.183594 252.972656 120.46875 253.246094 C 120.167969 253.273438 119.878906 253.292969 119.589844 253.292969 Z M 124.984375 235.980469 C 124.71875 235.980469 124.453125 236 124.191406 236.046875 C 123.804688 236.117188 123.4375 236.234375 123.097656 236.394531 C 123 236.433594 122.933594 236.464844 122.867188 236.5 C 121.355469 237.308594 117.726562 239.539062 116.527344 242.859375 C 115.765625 244.96875 115.066406 248.875 116.25 251 C 116.6875 251.773438 117.332031 252.257812 118.164062 252.429688 C 118.902344 252.582031 119.632812 252.605469 120.398438 252.535156 C 122.941406 252.277344 125.597656 250.855469 127.679688 248.632812 C 130.101562 246.054688 131.113281 242.960938 130.394531 240.347656 C 129.6875 237.796875 127.363281 235.980469 124.984375 235.980469 Z M 124.984375 235.980469 " fill-opacity="1" fill-rule="nonzero"/><path fill="#2f2e33" d="M 93.0625 210.707031 C 91.160156 212.519531 89.015625 213.488281 86.917969 213.488281 C 86.585938 213.488281 86.246094 213.460938 85.914062 213.40625 C 82.917969 212.960938 81.984375 210.6875 81.722656 208.757812 C 81.589844 207.761719 81.625 206.855469 81.640625 206.328125 L 81.640625 206.261719 C 82.457031 201.972656 85.113281 198.976562 89.777344 197.109375 C 90.09375 196.984375 90.46875 196.804688 90.875 196.605469 C 92.136719 195.996094 93.699219 195.234375 94.855469 195.476562 C 96.246094 195.78125 97.054688 197.171875 97.414062 198.660156 C 97.511719 199.03125 97.574219 199.398438 97.609375 199.765625 C 97.976562 203.300781 96.101562 207.796875 93.0625 210.707031 Z M 93.0625 210.707031 " fill-opacity="1" fill-rule="nonzero"/><path fill="#2f2e33" d="M 86.917969 213.847656 C 86.558594 213.847656 86.203125 213.820312 85.855469 213.761719 C 83.304688 213.382812 81.753906 211.667969 81.367188 208.804688 C 81.230469 207.804688 81.265625 206.894531 81.28125 206.351562 L 81.289062 206.195312 C 82.132812 201.769531 84.867188 198.6875 89.644531 196.773438 C 89.953125 196.652344 90.320312 196.476562 90.714844 196.285156 C 92.054688 195.636719 93.664062 194.855469 94.929688 195.125 C 96.292969 195.421875 97.296875 196.648438 97.761719 198.578125 C 97.859375 198.933594 97.925781 199.316406 97.96875 199.730469 C 98.34375 203.363281 96.429688 207.984375 93.308594 210.964844 C 91.332031 212.851562 89.121094 213.847656 86.917969 213.847656 Z M 94.382812 195.789062 C 93.394531 195.789062 92.121094 196.402344 91.070312 196.910156 C 90.617188 197.128906 90.234375 197.3125 89.910156 197.441406 C 85.378906 199.257812 82.789062 202.164062 81.996094 206.332031 C 81.980469 206.898438 81.953125 207.769531 82.078125 208.710938 C 82.421875 211.257812 83.730469 212.71875 85.964844 213.050781 C 88.257812 213.425781 90.679688 212.476562 92.8125 210.449219 C 95.785156 207.609375 97.609375 203.230469 97.253906 199.800781 C 97.214844 199.425781 97.15625 199.085938 97.066406 198.757812 C 96.835938 197.792969 96.230469 196.144531 94.78125 195.828125 C 94.652344 195.800781 94.519531 195.789062 94.382812 195.789062 Z M 94.382812 195.789062 " fill-opacity="1" fill-rule="nonzero"/><path fill="#2f2e33" d="M 121.671875 200.5625 C 120.933594 202.394531 119.300781 203.957031 117.410156 204.640625 C 116.710938 204.882812 116.011719 205.007812 115.320312 205.007812 C 114.953125 205.007812 114.59375 204.972656 114.242188 204.898438 C 113.675781 204.792969 113.128906 204.59375 112.617188 204.316406 C 109.667969 202.691406 108.957031 196.929688 109.238281 194.210938 C 109.300781 193.609375 109.253906 192.746094 109.21875 191.832031 C 109.113281 189.40625 108.976562 186.402344 110.394531 184.9375 C 110.679688 184.652344 111.011719 184.4375 111.398438 184.292969 C 111.730469 184.167969 112.109375 184.09375 112.519531 184.085938 C 112.960938 183.789062 113.570312 183.734375 114.332031 183.914062 C 116.816406 184.515625 120.710938 187.667969 121.375 189.265625 C 121.875 190.46875 122.101562 192.136719 122.296875 193.609375 C 122.371094 194.128906 122.433594 194.640625 122.515625 195.097656 C 122.78125 196.714844 122.511719 198.445312 121.671875 200.5625 Z M 121.671875 200.5625 " fill-opacity="1" fill-rule="nonzero"/><path fill="#2f2e33" d="M 115.320312 205.367188 C 114.929688 205.367188 114.542969 205.328125 114.171875 205.25 C 113.574219 205.136719 112.992188 204.929688 112.445312 204.632812 C 109.34375 202.925781 108.59375 196.976562 108.878906 194.171875 C 108.933594 193.660156 108.902344 192.917969 108.871094 192.128906 L 108.859375 191.847656 C 108.75 189.359375 108.609375 186.261719 110.136719 184.6875 C 110.460938 184.363281 110.84375 184.113281 111.273438 183.953125 C 111.617188 183.824219 112 183.75 112.410156 183.730469 C 112.921875 183.429688 113.597656 183.375 114.414062 183.566406 C 117.035156 184.199219 120.996094 187.421875 121.707031 189.125 C 122.226562 190.375 122.453125 192.066406 122.652344 193.558594 L 122.699219 193.898438 C 122.753906 194.296875 122.804688 194.683594 122.867188 195.035156 C 123.148438 196.71875 122.871094 198.515625 122.003906 200.695312 L 122.003906 200.699219 C 121.230469 202.621094 119.515625 204.261719 117.53125 204.976562 C 116.78125 205.234375 116.039062 205.367188 115.320312 205.367188 Z M 113.527344 184.171875 C 113.199219 184.171875 112.929688 184.242188 112.71875 184.382812 L 112.632812 184.441406 L 112.527344 184.445312 C 112.160156 184.453125 111.824219 184.515625 111.527344 184.628906 C 111.1875 184.753906 110.902344 184.9375 110.648438 185.191406 C 109.34375 186.539062 109.472656 189.464844 109.578125 191.8125 L 109.589844 192.101562 C 109.621094 192.914062 109.652344 193.683594 109.59375 194.246094 C 109.332031 196.804688 110.019531 202.476562 112.792969 204 C 113.269531 204.261719 113.78125 204.445312 114.308594 204.546875 C 115.257812 204.742188 116.269531 204.65625 117.292969 204.300781 C 119.085938 203.652344 120.636719 202.167969 121.335938 200.429688 C 122.15625 198.375 122.417969 196.699219 122.160156 195.15625 C 122.097656 194.796875 122.042969 194.402344 121.988281 193.992188 L 121.941406 193.65625 C 121.75 192.207031 121.527344 190.566406 121.042969 189.402344 C 120.417969 187.902344 116.597656 184.832031 114.246094 184.265625 C 113.984375 184.203125 113.742188 184.171875 113.527344 184.171875 Z M 113.527344 184.171875 " fill-opacity="1" fill-rule="nonzero"/><path fill="#2f2e33" d="M 98.183594 241.796875 C 98.15625 241.804688 98.121094 241.816406 98.085938 241.824219 C 97.59375 241.984375 96.992188 242.046875 96.363281 242.046875 C 94.8125 242.046875 93.082031 241.671875 92.226562 241.402344 C 86.84375 239.660156 84.71875 236.339844 82.496094 232.183594 C 81.347656 230.03125 81.632812 228.621094 82.082031 227.820312 C 82.683594 226.71875 83.957031 226.035156 85.742188 225.847656 C 85.894531 225.820312 86.046875 225.800781 86.207031 225.792969 C 87.785156 225.6875 89.015625 225.863281 90.460938 226.421875 C 92.011719 227.015625 93.097656 227.542969 94.445312 228.261719 C 94.703125 228.40625 94.957031 228.550781 95.195312 228.691406 C 98.625 230.746094 100.023438 233.304688 100.03125 237.523438 L 100.03125 237.992188 C 100.050781 239.453125 100.078125 241.105469 98.183594 241.796875 Z M 98.183594 241.796875 " fill-opacity="1" fill-rule="nonzero"/><path fill="#2f2e33" d="M 96.363281 242.40625 C 94.890625 242.40625 93.128906 242.0625 92.121094 241.746094 C 86.613281 239.964844 84.441406 236.585938 82.179688 232.351562 C 80.949219 230.046875 81.277344 228.519531 81.769531 227.644531 C 82.425781 226.441406 83.789062 225.691406 85.703125 225.488281 C 85.847656 225.464844 86.011719 225.445312 86.1875 225.4375 C 87.824219 225.324219 89.097656 225.511719 90.589844 226.085938 C 92.175781 226.691406 93.265625 227.226562 94.613281 227.945312 C 94.878906 228.09375 95.136719 228.238281 95.378906 228.382812 C 98.929688 230.511719 100.382812 233.160156 100.390625 237.523438 L 100.390625 237.992188 C 100.410156 239.496094 100.433594 241.359375 98.308594 242.132812 L 98.199219 242.164062 C 97.707031 242.324219 97.089844 242.40625 96.363281 242.40625 Z M 97.972656 241.484375 L 98.183594 241.796875 L 98.0625 241.457031 C 99.707031 240.859375 99.691406 239.476562 99.675781 238.011719 L 99.675781 237.523438 C 99.664062 233.449219 98.316406 230.980469 95.011719 229 C 94.773438 228.859375 94.527344 228.71875 94.273438 228.578125 C 92.953125 227.875 91.886719 227.351562 90.332031 226.757812 C 88.945312 226.222656 87.757812 226.042969 86.234375 226.152344 C 86.082031 226.160156 85.941406 226.175781 85.804688 226.199219 C 84.109375 226.378906 82.9375 227 82.398438 227.992188 C 81.992188 228.714844 81.734375 229.996094 82.8125 232.015625 C 85 236.101562 87.089844 239.363281 92.339844 241.058594 C 93.023438 241.277344 94.753906 241.6875 96.363281 241.6875 C 97.015625 241.6875 97.554688 241.621094 97.972656 241.484375 Z M 97.972656 241.484375 " fill-opacity="1" fill-rule="nonzero"/><path fill="#2f2e33" d="M 115.496094 217.4375 C 115.273438 220.292969 110.886719 223.710938 109.398438 224.574219 C 108.332031 225.191406 107.121094 225.496094 105.980469 225.496094 C 104.894531 225.496094 103.890625 225.21875 103.136719 224.664062 C 102.183594 223.953125 101.71875 222.875 101.765625 221.566406 C 101.773438 221.199219 101.828125 220.804688 101.925781 220.398438 C 102.570312 217.671875 104.859375 215.238281 107.738281 214.207031 L 107.746094 214.207031 C 108.242188 214.027344 108.726562 213.902344 109.210938 213.828125 C 111.15625 213.507812 113.023438 213.964844 114.484375 215.148438 C 115.21875 215.742188 115.570312 216.53125 115.496094 217.4375 Z M 115.496094 217.4375 " fill-opacity="1" fill-rule="nonzero"/><path fill="#2f2e33" d="M 105.980469 225.855469 C 104.78125 225.855469 103.722656 225.542969 102.921875 224.949219 C 101.878906 224.171875 101.355469 223 101.40625 221.554688 C 101.414062 221.160156 101.472656 220.742188 101.578125 220.316406 C 102.25 217.472656 104.621094 214.941406 107.617188 213.867188 L 107.683594 213.847656 C 108.1875 213.667969 108.667969 213.546875 109.15625 213.476562 C 111.203125 213.132812 113.179688 213.628906 114.710938 214.871094 C 115.539062 215.539062 115.9375 216.4375 115.855469 217.464844 C 115.617188 220.492188 111.171875 223.960938 109.578125 224.882812 C 108.496094 225.511719 107.21875 225.855469 105.980469 225.855469 Z M 107.800781 214.566406 C 105.054688 215.570312 102.886719 217.886719 102.273438 220.480469 C 102.183594 220.863281 102.132812 221.230469 102.121094 221.574219 C 102.082031 222.777344 102.507812 223.746094 103.351562 224.375 C 104.027344 224.875 104.9375 225.136719 105.980469 225.136719 C 107.09375 225.136719 108.242188 224.828125 109.21875 224.261719 C 110.878906 223.300781 114.941406 219.96875 115.140625 217.410156 C 115.203125 216.617188 114.90625 215.949219 114.261719 215.429688 C 112.890625 214.320312 111.117188 213.878906 109.269531 214.183594 C 108.804688 214.253906 108.347656 214.371094 107.871094 214.542969 Z M 107.800781 214.566406 " fill-opacity="1" fill-rule="nonzero"/><path fill="#2f2e33" d="M 145.363281 222.183594 C 144.5 223.910156 142.660156 225.21875 140.023438 225.964844 C 138.347656 226.441406 136.757812 226.464844 135.082031 226.484375 C 134.660156 226.492188 134.238281 226.503906 133.816406 226.511719 C 133.1875 226.53125 132.5 226.726562 131.824219 226.925781 C 131.152344 227.121094 130.453125 227.320312 129.796875 227.335938 L 129.753906 227.335938 C 128.316406 227.335938 127.214844 226.171875 126.925781 224.347656 C 126.773438 223.398438 126.828125 222.589844 126.964844 221.898438 C 127.035156 221.457031 127.144531 221.054688 127.242188 220.695312 C 127.359375 220.292969 127.457031 219.90625 127.5 219.539062 C 127.511719 219.5 127.519531 219.457031 127.539062 219.421875 C 129.742188 214.601562 133.1875 214.464844 137.460938 214.78125 C 138.339844 214.84375 139.21875 214.683594 140.070312 214.527344 C 142.070312 214.160156 144.140625 213.785156 145.328125 216.863281 C 145.363281 216.945312 145.390625 217.023438 145.40625 217.105469 C 146.105469 219.015625 146.089844 220.722656 145.363281 222.183594 Z M 145.363281 222.183594 " fill-opacity="1" fill-rule="nonzero"/><path fill="#2f2e33" d="M 129.808594 227.695312 C 128.136719 227.695312 126.886719 226.40625 126.574219 224.40625 C 126.433594 223.527344 126.445312 222.683594 126.613281 221.828125 C 126.683594 221.390625 126.789062 220.980469 126.894531 220.601562 C 127 220.238281 127.101562 219.855469 127.144531 219.492188 C 127.167969 219.390625 127.183594 219.324219 127.21875 219.257812 C 129.507812 214.257812 133.21875 214.109375 137.484375 214.421875 C 138.300781 214.484375 139.136719 214.332031 139.945312 214.1875 C 141.949219 213.820312 144.367188 213.371094 145.660156 216.734375 C 145.703125 216.824219 145.738281 216.929688 145.757812 217.03125 C 146.476562 218.984375 146.457031 220.789062 145.683594 222.347656 C 144.773438 224.167969 142.851562 225.539062 140.125 226.308594 C 138.367188 226.808594 136.699219 226.824219 135.085938 226.84375 L 133.824219 226.871094 C 133.222656 226.886719 132.503906 227.097656 131.925781 227.269531 C 131.164062 227.492188 130.480469 227.675781 129.808594 227.695312 Z M 135.121094 215.035156 C 131.992188 215.035156 129.574219 215.832031 127.863281 219.570312 C 127.808594 219.992188 127.699219 220.410156 127.585938 220.792969 C 127.488281 221.152344 127.386719 221.539062 127.316406 221.957031 C 127.164062 222.738281 127.152344 223.5 127.28125 224.292969 C 127.539062 225.925781 128.507812 226.976562 129.753906 226.976562 C 130.375 226.960938 131.011719 226.789062 131.722656 226.578125 C 132.339844 226.398438 133.109375 226.171875 133.804688 226.152344 L 135.074219 226.125 C 136.644531 226.109375 138.261719 226.089844 139.925781 225.617188 C 142.453125 224.90625 144.222656 223.664062 145.039062 222.027344 C 145.722656 220.652344 145.734375 219.039062 145.070312 217.230469 C 145.042969 217.128906 145.027344 217.070312 144.996094 217.007812 C 143.910156 214.1875 142.160156 214.507812 140.136719 214.882812 C 139.21875 215.046875 138.332031 215.203125 137.433594 215.140625 C 136.625 215.078125 135.851562 215.035156 135.121094 215.035156 Z M 135.121094 215.035156 " fill-opacity="1" fill-rule="nonzero"/><path fill="#2f2e33" d="M 147.148438 195.886719 C 145.488281 198.140625 141.585938 199.183594 139.539062 199.433594 C 139.296875 199.46875 138.292969 199.585938 137.109375 199.585938 C 135.394531 199.585938 133.289062 199.335938 132.550781 198.230469 C 132.28125 197.816406 132.085938 197.097656 132.675781 196.058594 C 132.902344 195.449219 133.125 194.835938 133.359375 194.253906 C 134.507812 191.390625 136.003906 188.941406 139.78125 188.25 C 141.628906 187.917969 143.882812 188.4375 145.523438 189.578125 C 146.429688 190.207031 147.09375 190.96875 147.488281 191.832031 C 147.660156 192.199219 147.777344 192.574219 147.847656 192.96875 C 148.035156 194.019531 147.792969 195 147.148438 195.886719 Z M 147.148438 195.886719 " fill-opacity="1" fill-rule="nonzero"/><path fill="#2f2e33" d="M 137.109375 199.945312 C 135.355469 199.945312 133.085938 199.683594 132.253906 198.429688 C 131.984375 198.019531 131.644531 197.144531 132.367188 195.882812 C 132.574219 195.296875 132.796875 194.695312 133.023438 194.121094 C 134.324219 190.882812 135.960938 188.585938 139.71875 187.898438 C 141.652344 187.550781 144.011719 188.09375 145.730469 189.285156 C 146.6875 189.949219 147.390625 190.757812 147.8125 191.679688 C 147.996094 192.074219 148.121094 192.472656 148.199219 192.90625 C 148.40625 194.046875 148.148438 195.121094 147.4375 196.097656 L 147.4375 196.101562 C 145.695312 198.464844 141.679688 199.53125 139.585938 199.789062 C 139.296875 199.832031 138.269531 199.945312 137.109375 199.945312 Z M 140.9375 188.511719 C 140.5625 188.511719 140.195312 188.539062 139.84375 188.601562 C 136.414062 189.230469 134.902344 191.371094 133.691406 194.386719 C 133.464844 194.957031 133.246094 195.550781 133.027344 196.148438 L 132.988281 196.238281 C 132.589844 196.9375 132.542969 197.558594 132.851562 198.035156 C 133.363281 198.804688 134.875 199.226562 137.109375 199.226562 C 138.230469 199.226562 139.207031 199.121094 139.488281 199.078125 C 141.34375 198.851562 145.257812 197.847656 146.859375 195.675781 C 147.449219 194.863281 147.664062 193.972656 147.496094 193.035156 C 147.425781 192.660156 147.316406 192.316406 147.164062 191.980469 C 146.792969 191.175781 146.171875 190.464844 145.320312 189.871094 C 144.066406 189.003906 142.4375 188.511719 140.9375 188.511719 Z M 140.9375 188.511719 " fill-opacity="1" fill-rule="nonzero"/><path fill="#2f2e33" d="M 167.207031 209.269531 C 166.890625 210.769531 164.21875 212.519531 162.945312 212.859375 C 162.59375 212.949219 162.21875 212.996094 161.824219 212.996094 C 161.484375 212.996094 161.125 212.957031 160.746094 212.894531 C 159.542969 212.664062 158.386719 212.125 157.507812 211.667969 L 156.96875 211.398438 C 156.367188 211.101562 155.757812 210.796875 155.210938 210.429688 C 154.304688 209.808594 153.542969 209 153.195312 207.691406 C 152.664062 205.742188 153.121094 203.707031 154.414062 202.25 C 155.707031 200.796875 157.589844 200.140625 159.589844 200.4375 C 161.257812 200.691406 163.789062 202.539062 165.492188 204.710938 C 165.664062 204.917969 165.816406 205.125 165.957031 205.332031 C 166.6875 206.371094 167.492188 207.898438 167.207031 209.269531 Z M 167.207031 209.269531 " fill-opacity="1" fill-rule="nonzero"/><path fill="#2f2e33" d="M 161.824219 213.355469 C 161.476562 213.355469 161.105469 213.320312 160.6875 213.25 C 159.382812 212.996094 158.152344 212.40625 157.34375 211.984375 L 156.808594 211.71875 C 156.152344 211.394531 155.558594 211.09375 155.011719 210.726562 C 153.859375 209.9375 153.171875 209.003906 152.847656 207.785156 C 152.285156 205.71875 152.769531 203.5625 154.144531 202.011719 C 155.511719 200.472656 157.523438 199.769531 159.640625 200.082031 C 161.402344 200.347656 163.980469 202.203125 165.777344 204.488281 C 165.945312 204.695312 166.105469 204.910156 166.253906 205.125 C 167.019531 206.222656 167.871094 207.847656 167.558594 209.34375 C 167.210938 210.996094 164.417969 212.839844 163.039062 213.207031 C 162.65625 213.304688 162.25 213.355469 161.824219 213.355469 Z M 158.660156 200.726562 C 157.113281 200.726562 155.695312 201.347656 154.683594 202.488281 C 153.46875 203.855469 153.042969 205.765625 153.539062 207.597656 C 153.824219 208.65625 154.402344 209.4375 155.414062 210.132812 C 155.921875 210.472656 156.492188 210.761719 157.128906 211.074219 L 157.667969 211.34375 C 158.445312 211.75 159.609375 212.308594 160.816406 212.542969 C 161.617188 212.675781 162.265625 212.664062 162.855469 212.511719 C 164.035156 212.195312 166.582031 210.5 166.855469 209.195312 C 167.113281 207.953125 166.351562 206.519531 165.664062 205.535156 C 165.527344 205.335938 165.382812 205.136719 165.21875 204.9375 C 163.542969 202.808594 161.105469 201.027344 159.535156 200.792969 C 159.242188 200.75 158.949219 200.726562 158.660156 200.726562 Z M 158.660156 200.726562 " fill-opacity="1" fill-rule="nonzero"/><path fill="#9b9c9e" d="M 147.488281 191.832031 C 147.417969 191.785156 147.335938 191.734375 147.246094 191.667969 C 147.003906 191.5 146.644531 191.257812 146.554688 191.210938 C 146.007812 190.988281 145.621094 190.980469 145.09375 190.960938 C 144.878906 190.953125 144.636719 190.941406 144.367188 190.925781 C 142.636719 190.773438 140.851562 190.621094 139.054688 190.871094 C 136.757812 191.195312 134.8125 192.585938 133.359375 194.253906 C 134.507812 191.390625 136.003906 188.941406 139.78125 188.25 C 141.628906 187.917969 143.882812 188.4375 145.523438 189.578125 C 146.429688 190.207031 147.09375 190.96875 147.488281 191.832031 Z M 147.488281 191.832031 " fill-opacity="1" fill-rule="nonzero"/><path fill="#9b9c9e" d="M 97.414062 198.660156 C 97.117188 198.734375 96.8125 198.75 96.515625 198.761719 C 96.253906 198.769531 95.996094 198.777344 95.726562 198.824219 C 93.664062 199.191406 91.601562 200.070312 89.609375 200.933594 L 89.367188 201.03125 C 87.277344 201.929688 85.707031 202.84375 84.566406 203.832031 C 83.453125 204.792969 82.960938 205.949219 82.441406 207.179688 C 82.214844 207.691406 82 208.21875 81.722656 208.757812 C 81.589844 207.761719 81.625 206.855469 81.640625 206.328125 L 81.640625 206.261719 C 82.457031 201.972656 85.113281 198.976562 89.777344 197.109375 C 90.09375 196.984375 90.46875 196.804688 90.871094 196.605469 C 92.136719 195.996094 93.699219 195.234375 94.855469 195.476562 C 96.246094 195.78125 97.054688 197.171875 97.414062 198.660156 Z M 97.414062 198.660156 " fill-opacity="1" fill-rule="nonzero"/><path fill="#9b9c9e" d="M 114.242188 204.898438 C 113.675781 204.792969 113.128906 204.59375 112.617188 204.316406 C 109.667969 202.691406 108.957031 196.929688 109.238281 194.210938 C 109.300781 193.609375 109.253906 192.746094 109.21875 191.832031 C 109.109375 189.40625 108.976562 186.402344 110.394531 184.9375 C 110.679688 184.652344 111.011719 184.4375 111.398438 184.292969 C 110 188.382812 111.136719 194.425781 111.75 197 C 112.015625 198.167969 112.457031 199.398438 112.921875 200.707031 C 113.417969 202.089844 113.917969 203.5 114.242188 204.898438 Z M 114.242188 204.898438 " fill-opacity="1" fill-rule="nonzero"/><path fill="#9b9c9e" d="M 98.085938 241.824219 C 97.59375 241.984375 96.992188 242.046875 96.363281 242.046875 C 94.8125 242.046875 93.082031 241.671875 92.226562 241.402344 C 86.84375 239.660156 84.71875 236.339844 82.496094 232.183594 C 81.347656 230.03125 81.632812 228.621094 82.082031 227.820312 C 82.683594 226.71875 83.957031 226.035156 85.742188 225.847656 C 86.289062 226.277344 86.261719 227.128906 86.246094 227.894531 C 86.226562 228.21875 86.21875 228.511719 86.253906 228.753906 C 86.46875 230.300781 87.097656 231.609375 87.839844 233.035156 C 88.925781 235.128906 89.75 236.097656 91.671875 237.542969 C 92.480469 238.160156 93.410156 238.664062 94.316406 239.148438 C 95.691406 239.902344 97.089844 240.664062 98.085938 241.824219 Z M 98.085938 241.824219 " fill-opacity="1" fill-rule="nonzero"/><path fill="#9b9c9e" d="M 109.210938 213.828125 C 106.023438 215.730469 102.976562 218.03125 101.765625 221.566406 C 101.773438 221.199219 101.828125 220.804688 101.925781 220.398438 C 102.570312 217.671875 104.859375 215.238281 107.738281 214.207031 L 107.746094 214.207031 C 108.242188 214.027344 108.726562 213.902344 109.210938 213.828125 Z M 109.210938 213.828125 " fill-opacity="1" fill-rule="nonzero"/><path fill="#9b9c9e" d="M 127.941406 248.878906 C 125.777344 251.183594 123.007812 252.628906 120.433594 252.890625 C 120.800781 251.992188 121.597656 251.300781 122.296875 250.699219 L 122.359375 250.644531 C 123.6875 249.488281 124.558594 248.546875 125.367188 246.824219 C 125.519531 246.5 125.679688 246.175781 125.851562 245.835938 C 126.59375 244.363281 127.4375 242.695312 127.152344 241.203125 C 126.792969 239.300781 124.980469 237.417969 123.113281 237.011719 C 122.988281 236.984375 122.882812 236.90625 122.820312 236.789062 C 122.757812 236.679688 122.746094 236.546875 122.78125 236.429688 C 122.828125 236.304688 122.882812 236.1875 122.945312 236.070312 C 123.320312 235.890625 123.726562 235.765625 124.128906 235.691406 C 126.9375 235.199219 129.90625 237.238281 130.742188 240.253906 C 131.492188 242.980469 130.453125 246.203125 127.941406 248.878906 Z M 127.941406 248.878906 " fill-opacity="1" fill-rule="nonzero"/><path fill="#9b9c9e" d="M 145.40625 217.105469 C 144.824219 217.617188 144.070312 217.921875 143.253906 217.96875 C 141.933594 218.046875 140.699219 217.90625 139.496094 217.769531 C 137.71875 217.574219 136.042969 217.382812 134.195312 217.839844 C 130.585938 218.730469 128.210938 220.050781 126.964844 221.898438 C 127.035156 221.457031 127.140625 221.054688 127.242188 220.695312 C 127.359375 220.292969 127.457031 219.90625 127.5 219.539062 C 127.511719 219.503906 127.519531 219.457031 127.535156 219.421875 C 129.742188 214.601562 133.1875 214.464844 137.457031 214.78125 C 138.335938 214.84375 139.21875 214.683594 140.070312 214.53125 C 142.070312 214.160156 144.140625 213.785156 145.324219 216.863281 C 145.363281 216.945312 145.390625 217.023438 145.40625 217.105469 Z M 145.40625 217.105469 " fill-opacity="1" fill-rule="nonzero"/><path fill="#9b9c9e" d="M 165.492188 204.710938 C 165.234375 204.808594 164.917969 204.871094 164.550781 204.898438 C 163.84375 204.953125 163.179688 204.550781 162.53125 204.164062 C 162.082031 203.886719 161.617188 203.597656 161.222656 203.535156 C 160.253906 203.375 158.640625 203.382812 157.75 203.652344 C 154.871094 204.53125 154.996094 206.480469 155.148438 208.957031 C 155.183594 209.441406 155.210938 209.933594 155.210938 210.429688 C 154.304688 209.808594 153.542969 209 153.195312 207.691406 C 152.664062 205.742188 153.121094 203.707031 154.414062 202.25 C 155.707031 200.796875 157.589844 200.144531 159.589844 200.4375 C 161.257812 200.691406 163.789062 202.539062 165.492188 204.710938 Z M 165.492188 204.710938 " fill-opacity="1" fill-rule="nonzero"/><g clip-path="url(#90215d7c30)"><path fill="#353a5b" d="M 187.5 10.828125 C 89.902344 10.828125 10.828125 89.972656 10.828125 187.5 C 10.828125 285.023438 89.902344 364.171875 187.5 364.171875 C 285.097656 364.171875 364.171875 285.023438 364.171875 187.5 C 364.171875 89.972656 285.097656 10.828125 187.5 10.828125 Z M 187.5 352.988281 C 96.101562 352.988281 22.011719 278.898438 22.011719 187.5 C 22.011719 96.101562 96.101562 22.011719 187.5 22.011719 C 278.898438 22.011719 352.988281 96.101562 352.988281 187.5 C 352.988281 278.898438 278.898438 352.988281 187.5 352.988281 Z M 187.5 352.988281 " fill-opacity="1" fill-rule="nonzero"/></g></svg>