<svg xmlns="http://www.w3.org/2000/svg" xmlns:xlink="http://www.w3.org/1999/xlink" width="500" zoomAndPan="magnify" viewBox="0 0 375 374.999991" height="500" preserveAspectRatio="xMidYMid meet" version="1.0"><defs><clipPath id="4b0fbfddee"><path d="M 14.734375 14.734375 L 360.484375 14.734375 L 360.484375 360.484375 L 14.734375 360.484375 Z M 14.734375 14.734375 " clip-rule="nonzero"/></clipPath><clipPath id="c51887b21c"><path d="M 90 82.859375 L 285 82.859375 L 285 290 L 90 290 Z M 90 82.859375 " clip-rule="nonzero"/></clipPath><clipPath id="b7ee5c17a1"><path d="M 288 133 L 288.960938 133 L 288.960938 138 L 288 138 Z M 288 133 " clip-rule="nonzero"/></clipPath><clipPath id="3460f3b760"><path d="M 10.730469 10.730469 L 363.980469 10.730469 L 363.980469 363.980469 L 10.730469 363.980469 Z M 10.730469 10.730469 " clip-rule="nonzero"/></clipPath></defs><path fill="#231f20" d="M 187.5 0 C 83.921875 0 0 83.996094 0 187.5 C 0 291.003906 83.921875 375 187.5 375 C 291.078125 375 375 291.003906 375 187.5 C 375 83.996094 291.078125 0 187.5 0 Z M 187.5 363.128906 C 90.5 363.128906 11.871094 284.5 11.871094 187.5 C 11.871094 90.5 90.5 11.871094 187.5 11.871094 C 284.5 11.871094 363.128906 90.5 363.128906 187.5 C 363.128906 284.5 284.5 363.128906 187.5 363.128906 Z M 187.5 363.128906 " fill-opacity="1" fill-rule="nonzero"/><g clip-path="url(#4b0fbfddee)"><path fill="#c60815" d="M 360.257812 187.496094 C 360.257812 190.324219 360.1875 193.148438 360.050781 195.972656 C 359.910156 198.796875 359.703125 201.617188 359.425781 204.429688 C 359.148438 207.246094 358.804688 210.050781 358.386719 212.847656 C 357.972656 215.644531 357.492188 218.429688 356.9375 221.203125 C 356.386719 223.972656 355.769531 226.730469 355.082031 229.476562 C 354.394531 232.21875 353.640625 234.941406 352.820312 237.648438 C 352 240.351562 351.113281 243.035156 350.160156 245.699219 C 349.207031 248.359375 348.191406 250.996094 347.109375 253.609375 C 346.027344 256.222656 344.878906 258.804688 343.671875 261.363281 C 342.460938 263.917969 341.191406 266.441406 339.859375 268.9375 C 338.527344 271.429688 337.132812 273.890625 335.679688 276.3125 C 334.226562 278.738281 332.714844 281.128906 331.144531 283.476562 C 329.570312 285.828125 327.945312 288.140625 326.261719 290.410156 C 324.574219 292.683594 322.835938 294.910156 321.042969 297.09375 C 319.25 299.28125 317.402344 301.421875 315.503906 303.515625 C 313.605469 305.613281 311.65625 307.660156 309.65625 309.65625 C 307.660156 311.65625 305.613281 313.605469 303.515625 315.503906 C 301.421875 317.402344 299.28125 319.25 297.09375 321.042969 C 294.910156 322.835938 292.683594 324.574219 290.410156 326.261719 C 288.140625 327.945312 285.828125 329.570312 283.476562 331.144531 C 281.128906 332.714844 278.738281 334.226562 276.3125 335.679688 C 273.890625 337.132812 271.429688 338.527344 268.9375 339.859375 C 266.441406 341.191406 263.917969 342.460938 261.363281 343.671875 C 258.804688 344.878906 256.222656 346.027344 253.609375 347.109375 C 250.996094 348.191406 248.359375 349.207031 245.699219 350.160156 C 243.035156 351.113281 240.351562 352 237.648438 352.820312 C 234.941406 353.640625 232.21875 354.394531 229.476562 355.082031 C 226.730469 355.769531 223.972656 356.386719 221.203125 356.9375 C 218.429688 357.492188 215.644531 357.972656 212.847656 358.386719 C 210.050781 358.804688 207.246094 359.148438 204.429688 359.425781 C 201.617188 359.703125 198.796875 359.910156 195.972656 360.050781 C 193.148438 360.1875 190.324219 360.257812 187.496094 360.257812 C 184.667969 360.257812 181.84375 360.1875 179.019531 360.050781 C 176.195312 359.910156 173.378906 359.703125 170.5625 359.425781 C 167.75 359.148438 164.945312 358.804688 162.148438 358.386719 C 159.351562 357.972656 156.566406 357.492188 153.792969 356.9375 C 151.019531 356.386719 148.261719 355.769531 145.519531 355.082031 C 142.777344 354.394531 140.054688 353.640625 137.347656 352.820312 C 134.640625 352 131.957031 351.113281 129.296875 350.160156 C 126.632812 349.207031 123.996094 348.191406 121.382812 347.109375 C 118.773438 346.027344 116.1875 344.878906 113.632812 343.671875 C 111.078125 342.460938 108.550781 341.191406 106.058594 339.859375 C 103.566406 338.527344 101.105469 337.132812 98.679688 335.679688 C 96.253906 334.226562 93.867188 332.714844 91.515625 331.144531 C 89.164062 329.570312 86.855469 327.945312 84.582031 326.261719 C 82.3125 324.574219 80.085938 322.835938 77.898438 321.042969 C 75.714844 319.25 73.574219 317.402344 71.476562 315.503906 C 69.382812 313.605469 67.335938 311.65625 65.335938 309.65625 C 63.335938 307.660156 61.386719 305.613281 59.488281 303.515625 C 57.589844 301.421875 55.746094 299.28125 53.949219 297.09375 C 52.15625 294.910156 50.417969 292.683594 48.734375 290.410156 C 47.050781 288.140625 45.421875 285.828125 43.851562 283.476562 C 42.28125 281.128906 40.769531 278.738281 39.316406 276.3125 C 37.863281 273.890625 36.46875 271.429688 35.136719 268.9375 C 33.804688 266.441406 32.53125 263.917969 31.324219 261.363281 C 30.113281 258.804688 28.96875 256.222656 27.886719 253.609375 C 26.804688 250.996094 25.789062 248.359375 24.835938 245.699219 C 23.882812 243.035156 22.996094 240.351562 22.175781 237.648438 C 21.355469 234.941406 20.601562 232.21875 19.914062 229.476562 C 19.226562 226.730469 18.605469 223.972656 18.054688 221.203125 C 17.503906 218.429688 17.019531 215.644531 16.605469 212.847656 C 16.191406 210.050781 15.84375 207.246094 15.566406 204.429688 C 15.289062 201.617188 15.082031 198.796875 14.945312 195.972656 C 14.804688 193.148438 14.734375 190.324219 14.734375 187.496094 C 14.734375 184.667969 14.804688 181.84375 14.945312 179.019531 C 15.082031 176.195312 15.289062 173.378906 15.566406 170.5625 C 15.84375 167.75 16.191406 164.945312 16.605469 162.148438 C 17.019531 159.351562 17.503906 156.566406 18.054688 153.792969 C 18.605469 151.019531 19.226562 148.261719 19.914062 145.519531 C 20.601562 142.777344 21.355469 140.054688 22.175781 137.347656 C 22.996094 134.640625 23.882812 131.957031 24.835938 129.296875 C 25.789062 126.632812 26.804688 123.996094 27.886719 121.382812 C 28.96875 118.773438 30.113281 116.1875 31.324219 113.632812 C 32.53125 111.078125 33.804688 108.550781 35.136719 106.058594 C 36.46875 103.566406 37.863281 101.105469 39.316406 98.679688 C 40.769531 96.253906 42.28125 93.867188 43.851562 91.515625 C 45.421875 89.164062 47.050781 86.855469 48.734375 84.582031 C 50.417969 82.3125 52.15625 80.085938 53.949219 77.898438 C 55.746094 75.714844 57.589844 73.574219 59.488281 71.476562 C 61.386719 69.382812 63.335938 67.335938 65.335938 65.335938 C 67.335938 63.335938 69.382812 61.386719 71.476562 59.488281 C 73.574219 57.589844 75.714844 55.746094 77.898438 53.949219 C 80.085938 52.15625 82.3125 50.417969 84.582031 48.734375 C 86.855469 47.050781 89.164062 45.421875 91.515625 43.851562 C 93.867188 42.28125 96.253906 40.769531 98.679688 39.316406 C 101.105469 37.863281 103.566406 36.46875 106.058594 35.136719 C 108.550781 33.804688 111.078125 32.53125 113.632812 31.324219 C 116.1875 30.113281 118.773438 28.96875 121.382812 27.886719 C 123.996094 26.804688 126.632812 25.789062 129.296875 24.835938 C 131.957031 23.882812 134.640625 22.996094 137.347656 22.175781 C 140.054688 21.355469 142.777344 20.601562 145.519531 19.914062 C 148.261719 19.226562 151.019531 18.605469 153.792969 18.054688 C 156.566406 17.503906 159.351562 17.019531 162.148438 16.605469 C 164.945312 16.191406 167.75 15.84375 170.5625 15.566406 C 173.378906 15.289062 176.195312 15.082031 179.019531 14.945312 C 181.84375 14.804688 184.667969 14.734375 187.496094 14.734375 C 190.324219 14.734375 193.148438 14.804688 195.972656 14.945312 C 198.796875 15.082031 201.617188 15.289062 204.429688 15.566406 C 207.246094 15.84375 210.050781 16.191406 212.847656 16.605469 C 215.644531 17.019531 218.429688 17.503906 221.203125 18.054688 C 223.972656 18.605469 226.730469 19.226562 229.476562 19.914062 C 232.21875 20.601562 234.941406 21.355469 237.648438 22.175781 C 240.351562 22.996094 243.035156 23.882812 245.699219 24.835938 C 248.359375 25.789062 250.996094 26.804688 253.609375 27.886719 C 256.222656 28.96875 258.804688 30.113281 261.363281 31.324219 C 263.917969 32.53125 266.441406 33.804688 268.9375 35.136719 C 271.429688 36.46875 273.890625 37.863281 276.3125 39.316406 C 278.738281 40.769531 281.128906 42.28125 283.476562 43.851562 C 285.828125 45.421875 288.140625 47.050781 290.410156 48.734375 C 292.683594 50.417969 294.910156 52.15625 297.09375 53.949219 C 299.28125 55.746094 301.421875 57.589844 303.515625 59.488281 C 305.613281 61.386719 307.660156 63.335938 309.65625 65.335938 C 311.65625 67.335938 313.605469 69.382812 315.503906 71.476562 C 317.402344 73.574219 319.25 75.714844 321.042969 77.898438 C 322.835938 80.085938 324.574219 82.3125 326.261719 84.582031 C 327.945312 86.855469 329.570312 89.164062 331.144531 91.515625 C 332.714844 93.867188 334.226562 96.253906 335.679688 98.679688 C 337.132812 101.105469 338.527344 103.566406 339.859375 106.058594 C 341.191406 108.550781 342.460938 111.078125 343.671875 113.632812 C 344.878906 116.1875 346.027344 118.773438 347.109375 121.382812 C 348.191406 123.996094 349.207031 126.632812 350.160156 129.296875 C 351.113281 131.957031 352 134.640625 352.820312 137.347656 C 353.640625 140.054688 354.394531 142.777344 355.082031 145.519531 C 355.769531 148.261719 356.386719 151.019531 356.9375 153.792969 C 357.492188 156.566406 357.972656 159.351562 358.386719 162.148438 C 358.804688 164.945312 359.148438 167.75 359.425781 170.5625 C 359.703125 173.378906 359.910156 176.195312 360.050781 179.019531 C 360.1875 181.84375 360.257812 184.667969 360.257812 187.496094 Z M 360.257812 187.496094 " fill-opacity="1" fill-rule="nonzero"/></g><g clip-path="url(#c51887b21c)"><path fill="#020103" d="M 283.183594 123.949219 C 279.292969 106.433594 269.253906 93.015625 254.429688 83.097656 C 254.429688 82.882812 254.335938 82.847656 254.183594 82.996094 C 252.832031 83.171875 252.441406 83.71875 252.941406 85.050781 C 253.441406 86.382812 254.136719 87.535156 254.679688 88.804688 C 256.367188 92.671875 257.433594 96.703125 257.867188 100.902344 C 258.304688 105.101562 258.09375 109.269531 257.238281 113.402344 C 256.714844 116.25 255.835938 118.984375 254.597656 121.601562 C 253.359375 124.21875 251.800781 126.628906 249.929688 128.835938 C 246.664062 132.679688 242.714844 135.597656 238.085938 137.582031 C 237.230469 137.945312 236.71875 138.015625 235.914062 137.320312 C 231.554688 133.410156 226.792969 130.066406 221.636719 127.289062 C 218.097656 125.4375 214.355469 124.046875 210.613281 122.671875 C 209.851562 122.734375 209.207031 122.296875 208.511719 122.136719 C 206.554688 121.667969 204.601562 121.199219 202.648438 120.707031 C 202.347656 120.707031 202.046875 120.644531 201.757812 120.59375 C 201.386719 120.523438 201.019531 120.429688 200.660156 120.3125 C 200.621094 120.347656 200.574219 120.359375 200.519531 120.351562 C 196.984375 119.953125 193.460938 119.410156 189.910156 119.171875 C 187.585938 119.269531 185.269531 119.222656 182.953125 119.03125 C 182.585938 118.996094 182.246094 119.082031 181.941406 119.289062 L 180.816406 119.324219 C 179.039062 119.894531 177.171875 119.847656 175.355469 120.121094 C 167.644531 121.238281 160.316406 123.558594 153.363281 127.074219 C 147.949219 129.761719 143.089844 133.226562 138.78125 137.46875 C 138.585938 137.707031 138.332031 137.851562 138.03125 137.902344 C 137.726562 137.953125 137.441406 137.902344 137.175781 137.746094 C 132.714844 135.835938 128.742188 133.246094 125.574219 129.527344 C 117.644531 120.195312 115.867188 109.289062 117.71875 97.535156 C 118.375 93.453125 119.945312 89.636719 121.578125 85.863281 C 121.921875 85.082031 121.996094 84.316406 121.21875 83.730469 C 120.441406 83.144531 119.53125 83.34375 118.84375 83.890625 C 115.5625 86.488281 112.375 89.144531 109.140625 91.777344 C 108.765625 92.328125 108.304688 92.796875 107.757812 93.183594 C 105.117188 95.089844 103.417969 97.757812 101.835938 100.523438 C 101.636719 101.203125 101.089844 101.628906 100.667969 102.140625 C 99.925781 102.726562 99.621094 103.582031 99.3125 104.425781 C 96.394531 109.648438 93.851562 114.984375 92.257812 120.773438 C 91.238281 124.265625 90.613281 127.824219 90.382812 131.457031 C 90.167969 135.945312 90.214844 140.464844 91.09375 144.957031 C 94.628906 162.992188 104.417969 175.410156 122.484375 180.539062 C 122.804688 180.59375 123.078125 180.734375 123.308594 180.96875 C 123.539062 181.199219 123.675781 181.476562 123.726562 181.796875 C 124.175781 184.054688 124.914062 186.210938 125.9375 188.273438 C 126.132812 188.589844 126.226562 188.9375 126.226562 189.308594 C 126.226562 189.683594 126.132812 190.027344 125.9375 190.347656 C 121.09375 199.746094 120.78125 209.304688 125 219.011719 C 128.5 227.085938 133.761719 234.027344 139.257812 240.757812 C 145.347656 248.265625 150.996094 256 154.773438 265 C 156.722656 269.851562 159.375 274.28125 162.738281 278.28125 C 172.597656 289.691406 186.871094 292.09375 198.753906 287.613281 C 207.261719 284.40625 213.570312 278.316406 217.285156 270.117188 C 222.789062 257.960938 230.097656 247.101562 238.722656 237.007812 C 242.902344 232.160156 246.417969 226.871094 249.273438 221.136719 C 254.386719 210.773438 254.496094 200.453125 249.023438 190.171875 C 248.886719 189.984375 248.8125 189.777344 248.800781 189.546875 C 248.789062 189.316406 248.839844 189.101562 248.953125 188.902344 C 250.082031 186.683594 250.910156 184.355469 251.441406 181.925781 C 251.496094 181.535156 251.660156 181.199219 251.941406 180.921875 C 252.21875 180.644531 252.554688 180.480469 252.945312 180.433594 C 255.007812 179.949219 257.015625 179.296875 258.964844 178.472656 C 260.917969 177.648438 262.785156 176.667969 264.570312 175.527344 C 266.355469 174.386719 268.035156 173.101562 269.601562 171.679688 C 271.171875 170.253906 272.609375 168.707031 273.914062 167.039062 C 284.128906 154.257812 286.652344 139.59375 283.183594 123.949219 Z M 283.183594 123.949219 " fill-opacity="1" fill-rule="nonzero"/></g><g clip-path="url(#b7ee5c17a1)"><path fill="#dbdad9" d="M 288.488281 133.410156 C 288.929688 134.910156 288.929688 136.410156 288.488281 137.90625 Z M 288.488281 133.410156 " fill-opacity="1" fill-rule="nonzero"/></g><path fill="#f2f2f2" d="M 86.089844 135.097656 C 86.214844 133.78125 85.785156 132.429688 86.363281 131.152344 C 86.238281 132.464844 86.671875 133.816406 86.089844 135.097656 Z M 86.089844 135.097656 " fill-opacity="1" fill-rule="nonzero"/><path fill="#f2f2f2" d="M 86.363281 140.167969 C 85.769531 138.984375 86.226562 137.722656 86.089844 136.503906 C 86.691406 137.691406 86.222656 138.953125 86.363281 140.167969 Z M 86.363281 140.167969 " fill-opacity="1" fill-rule="nonzero"/><path fill="#e42c31" d="M 246.589844 151.148438 C 245.792969 149.992188 245.027344 148.800781 244.1875 147.699219 C 243.871094 147.269531 243.421875 146.640625 242.820312 147.019531 C 242.113281 147.453125 242.761719 148.027344 242.984375 148.460938 C 245.933594 154.253906 248.140625 160.277344 248.933594 166.761719 C 249.839844 174.136719 248.933594 181.234375 245.589844 187.910156 C 244.855469 189.375 244.710938 190.558594 245.664062 191.925781 C 246.382812 193.085938 246.859375 194.335938 247.097656 195.679688 C 248.652344 202.476562 248.601562 209.214844 246.160156 215.828125 C 243.519531 223.007812 239.15625 229.160156 234.5 235.125 C 229.214844 241.882812 223.941406 248.648438 219.671875 256.132812 C 217.71875 259.554688 216.019531 263.105469 214.210938 266.601562 C 210.078125 274.574219 203.96875 280.394531 195.195312 282.796875 C 186.292969 285.222656 177.957031 283.804688 170.363281 278.394531 C 168.070312 276.738281 166.03125 274.804688 164.25 272.605469 C 162.46875 270.402344 161.007812 268.003906 159.863281 265.414062 C 155.363281 255.636719 149.558594 246.726562 142.960938 238.257812 C 138.992188 233.152344 135.121094 227.984375 131.941406 222.304688 C 128.441406 216.042969 126.558594 209.441406 127.066406 202.25 C 127.226562 200.019531 127.355469 197.769531 127.941406 195.589844 C 128.367188 194 128.992188 192.492188 129.816406 191.066406 C 130.03125 190.726562 130.148438 190.351562 130.164062 189.945312 C 130.179688 189.542969 130.09375 189.160156 129.90625 188.800781 C 123.957031 176.738281 124.933594 164.644531 130.085938 152.589844 C 130.707031 151.132812 131.4375 149.714844 132.105469 148.269531 C 132.285156 147.882812 132.761719 147.425781 132.175781 147.050781 C 131.671875 146.726562 131.316406 147.183594 130.984375 147.519531 C 129.839844 148.65625 129.199219 150.140625 128.265625 151.429688 C 127.621094 152.414062 126.871094 153.308594 126.011719 154.113281 C 125.875 154.273438 125.710938 154.402344 125.519531 154.5 C 125.332031 154.597656 125.128906 154.65625 124.917969 154.671875 C 124.703125 154.6875 124.496094 154.660156 124.292969 154.59375 C 124.09375 154.527344 123.910156 154.425781 123.75 154.285156 C 121.949219 153.0625 120.335938 151.632812 118.898438 149.996094 C 113.5 143.71875 110.992188 136.289062 110.140625 128.171875 C 109.796875 124.953125 109.425781 121.738281 109.601562 118.5 C 110.015625 110.527344 111.132812 102.738281 114.792969 95.511719 C 114.972656 95.15625 114.925781 94.511719 115.617188 94.574219 L 114.503906 100.460938 C 113.691406 102.929688 113.765625 105.511719 113.546875 108.042969 C 112.753906 117.269531 114.796875 125.632812 120.988281 132.777344 C 125.207031 137.65625 130.242188 141.222656 136.632812 142.632812 C 139.167969 143.183594 141.722656 143.324219 144.300781 143.054688 C 144.769531 142.761719 145.960938 143.597656 145.707031 142.167969 C 145.828125 141.265625 146.554688 140.859375 147.171875 140.378906 C 151.570312 136.976562 156.328125 134.203125 161.457031 132.058594 C 166.582031 129.914062 171.898438 128.472656 177.40625 127.734375 C 189.84375 125.984375 201.941406 127.34375 213.59375 132.167969 C 218.898438 134.382812 223.765625 137.324219 228.195312 140.992188 C 228.582031 141.3125 229.066406 141.574219 229.132812 142.171875 C 229.082031 143.617188 230.152344 142.953125 230.8125 143.066406 C 234.726562 143.417969 238.566406 143.132812 242.199219 141.496094 C 252.3125 136.933594 258.59375 129.15625 261.164062 118.40625 C 262.101562 114.410156 261.761719 110.300781 261.53125 106.234375 C 261.429688 104.46875 261.355469 102.65625 260.597656 100.996094 C 260.125 99.160156 259.765625 97.300781 259.515625 95.421875 C 259.386719 94.953125 259.425781 94.578125 260.003906 94.980469 C 260.308594 95.289062 260.515625 95.648438 260.632812 96.0625 C 263.132812 101.515625 264.695312 107.222656 265.320312 113.191406 C 266.027344 119.371094 265.828125 125.523438 264.714844 131.644531 C 263.308594 139.417969 260.109375 146.273438 254.304688 151.769531 C 253.488281 152.546875 252.609375 153.246094 251.671875 153.867188 C 250.351562 154.742188 249.839844 154.683594 248.710938 153.617188 C 247.925781 152.863281 247.21875 152.039062 246.589844 151.148438 Z M 246.589844 151.148438 " fill-opacity="1" fill-rule="nonzero"/><path fill="#f7928c" d="M 229.117188 142.171875 C 223.011719 137.003906 216.160156 133.175781 208.558594 130.695312 C 199.921875 127.886719 191.078125 126.847656 182.023438 127.585938 C 169.164062 128.617188 157.449219 132.878906 147.183594 140.847656 C 146.667969 141.246094 146.214844 141.726562 145.730469 142.167969 C 144.667969 141.585938 143.628906 140.957031 142.535156 140.433594 C 141.691406 140.035156 141.625 139.796875 142.386719 139.160156 C 145.941406 136.101562 149.78125 133.460938 153.910156 131.234375 C 158.039062 129.011719 162.355469 127.257812 166.863281 125.976562 C 186.039062 120.59375 204.5 122.292969 222.09375 131.855469 C 225.617188 133.816406 228.910156 136.109375 231.972656 138.738281 C 232.359375 139.0625 232.710938 139.429688 233.21875 139.910156 C 231.785156 140.542969 230.417969 141.296875 229.117188 142.171875 Z M 229.117188 142.171875 " fill-opacity="1" fill-rule="nonzero"/><path fill="#801016" d="M 127.941406 195.605469 C 127.941406 198.644531 127.417969 201.648438 127.382812 204.691406 C 127.3125 210.917969 129.222656 216.550781 132.164062 221.925781 C 136.449219 229.769531 142.230469 236.550781 147.492188 243.695312 C 151.9375 249.691406 155.75 256.066406 158.929688 262.824219 C 161.175781 267.632812 163.785156 272.242188 167.792969 275.847656 C 172.945312 280.46875 178.871094 283.230469 185.867188 283.453125 C 198.765625 283.855469 207.796875 277.707031 213.742188 266.65625 C 217.109375 260.386719 220.214844 253.988281 224.28125 248.113281 C 227.992188 242.769531 232.082031 237.71875 235.996094 232.542969 C 240.167969 227.042969 243.925781 221.28125 246.152344 214.714844 C 247.675781 210.109375 248.121094 205.402344 247.484375 200.59375 C 247.285156 198.96875 247.210938 197.308594 247.078125 195.699219 C 248.335938 197.851562 248.554688 200.273438 248.824219 202.667969 C 249.757812 211.21875 246.949219 218.785156 242.609375 225.933594 C 239.566406 230.941406 235.878906 235.484375 232.191406 240.007812 C 226.957031 246.445312 221.828125 252.9375 218.367188 260.566406 C 216.566406 264.535156 214.878906 268.578125 212.394531 272.171875 C 205.605469 281.988281 196.425781 287.277344 184.257812 286.195312 C 178.027344 285.640625 172.667969 282.875 167.984375 278.691406 C 163.300781 274.503906 160.152344 269.308594 157.746094 263.582031 C 154.324219 255.441406 149.507812 248.195312 143.996094 241.332031 C 138.582031 234.582031 133.042969 227.898438 129.394531 219.933594 C 127.242188 215.238281 125.972656 210.308594 126.050781 205.140625 C 126.121094 201.886719 126.496094 198.621094 127.941406 195.605469 Z M 127.941406 195.605469 " fill-opacity="1" fill-rule="nonzero"/><path fill="#e22b30" d="M 94.503906 131.425781 C 95.121094 121.105469 98.5625 111.777344 104.0625 103.128906 C 105.988281 99.949219 108.191406 96.980469 110.667969 94.210938 C 111.03125 93.746094 111.5 93.453125 112.074219 93.332031 C 112.101562 94.015625 111.699219 94.484375 111.394531 94.980469 C 106.050781 103.722656 101.796875 112.933594 99.53125 122.945312 C 97.628906 131.390625 97.25 139.878906 99.816406 148.234375 C 102.574219 157.214844 108.25 163.898438 116.605469 168.21875 L 118.976562 169.441406 C 119.59375 170.425781 119.082031 171.265625 118.535156 172.011719 C 117.988281 172.757812 117.019531 172.710938 116.21875 172.40625 C 113.300781 171.304688 110.675781 169.710938 108.351562 167.628906 C 101.355469 161.433594 97.511719 153.484375 95.441406 144.5 C 94.5 140.1875 94.1875 135.828125 94.503906 131.425781 Z M 94.503906 131.425781 " fill-opacity="1" fill-rule="nonzero"/><path fill="#e42a30" d="M 256.113281 169.425781 C 260.636719 167.289062 264.832031 164.707031 268.148438 160.859375 C 270.59375 158.042969 272.542969 154.914062 273.992188 151.476562 C 275.445312 148.042969 276.328125 144.464844 276.640625 140.746094 C 277.789062 128.800781 274.683594 117.714844 269.8125 106.992188 C 267.917969 102.855469 265.800781 98.835938 263.453125 94.941406 C 263.152344 94.433594 262.730469 93.960938 262.738281 93.300781 C 264.808594 93.640625 272.257812 104.5625 275.308594 111.441406 C 278.441406 118.328125 280.214844 125.550781 280.621094 133.105469 C 280.929688 137.195312 280.535156 141.214844 279.433594 145.164062 C 277.925781 150.964844 275.6875 156.453125 272.242188 161.40625 C 270.605469 163.804688 268.667969 165.917969 266.421875 167.753906 C 264.179688 169.589844 261.722656 171.070312 259.050781 172.199219 C 258.253906 172.535156 257.382812 172.878906 256.707031 172.117188 C 256.03125 171.359375 255.644531 170.46875 256.113281 169.425781 Z M 256.113281 169.425781 " fill-opacity="1" fill-rule="nonzero"/><path fill="#f7908b" d="M 260.566406 100.996094 C 260.679688 100.867188 260.777344 100.441406 260.9375 100.960938 C 261.613281 103.164062 261.980469 105.417969 262.039062 107.71875 C 262.171875 112.214844 262.414062 116.757812 260.894531 121.078125 C 257.054688 132.039062 250.027344 139.84375 238.5625 143.058594 C 236.28125 143.699219 233.9375 143.621094 231.597656 143.527344 C 231.253906 143.527344 230.945312 143.457031 230.800781 143.085938 C 235.300781 141.710938 239.859375 140.492188 243.957031 138.042969 C 252.429688 132.972656 257.289062 125.289062 259.765625 115.929688 C 261.042969 111.007812 261.3125 106.027344 260.566406 100.996094 Z M 260.566406 100.996094 " fill-opacity="1" fill-rule="nonzero"/><path fill="#f58f8a" d="M 144.300781 143.054688 C 142.671875 143.992188 140.890625 143.644531 139.226562 143.4375 C 129.152344 142.191406 122.207031 136.359375 117.125 127.945312 C 113.25 121.570312 112.570312 114.554688 113.222656 107.265625 C 113.433594 104.917969 113.792969 102.640625 114.207031 100.339844 C 114.207031 100.300781 114.207031 100.238281 114.246094 100.230469 C 114.464844 100.167969 114.410156 100.382812 114.492188 100.460938 C 114.167969 104.214844 113.851562 107.941406 114.445312 111.683594 C 116.789062 126.523438 124.5625 136.898438 139.179688 141.5625 C 140.863281 142.097656 142.597656 142.554688 144.300781 143.054688 Z M 144.300781 143.054688 " fill-opacity="1" fill-rule="nonzero"/><path fill="#801117" d="M 115.617188 94.558594 C 112.929688 99.453125 111.660156 104.777344 110.808594 110.238281 C 110.097656 114.351562 109.835938 118.492188 110.027344 122.660156 C 110.550781 131.15625 111.816406 139.464844 116.863281 146.710938 C 118.789062 149.566406 121.148438 151.996094 123.945312 154.003906 C 124.644531 154.472656 125.117188 154.523438 125.722656 153.847656 C 126.449219 152.917969 127.289062 152.105469 128.242188 151.40625 C 127.613281 153.421875 126.226562 155.085938 125.589844 157.113281 C 125.304688 158.027344 124.539062 157.453125 124.066406 157.191406 C 121.398438 155.714844 119.273438 153.578125 117.386719 151.246094 C 112.503906 145.203125 109.777344 138.269531 108.808594 130.53125 C 107.257812 118.148438 109.121094 106.386719 114.628906 95.1875 C 114.9375 94.566406 115.308594 93.972656 115.714844 93.25 C 115.960938 93.808594 115.996094 94.199219 115.617188 94.558594 Z M 115.617188 94.558594 " fill-opacity="1" fill-rule="nonzero"/><path fill="#771119" d="M 246.589844 151.148438 C 247.609375 151.757812 248.3125 152.714844 249.097656 153.5625 C 249.789062 154.3125 250.359375 154.300781 251.144531 153.75 C 254.746094 151.191406 257.628906 147.984375 259.792969 144.132812 C 262.835938 138.90625 264.246094 133.195312 264.886719 127.242188 C 265.441406 122.441406 265.429688 117.644531 264.855469 112.847656 C 264.277344 108.050781 263.148438 103.386719 261.472656 98.859375 C 261.035156 97.675781 260.535156 96.511719 260.042969 95.363281 C 259.851562 94.894531 259.636719 94.894531 259.484375 95.40625 C 259.09375 94.636719 258.914062 93.824219 258.957031 92.964844 C 260.652344 95.261719 261.574219 97.5625 262.527344 99.816406 C 265.039062 105.816406 266.492188 112.066406 266.886719 118.5625 C 267.535156 128.308594 265.917969 137.558594 261.148438 146.132812 C 258.710938 150.503906 255.59375 154.328125 251.226562 156.984375 C 250.265625 157.570312 249.757812 157.722656 249.25 156.375 C 248.570312 154.542969 247.492188 152.878906 246.589844 151.148438 Z M 246.589844 151.148438 " fill-opacity="1" fill-rule="nonzero"/><path fill="#7a1018" d="M 256.113281 169.425781 C 256.65625 172.601562 256.835938 172.746094 259.707031 171.460938 C 266.089844 168.605469 270.710938 163.847656 274.050781 157.78125 C 277.222656 151.984375 279.277344 145.8125 280.222656 139.273438 C 280.527344 137.25 280.484375 135.171875 280.601562 133.121094 C 281.128906 135.144531 280.882812 137.203125 280.796875 139.21875 C 280.542969 144.976562 279.226562 150.476562 276.84375 155.722656 C 272.847656 164.671875 266.4375 171.230469 257.390625 175.117188 C 257.085938 175.222656 256.773438 175.308594 256.453125 175.375 C 256.234375 175.5 256.011719 175.507812 255.785156 175.402344 C 254.785156 174.933594 253.289062 171.621094 253.582031 170.550781 C 253.621094 170.421875 253.765625 170.34375 253.878906 170.265625 C 254.585938 169.882812 255.328125 169.601562 256.113281 169.425781 Z M 256.113281 169.425781 " fill-opacity="1" fill-rule="nonzero"/><path fill="#821118" d="M 94.503906 131.425781 C 94.417969 136.359375 94.976562 141.21875 96.183594 146 C 98.398438 154.445312 102.246094 161.886719 108.933594 167.660156 C 110.886719 169.292969 113.019531 170.628906 115.335938 171.671875 C 117.90625 172.878906 118.769531 172.328125 118.976562 169.441406 C 120.035156 169.515625 120.882812 170.097656 121.757812 170.613281 C 121.648438 172.554688 120.085938 174.976562 118.6875 175.355469 C 114.699219 174.191406 111.347656 171.871094 108.257812 169.234375 C 100.503906 162.632812 96.257812 154.125 94.738281 144.117188 C 94.167969 140.339844 94.234375 136.566406 94.269531 132.773438 C 94.257812 132.3125 94.144531 131.820312 94.503906 131.425781 Z M 94.503906 131.425781 " fill-opacity="1" fill-rule="nonzero"/><path fill="#91161f" d="M 268.484375 137.328125 C 269.226562 133.863281 269.695312 130.355469 269.890625 126.816406 C 269.917969 126.171875 270.238281 126.207031 270.730469 126.347656 C 271.199219 126.476562 271.621094 126.691406 272.007812 126.988281 C 272.390625 127.289062 272.703125 127.648438 272.945312 128.070312 C 273.1875 128.492188 273.339844 128.945312 273.402344 129.425781 C 273.46875 129.90625 273.4375 130.382812 273.316406 130.855469 C 273.101562 131.667969 272.570312 131.085938 272.195312 131.164062 C 271.820312 131.246094 271.351562 130.976562 271.203125 131.417969 C 271.054688 131.859375 271.582031 131.980469 271.878906 132.144531 C 272.457031 132.421875 272.910156 132.835938 273.230469 133.390625 C 273.554688 133.945312 273.691406 134.542969 273.644531 135.183594 C 273.644531 136.964844 273.21875 138.695312 273.273438 140.46875 C 272.804688 140.828125 272.386719 140.546875 271.984375 140.363281 C 271.097656 139.957031 270.242188 139.507812 269.355469 139.101562 C 268.605469 138.738281 268.175781 138.199219 268.484375 137.328125 Z M 268.484375 137.328125 " fill-opacity="1" fill-rule="nonzero"/><path fill="#781119" d="M 120.320312 159.285156 C 121.386719 159.332031 122.464844 160.582031 123.816406 161.265625 C 123.898438 161.320312 123.945312 161.398438 123.957031 161.5 C 123.800781 163.257812 123.503906 164.992188 123.058594 166.699219 C 122.964844 167.003906 122.5625 166.9375 122.3125 166.835938 C 120.75 166.203125 119.148438 165.632812 117.777344 164.660156 C 116.9375 164.0625 115.945312 163.378906 116.371094 162.035156 C 116.515625 161.628906 116.71875 161.253906 116.980469 160.910156 C 117.242188 160.570312 117.550781 160.273438 117.90625 160.027344 C 118.257812 159.78125 118.640625 159.59375 119.054688 159.46875 C 119.464844 159.339844 119.886719 159.28125 120.320312 159.285156 Z M 120.320312 159.285156 " fill-opacity="1" fill-rule="nonzero"/><path fill="#78111a" d="M 101.589844 133.429688 C 101.871094 132.601562 102.722656 132.371094 103.269531 131.816406 C 103.464844 131.625 103.738281 131.4375 103.628906 131.121094 C 103.515625 130.808594 103.128906 130.839844 102.894531 130.902344 C 101.222656 131.339844 101.410156 130.210938 101.554688 129.25 C 101.785156 127.714844 102.765625 126.796875 104.1875 126.269531 C 104.921875 126 105.179688 126.183594 105.265625 126.960938 C 105.542969 129.367188 105.597656 131.789062 105.988281 134.191406 C 106.269531 135.941406 106.582031 137.679688 106.976562 139.40625 C 107.101562 139.957031 107.226562 140.40625 106.605469 140.707031 C 105.226562 141.402344 103.925781 142.21875 102.699219 143.15625 C 102.164062 143.554688 101.835938 143.542969 101.851562 142.789062 C 101.851562 141.898438 101.414062 141.058594 101.570312 140.152344 C 102.316406 139.632812 103.234375 139.5625 104.035156 139.171875 C 105.054688 138.671875 105.738281 138.027344 105.441406 136.765625 C 105.394531 136.390625 105.378906 136.015625 105.394531 135.640625 C 105.289062 133.804688 104.925781 133.535156 103.175781 134.070312 C 102.445312 134.289062 101.875 134.246094 101.589844 133.429688 Z M 101.589844 133.429688 " fill-opacity="1" fill-rule="nonzero"/><path fill="#730f18" d="M 258.648438 162.785156 C 258.566406 163.5 258.222656 164.054688 257.617188 164.441406 C 256.113281 165.503906 254.363281 166.058594 252.703125 166.789062 C 252.152344 167.027344 251.933594 166.722656 251.84375 166.226562 C 251.601562 164.851562 251.34375 163.476562 251.105469 162.101562 C 251.066406 161.914062 251.074219 161.730469 251.128906 161.546875 C 251.320312 160.960938 255.042969 158.996094 255.710938 159.113281 C 257.082031 159.351562 258.671875 161.289062 258.648438 162.785156 Z M 258.648438 162.785156 " fill-opacity="1" fill-rule="nonzero"/><path fill="#761118" d="M 265.761719 155.027344 C 266.824219 156.546875 266.808594 157.171875 265.585938 158.429688 C 264.429688 159.714844 263.171875 160.894531 261.8125 161.964844 C 261.378906 162.28125 261.152344 162.535156 260.878906 161.71875 C 260.355469 159.902344 259.328125 158.445312 257.789062 157.347656 C 257.191406 156.929688 257.253906 156.625 257.695312 156.136719 C 258.445312 155.3125 259.15625 154.445312 259.839844 153.5625 C 261.296875 151.6875 262.328125 151.625 264.058594 153.351562 C 263.714844 154.289062 262.722656 154.601562 262.136719 155.320312 C 261.550781 156.042969 261.199219 156.730469 261.667969 157.605469 C 261.898438 158.015625 262.183594 158.429688 262.714844 158.4375 C 263.242188 158.445312 263.378906 157.996094 263.566406 157.625 C 264.109375 156.566406 264.546875 155.492188 265.761719 155.027344 Z M 265.761719 155.027344 " fill-opacity="1" fill-rule="nonzero"/><path fill="#791117" d="M 104.65625 144.960938 C 105.378906 144.023438 106.480469 143.714844 107.507812 143.3125 C 107.664062 143.253906 107.824219 143.222656 107.992188 143.226562 C 108.160156 143.230469 108.324219 143.265625 108.476562 143.335938 C 108.632812 143.402344 108.765625 143.492188 108.886719 143.613281 C 109.003906 143.730469 109.09375 143.871094 109.160156 144.023438 C 109.960938 145.496094 110.691406 147.007812 111.472656 148.496094 C 111.742188 149.003906 111.472656 149.308594 111.128906 149.566406 C 109.5 150.761719 108.082031 152.167969 106.878906 153.789062 C 106.410156 154.402344 106.003906 154.210938 105.6875 153.671875 C 105.3125 153.027344 105.007812 152.347656 104.671875 151.6875 C 105.191406 150.550781 106.394531 150.164062 107.214844 149.339844 C 108.78125 147.8125 108.472656 146.523438 106.332031 145.777344 C 105.726562 145.597656 104.984375 145.695312 104.65625 144.960938 Z M 104.65625 144.960938 " fill-opacity="1" fill-rule="nonzero"/><path fill="#720f18" d="M 270.167969 151.695312 C 270.128906 151.921875 270.070312 152.140625 269.988281 152.355469 C 268.949219 154.523438 268.757812 154.535156 267.285156 152.675781 C 266.292969 151.480469 265.15625 150.4375 263.878906 149.550781 C 263.515625 149.289062 263.183594 149.082031 263.464844 148.5625 C 264.175781 147.199219 264.867188 145.820312 265.527344 144.441406 C 266.15625 143.15625 267.121094 143.035156 268.339844 143.527344 C 269.210938 143.867188 269.988281 144.347656 270.683594 144.972656 C 270.484375 145.203125 270.234375 145.304688 269.933594 145.273438 C 268.058594 145.167969 267.382812 146.472656 266.78125 147.90625 C 266.675781 148.152344 266.78125 148.199219 266.867188 148.375 C 267.566406 149.921875 268.921875 150.757812 270.167969 151.695312 Z M 270.167969 151.695312 " fill-opacity="1" fill-rule="nonzero"/><path fill="#98171f" d="M 110.011719 159.003906 C 108.078125 157.007812 108.0625 156.285156 110.011719 154.3125 C 110.949219 153.375 111.847656 152.316406 113.347656 152.273438 C 114.078125 153.332031 114.40625 154.585938 114.867188 155.757812 C 115.199219 156.609375 112.859375 159.742188 111.949219 159.921875 C 111.035156 160.097656 110.617188 159.402344 110.011719 159.003906 Z M 110.011719 159.003906 " fill-opacity="1" fill-rule="nonzero"/><path fill="#9c1c22" d="M 270.167969 151.695312 C 268.292969 151.269531 267.125 149.992188 266.53125 148.246094 C 266.125 147.046875 267.757812 145.085938 269.152344 144.960938 C 269.664062 144.9375 270.179688 144.9375 270.691406 144.960938 C 272.125 145.726562 272.464844 146.867188 271.824219 148.332031 C 271.34375 149.484375 270.988281 150.699219 270.167969 151.695312 Z M 270.167969 151.695312 " fill-opacity="1" fill-rule="nonzero"/><path fill="#9f1922" d="M 101.589844 133.429688 C 101.707031 133.558594 101.84375 133.664062 102 133.738281 C 102.160156 133.816406 102.324219 133.859375 102.5 133.875 C 102.671875 133.886719 102.84375 133.867188 103.007812 133.816406 C 103.175781 133.761719 103.328125 133.683594 103.464844 133.570312 C 104.507812 132.914062 105.140625 133.191406 105.539062 134.351562 C 106.273438 136.472656 106.050781 138.472656 104.855469 139.15625 C 103.855469 139.722656 102.800781 140.285156 101.574219 140.152344 C 101.328125 138.457031 101.226562 136.75 101.265625 135.035156 C 101.203125 134.464844 101.308594 133.929688 101.589844 133.429688 Z M 101.589844 133.429688 " fill-opacity="1" fill-rule="nonzero"/><path fill="#9d1a22" d="M 104.65625 144.960938 C 106.207031 145.398438 107.796875 145.691406 108.667969 147.363281 C 108.949219 147.914062 108.910156 148.121094 108.546875 148.515625 C 107.382812 149.730469 106.09375 150.785156 104.671875 151.6875 C 104.269531 150.839844 103.820312 150.015625 103.464844 149.152344 C 102.488281 146.789062 102.574219 146.554688 104.65625 144.960938 Z M 104.65625 144.960938 " fill-opacity="1" fill-rule="nonzero"/><path fill="#70111a" d="M 110.011719 159.003906 C 112.285156 159.851562 112.246094 159.777344 113.691406 157.648438 C 114.496094 156.4375 114.957031 155.414062 113.796875 154.246094 C 113.230469 153.671875 113.796875 152.878906 113.371094 152.277344 C 114.238281 152.113281 114.617188 152.808594 115.054688 153.308594 C 115.882812 154.246094 116.617188 155.273438 117.4375 156.21875 C 117.847656 156.6875 117.835938 156.96875 117.316406 157.324219 C 115.757812 158.382812 114.703125 159.816406 114.160156 161.625 C 113.921875 162.402344 113.625 162.410156 113.007812 161.914062 C 111.871094 161.085938 110.871094 160.117188 110.011719 159.003906 Z M 110.011719 159.003906 " fill-opacity="1" fill-rule="nonzero"/><path fill="#9b1c22" d="M 265.761719 155.027344 C 265.1875 155.863281 264.359375 156.519531 263.996094 157.511719 C 263.730469 158.21875 263.550781 159.207031 262.445312 158.886719 C 261.339844 158.570312 260.738281 156.96875 261.246094 155.980469 C 261.859375 154.789062 262.972656 154.058594 264.058594 153.351562 C 264.804688 153.730469 265.371094 154.289062 265.761719 155.027344 Z M 265.761719 155.027344 " fill-opacity="1" fill-rule="nonzero"/><path fill="#580b12" d="M 253.898438 170.28125 C 253.765625 172.078125 255.113281 174.761719 256.46875 175.386719 C 255.464844 176.097656 254.246094 176.265625 253.128906 176.675781 C 252.472656 176.910156 252.191406 176.570312 252.191406 175.90625 C 252.191406 174.421875 252.191406 172.933594 252.191406 171.453125 C 252.1875 170.171875 253.300781 170.640625 253.898438 170.28125 Z M 253.898438 170.28125 " fill-opacity="1" fill-rule="nonzero"/><path fill="#710e16" d="M 268.484375 137.328125 C 268.453125 137.589844 268.496094 137.835938 268.613281 138.070312 C 268.730469 138.304688 268.902344 138.488281 269.132812 138.613281 C 270.5 139.257812 271.894531 139.847656 273.277344 140.457031 C 273.320312 141.398438 273.359375 142.609375 272.71875 143.039062 C 272.214844 143.382812 271.402344 142.261719 270.671875 141.878906 C 270.382812 141.730469 270.125 141.523438 269.84375 141.359375 C 267.492188 139.964844 267.492188 139.964844 268.484375 137.328125 Z M 268.484375 137.328125 " fill-opacity="1" fill-rule="nonzero"/><path fill="#5e0e14" d="M 118.6875 175.355469 C 120.433594 174.242188 120.796875 172.230469 121.757812 170.613281 C 122.429688 170.53125 122.765625 170.65625 122.695312 171.507812 C 122.550781 172.859375 122.601562 174.199219 122.847656 175.535156 C 123.066406 176.527344 122.703125 176.941406 121.648438 176.472656 C 120.683594 176.058594 119.589844 175.960938 118.6875 175.355469 Z M 118.6875 175.355469 " fill-opacity="1" fill-rule="nonzero"/><path fill="#80101b" d="M 102.15625 123.851562 C 102.457031 122.34375 102.246094 120.757812 103.5625 119.667969 C 103.957031 119.339844 104.34375 118.859375 104.886719 119.125 C 105.429688 119.394531 104.972656 119.957031 105.042969 120.367188 C 105.40625 122.601562 103.988281 123.359375 102.15625 123.851562 Z M 102.15625 123.851562 " fill-opacity="1" fill-rule="nonzero"/><path fill="#720e19" d="M 272.730469 122.816406 C 272.875 123.820312 272.421875 123.910156 271.722656 123.460938 C 271.230469 123.144531 270.382812 123.242188 270.261719 122.523438 C 270.054688 121.464844 269.992188 120.398438 270.070312 119.324219 C 270.117188 118.777344 270.742188 119.042969 271.09375 119.269531 C 272.382812 120.121094 272.589844 121.460938 272.730469 122.816406 Z M 272.730469 122.816406 " fill-opacity="1" fill-rule="nonzero"/><path fill="#010003" d="M 135.601562 208.519531 C 135.949219 208.992188 136.21875 209.289062 136.445312 209.636719 C 139.609375 214.523438 144.175781 217.578125 149.480469 219.660156 C 156.550781 222.359375 163.847656 224.125 171.371094 224.957031 C 175.832031 225.496094 180.273438 226.085938 184.769531 226.308594 C 190.730469 226.597656 196.636719 225.890625 202.539062 225.175781 C 209.65625 224.324219 216.6875 223.101562 223.46875 220.644531 C 229.835938 218.332031 235.378906 214.972656 239.046875 209.054688 C 239.144531 208.890625 239.21875 208.71875 239.335938 208.488281 C 240.980469 211.21875 241.035156 213.425781 239.335938 215.308594 C 234.652344 220.578125 231.339844 226.71875 228.128906 232.933594 C 225.960938 237.15625 224.128906 241.558594 220.972656 245.128906 C 214.042969 253.015625 206.03125 259.320312 195.507812 261.679688 C 185.335938 263.964844 175.902344 261.980469 167.121094 256.570312 C 162.460938 253.621094 158.285156 250.097656 154.59375 245.992188 C 152.214844 243.410156 150.648438 240.296875 149.109375 237.191406 C 146.019531 230.980469 143.121094 224.671875 138.964844 219.0625 C 138.128906 217.929688 137.25 216.835938 136.332031 215.78125 C 134.371094 213.476562 134.117188 211.492188 135.601562 208.519531 Z M 135.601562 208.519531 " fill-opacity="1" fill-rule="nonzero"/><path fill="#010003" d="M 196.484375 183.46875 C 196.265625 183.621094 196.277344 183.847656 196.273438 184.074219 C 195.878906 186.277344 195.167969 188.402344 194.617188 190.570312 C 194.25 192.03125 194.09375 193.511719 194.148438 195.015625 C 194.234375 197.617188 196.023438 199.410156 198.601562 199.417969 C 199.148438 199.417969 199.71875 199.558594 200.253906 199.296875 C 207.226562 196.378906 211.699219 190.613281 216.394531 185.101562 C 219.640625 181.285156 222.835938 177.414062 226.914062 174.425781 C 227.636719 173.90625 228.386719 173.4375 229.167969 173.019531 C 231.980469 171.507812 234.195312 172.179688 235.757812 175 C 236.984375 177.207031 237.484375 179.652344 237.785156 182.117188 C 238.417969 187.410156 238.300781 192.675781 236.847656 197.855469 C 234.539062 206.054688 227.789062 211.117188 219.316406 211.144531 C 213.035156 211.144531 207.824219 208.507812 203.050781 204.777344 C 201.878906 203.839844 200.847656 203.28125 199.410156 203.941406 C 199.234375 204.007812 199.054688 204.050781 198.867188 204.074219 C 193.714844 205.085938 190.570312 202.574219 190.40625 197.25 C 190.25 192.332031 192.28125 188.046875 194.503906 183.847656 L 195.441406 182.121094 C 195.765625 180.5625 196.101562 180.179688 197.136719 180.207031 L 197.136719 180.992188 C 196.863281 181.792969 197.003906 182.71875 196.484375 183.46875 Z M 196.484375 183.46875 " fill-opacity="1" fill-rule="nonzero"/><path fill="#010004" d="M 178.035156 181.515625 C 177.804688 181.046875 177.527344 180.578125 178.035156 180.109375 C 179.011719 180.25 179.242188 181.007812 179.4375 181.808594 C 181.527344 185.558594 183.453125 189.421875 184.421875 193.667969 C 185.054688 196.4375 184.835938 199.074219 183.375 201.535156 C 181.914062 204 180.042969 204.996094 177.34375 204.175781 C 174.761719 203.394531 172.964844 204.039062 170.917969 205.625 C 166.5 209.039062 161.503906 211.117188 155.769531 211.117188 C 147.09375 211.117188 140.140625 205.710938 138.1875 197.238281 C 136.738281 191.023438 136.710938 184.800781 138.097656 178.574219 C 138.394531 177.082031 138.964844 175.707031 139.804688 174.441406 C 141.421875 172.09375 143.382812 171.625 145.894531 172.925781 C 149.511719 174.855469 152.328125 177.730469 155.015625 180.742188 C 158.570312 184.71875 161.753906 189.035156 165.582031 192.765625 C 168.027344 195.148438 170.546875 197.457031 173.808594 198.730469 C 174.480469 198.90625 175.125 199.199219 175.816406 199.296875 C 178.675781 199.800781 180.894531 198.007812 181.042969 195.117188 C 181.171875 192.636719 180.492188 190.304688 179.835938 187.960938 C 179.1875 185.828125 178.261719 183.777344 178.035156 181.515625 Z M 178.035156 181.515625 " fill-opacity="1" fill-rule="nonzero"/><path fill="#820f19" d="M 210.867188 259.820312 C 209.386719 262.039062 207.355469 263.605469 205.214844 265.042969 C 201.96875 267.222656 198.957031 269.777344 195.179688 271.113281 C 189.175781 273.242188 183.292969 272.988281 177.695312 270.011719 C 172.960938 267.410156 168.5625 264.335938 164.492188 260.78125 C 163.984375 260.4375 163.554688 260.011719 163.207031 259.5 C 165.84375 260.785156 168.359375 262.144531 171.03125 263.21875 C 176.675781 265.488281 182.488281 267.035156 188.605469 266.777344 C 194.1875 266.476562 199.496094 265.121094 204.535156 262.710938 C 206.625 261.738281 208.746094 260.78125 210.867188 259.820312 Z M 210.867188 259.820312 " fill-opacity="1" fill-rule="nonzero"/><path fill="#030103" d="M 176.34375 215.0625 C 178.324219 213.308594 179.355469 213.160156 181.601562 214.570312 C 183.222656 215.582031 184.765625 216.722656 186.289062 217.851562 C 187.167969 218.496094 187.882812 218.539062 188.777344 217.792969 C 190.203125 216.589844 191.722656 215.488281 193.257812 214.433594 C 195.097656 213.175781 196.800781 213.335938 198.472656 214.800781 C 198.785156 214.976562 199.039062 215.210938 199.234375 215.511719 C 199.429688 215.808594 199.546875 216.136719 199.585938 216.492188 C 199.804688 217.75 198.769531 218.726562 197.660156 218.1875 C 196.171875 217.46875 195.066406 217.96875 193.9375 218.855469 C 192.46875 220.011719 190.929688 221.070312 189.421875 222.179688 C 189.171875 222.394531 188.894531 222.558594 188.585938 222.679688 C 188.28125 222.800781 187.960938 222.863281 187.632812 222.875 C 187.304688 222.886719 186.980469 222.839844 186.667969 222.742188 C 186.351562 222.644531 186.0625 222.496094 185.800781 222.296875 C 184.070312 221.183594 182.417969 219.96875 180.839844 218.644531 C 179.953125 217.910156 179.03125 217.519531 177.882812 218.058594 C 177.199219 218.378906 176.445312 218.667969 175.875 217.84375 C 175.621094 217.515625 175.496094 217.144531 175.5 216.730469 C 175.507812 216.316406 175.640625 215.949219 175.902344 215.628906 C 176.039062 215.433594 176.1875 215.242188 176.34375 215.0625 Z M 176.34375 215.0625 " fill-opacity="1" fill-rule="nonzero"/><path fill="#7f111b" d="M 176.34375 215.0625 C 176.144531 215.484375 175.988281 215.921875 175.875 216.371094 C 175.761719 216.96875 175.917969 217.488281 176.34375 217.929688 C 176.773438 218.363281 177.242188 218.027344 177.621094 217.796875 C 178.988281 216.960938 180.105469 217.445312 181.167969 218.394531 C 182.597656 219.671875 184.210938 220.699219 185.746094 221.847656 C 187.054688 222.828125 188.195312 222.71875 189.421875 221.765625 C 190.929688 220.59375 192.476562 219.457031 194.023438 218.332031 C 195.074219 217.566406 196.15625 216.925781 197.496094 217.730469 C 197.921875 217.980469 198.402344 218.375 198.898438 217.84375 C 199.148438 217.609375 199.300781 217.324219 199.351562 216.988281 C 199.40625 216.648438 199.347656 216.332031 199.179688 216.03125 C 198.964844 215.621094 198.746094 215.207031 198.523438 214.792969 C 198.707031 214.867188 198.875 214.960938 199.035156 215.074219 C 199.195312 215.183594 199.34375 215.3125 199.472656 215.453125 C 199.605469 215.597656 199.722656 215.753906 199.820312 215.921875 C 199.917969 216.089844 200 216.265625 200.058594 216.453125 C 200.121094 216.636719 200.160156 216.828125 200.175781 217.023438 C 200.195312 217.21875 200.195312 217.410156 200.171875 217.605469 C 200.148438 217.796875 200.105469 217.988281 200.039062 218.171875 C 199.976562 218.355469 199.890625 218.53125 199.789062 218.699219 C 199.578125 219.070312 199.289062 219.375 198.921875 219.601562 C 195.132812 221.394531 191.742188 224.191406 187.210938 224.074219 C 184.632812 223.96875 182.273438 223.183594 180.140625 221.726562 C 179.375 221.183594 178.53125 220.828125 177.605469 220.660156 C 176.980469 220.589844 176.429688 220.351562 175.957031 219.9375 C 175.480469 219.523438 175.167969 219.011719 175.011719 218.402344 C 174.910156 218.089844 174.867188 217.769531 174.875 217.441406 C 174.886719 217.113281 174.953125 216.796875 175.074219 216.492188 C 175.195312 216.1875 175.367188 215.910156 175.582031 215.664062 C 175.800781 215.417969 176.054688 215.21875 176.34375 215.0625 Z M 176.34375 215.0625 " fill-opacity="1" fill-rule="nonzero"/><path fill="#030103" d="M 135.214844 165.203125 C 134.476562 166.207031 134.183594 167.390625 133.863281 168.5625 C 133.757812 168.957031 133.71875 169.5 133.132812 169.402344 C 132.664062 169.328125 132.707031 168.84375 132.707031 168.464844 C 132.734375 164.863281 133.535156 161.496094 135.6875 158.535156 C 137.355469 156.238281 139.683594 155.453125 142.371094 155.984375 C 146.226562 156.75 149.1875 158.953125 151.414062 162.167969 C 151.726562 162.636719 152.027344 163.128906 151.785156 163.738281 C 150.984375 164.207031 150.589844 163.453125 150.109375 163.113281 C 148.34375 161.886719 146.644531 160.582031 144.441406 160.160156 C 141.9375 159.691406 139.855469 160.449219 137.964844 162.035156 C 136.871094 162.957031 136.179688 164.207031 135.214844 165.203125 Z M 135.214844 165.203125 " fill-opacity="1" fill-rule="nonzero"/><path fill="#020103" d="M 223.28125 163.855469 C 222.996094 163.421875 223.242188 163.019531 223.449219 162.683594 C 225.832031 158.839844 229.191406 156.449219 233.757812 155.933594 C 236.046875 155.675781 237.863281 156.625 239.21875 158.460938 C 241.382812 161.394531 242.230469 164.757812 242.375 168.339844 C 242.375 168.753906 242.445312 169.316406 241.949219 169.417969 C 241.265625 169.546875 241.339844 168.859375 241.203125 168.476562 C 240.835938 167.375 240.582031 166.222656 239.871094 165.253906 C 238.980469 164.316406 238.425781 163.101562 237.449219 162.21875 C 234.609375 159.65625 231.011719 159.371094 227.515625 161.457031 C 226.644531 162 225.808594 162.59375 225.007812 163.238281 C 224.507812 163.601562 224.046875 164.179688 223.28125 163.855469 Z M 223.28125 163.855469 " fill-opacity="1" fill-rule="nonzero"/><path fill="#f17470" d="M 223.28125 163.855469 C 224.6875 163.261719 225.683594 162.105469 226.953125 161.328125 C 232 158.230469 237.578125 159.742188 239.765625 164.824219 C 239.8125 164.957031 239.839844 165.09375 239.855469 165.230469 C 239.550781 166.011719 239.296875 166.816406 238.917969 167.578125 C 238.539062 168.335938 238.097656 168.601562 237.511719 167.660156 C 237.089844 166.984375 236.597656 166.359375 236.042969 165.785156 C 233.515625 163.148438 230.484375 162.769531 227.332031 164.652344 C 226.097656 165.394531 224.867188 166.152344 223.617188 166.875 C 223.148438 167.15625 222.527344 167.429688 222.054688 167.027344 C 221.578125 166.625 222.054688 166.089844 222.1875 165.621094 C 222.414062 164.945312 222.777344 164.359375 223.28125 163.855469 Z M 223.28125 163.855469 " fill-opacity="1" fill-rule="nonzero"/><path fill="#ef716d" d="M 135.214844 165.203125 C 136.980469 160.441406 142.164062 158.421875 146.863281 160.589844 C 148.664062 161.425781 150.023438 162.898438 151.785156 163.757812 C 152.355469 164.324219 152.785156 164.980469 153.070312 165.734375 C 153.277344 166.164062 153.457031 166.671875 153.070312 167.03125 C 152.890625 167.15625 152.691406 167.21875 152.476562 167.21875 C 152.257812 167.21875 152.058594 167.15625 151.878906 167.03125 C 151.058594 166.597656 150.226562 166.164062 149.449219 165.652344 C 147.804688 164.566406 146.125 163.589844 144.078125 163.527344 C 143.503906 163.496094 142.9375 163.542969 142.375 163.660156 C 141.8125 163.78125 141.277344 163.972656 140.765625 164.238281 C 140.253906 164.5 139.789062 164.828125 139.363281 165.214844 C 138.941406 165.601562 138.574219 166.039062 138.269531 166.527344 C 138.085938 166.796875 137.886719 167.0625 137.730469 167.34375 C 137.085938 168.445312 136.625 168.082031 136.140625 167.195312 C 135.773438 166.550781 135.808594 165.726562 135.214844 165.203125 Z M 135.214844 165.203125 " fill-opacity="1" fill-rule="nonzero"/><path fill="#e54c44" d="M 179.414062 181.820312 C 178.867188 181.324219 178.6875 180.519531 178.011719 180.121094 C 177.71875 178.371094 176.28125 177.398438 175.25 176.179688 C 173.554688 174.183594 171.460938 172.59375 169.367188 171.019531 C 169.046875 170.816406 168.78125 170.558594 168.566406 170.246094 C 169.574219 170.054688 170.265625 170.617188 170.972656 171.042969 C 173.644531 172.578125 176.160156 174.34375 178.515625 176.332031 C 179.59375 177.308594 180.527344 178.402344 181.328125 179.617188 C 182.265625 180.96875 181.757812 181.761719 180.082031 181.835938 C 179.882812 181.835938 179.648438 181.820312 179.414062 181.820312 Z M 179.414062 181.820312 " fill-opacity="1" fill-rule="nonzero"/><path fill="#e74747" d="M 197.082031 180.1875 C 195.945312 180.316406 196.144531 181.632812 195.386719 182.101562 C 195.171875 182.007812 194.960938 181.90625 194.738281 181.832031 C 193.277344 181.3125 193.03125 180.390625 194.046875 179.136719 C 196.367188 176.277344 199.132812 173.957031 202.351562 172.171875 C 203.609375 171.472656 204.695312 170.472656 206.21875 170.066406 C 206.335938 170.6875 205.886719 170.875 205.539062 171.132812 C 202.648438 173.226562 200.078125 175.652344 197.824219 178.417969 C 197.359375 178.917969 197.113281 179.507812 197.082031 180.1875 Z M 197.082031 180.1875 " fill-opacity="1" fill-rule="nonzero"/><path fill="#92141b" d="M 178.035156 181.515625 C 179.292969 185.113281 180.648438 188.691406 181.269531 192.464844 C 181.550781 194.160156 181.664062 195.902344 180.761719 197.527344 C 179.355469 200.039062 176.542969 200.546875 173.761719 198.742188 C 174.585938 198.53125 175.390625 198.871094 176.238281 198.796875 C 176.734375 198.769531 177.183594 198.613281 177.589844 198.328125 C 177.996094 198.042969 178.292969 197.671875 178.488281 197.214844 C 179.761719 194.832031 179.804688 192.359375 179.316406 189.75 C 178.8125 187.023438 177.875 184.351562 178.035156 181.515625 Z M 178.035156 181.515625 " fill-opacity="1" fill-rule="nonzero"/><path fill="#9a171e" d="M 200.234375 199.296875 C 199.898438 199.460938 199.550781 199.578125 199.183594 199.65625 C 198.820312 199.730469 198.449219 199.761719 198.078125 199.746094 C 197.707031 199.730469 197.339844 199.671875 196.984375 199.566406 C 196.625 199.460938 196.285156 199.316406 195.964844 199.125 C 195.640625 198.9375 195.347656 198.710938 195.082031 198.449219 C 194.816406 198.1875 194.585938 197.898438 194.390625 197.578125 C 194.195312 197.261719 194.042969 196.921875 193.933594 196.566406 C 193.820312 196.210938 193.753906 195.847656 193.734375 195.472656 C 193.53125 191.445312 194.851562 187.746094 196.273438 184.074219 C 196.992188 187.394531 195.273438 190.570312 195.6875 193.886719 C 195.78125 194.714844 195.921875 195.539062 196.101562 196.351562 C 196.613281 198.53125 198.230469 199.195312 200.234375 199.296875 Z M 200.234375 199.296875 " fill-opacity="1" fill-rule="nonzero"/><path fill="#e95e51" d="M 152.574219 150.140625 C 151.894531 150.453125 151.410156 149.917969 150.890625 149.710938 C 148.59375 148.78125 146.421875 147.625 144.367188 146.242188 C 144.085938 146.054688 143.628906 145.835938 143.898438 145.378906 C 143.988281 145.230469 144.113281 145.128906 144.277344 145.074219 C 144.445312 145.019531 144.605469 145.027344 144.765625 145.097656 C 147.578125 146.335938 150.28125 147.757812 152.558594 149.871094 C 152.609375 149.898438 152.574219 150.03125 152.574219 150.140625 Z M 152.574219 150.140625 " fill-opacity="1" fill-rule="nonzero"/><path fill="#ed5c59" d="M 222.621094 150.296875 C 222.542969 150.136719 222.527344 149.972656 222.582031 149.804688 C 222.632812 149.632812 222.738281 149.507812 222.890625 149.421875 C 225.03125 147.859375 227.214844 146.351562 229.710938 145.394531 C 230.074219 145.273438 230.441406 145.246094 230.8125 145.304688 C 231.191406 145.355469 231.480469 145.703125 231.078125 145.972656 C 228.410156 147.707031 225.703125 149.359375 222.621094 150.296875 Z M 222.621094 150.296875 " fill-opacity="1" fill-rule="nonzero"/><path fill="#810c13" d="M 180.53125 209.675781 C 178.539062 209.816406 176.664062 210.367188 174.910156 211.324219 C 174.78125 211.398438 174.644531 211.421875 174.5 211.386719 C 174.351562 211.355469 174.238281 211.273438 174.160156 211.148438 C 173.984375 210.867188 174.160156 210.636719 174.371094 210.425781 C 175.429688 209.4375 178.84375 208.929688 180.53125 209.675781 Z M 180.53125 209.675781 " fill-opacity="1" fill-rule="nonzero"/><path fill="#781317" d="M 195.054688 209.582031 C 196.394531 208.933594 199.804688 209.453125 200.773438 210.429688 C 200.980469 210.589844 201.058594 210.796875 201.003906 211.050781 C 200.980469 211.175781 200.914062 211.265625 200.796875 211.320312 C 200.679688 211.375 200.566406 211.371094 200.457031 211.308594 C 199.570312 210.886719 198.667969 210.519531 197.738281 210.210938 C 196.867188 209.902344 195.851562 210.238281 195.054688 209.582031 Z M 195.054688 209.582031 " fill-opacity="1" fill-rule="nonzero"/><path fill="#9a171e" d="M 196.484375 183.46875 C 196.589844 182.609375 196.796875 181.777344 197.109375 180.972656 C 197.152344 181.867188 197.25 182.777344 196.484375 183.46875 Z M 196.484375 183.46875 " fill-opacity="1" fill-rule="nonzero"/><path fill="#fcfdfd" d="M 188.714844 251.257812 C 188.714844 249.25 188.714844 247.503906 188.714844 245.792969 C 188.714844 244.660156 189.183594 244.0625 190.367188 244.023438 C 192.003906 243.96875 193.636719 243.863281 195.261719 243.710938 C 196.402344 243.597656 197.078125 244.101562 197.285156 245.152344 C 197.976562 248.738281 198.484375 252.335938 198.105469 256.015625 C 198.105469 256.234375 198.066406 256.449219 197.988281 256.65625 C 197.90625 256.859375 197.792969 257.042969 197.644531 257.207031 C 197.496094 257.371094 197.320312 257.5 197.125 257.59375 C 196.925781 257.691406 196.714844 257.75 196.496094 257.765625 C 195.363281 257.980469 194.246094 258.203125 193.089844 258.320312 C 192.242188 258.398438 191.324219 258.644531 190.433594 258.789062 C 189.632812 258.933594 189.183594 258.632812 189.144531 257.679688 C 189.050781 255.457031 188.851562 253.214844 188.714844 251.257812 Z M 188.714844 251.257812 " fill-opacity="1" fill-rule="nonzero"/><path fill="#fdfdfe" d="M 177.4375 257.269531 C 176.835938 255.859375 176.839844 254.363281 176.917969 252.886719 C 177.023438 250.355469 177.289062 247.839844 177.714844 245.34375 C 177.917969 244.21875 178.464844 243.605469 179.726562 243.722656 C 181.449219 243.882812 183.183594 243.945312 184.910156 244.027344 C 185.792969 244.070312 186.371094 244.496094 186.417969 245.375 C 186.652344 249.691406 186.539062 253.996094 186.066406 258.289062 C 186.066406 258.417969 185.921875 258.53125 185.847656 258.648438 C 182.960938 258.683594 180.214844 257.976562 177.4375 257.269531 Z M 177.4375 257.269531 " fill-opacity="1" fill-rule="nonzero"/><path fill="#fdfdfd" d="M 196.5625 232.210938 C 196.777344 234.085938 197.03125 235.964844 197.199219 237.878906 C 197.34375 239.519531 196.902344 239.992188 195.277344 240.09375 C 193.652344 240.191406 192 240.234375 190.382812 240.386719 C 188.976562 240.523438 188.546875 239.726562 188.554688 238.546875 C 188.554688 236.347656 188.660156 234.148438 188.714844 231.953125 C 188.792969 230.648438 189.605469 230.117188 190.785156 229.949219 C 191.988281 229.796875 193.191406 229.777344 194.398438 229.886719 C 195.796875 229.996094 196.3125 230.996094 196.5625 232.210938 Z M 196.5625 232.210938 " fill-opacity="1" fill-rule="nonzero"/><path fill="#fdfdfd" d="M 166.792969 247.679688 C 166.742188 246.128906 166.898438 244.601562 167.261719 243.09375 C 167.496094 242.058594 168.140625 241.730469 169.136719 241.9375 C 170.6875 242.257812 172.234375 242.605469 173.789062 242.875 C 174.617188 243.023438 175.042969 243.417969 174.980469 244.28125 C 174.753906 247.214844 174.542969 250.152344 173.769531 253.007812 C 172.789062 254.03125 171.824219 254.257812 170.53125 253.605469 C 169.636719 253.175781 168.882812 252.570312 168.265625 251.792969 C 167.652344 251.011719 167.242188 250.132812 167.039062 249.160156 C 166.910156 248.683594 166.996094 248.160156 166.792969 247.679688 Z M 166.792969 247.679688 " fill-opacity="1" fill-rule="nonzero"/><path fill="#fdfdfd" d="M 186.121094 233.363281 C 186.15625 235.148438 186.191406 236.925781 186.222656 238.707031 C 186.246094 239.957031 185.65625 240.5 184.398438 240.398438 C 182.71875 240.265625 181.035156 240.210938 179.355469 240.074219 C 178.519531 240.007812 177.851562 239.558594 177.90625 238.664062 C 178.042969 236.488281 178.300781 234.320312 178.511719 232.148438 C 179.25 229.929688 179.425781 229.804688 181.921875 229.835938 C 182.390625 229.828125 182.859375 229.855469 183.328125 229.914062 C 185.320312 230.203125 185.796875 230.691406 186.011719 232.675781 C 186 232.910156 186.035156 233.140625 186.121094 233.363281 Z M 186.121094 233.363281 " fill-opacity="1" fill-rule="nonzero"/><path fill="#fdfdfd" d="M 201.089844 252.183594 C 200.722656 249.785156 200.363281 247.386719 199.988281 244.988281 C 199.789062 243.765625 200.183594 243.050781 201.507812 242.859375 C 202.835938 242.667969 204.140625 242.300781 205.457031 242.007812 C 206.960938 241.664062 207.519531 241.984375 207.828125 243.472656 C 207.980469 244.195312 208.035156 244.949219 208.128906 245.683594 C 208.332031 246.753906 208.296875 247.816406 208.03125 248.871094 C 207.761719 249.925781 207.285156 250.875 206.597656 251.71875 C 206.179688 252.296875 205.648438 252.738281 205 253.039062 C 204.351562 253.339844 203.667969 253.460938 202.957031 253.402344 C 202.109375 253.347656 201.414062 253.039062 201.089844 252.183594 Z M 201.089844 252.183594 " fill-opacity="1" fill-rule="nonzero"/><path fill="#fdfdfd" d="M 175.796875 236.46875 C 175.816406 236.941406 175.789062 237.410156 175.71875 237.878906 C 175.503906 238.773438 175.015625 239.449219 173.953125 239.253906 C 172.167969 238.929688 170.386719 238.578125 168.605469 238.21875 C 167.4375 237.980469 167.132812 237.195312 167.351562 236.121094 C 167.539062 235.183594 167.734375 234.289062 167.929688 233.375 C 168.121094 232.457031 168.355469 231.660156 168.542969 230.796875 C 168.851562 229.390625 169.675781 228.785156 171.132812 228.714844 C 172.261719 228.667969 173.371094 228.789062 174.464844 229.082031 C 175.296875 229.296875 175.925781 229.828125 175.898438 230.746094 C 175.839844 232.644531 176.027344 234.558594 175.796875 236.46875 Z M 175.796875 236.46875 " fill-opacity="1" fill-rule="nonzero"/><path fill="#fdfdfd" d="M 206.921875 232.503906 C 206.800781 233.796875 207.519531 234.914062 207.683594 236.152344 C 207.824219 237.203125 207.507812 237.832031 206.464844 238.148438 C 204.667969 238.613281 202.847656 238.972656 201.007812 239.222656 C 199.792969 239.445312 199.332031 238.707031 199.308594 237.597656 C 199.074219 235.363281 199.308594 233.125 199.191406 230.886719 C 199.183594 230.496094 199.296875 230.144531 199.523438 229.832031 C 199.753906 229.515625 200.054688 229.304688 200.425781 229.191406 C 200.78125 229.074219 201.148438 228.996094 201.519531 228.957031 C 205.398438 228.273438 206.144531 228.761719 206.921875 232.503906 Z M 206.921875 232.503906 " fill-opacity="1" fill-rule="nonzero"/><path fill="#fcfcfd" d="M 164.828125 229.398438 C 164.570312 231.238281 163.847656 232.871094 162.660156 234.296875 C 161.703125 235.4375 160.824219 235.359375 159.992188 234.105469 C 159.226562 232.84375 158.84375 231.480469 158.835938 230.003906 C 158.675781 228.21875 159.03125 227.390625 160.074219 227.148438 C 162.164062 226.65625 164.25 227.644531 164.828125 229.398438 Z M 164.828125 229.398438 " fill-opacity="1" fill-rule="nonzero"/><path fill="#fcfcfd" d="M 216.289062 229.441406 C 216.1875 230.988281 215.992188 232.523438 215.199219 233.894531 C 214.292969 235.453125 213.257812 235.503906 212.183594 234.078125 C 211.441406 233.097656 210.914062 232.011719 210.597656 230.824219 C 210.355469 229.722656 210.074219 228.574219 211.300781 227.871094 C 211.917969 227.480469 212.585938 227.242188 213.304688 227.144531 C 214.027344 227.050781 214.734375 227.109375 215.429688 227.324219 C 216.324219 227.636719 216.460938 228.546875 216.289062 229.441406 Z M 216.289062 229.441406 " fill-opacity="1" fill-rule="nonzero"/><path fill="#fcfcfc" d="M 158.300781 241.761719 C 158.503906 240.667969 159 239.730469 159.789062 238.945312 C 160.777344 237.816406 161.480469 237.929688 162.273438 239.261719 C 163.792969 241.828125 163.640625 244.515625 162.910156 247.261719 C 162.871094 247.398438 162.835938 247.53125 162.800781 247.667969 C 162.625 247.75 162.441406 247.769531 162.253906 247.726562 C 162.0625 247.6875 161.90625 247.59375 161.777344 247.449219 C 160.070312 245.890625 158.695312 244.132812 158.300781 241.761719 Z M 158.300781 241.761719 " fill-opacity="1" fill-rule="nonzero"/><path fill="#fafbfc" d="M 212.074219 247.382812 C 211.394531 244.796875 211.167969 242.253906 212.425781 239.734375 C 213.40625 237.769531 214.359375 237.636719 215.648438 239.402344 C 216.160156 240.125 216.53125 240.914062 216.765625 241.773438 C 216.296875 244.023438 214.699219 245.546875 213.296875 247.191406 C 213.234375 247.292969 213.152344 247.375 213.054688 247.441406 C 212.957031 247.507812 212.847656 247.550781 212.730469 247.566406 C 212.613281 247.585938 212.496094 247.578125 212.382812 247.546875 C 212.265625 247.515625 212.164062 247.460938 212.074219 247.382812 Z M 212.074219 247.382812 " fill-opacity="1" fill-rule="nonzero"/><path fill="#9b9293" d="M 201.089844 252.183594 C 202.863281 253.558594 204.796875 253.335938 206.195312 251.609375 C 206.878906 250.785156 207.390625 249.863281 207.722656 248.84375 C 208.058594 247.824219 208.191406 246.777344 208.128906 245.707031 C 208.523438 247.585938 208.335938 249.507812 208.363281 251.414062 C 208.308594 251.910156 208.066406 252.292969 207.648438 252.5625 C 206.039062 253.9375 204.253906 255.023438 202.292969 255.820312 C 201.589844 256.132812 201.3125 255.945312 201.3125 255.132812 C 201.296875 254.152344 201.167969 253.160156 201.089844 252.183594 Z M 201.089844 252.183594 " fill-opacity="1" fill-rule="nonzero"/><path fill="#9a8f8e" d="M 166.792969 247.679688 C 167.394531 249.339844 167.839844 251.054688 169.234375 252.324219 C 170.785156 253.730469 171.949219 253.960938 173.761719 253.027344 C 173.785156 254.03125 174.207031 255.464844 173.515625 255.917969 C 172.828125 256.367188 171.644531 255.449219 170.773438 254.980469 C 166.082031 252.375 166.554688 252.640625 166.792969 247.679688 Z M 166.792969 247.679688 " fill-opacity="1" fill-rule="nonzero"/><path fill="#8d878b" d="M 175.796875 236.46875 C 175.796875 234.835938 175.796875 233.210938 175.757812 231.582031 C 175.714844 229.953125 175.289062 229.519531 173.738281 229.328125 C 169.46875 228.800781 169.46875 228.800781 168.1875 232.878906 C 168.117188 233.046875 168.03125 233.203125 167.929688 233.351562 C 168.101562 231.679688 168.292969 230.007812 168.441406 228.335938 C 168.496094 227.722656 168.824219 227.691406 169.304688 227.757812 C 171.390625 228.035156 173.476562 228.304688 175.558594 228.554688 C 176.050781 228.617188 176.398438 228.78125 176.300781 229.328125 C 175.882812 231.703125 176.285156 234.113281 175.796875 236.46875 Z M 175.796875 236.46875 " fill-opacity="1" fill-rule="nonzero"/><path fill="#8f898d" d="M 206.921875 232.503906 C 206.574219 232.324219 206.648438 231.9375 206.53125 231.652344 C 206.132812 230.679688 206.011719 229.410156 204.761719 229.191406 C 203.105469 228.890625 201.523438 229.105469 200.011719 229.839844 C 199.363281 230.160156 199.390625 231.042969 199.378906 231.71875 C 199.339844 233.667969 199.328125 235.625 199.308594 237.578125 C 198.9375 236.167969 199.171875 234.691406 199.0625 233.257812 C 198.96875 232.039062 198.910156 230.824219 198.789062 229.621094 C 198.722656 228.921875 198.9375 228.644531 199.683594 228.570312 C 201.679688 228.367188 203.664062 228.101562 205.652344 227.789062 C 206.238281 227.707031 206.589844 227.832031 206.589844 228.453125 C 206.628906 229.820312 207.140625 231.136719 206.921875 232.503906 Z M 206.921875 232.503906 " fill-opacity="1" fill-rule="nonzero"/><path fill="#9d9a9b" d="M 212.074219 247.382812 C 212.855469 247.34375 213.292969 246.792969 213.726562 246.246094 C 214.882812 244.851562 215.894531 243.359375 216.765625 241.773438 C 216.929688 242.148438 217.035156 242.539062 217.074219 242.945312 C 217.117188 243.355469 217.097656 243.757812 217.015625 244.160156 C 216.929688 244.5625 216.785156 244.941406 216.582031 245.296875 C 216.382812 245.652344 216.128906 245.96875 215.828125 246.246094 C 214.804688 247.242188 213.671875 248.125 212.445312 249.175781 C 212.285156 248.425781 212.175781 247.902344 212.074219 247.382812 Z M 212.074219 247.382812 " fill-opacity="1" fill-rule="nonzero"/><path fill="#887f82" d="M 186.121094 233.363281 C 184.925781 230.300781 185.703125 230.527344 181.824219 230.257812 C 180.136719 230.140625 179.140625 230.683594 178.511719 232.132812 C 178.601562 228.289062 178.132812 229.136719 181.632812 229.144531 C 182.839844 229.144531 184.046875 229.328125 185.257812 229.367188 C 185.992188 229.394531 186.246094 229.726562 186.195312 230.414062 C 186.167969 231.40625 186.148438 232.386719 186.121094 233.363281 Z M 186.121094 233.363281 " fill-opacity="1" fill-rule="nonzero"/><path fill="#8a8387" d="M 196.5625 232.210938 C 195.359375 230.0625 194.148438 229.703125 190.726562 230.332031 C 189.71875 230.527344 188.996094 230.917969 188.714844 231.941406 C 188.714844 231.570312 188.675781 231.199219 188.636719 230.835938 C 188.523438 229.796875 188.878906 229.347656 190.039062 229.351562 C 191.800781 229.351562 193.570312 229.226562 195.320312 229.066406 C 196.289062 228.976562 196.6875 229.273438 196.601562 230.261719 C 196.523438 230.914062 196.566406 231.5625 196.5625 232.210938 Z M 196.5625 232.210938 " fill-opacity="1" fill-rule="nonzero"/><path fill="#9d9694" d="M 158.300781 241.761719 C 159.484375 243.976562 160.425781 246.371094 162.800781 247.679688 C 162.800781 248.042969 162.800781 248.414062 162.753906 248.785156 C 162.753906 248.859375 162.679688 248.9375 162.644531 249.011719 C 158.296875 246.175781 157.359375 244.820312 158.300781 241.761719 Z M 158.300781 241.761719 " fill-opacity="1" fill-rule="nonzero"/><path fill="#939094" d="M 164.828125 229.398438 C 164.042969 228.503906 163.3125 227.582031 161.972656 227.433594 C 159.578125 227.160156 159.023438 227.582031 158.835938 230.003906 C 158.8125 229.96875 158.769531 229.933594 158.757812 229.890625 C 158.011719 226.480469 158.011719 226.480469 161.386719 226.851562 C 162.128906 226.9375 162.863281 227.042969 163.597656 227.136719 C 165.472656 227.378906 165.527344 227.488281 164.828125 229.398438 Z M 164.828125 229.398438 " fill-opacity="1" fill-rule="nonzero"/><path fill="#979395" d="M 216.289062 229.441406 C 215.820312 227.496094 215.355469 227.175781 213.339844 227.433594 C 211.324219 227.691406 210.527344 228.640625 210.597656 230.824219 C 210.570312 230.789062 210.523438 230.761719 210.507812 230.71875 C 209.46875 227.824219 209.609375 227.558594 212.589844 227.0625 C 213.640625 226.882812 214.707031 226.789062 215.75 226.59375 C 216.625 226.429688 216.878906 226.8125 216.710938 227.566406 C 216.566406 228.195312 216.6875 228.878906 216.289062 229.441406 Z M 216.289062 229.441406 " fill-opacity="1" fill-rule="nonzero"/><path fill="#8e8586" d="M 177.4375 257.269531 C 180.292969 257.433594 183.058594 258.183594 185.871094 258.648438 C 185.628906 259.273438 185.09375 258.996094 184.695312 258.976562 C 182.488281 258.808594 180.316406 258.425781 178.183594 257.832031 C 177.816406 257.800781 177.566406 257.613281 177.4375 257.269531 Z M 177.4375 257.269531 " fill-opacity="1" fill-rule="nonzero"/><path fill="#fcece5" d="M 233.703125 196.777344 C 232.527344 202.792969 228.523438 205.804688 222.515625 207.1875 C 224.539062 205.367188 225.855469 203.476562 226.363281 201.089844 C 227.261719 196.867188 226.425781 193.199219 222.839844 190.445312 C 222.621094 190.273438 222.058594 190.214844 222.371094 189.679688 C 223.777344 188.183594 224.785156 186.34375 226.535156 185.175781 C 226.847656 184.96875 227.125 184.707031 227.449219 184.53125 C 229.792969 183.125 231.046875 183.523438 232.222656 186.007812 C 233.015625 187.683594 233.539062 189.441406 233.792969 191.277344 C 234.042969 193.117188 234.015625 194.949219 233.703125 196.777344 Z M 233.703125 196.777344 " fill-opacity="1" fill-rule="nonzero"/><path fill="#908c8b" d="M 233.703125 196.777344 C 233.8125 193.257812 233.511719 189.8125 232.070312 186.527344 C 230.804688 183.644531 229.492188 183.289062 227.003906 185.289062 C 225.808594 186.1875 224.742188 187.226562 223.804688 188.394531 C 223.425781 188.890625 223.050781 189.472656 222.375 189.675781 C 223.988281 186.707031 226.164062 184.242188 228.90625 182.28125 C 230.105469 181.453125 231.0625 181.578125 231.660156 182.703125 C 234.003906 187.140625 234.917969 191.8125 233.703125 196.777344 Z M 233.703125 196.777344 " fill-opacity="1" fill-rule="nonzero"/><path fill="#f7f0ec" d="M 220.285156 201.554688 C 219.957031 201.554688 219.640625 201.488281 219.339844 201.359375 C 219.035156 201.226562 218.773438 201.039062 218.550781 200.792969 C 218.328125 200.550781 218.164062 200.273438 218.058594 199.960938 C 217.953125 199.648438 217.914062 199.324219 217.945312 198.996094 C 217.949219 198.65625 218.019531 198.328125 218.160156 198.011719 C 218.296875 197.699219 218.492188 197.425781 218.738281 197.191406 C 218.988281 196.957031 219.273438 196.78125 219.597656 196.660156 C 219.917969 196.542969 220.25 196.492188 220.589844 196.511719 C 220.90625 196.550781 221.199219 196.644531 221.480469 196.792969 C 221.761719 196.9375 222.007812 197.128906 222.222656 197.359375 C 222.4375 197.59375 222.605469 197.855469 222.726562 198.148438 C 222.847656 198.4375 222.917969 198.742188 222.933594 199.058594 C 222.929688 199.402344 222.859375 199.730469 222.722656 200.042969 C 222.582031 200.359375 222.390625 200.632812 222.140625 200.871094 C 221.890625 201.105469 221.605469 201.28125 221.28125 201.402344 C 220.960938 201.519531 220.628906 201.570312 220.285156 201.554688 Z M 220.285156 201.554688 " fill-opacity="1" fill-rule="nonzero"/><path fill="#fcece5" d="M 152.105469 188.882812 C 152.871094 189.515625 153.042969 189.898438 152.019531 190.65625 C 147.511719 193.964844 147.203125 201.585938 151.296875 205.902344 C 151.542969 206.171875 151.824219 206.410156 152.121094 206.691406 C 148.171875 207.375 142.917969 202.9375 141.691406 197.902344 C 141.292969 196.097656 141.160156 194.269531 141.292969 192.425781 C 141.425781 190.578125 141.820312 188.792969 142.476562 187.0625 C 143.878906 183.121094 145.234375 182.699219 148.605469 185.121094 C 149.972656 186.1875 151.136719 187.441406 152.105469 188.882812 Z M 152.105469 188.882812 " fill-opacity="1" fill-rule="nonzero"/><path fill="#888383" d="M 152.105469 188.882812 C 151.34375 188.140625 150.597656 187.378906 149.804688 186.667969 C 149.15625 186.066406 148.46875 185.503906 147.75 184.988281 C 145.324219 183.296875 144.320312 183.550781 143.191406 186.25 C 141.78125 189.4375 141.261719 192.765625 141.632812 196.234375 C 141.695312 196.78125 141.671875 197.347656 141.691406 197.902344 C 140.5625 195.191406 140.890625 192.394531 141.273438 189.617188 C 141.523438 187.410156 142.148438 185.3125 143.148438 183.328125 C 144.085938 181.578125 145.074219 181.289062 146.652344 182.484375 C 149 184.164062 150.816406 186.296875 152.105469 188.882812 Z M 152.105469 188.882812 " fill-opacity="1" fill-rule="nonzero"/><path fill="#f8efeb" d="M 152.398438 198.90625 C 152.40625 198.578125 152.480469 198.265625 152.613281 197.964844 C 152.746094 197.664062 152.929688 197.402344 153.167969 197.175781 C 153.40625 196.949219 153.675781 196.773438 153.980469 196.65625 C 154.289062 196.535156 154.605469 196.476562 154.933594 196.484375 C 155.269531 196.507812 155.589844 196.597656 155.894531 196.746094 C 156.199219 196.898438 156.460938 197.101562 156.683594 197.359375 C 156.90625 197.613281 157.074219 197.902344 157.183594 198.222656 C 157.296875 198.542969 157.339844 198.875 157.320312 199.214844 C 157.3125 199.554688 157.238281 199.878906 157.089844 200.1875 C 156.945312 200.496094 156.742188 200.761719 156.484375 200.988281 C 156.226562 201.210938 155.9375 201.371094 155.609375 201.472656 C 155.285156 201.570312 154.953125 201.601562 154.613281 201.558594 C 153.195312 201.46875 152.308594 200.410156 152.398438 198.90625 Z M 152.398438 198.90625 " fill-opacity="1" fill-rule="nonzero"/><path fill="#040101" d="M 187.816406 270.808594 C 185.46875 270.84375 183.171875 270.53125 180.917969 269.878906 C 178.664062 269.222656 176.558594 268.253906 174.59375 266.964844 C 174.390625 266.851562 174.199219 266.71875 174.019531 266.566406 C 173.65625 266.230469 173.019531 265.902344 173.363281 265.339844 C 173.65625 264.867188 174.222656 265.214844 174.640625 265.390625 C 178.707031 267.078125 182.9375 267.914062 187.335938 267.902344 C 192.113281 267.910156 196.714844 267.023438 201.148438 265.25 C 201.519531 265.097656 202.007812 264.65625 202.289062 265.054688 C 202.570312 265.457031 202.105469 265.917969 201.738281 266.183594 C 198.664062 268.457031 195.238281 269.890625 191.460938 270.488281 C 190.257812 270.722656 189.042969 270.828125 187.816406 270.808594 Z M 187.816406 270.808594 " fill-opacity="1" fill-rule="nonzero"/><g clip-path="url(#3460f3b760)"><path fill="#e11624" d="M 187.496094 10.730469 C 89.847656 10.730469 10.730469 89.917969 10.730469 187.496094 C 10.730469 285.074219 89.847656 364.261719 187.496094 364.261719 C 285.144531 364.261719 364.261719 285.074219 364.261719 187.496094 C 364.261719 89.917969 285.144531 10.730469 187.496094 10.730469 Z M 187.496094 353.070312 C 96.046875 353.070312 21.921875 278.945312 21.921875 187.496094 C 21.921875 96.046875 96.046875 21.921875 187.496094 21.921875 C 278.945312 21.921875 353.070312 96.046875 353.070312 187.496094 C 353.070312 278.945312 278.945312 353.070312 187.496094 353.070312 Z M 187.496094 353.070312 " fill-opacity="1" fill-rule="nonzero"/></g></svg>