<svg xmlns="http://www.w3.org/2000/svg" xmlns:xlink="http://www.w3.org/1999/xlink" width="500" zoomAndPan="magnify" viewBox="0 0 375 374.999991" height="500" preserveAspectRatio="xMidYMid meet" version="1.0"><defs><clipPath id="d9e8d839a8"><path d="M 14 12 L 363 12 L 363 361 L 14 361 Z M 14 12 " clip-rule="nonzero"/></clipPath><clipPath id="bedf614ff7"><path d="M 30.324219 374.992188 L 0 27.875 L 347.117188 -2.449219 L 377.441406 344.671875 Z M 30.324219 374.992188 " clip-rule="nonzero"/></clipPath><clipPath id="c3dc6946a1"><path d="M 15.160156 201.433594 C 23.535156 297.289062 108.027344 368.207031 203.882812 359.832031 C 299.734375 351.457031 370.652344 266.964844 362.28125 171.109375 C 353.90625 75.257812 269.414062 4.339844 173.558594 12.714844 C 77.703125 21.085938 6.789062 105.578125 15.160156 201.433594 Z M 15.160156 201.433594 " clip-rule="nonzero"/></clipPath><clipPath id="5e1149fb63"><path d="M 75.667969 284 L 301.417969 284 L 301.417969 299.445312 L 75.667969 299.445312 Z M 75.667969 284 " clip-rule="nonzero"/></clipPath><clipPath id="b90d39051f"><path d="M 285 284 L 301.417969 284 L 301.417969 299.445312 L 285 299.445312 Z M 285 284 " clip-rule="nonzero"/></clipPath><clipPath id="0de369b64f"><path d="M 8.402344 8.402344 L 366.902344 8.402344 L 366.902344 366.902344 L 8.402344 366.902344 Z M 8.402344 8.402344 " clip-rule="nonzero"/></clipPath></defs><g clip-path="url(#d9e8d839a8)"><g clip-path="url(#bedf614ff7)"><g clip-path="url(#c3dc6946a1)"><path fill="#690b11" d="M 30.324219 374.992188 L 0 27.875 L 347.117188 -2.449219 L 377.441406 344.671875 Z M 30.324219 374.992188 " fill-opacity="1" fill-rule="nonzero"/></g></g></g><path fill="#231f20" d="M 187.5 0 C 83.921875 0 0 83.996094 0 187.5 C 0 291.003906 83.921875 375 187.5 375 C 291.078125 375 375 291.003906 375 187.5 C 375 83.996094 291.078125 0 187.5 0 Z M 187.5 363.128906 C 90.5 363.128906 11.871094 284.5 11.871094 187.5 C 11.871094 90.5 90.5 11.871094 187.5 11.871094 C 284.5 11.871094 363.128906 90.5 363.128906 187.5 C 363.128906 284.5 284.5 363.128906 187.5 363.128906 Z M 187.5 363.128906 " fill-opacity="1" fill-rule="nonzero"/><path fill="#ffd15b" d="M 250.546875 270.035156 C 250.546875 270.035156 245.09375 245.859375 224.78125 231.585938 C 223.445312 230.648438 221.648438 231.824219 221.957031 233.421875 C 223.347656 240.667969 224.71875 254.554688 214.746094 254.554688 C 207.695312 254.554688 203.734375 247.75 205.242188 238.695312 C 206.726562 229.800781 207.820312 222.078125 201.476562 216.109375 C 200.402344 215.101562 198.644531 215.6875 198.417969 217.144531 C 197.597656 222.527344 195.136719 232.9375 188.515625 232.9375 C 182.695312 232.9375 179.132812 225.285156 181.585938 213.261719 C 182.632812 208.136719 184.808594 202.285156 186.449219 198.292969 C 187.117188 196.671875 185.3125 195.125 183.824219 196.050781 C 170.15625 204.460938 163.832031 218.730469 168.289062 234.144531 C 171.636719 245.714844 168.164062 252.75 161.1875 251.09375 C 153.242188 249.203125 152.589844 239.007812 152.886719 233.195312 C 152.96875 231.628906 151.136719 230.710938 149.914062 231.707031 C 130.554688 247.480469 126.476562 270.035156 126.476562 270.035156 L 188.515625 278.28125 Z M 250.546875 270.035156 " fill-opacity="1" fill-rule="nonzero"/><path fill="#ffc344" d="M 205.242188 238.695312 C 206.167969 233.160156 206.933594 228.070312 205.851562 223.582031 C 202.578125 243.332031 190.660156 260.160156 174.117188 270.035156 L 218.023438 280.191406 L 250.546875 270.035156 C 250.546875 270.035156 245.09375 245.859375 224.78125 231.585938 C 223.445312 230.648438 221.648438 231.824219 221.957031 233.421875 C 223.347656 240.667969 224.71875 254.554688 214.746094 254.554688 C 207.695312 254.554688 203.734375 247.75 205.242188 238.695312 Z M 205.242188 238.695312 " fill-opacity="1" fill-rule="nonzero"/><path fill="#918291" d="M 227.632812 102.699219 C 234.875 95.453125 237.835938 85.542969 236.523438 76.125 C 236.28125 74.367188 238.042969 72.988281 239.683594 73.667969 C 243.542969 75.261719 247.136719 77.664062 250.230469 80.867188 C 262.074219 93.140625 261.675781 112.710938 249.832031 124.914062 Z M 227.632812 102.699219 " fill-opacity="1" fill-rule="nonzero"/><path fill="#7a6d79" d="M 235.507812 89.460938 C 234.070312 94.308594 231.457031 98.871094 227.632812 102.699219 L 249.832031 124.914062 C 253.757812 120.867188 256.417969 116.011719 257.796875 110.882812 C 251.734375 102.464844 244.167969 95.195312 235.507812 89.460938 Z M 235.507812 89.460938 " fill-opacity="1" fill-rule="nonzero"/><path fill="#918291" d="M 149.453125 102.699219 C 142.214844 95.453125 139.25 85.542969 140.566406 76.125 C 140.808594 74.367188 139.042969 72.988281 137.40625 73.667969 C 133.546875 75.261719 129.949219 77.664062 126.855469 80.867188 C 115.015625 93.140625 115.414062 112.710938 127.257812 124.914062 Z M 149.453125 102.699219 " fill-opacity="1" fill-rule="nonzero"/><path fill="#7a6d79" d="M 141.578125 89.460938 C 143.019531 94.308594 145.628906 98.871094 149.453125 102.699219 L 127.257812 124.914062 C 123.328125 120.867188 120.671875 116.011719 119.292969 110.882812 C 125.355469 102.464844 132.917969 95.195312 141.578125 89.460938 Z M 141.578125 89.460938 " fill-opacity="1" fill-rule="nonzero"/><path fill="#ee6161" d="M 251.539062 122.996094 L 234.136719 110.316406 L 229.976562 100.085938 C 218.183594 91.996094 203.914062 87.265625 188.542969 87.265625 C 148 87.265625 115.132812 120.164062 115.132812 160.742188 L 115.132812 270.042969 L 127.46875 277.386719 L 139.90625 270.042969 L 139.90625 160.742188 C 139.90625 133.90625 161.722656 112.070312 188.542969 112.070312 C 215.363281 112.070312 237.183594 133.90625 237.183594 160.742188 L 237.183594 270.042969 L 250.03125 274.070312 L 261.957031 270.042969 L 261.957031 160.742188 C 261.957031 146.9375 258.152344 134.03125 251.539062 122.996094 Z M 251.539062 122.996094 " fill-opacity="1" fill-rule="nonzero"/><path fill="#e94444" d="M 188.542969 87.265625 C 186.53125 87.265625 184.546875 87.351562 182.578125 87.507812 C 220.332031 90.550781 250.03125 122.175781 250.03125 160.742188 L 250.03125 274.070312 L 261.957031 270.042969 L 261.957031 160.742188 C 261.957031 120.164062 229.089844 87.265625 188.542969 87.265625 Z M 188.542969 87.265625 " fill-opacity="1" fill-rule="nonzero"/><path fill="#7a6d79" d="M 286.738281 284.734375 L 188.515625 290.347656 L 90.351562 284.734375 L 90.351562 273.710938 C 90.351562 271.683594 91.996094 270.035156 94.023438 270.035156 L 283.066406 270.035156 C 285.089844 270.035156 286.738281 271.683594 286.738281 273.710938 Z M 286.738281 284.734375 " fill-opacity="1" fill-rule="nonzero"/><path fill="#685e68" d="M 283.066406 270.035156 L 271.132812 270.035156 C 273.164062 270.035156 274.804688 271.683594 274.804688 273.710938 L 274.804688 289.066406 L 286.738281 284.734375 L 286.738281 273.710938 C 286.738281 271.683594 285.089844 270.035156 283.066406 270.035156 Z M 283.066406 270.035156 " fill-opacity="1" fill-rule="nonzero"/><g clip-path="url(#5e1149fb63)"><path fill="#918291" d="M 297.746094 299.429688 L 79.339844 299.429688 C 77.316406 299.429688 75.667969 297.78125 75.667969 295.753906 L 75.667969 288.410156 C 75.667969 286.375 77.316406 284.734375 79.339844 284.734375 L 297.746094 284.734375 C 299.773438 284.734375 301.417969 286.375 301.417969 288.410156 L 301.417969 295.753906 C 301.417969 297.78125 299.773438 299.429688 297.746094 299.429688 Z M 297.746094 299.429688 " fill-opacity="1" fill-rule="nonzero"/></g><g clip-path="url(#b90d39051f)"><path fill="#7a6d79" d="M 297.746094 284.734375 L 285.820312 284.734375 C 287.847656 284.734375 289.488281 286.375 289.488281 288.410156 L 289.488281 295.753906 C 289.488281 297.78125 287.847656 299.429688 285.820312 299.429688 L 297.746094 299.429688 C 299.773438 299.429688 301.417969 297.78125 301.417969 295.753906 L 301.417969 288.410156 C 301.417969 286.375 299.773438 284.734375 297.746094 284.734375 Z M 297.746094 284.734375 " fill-opacity="1" fill-rule="nonzero"/></g><path fill="#918291" d="M 257.753906 184.535156 L 258.734375 183 L 258.09375 174.511719 L 254.386719 171.765625 L 234.890625 171.765625 C 232.855469 171.765625 231.214844 173.40625 231.214844 175.433594 L 231.214844 182.785156 C 231.214844 184.8125 232.855469 186.460938 234.890625 186.460938 L 253.867188 186.460938 Z M 257.753906 184.535156 " fill-opacity="1" fill-rule="nonzero"/><path fill="#918291" d="M 134.40625 185.15625 L 136.875 179.109375 L 134.40625 173.070312 L 131.28125 171.765625 L 112.835938 171.765625 C 110.804688 171.765625 109.164062 173.40625 109.164062 175.433594 L 109.164062 182.785156 C 109.164062 184.8125 110.804688 186.460938 112.835938 186.460938 L 131.28125 186.460938 Z M 134.40625 185.15625 " fill-opacity="1" fill-rule="nonzero"/><path fill="#7a6d79" d="M 142.199219 171.765625 L 130.273438 171.765625 C 132.300781 171.765625 133.9375 173.40625 133.9375 175.441406 L 133.9375 182.785156 C 133.9375 184.8125 132.300781 186.460938 130.273438 186.460938 L 142.199219 186.460938 C 144.226562 186.460938 145.871094 184.8125 145.871094 182.785156 L 145.871094 175.441406 C 145.871094 173.40625 144.226562 171.765625 142.199219 171.765625 Z M 142.199219 171.765625 " fill-opacity="1" fill-rule="nonzero"/><path fill="#7a6d79" d="M 264.25 171.765625 L 252.324219 171.765625 C 254.351562 171.765625 255.992188 173.40625 255.992188 175.441406 L 255.992188 182.785156 C 255.992188 184.8125 254.351562 186.460938 252.324219 186.460938 L 264.25 186.460938 C 266.285156 186.460938 267.921875 184.8125 267.921875 182.785156 L 267.921875 175.441406 C 267.921875 173.40625 266.285156 171.765625 264.25 171.765625 Z M 264.25 171.765625 " fill-opacity="1" fill-rule="nonzero"/><g clip-path="url(#0de369b64f)"><path fill="#9f1b24" d="M 187.496094 8.402344 C 88.5625 8.402344 8.402344 88.632812 8.402344 187.496094 C 8.402344 286.355469 88.5625 366.585938 187.496094 366.585938 C 286.429688 366.585938 366.585938 286.355469 366.585938 187.496094 C 366.585938 88.632812 286.429688 8.402344 187.496094 8.402344 Z M 187.496094 355.25 C 94.84375 355.25 19.742188 280.144531 19.742188 187.496094 C 19.742188 94.84375 94.84375 19.742188 187.496094 19.742188 C 280.144531 19.742188 355.25 94.84375 355.25 187.496094 C 355.25 280.144531 280.144531 355.25 187.496094 355.25 Z M 187.496094 355.25 " fill-opacity="1" fill-rule="nonzero"/></g></svg>