<svg xmlns="http://www.w3.org/2000/svg" xmlns:xlink="http://www.w3.org/1999/xlink" width="500" zoomAndPan="magnify" viewBox="0 0 375 374.999991" height="500" preserveAspectRatio="xMidYMid meet" version="1.0"><defs><clipPath id="20362ecf80"><path d="M 11.4375 11.4375 L 363.1875 11.4375 L 363.1875 363.1875 L 11.4375 363.1875 Z M 11.4375 11.4375 " clip-rule="nonzero"/></clipPath><clipPath id="7e1e0cd3da"><path d="M 80.945312 80.945312 L 293.945312 80.945312 L 293.945312 293.945312 L 80.945312 293.945312 Z M 80.945312 80.945312 " clip-rule="nonzero"/></clipPath><clipPath id="58a6b1bdae"><path d="M 9.558594 9.558594 L 365.808594 9.558594 L 365.808594 365.808594 L 9.558594 365.808594 Z M 9.558594 9.558594 " clip-rule="nonzero"/></clipPath></defs><path fill="#231f20" d="M 187.5 0 C 83.921875 0 0 83.996094 0 187.5 C 0 291.003906 83.921875 375 187.5 375 C 291.078125 375 375 291.003906 375 187.5 C 375 83.996094 291.078125 0 187.5 0 Z M 187.5 363.128906 C 90.5 363.128906 11.871094 284.5 11.871094 187.5 C 11.871094 90.5 90.5 11.871094 187.5 11.871094 C 284.5 11.871094 363.128906 90.5 363.128906 187.5 C 363.128906 284.5 284.5 363.128906 187.5 363.128906 Z M 187.5 363.128906 " fill-opacity="1" fill-rule="nonzero"/><g clip-path="url(#20362ecf80)"><path fill="#c1ff72" d="M 363.546875 187.492188 C 363.546875 190.375 363.476562 193.253906 363.335938 196.128906 C 363.191406 199.007812 362.980469 201.882812 362.699219 204.75 C 362.414062 207.617188 362.0625 210.472656 361.640625 213.324219 C 361.21875 216.175781 360.726562 219.011719 360.164062 221.839844 C 359.601562 224.664062 358.96875 227.476562 358.269531 230.269531 C 357.570312 233.066406 356.800781 235.839844 355.964844 238.597656 C 355.128906 241.355469 354.226562 244.089844 353.253906 246.804688 C 352.285156 249.515625 351.246094 252.203125 350.144531 254.863281 C 349.042969 257.527344 347.875 260.160156 346.644531 262.765625 C 345.410156 265.371094 344.117188 267.941406 342.757812 270.484375 C 341.398438 273.023438 339.980469 275.53125 338.5 278 C 337.015625 280.472656 335.476562 282.90625 333.875 285.300781 C 332.273438 287.699219 330.617188 290.054688 328.898438 292.367188 C 327.183594 294.679688 325.410156 296.953125 323.582031 299.179688 C 321.753906 301.40625 319.875 303.585938 317.941406 305.722656 C 316.003906 307.859375 314.019531 309.945312 311.980469 311.980469 C 309.945312 314.019531 307.859375 316.003906 305.722656 317.9375 C 303.585938 319.875 301.40625 321.753906 299.179688 323.582031 C 296.953125 325.410156 294.679688 327.183594 292.367188 328.898438 C 290.054688 330.617188 287.699219 332.273438 285.300781 333.875 C 282.90625 335.476562 280.472656 337.015625 278 338.5 C 275.53125 339.980469 273.023438 341.398438 270.484375 342.757812 C 267.941406 344.117188 265.371094 345.410156 262.765625 346.644531 C 260.160156 347.875 257.527344 349.042969 254.863281 350.144531 C 252.203125 351.246094 249.515625 352.285156 246.804688 353.253906 C 244.089844 354.226562 241.355469 355.128906 238.597656 355.964844 C 235.839844 356.800781 233.066406 357.570312 230.269531 358.269531 C 227.476562 358.96875 224.664062 359.601562 221.839844 360.164062 C 219.011719 360.726562 216.175781 361.21875 213.324219 361.640625 C 210.472656 362.0625 207.617188 362.414062 204.75 362.699219 C 201.882812 362.980469 199.007812 363.191406 196.128906 363.332031 C 193.253906 363.476562 190.375 363.546875 187.492188 363.546875 C 184.609375 363.546875 181.730469 363.476562 178.855469 363.335938 C 175.976562 363.191406 173.101562 362.980469 170.234375 362.699219 C 167.367188 362.414062 164.507812 362.0625 161.660156 361.640625 C 158.808594 361.21875 155.972656 360.726562 153.144531 360.164062 C 150.320312 359.601562 147.507812 358.96875 144.714844 358.269531 C 141.917969 357.570312 139.144531 356.800781 136.386719 355.964844 C 133.628906 355.128906 130.894531 354.226562 128.179688 353.253906 C 125.46875 352.285156 122.78125 351.246094 120.121094 350.144531 C 117.457031 349.042969 114.824219 347.875 112.21875 346.644531 C 109.613281 345.410156 107.042969 344.117188 104.5 342.757812 C 101.960938 341.398438 99.453125 339.980469 96.980469 338.5 C 94.511719 337.015625 92.078125 335.476562 89.683594 333.875 C 87.285156 332.273438 84.929688 330.617188 82.617188 328.898438 C 80.300781 327.183594 78.03125 325.410156 75.804688 323.582031 C 73.578125 321.753906 71.394531 319.875 69.261719 317.941406 C 67.125 316.003906 65.039062 314.019531 63.003906 311.980469 C 60.964844 309.945312 58.980469 307.859375 57.042969 305.722656 C 55.109375 303.585938 53.226562 301.40625 51.402344 299.179688 C 49.574219 296.953125 47.800781 294.679688 46.085938 292.367188 C 44.367188 290.054688 42.710938 287.699219 41.109375 285.300781 C 39.507812 282.90625 37.96875 280.472656 36.484375 278 C 35.003906 275.53125 33.585938 273.023438 32.226562 270.484375 C 30.867188 267.941406 29.574219 265.371094 28.339844 262.765625 C 27.109375 260.160156 25.941406 257.527344 24.839844 254.863281 C 23.738281 252.203125 22.699219 249.515625 21.730469 246.804688 C 20.757812 244.089844 19.855469 241.355469 19.019531 238.597656 C 18.183594 235.839844 17.414062 233.066406 16.714844 230.269531 C 16.015625 227.476562 15.382812 224.664062 14.820312 221.839844 C 14.257812 219.011719 13.765625 216.175781 13.34375 213.324219 C 12.921875 210.472656 12.566406 207.617188 12.285156 204.75 C 12.003906 201.882812 11.792969 199.007812 11.648438 196.128906 C 11.507812 193.253906 11.4375 190.375 11.4375 187.492188 C 11.4375 184.609375 11.507812 181.730469 11.648438 178.855469 C 11.792969 175.976562 12.003906 173.101562 12.285156 170.234375 C 12.566406 167.367188 12.921875 164.507812 13.34375 161.660156 C 13.765625 158.808594 14.257812 155.972656 14.820312 153.144531 C 15.382812 150.320312 16.015625 147.507812 16.714844 144.714844 C 17.414062 141.917969 18.183594 139.144531 19.019531 136.386719 C 19.855469 133.628906 20.757812 130.894531 21.730469 128.179688 C 22.699219 125.46875 23.738281 122.78125 24.839844 120.121094 C 25.941406 117.457031 27.109375 114.824219 28.339844 112.21875 C 29.574219 109.613281 30.867188 107.042969 32.226562 104.5 C 33.585938 101.960938 35.003906 99.453125 36.484375 96.980469 C 37.96875 94.511719 39.507812 92.078125 41.109375 89.683594 C 42.710938 87.285156 44.367188 84.929688 46.085938 82.617188 C 47.800781 80.300781 49.574219 78.03125 51.402344 75.804688 C 53.226562 73.578125 55.109375 71.394531 57.042969 69.261719 C 58.980469 67.125 60.964844 65.039062 63.003906 63.003906 C 65.039062 60.964844 67.125 58.980469 69.261719 57.042969 C 71.394531 55.109375 73.578125 53.226562 75.804688 51.402344 C 78.03125 49.574219 80.300781 47.800781 82.617188 46.085938 C 84.929688 44.367188 87.285156 42.710938 89.683594 41.109375 C 92.078125 39.507812 94.511719 37.96875 96.980469 36.484375 C 99.453125 35.003906 101.960938 33.585938 104.5 32.226562 C 107.042969 30.867188 109.613281 29.574219 112.21875 28.339844 C 114.824219 27.109375 117.457031 25.941406 120.117188 24.839844 C 122.78125 23.738281 125.46875 22.699219 128.179688 21.730469 C 130.894531 20.757812 133.628906 19.855469 136.386719 19.019531 C 139.144531 18.183594 141.917969 17.414062 144.714844 16.714844 C 147.507812 16.015625 150.320312 15.382812 153.144531 14.820312 C 155.972656 14.257812 158.808594 13.765625 161.660156 13.34375 C 164.507812 12.921875 167.367188 12.566406 170.234375 12.285156 C 173.101562 12.003906 175.976562 11.792969 178.855469 11.648438 C 181.730469 11.507812 184.609375 11.4375 187.492188 11.4375 C 190.375 11.4375 193.253906 11.507812 196.128906 11.648438 C 199.007812 11.792969 201.882812 12.003906 204.75 12.285156 C 207.617188 12.566406 210.472656 12.921875 213.324219 13.34375 C 216.175781 13.765625 219.011719 14.257812 221.839844 14.820312 C 224.664062 15.382812 227.476562 16.015625 230.269531 16.714844 C 233.066406 17.414062 235.839844 18.183594 238.597656 19.019531 C 241.355469 19.855469 244.089844 20.757812 246.804688 21.730469 C 249.515625 22.699219 252.203125 23.738281 254.863281 24.839844 C 257.527344 25.941406 260.160156 27.109375 262.765625 28.339844 C 265.371094 29.574219 267.941406 30.867188 270.484375 32.226562 C 273.023438 33.585938 275.53125 35.003906 278 36.484375 C 280.472656 37.96875 282.90625 39.507812 285.300781 41.109375 C 287.699219 42.710938 290.054688 44.367188 292.367188 46.085938 C 294.679688 47.800781 296.953125 49.574219 299.179688 51.402344 C 301.40625 53.226562 303.585938 55.109375 305.722656 57.042969 C 307.859375 58.980469 309.945312 60.964844 311.980469 63.003906 C 314.019531 65.039062 316.003906 67.125 317.9375 69.261719 C 319.875 71.394531 321.753906 73.578125 323.582031 75.804688 C 325.410156 78.03125 327.183594 80.300781 328.898438 82.617188 C 330.617188 84.929688 332.273438 87.285156 333.875 89.683594 C 335.476562 92.078125 337.015625 94.511719 338.5 96.980469 C 339.980469 99.453125 341.398438 101.960938 342.757812 104.5 C 344.117188 107.042969 345.410156 109.613281 346.644531 112.21875 C 347.875 114.824219 349.042969 117.457031 350.144531 120.117188 C 351.246094 122.78125 352.285156 125.46875 353.253906 128.179688 C 354.226562 130.894531 355.128906 133.628906 355.964844 136.386719 C 356.800781 139.144531 357.570312 141.917969 358.269531 144.714844 C 358.96875 147.507812 359.601562 150.320312 360.164062 153.144531 C 360.726562 155.972656 361.21875 158.808594 361.640625 161.660156 C 362.0625 164.507812 362.414062 167.367188 362.699219 170.234375 C 362.980469 173.101562 363.191406 175.976562 363.332031 178.855469 C 363.476562 181.730469 363.546875 184.609375 363.546875 187.492188 Z M 363.546875 187.492188 " fill-opacity="1" fill-rule="nonzero"/></g><path fill="#a8da3a" d="M 289.738281 187.449219 C 289.738281 243.941406 243.941406 289.738281 187.449219 289.738281 C 185.894531 289.738281 184.347656 289.707031 182.8125 289.628906 C 128.46875 287.207031 85.160156 242.386719 85.160156 187.449219 C 85.160156 132.507812 128.46875 87.6875 182.8125 85.265625 C 184.347656 85.191406 185.894531 85.160156 187.449219 85.160156 C 243.941406 85.160156 289.738281 130.953125 289.738281 187.449219 " fill-opacity="1" fill-rule="nonzero"/><g clip-path="url(#7e1e0cd3da)"><path fill="#2b251b" d="M 289.738281 187.449219 L 285.527344 187.449219 C 285.527344 201 282.78125 213.890625 277.820312 225.625 C 270.378906 243.21875 257.9375 258.203125 242.28125 268.78125 C 234.453125 274.066406 225.824219 278.253906 216.617188 281.117188 C 207.40625 283.984375 197.613281 285.527344 187.449219 285.527344 C 185.953125 285.527344 184.472656 285.496094 183.019531 285.425781 L 183 285.421875 C 169.964844 284.84375 157.609375 281.722656 146.390625 276.546875 C 129.566406 268.78125 115.300781 256.378906 105.253906 240.984375 C 100.230469 233.285156 96.257812 224.84375 93.542969 215.855469 C 90.828125 206.867188 89.367188 197.332031 89.367188 187.449219 C 89.371094 174.265625 91.964844 161.714844 96.667969 150.242188 C 103.726562 133.039062 115.542969 118.273438 130.480469 107.601562 C 137.949219 102.265625 146.191406 97.949219 155.011719 94.859375 C 163.832031 91.773438 173.222656 89.90625 183 89.472656 L 183.019531 89.472656 C 184.472656 89.398438 185.949219 89.367188 187.449219 89.367188 C 201 89.371094 213.890625 92.113281 225.625 97.074219 C 243.21875 104.515625 258.203125 116.957031 268.78125 132.613281 C 274.066406 140.441406 278.253906 149.070312 281.117188 158.28125 C 283.984375 167.492188 285.527344 177.28125 285.527344 187.449219 L 293.945312 187.449219 C 293.945312 172.753906 290.96875 158.734375 285.574219 145.992188 C 277.488281 126.875 263.992188 110.621094 246.996094 99.140625 C 238.5 93.398438 229.125 88.851562 219.117188 85.738281 C 209.109375 82.625 198.46875 80.949219 187.449219 80.949219 C 185.835938 80.949219 184.222656 80.980469 182.601562 81.0625 L 182.625 81.058594 C 168.484375 81.691406 155.046875 85.082031 142.863281 90.707031 C 124.582031 99.144531 109.113281 112.597656 98.203125 129.3125 C 92.746094 137.667969 88.433594 146.839844 85.484375 156.605469 C 82.535156 166.371094 80.949219 176.730469 80.949219 187.449219 C 80.949219 201.734375 83.765625 215.386719 88.878906 227.847656 C 96.550781 246.542969 109.371094 262.558594 125.582031 274.144531 C 133.691406 279.9375 142.644531 284.625 152.226562 287.980469 C 161.808594 291.339844 172.019531 293.363281 182.625 293.835938 L 182.605469 293.835938 C 184.222656 293.914062 185.835938 293.945312 187.449219 293.945312 C 202.140625 293.949219 216.160156 290.964844 228.90625 285.578125 C 248.019531 277.488281 264.273438 263.992188 275.753906 246.996094 C 281.496094 238.5 286.046875 229.125 289.15625 219.117188 C 292.273438 209.109375 293.945312 198.46875 293.945312 187.449219 L 289.738281 187.449219 " fill-opacity="1" fill-rule="nonzero"/></g><path fill="#8ed137" d="M 186.492188 285.523438 C 185.320312 285.511719 184.164062 285.480469 183.019531 285.425781 L 183 285.425781 C 175.96875 285.109375 169.140625 284.058594 162.578125 282.34375 C 168.234375 283.722656 174.082031 284.582031 180.074219 284.859375 C 198.390625 284.003906 215.363281 277.773438 229.578125 267.632812 C 217.277344 274.453125 203.789062 277.71875 190.253906 277.71875 C 160.652344 277.71875 130.835938 262.105469 112.761719 233.917969 C 86.21875 192.542969 94.707031 139.226562 131.304688 112.554688 C 130.503906 112.988281 129.71875 113.429688 128.925781 113.890625 C 127.765625 114.558594 126.617188 115.269531 125.480469 116.003906 C 111.636719 124.964844 102.117188 137.085938 96.191406 151.4375 C 96.347656 151.039062 96.507812 150.640625 96.667969 150.242188 C 103.726562 133.039062 115.542969 118.277344 130.480469 107.601562 C 137.945312 102.265625 146.191406 97.949219 155.011719 94.863281 C 163.558594 91.867188 172.640625 90.027344 182.089844 89.515625 C 233.785156 91.96875 274.953125 134.972656 274.953125 187.675781 C 274.953125 221.4375 258.058594 251.222656 232.324219 268.910156 C 219.039062 278.046875 203.390625 283.957031 186.492188 285.523438 " fill-opacity="1" fill-rule="nonzero"/><path fill="#28251c" d="M 181.855469 285.84375 C 130.046875 283.511719 88.753906 240.457031 88.753906 187.675781 C 88.753906 187.226562 88.757812 186.785156 88.761719 186.339844 C 89.363281 233.105469 120.679688 272.121094 162.578125 282.34375 C 169.140625 284.058594 175.972656 285.109375 183 285.421875 L 183.019531 285.425781 C 184.164062 285.480469 185.324219 285.511719 186.496094 285.523438 C 184.957031 285.664062 183.410156 285.773438 181.855469 285.84375 M 90.164062 170.929688 C 91.117188 165.328125 92.542969 159.886719 94.402344 154.652344 C 107.386719 117.953125 141.417969 91.328125 181.855469 89.503906 C 181.933594 89.511719 182.011719 89.511719 182.089844 89.515625 C 172.640625 90.023438 163.558594 91.867188 155.011719 94.859375 C 146.191406 97.949219 137.949219 102.261719 130.480469 107.601562 C 115.542969 118.273438 103.726562 133.039062 96.667969 150.242188 C 96.507812 150.640625 96.347656 151.035156 96.191406 151.4375 C 96.167969 151.492188 96.144531 151.546875 96.121094 151.601562 C 93.613281 157.710938 91.480469 164.195312 90.164062 170.929688 " fill-opacity="1" fill-rule="nonzero"/><path fill="#a69a8d" d="M 88.761719 186.339844 C 88.757812 185.882812 88.753906 185.429688 88.753906 184.96875 C 88.753906 180.199219 89.269531 175.507812 90.164062 170.929688 C 89.308594 175.949219 88.832031 181.09375 88.761719 186.339844 " fill-opacity="1" fill-rule="nonzero"/><path fill="#ddf1ba" d="M 180.074219 284.859375 C 174.082031 284.582031 168.234375 283.722656 162.578125 282.34375 C 156.972656 280.878906 151.558594 278.929688 146.390625 276.546875 C 129.5625 268.78125 115.300781 256.378906 105.253906 240.984375 C 100.230469 233.285156 96.257812 224.84375 93.542969 215.855469 C 90.828125 206.867188 89.367188 197.335938 89.367188 187.449219 C 89.371094 174.722656 91.789062 162.582031 96.191406 151.4375 C 102.117188 137.085938 111.636719 124.964844 125.480469 116.003906 C 126.617188 115.265625 127.765625 114.558594 128.929688 113.890625 C 129.71875 113.429688 130.503906 112.984375 131.304688 112.554688 C 94.707031 139.226562 86.21875 192.542969 112.761719 233.917969 C 130.835938 262.105469 160.652344 277.71875 190.253906 277.71875 C 203.789062 277.71875 217.277344 274.453125 229.578125 267.632812 C 215.363281 277.773438 198.386719 284.003906 180.074219 284.859375 " fill-opacity="1" fill-rule="nonzero"/><path fill="#a4998d" d="M 162.578125 282.34375 C 120.679688 272.121094 89.363281 233.109375 88.761719 186.339844 C 88.832031 181.09375 89.308594 175.949219 90.164062 170.929688 C 91.480469 164.195312 93.613281 157.714844 96.121094 151.601562 C 96.144531 151.546875 96.167969 151.492188 96.191406 151.4375 C 91.789062 162.582031 89.371094 174.722656 89.367188 187.449219 C 89.367188 197.335938 90.828125 206.867188 93.542969 215.855469 C 96.257812 224.84375 100.230469 233.285156 105.253906 240.984375 C 115.300781 256.378906 129.5625 268.78125 146.390625 276.546875 C 151.558594 278.929688 156.972656 280.878906 162.578125 282.34375 " fill-opacity="1" fill-rule="nonzero"/><path fill="#ffffff" d="M 117.210938 158.230469 C 117.207031 158.382812 117.199219 158.535156 117.199219 158.6875 C 117.199219 175.722656 131.007812 189.53125 148.042969 189.53125 C 165.078125 189.53125 178.886719 175.722656 178.886719 158.6875 C 178.886719 158.535156 178.878906 158.382812 178.875 158.230469 L 117.210938 158.230469 " fill-opacity="1" fill-rule="nonzero"/><path fill="#2b251b" d="M 117.210938 158.230469 L 113 158.171875 C 113 158.183594 113 158.230469 112.996094 158.316406 C 112.992188 158.402344 112.988281 158.523438 112.988281 158.6875 C 112.988281 163.515625 113.96875 168.136719 115.746094 172.335938 C 118.410156 178.628906 122.847656 183.976562 128.441406 187.753906 C 131.238281 189.644531 134.324219 191.140625 137.621094 192.167969 C 140.914062 193.191406 144.421875 193.742188 148.042969 193.742188 C 152.871094 193.742188 157.492188 192.761719 161.6875 190.984375 C 167.984375 188.320312 173.328125 183.882812 177.105469 178.289062 C 178.996094 175.492188 180.496094 172.40625 181.519531 169.109375 C 182.542969 165.816406 183.097656 162.308594 183.097656 158.6875 C 183.097656 158.523438 183.09375 158.398438 183.089844 158.3125 C 183.085938 158.230469 183.085938 158.1875 183.085938 158.179688 C 183.058594 155.867188 181.1875 154.019531 178.875 154.019531 L 117.210938 154.019531 C 114.910156 154.019531 113.03125 155.871094 113 158.171875 L 117.210938 158.230469 L 117.210938 162.441406 L 178.875 162.441406 L 178.875 158.230469 L 174.664062 158.277344 C 174.667969 158.425781 174.671875 158.535156 174.675781 158.605469 C 174.675781 158.636719 174.675781 158.660156 174.675781 158.675781 L 174.675781 158.691406 L 175.007812 158.6875 L 174.675781 158.6875 L 174.675781 158.691406 L 175.007812 158.6875 L 174.675781 158.6875 C 174.675781 162.378906 173.929688 165.871094 172.585938 169.054688 C 170.566406 173.828125 167.183594 177.902344 162.929688 180.777344 C 160.804688 182.210938 158.464844 183.347656 155.964844 184.125 C 153.464844 184.902344 150.808594 185.324219 148.042969 185.324219 C 144.351562 185.324219 140.859375 184.578125 137.675781 183.230469 C 132.902344 181.214844 128.828125 177.832031 125.953125 173.578125 C 124.519531 171.449219 123.382812 169.109375 122.605469 166.609375 C 121.828125 164.109375 121.410156 161.453125 121.410156 158.6875 L 121.21875 158.6875 L 121.410156 158.691406 L 121.410156 158.6875 L 121.21875 158.6875 L 121.410156 158.691406 C 121.40625 158.6875 121.414062 158.554688 121.417969 158.285156 L 117.210938 158.230469 L 117.210938 162.441406 L 117.210938 158.230469 " fill-opacity="1" fill-rule="nonzero"/><path fill="#ffffff" d="M 198.152344 158.230469 C 198.152344 158.382812 198.140625 158.535156 198.140625 158.6875 C 198.140625 175.722656 211.949219 189.53125 228.984375 189.53125 C 246.019531 189.53125 259.828125 175.722656 259.828125 158.6875 C 259.828125 158.535156 259.820312 158.382812 259.816406 158.230469 L 198.152344 158.230469 " fill-opacity="1" fill-rule="nonzero"/><path fill="#2b251b" d="M 198.152344 158.230469 L 193.945312 158.183594 C 193.945312 158.1875 193.945312 158.234375 193.941406 158.316406 C 193.9375 158.402344 193.933594 158.527344 193.933594 158.6875 C 193.933594 163.515625 194.914062 168.136719 196.6875 172.335938 C 199.351562 178.632812 203.789062 183.976562 209.382812 187.753906 C 212.179688 189.644531 215.265625 191.140625 218.5625 192.167969 C 221.859375 193.191406 225.363281 193.742188 228.984375 193.742188 C 233.8125 193.742188 238.433594 192.761719 242.632812 190.984375 C 248.929688 188.320312 254.269531 183.882812 258.050781 178.292969 C 259.9375 175.492188 261.4375 172.40625 262.464844 169.109375 C 263.488281 165.816406 264.039062 162.308594 264.039062 158.6875 C 264.039062 158.527344 264.035156 158.402344 264.03125 158.316406 C 264.027344 158.230469 264.027344 158.1875 264.027344 158.183594 C 264 155.867188 262.132812 154.019531 259.816406 154.019531 L 198.152344 154.019531 C 195.839844 154.019531 193.972656 155.867188 193.945312 158.183594 L 198.152344 158.230469 L 198.152344 162.441406 L 259.816406 162.441406 L 259.816406 158.230469 L 255.609375 158.277344 C 255.609375 158.425781 255.613281 158.53125 255.617188 158.601562 C 255.617188 158.632812 255.617188 158.660156 255.621094 158.671875 L 255.621094 158.6875 C 255.617188 162.378906 254.875 165.871094 253.527344 169.054688 C 251.511719 173.828125 248.125 177.90625 243.871094 180.777344 C 241.75 182.210938 239.40625 183.347656 236.90625 184.125 C 234.40625 184.902344 231.753906 185.324219 228.984375 185.324219 C 225.296875 185.324219 221.804688 184.578125 218.621094 183.230469 C 213.84375 181.214844 209.769531 177.832031 206.898438 173.578125 C 205.460938 171.453125 204.324219 169.109375 203.546875 166.609375 C 202.769531 164.109375 202.351562 161.457031 202.351562 158.6875 C 202.351562 158.671875 202.359375 158.535156 202.363281 158.277344 L 198.152344 158.230469 L 198.152344 162.441406 L 198.152344 158.230469 " fill-opacity="1" fill-rule="nonzero"/><path fill="#2b251b" d="M 120.082031 154.980469 L 94.59375 144.308594 C 92.449219 143.414062 89.980469 144.421875 89.085938 146.570312 C 88.1875 148.714844 89.199219 151.179688 91.34375 152.078125 L 116.832031 162.746094 C 118.976562 163.644531 121.441406 162.632812 122.339844 160.488281 C 123.238281 158.34375 122.226562 155.875 120.082031 154.980469 " fill-opacity="1" fill-rule="nonzero"/><path fill="#2b251b" d="M 259.886719 162.355469 L 280.617188 148.417969 C 282.546875 147.121094 283.058594 144.507812 281.761719 142.574219 C 280.464844 140.648438 277.847656 140.132812 275.917969 141.429688 L 255.191406 155.367188 C 253.261719 156.664062 252.746094 159.28125 254.042969 161.210938 C 255.34375 163.140625 257.957031 163.652344 259.886719 162.355469 " fill-opacity="1" fill-rule="nonzero"/><path fill="#2b251b" d="M 177.660156 162.441406 L 198.390625 162.441406 C 200.714844 162.441406 202.597656 160.554688 202.597656 158.230469 C 202.597656 155.90625 200.714844 154.019531 198.390625 154.019531 L 177.660156 154.019531 C 175.332031 154.019531 173.449219 155.90625 173.449219 158.230469 C 173.449219 160.554688 175.332031 162.441406 177.660156 162.441406 " fill-opacity="1" fill-rule="nonzero"/><path fill="#ffffff" d="M 205.75 233.933594 L 205.75 253.246094 L 170.234375 253.246094 L 170.234375 233.90625 L 170.332031 233.90625 C 181.828125 236.65625 194.492188 236.625 205.75 233.933594 " fill-opacity="1" fill-rule="nonzero"/><path fill="#2b251b" d="M 205.75 233.933594 L 201.542969 233.933594 L 201.542969 249.035156 L 174.445312 249.035156 L 174.445312 233.90625 L 170.234375 233.90625 L 170.234375 238.113281 L 170.332031 238.113281 L 170.332031 233.90625 L 169.351562 237.996094 C 175.441406 239.457031 181.800781 240.167969 188.132812 240.171875 C 194.460938 240.167969 200.757812 239.457031 206.730469 238.03125 L 205.75 233.933594 L 201.542969 233.933594 L 205.75 233.933594 L 204.773438 229.839844 C 199.488281 231.105469 193.824219 231.75 188.132812 231.75 C 182.4375 231.75 176.714844 231.105469 171.308594 229.808594 C 170.96875 229.726562 170.683594 229.695312 170.332031 229.695312 L 170.234375 229.695312 C 169.125 229.695312 168.042969 230.144531 167.257812 230.925781 C 166.472656 231.710938 166.023438 232.792969 166.023438 233.90625 L 166.023438 253.246094 C 166.023438 254.355469 166.472656 255.441406 167.257812 256.222656 C 168.042969 257.007812 169.125 257.457031 170.234375 257.457031 L 205.75 257.457031 C 206.859375 257.457031 207.945312 257.007812 208.730469 256.222656 C 209.511719 255.441406 209.960938 254.355469 209.960938 253.246094 L 209.960938 233.933594 C 209.960938 232.640625 209.375 231.433594 208.359375 230.632812 C 207.34375 229.828125 206.03125 229.539062 204.773438 229.839844 L 205.75 233.933594 " fill-opacity="1" fill-rule="nonzero"/><path fill="#2b251b" d="M 192.621094 253.246094 L 192.621094 238.058594 C 192.621094 235.734375 190.738281 233.847656 188.410156 233.847656 C 186.085938 233.847656 184.203125 235.734375 184.203125 238.058594 L 184.203125 253.246094 C 184.203125 255.570312 186.085938 257.453125 188.410156 257.453125 C 190.738281 257.453125 192.621094 255.570312 192.621094 253.246094 " fill-opacity="1" fill-rule="nonzero"/><path fill="#2b251b" d="M 239.65625 173.175781 C 239.65625 179.066406 234.878906 183.84375 228.984375 183.84375 C 223.09375 183.84375 218.316406 179.066406 218.316406 173.175781 C 218.316406 167.28125 223.09375 162.503906 228.984375 162.503906 C 234.878906 162.503906 239.65625 167.28125 239.65625 173.175781 " fill-opacity="1" fill-rule="nonzero"/><path fill="#ffffff" d="M 243.769531 169.765625 C 243.769531 172.039062 241.925781 173.882812 239.65625 173.882812 C 237.382812 173.882812 235.542969 172.039062 235.542969 169.765625 C 235.542969 167.496094 237.382812 165.652344 239.65625 165.652344 C 241.925781 165.652344 243.769531 167.496094 243.769531 169.765625 " fill-opacity="1" fill-rule="nonzero"/><path fill="#2b251b" d="M 158.710938 173.175781 C 158.710938 179.066406 153.9375 183.84375 148.042969 183.84375 C 142.152344 183.84375 137.371094 179.066406 137.371094 173.175781 C 137.371094 167.28125 142.152344 162.503906 148.042969 162.503906 C 153.9375 162.503906 158.710938 167.28125 158.710938 173.175781 " fill-opacity="1" fill-rule="nonzero"/><path fill="#ffffff" d="M 162.824219 169.765625 C 162.824219 172.039062 160.984375 173.878906 158.710938 173.878906 C 156.441406 173.878906 154.597656 172.039062 154.597656 169.765625 C 154.597656 167.496094 156.441406 165.652344 158.710938 165.652344 C 160.984375 165.652344 162.824219 167.496094 162.824219 169.765625 " fill-opacity="1" fill-rule="nonzero"/><path fill="#2b251b" d="M 136.386719 216.75 C 138.175781 219.542969 140.304688 222.074219 142.6875 224.34375 C 146.261719 227.742188 150.410156 230.554688 154.921875 232.816406 C 159.429688 235.078125 164.300781 236.792969 169.355469 238 L 169.351562 237.996094 C 175.441406 239.457031 181.800781 240.167969 188.132812 240.171875 C 194.460938 240.167969 200.757812 239.457031 206.730469 238.03125 C 210.140625 237.214844 213.445312 236.167969 216.589844 234.878906 C 221.300781 232.949219 225.652344 230.476562 229.417969 227.421875 C 231.300781 225.894531 233.039062 224.222656 234.59375 222.398438 C 236.144531 220.574219 237.519531 218.601562 238.664062 216.484375 C 239.773438 214.4375 239.011719 211.882812 236.96875 210.777344 C 234.921875 209.667969 232.367188 210.429688 231.261719 212.472656 C 230.125 214.574219 228.671875 216.515625 226.933594 218.3125 C 224.328125 221 221.066406 223.34375 217.308594 225.285156 C 213.550781 227.226562 209.300781 228.761719 204.773438 229.839844 C 199.488281 231.105469 193.824219 231.75 188.132812 231.75 C 182.4375 231.75 176.714844 231.105469 171.308594 229.808594 L 171.304688 229.808594 C 165.328125 228.382812 159.738281 226.167969 154.976562 223.214844 C 152.59375 221.738281 150.417969 220.078125 148.492188 218.242188 C 146.5625 216.40625 144.878906 214.398438 143.476562 212.207031 C 142.222656 210.25 139.617188 209.679688 137.660156 210.933594 C 135.703125 212.1875 135.132812 214.792969 136.386719 216.75 " fill-opacity="1" fill-rule="nonzero"/><path fill="#2b251b" d="M 203.371094 147.410156 L 201.546875 143.996094 L 203.367188 147.414062 L 203.371094 147.410156 L 201.546875 143.996094 L 203.367188 147.414062 L 201.78125 144.433594 L 203.363281 147.417969 L 203.367188 147.414062 L 201.78125 144.433594 L 203.363281 147.417969 L 203.367188 147.414062 L 203.097656 146.902344 L 203.367188 147.414062 L 203.097656 146.902344 L 203.367188 147.414062 C 203.390625 147.398438 206.476562 145.769531 211.363281 144.167969 C 213.808594 143.367188 216.699219 142.570312 219.878906 141.980469 C 223.058594 141.386719 226.527344 141 230.121094 141 C 234.042969 141 238.113281 141.460938 242.160156 142.605469 C 246.210938 143.753906 250.242188 145.578125 254.140625 148.355469 C 256.035156 149.703125 258.664062 149.261719 260.011719 147.367188 C 261.363281 145.472656 260.921875 142.84375 259.027344 141.496094 C 254.304688 138.132812 249.355469 135.890625 244.453125 134.503906 C 239.550781 133.117188 234.699219 132.582031 230.121094 132.582031 C 225.863281 132.582031 221.832031 133.042969 218.179688 133.734375 C 212.703125 134.765625 208.070312 136.304688 204.773438 137.59375 C 201.480469 138.882812 199.519531 139.921875 199.402344 139.988281 C 197.351562 141.082031 196.578125 143.632812 197.675781 145.683594 C 198.773438 147.734375 201.320312 148.507812 203.371094 147.410156 " fill-opacity="1" fill-rule="nonzero"/><path fill="#2b251b" d="M 175.640625 139.984375 C 175.480469 139.902344 172.050781 138.078125 166.546875 136.246094 C 163.789062 135.335938 160.515625 134.421875 156.863281 133.730469 C 153.210938 133.042969 149.179688 132.582031 144.921875 132.578125 C 140.339844 132.578125 135.492188 133.117188 130.585938 134.503906 C 125.6875 135.890625 120.734375 138.132812 116.015625 141.496094 C 114.121094 142.84375 113.679688 145.472656 115.027344 147.367188 C 116.378906 149.261719 119.007812 149.703125 120.898438 148.355469 C 124.800781 145.578125 128.832031 143.753906 132.878906 142.605469 C 136.929688 141.460938 140.996094 141 144.921875 141 C 148.566406 141 152.085938 141.398438 155.304688 142.007812 C 160.132812 142.914062 164.285156 144.292969 167.199219 145.433594 C 168.65625 146.003906 169.804688 146.515625 170.574219 146.871094 C 170.957031 147.050781 171.246094 147.195312 171.429688 147.289062 C 171.523438 147.335938 171.589844 147.371094 171.632812 147.390625 C 171.652344 147.402344 171.664062 147.410156 171.671875 147.410156 L 171.675781 147.414062 L 172.011719 146.78125 L 171.675781 147.414062 L 172.011719 146.78125 L 171.675781 147.414062 L 172.425781 146 L 171.675781 147.414062 L 172.425781 146 L 171.675781 147.414062 L 171.679688 147.417969 L 173.417969 144.140625 L 171.667969 147.410156 L 171.679688 147.417969 L 173.417969 144.140625 L 171.667969 147.410156 C 173.71875 148.507812 176.269531 147.734375 177.367188 145.683594 C 178.464844 143.632812 177.691406 141.082031 175.640625 139.984375 " fill-opacity="1" fill-rule="nonzero"/><g clip-path="url(#58a6b1bdae)"><path fill="#ceff90" d="M 187.496094 9.558594 C 89.199219 9.558594 9.558594 89.269531 9.558594 187.496094 C 9.558594 285.71875 89.199219 365.433594 187.496094 365.433594 C 285.789062 365.433594 365.433594 285.71875 365.433594 187.496094 C 365.433594 89.269531 285.789062 9.558594 187.496094 9.558594 Z M 187.496094 354.167969 C 95.441406 354.167969 20.820312 279.546875 20.820312 187.496094 C 20.820312 95.441406 95.441406 20.820312 187.496094 20.820312 C 279.546875 20.820312 354.167969 95.441406 354.167969 187.496094 C 354.167969 279.546875 279.546875 354.167969 187.496094 354.167969 Z M 187.496094 354.167969 " fill-opacity="1" fill-rule="nonzero"/></g></svg>