<svg xmlns="http://www.w3.org/2000/svg" xmlns:xlink="http://www.w3.org/1999/xlink" width="500" zoomAndPan="magnify" viewBox="0 0 375 374.999991" height="500" preserveAspectRatio="xMidYMid meet" version="1.0"><defs><clipPath id="e9899aca9b"><path d="M 6.855469 6.855469 L 368.144531 6.855469 L 368.144531 368.144531 L 6.855469 368.144531 Z M 6.855469 6.855469 " clip-rule="nonzero"/></clipPath><clipPath id="1040c1f194"><path d="M 187.5 6.855469 C 87.734375 6.855469 6.855469 87.734375 6.855469 187.5 C 6.855469 287.265625 87.734375 368.144531 187.5 368.144531 C 287.265625 368.144531 368.144531 287.265625 368.144531 187.5 C 368.144531 87.734375 287.265625 6.855469 187.5 6.855469 Z M 187.5 6.855469 " clip-rule="nonzero"/></clipPath><clipPath id="295545bdd0"><path d="M 52.609375 51.214844 L 255 51.214844 L 255 253.714844 L 52.609375 253.714844 Z M 52.609375 51.214844 " clip-rule="nonzero"/></clipPath><clipPath id="37f17da96f"><path d="M 87 51.214844 L 220 51.214844 L 220 183 L 87 183 Z M 87 51.214844 " clip-rule="nonzero"/></clipPath><clipPath id="e41f069969"><path d="M 228 152.304688 L 285 152.304688 L 285 226 L 228 226 Z M 228 152.304688 " clip-rule="nonzero"/></clipPath><clipPath id="aeec78b92b"><path d="M 201.394531 215 L 318 215 L 318 302 L 201.394531 302 Z M 201.394531 215 " clip-rule="nonzero"/></clipPath><clipPath id="7ecbabf60b"><path d="M 201.394531 152.304688 L 318.394531 152.304688 L 318.394531 302.304688 L 201.394531 302.304688 Z M 201.394531 152.304688 " clip-rule="nonzero"/></clipPath><clipPath id="26d83d6286"><path d="M 9.542969 9.542969 L 365.792969 9.542969 L 365.792969 365.792969 L 9.542969 365.792969 Z M 9.542969 9.542969 " clip-rule="nonzero"/></clipPath></defs><g clip-path="url(#e9899aca9b)"><g clip-path="url(#1040c1f194)"><path fill="#9ff9ff" d="M 6.855469 6.855469 L 368.144531 6.855469 L 368.144531 368.144531 L 6.855469 368.144531 Z M 6.855469 6.855469 " fill-opacity="1" fill-rule="nonzero"/></g></g><path fill="#231f20" d="M 187.5 0 C 83.921875 0 0 83.996094 0 187.5 C 0 291.003906 83.921875 375 187.5 375 C 291.078125 375 375 291.003906 375 187.5 C 375 83.996094 291.078125 0 187.5 0 Z M 187.5 363.128906 C 90.5 363.128906 11.871094 284.5 11.871094 187.5 C 11.871094 90.5 90.5 11.871094 187.5 11.871094 C 284.5 11.871094 363.128906 90.5 363.128906 187.5 C 363.128906 284.5 284.5 363.128906 187.5 363.128906 Z M 187.5 363.128906 " fill-opacity="1" fill-rule="nonzero"/><g clip-path="url(#295545bdd0)"><path fill="#00a0b4" d="M 153.699219 253.398438 C 97.957031 253.398438 52.609375 208.046875 52.609375 152.304688 C 52.609375 96.5625 97.957031 51.214844 153.699219 51.214844 C 209.441406 51.214844 254.792969 96.5625 254.792969 152.304688 C 254.792969 208.046875 209.441406 253.398438 153.699219 253.398438 Z M 153.699219 70.925781 C 108.828125 70.925781 72.320312 107.4375 72.320312 152.304688 C 72.320312 197.175781 108.828125 233.683594 153.699219 233.683594 C 198.570312 233.683594 235.078125 197.175781 235.078125 152.304688 C 235.078125 107.4375 198.570312 70.925781 153.699219 70.925781 Z M 153.699219 70.925781 " fill-opacity="1" fill-rule="nonzero"/></g><g clip-path="url(#37f17da96f)"><path fill="#00a0b4" d="M 153.699219 182.632812 C 117.46875 182.632812 87.988281 153.15625 87.988281 116.921875 C 87.988281 80.691406 117.46875 51.214844 153.699219 51.214844 C 189.929688 51.214844 219.410156 80.691406 219.410156 116.921875 C 219.410156 153.15625 189.929688 182.632812 153.699219 182.632812 Z M 153.699219 71.433594 C 128.613281 71.433594 108.207031 91.84375 108.207031 116.921875 C 108.207031 142.003906 128.613281 162.414062 153.699219 162.414062 C 178.785156 162.414062 199.191406 142.003906 199.191406 116.921875 C 199.191406 91.84375 178.785156 71.433594 153.699219 71.433594 Z M 153.699219 71.433594 " fill-opacity="1" fill-rule="nonzero"/></g><path fill="#00a0b4" d="M 178.972656 157.359375 C 156.675781 157.359375 138.535156 139.21875 138.535156 116.921875 C 138.535156 94.628906 156.675781 76.488281 178.972656 76.488281 C 201.269531 76.488281 219.410156 94.628906 219.410156 116.921875 C 219.410156 139.21875 201.269531 157.359375 178.972656 157.359375 Z M 178.972656 96.703125 C 167.820312 96.703125 158.753906 105.773438 158.753906 116.921875 C 158.753906 128.074219 167.820312 137.140625 178.972656 137.140625 C 190.121094 137.140625 199.191406 128.074219 199.191406 116.921875 C 199.191406 105.773438 190.121094 96.703125 178.972656 96.703125 Z M 178.972656 96.703125 " fill-opacity="1" fill-rule="nonzero"/><g clip-path="url(#e41f069969)"><path fill="#705bc9" d="M 269.789062 215.785156 C 269.746094 215.6875 269.703125 215.589844 269.660156 215.492188 C 269.667969 215.417969 269.660156 215.355469 269.570312 215.332031 C 269.554688 215.316406 269.535156 215.300781 269.515625 215.289062 C 269.511719 215.261719 269.503906 215.230469 269.496094 215.207031 C 269.496094 215.179688 269.492188 215.15625 269.492188 215.128906 C 269.535156 214.628906 269.160156 214.277344 269.03125 213.835938 C 269.007812 213.773438 268.988281 213.710938 268.96875 213.648438 C 269.011719 213.5 269.050781 213.355469 268.910156 213.230469 C 268.917969 213.1875 268.9375 213.140625 268.933594 213.097656 C 268.699219 211.699219 268.652344 210.289062 268.5625 208.878906 C 268.519531 208.191406 268.640625 207.503906 268.617188 206.828125 C 268.574219 205.527344 268.886719 204.273438 268.953125 202.988281 C 269.011719 201.921875 269.175781 200.839844 269.445312 199.785156 C 269.617188 199.113281 269.710938 198.417969 269.863281 197.746094 C 270.050781 196.90625 270.15625 196.050781 270.515625 195.226562 C 270.820312 194.523438 271.007812 193.722656 271.15625 192.945312 C 271.195312 192.742188 271.4375 192.640625 271.425781 192.429688 C 271.402344 191.902344 271.660156 191.453125 271.890625 191.019531 C 272.085938 190.652344 272.09375 190.292969 272.054688 189.917969 C 272.042969 189.785156 272.023438 189.652344 272.015625 189.519531 C 271.980469 188.84375 271.921875 188.171875 271.871094 187.496094 C 272.007812 187.34375 271.917969 187.230469 271.804688 187.125 C 271.796875 187.089844 271.792969 187.054688 271.789062 187.023438 C 271.871094 186.882812 271.867188 186.742188 271.839844 186.585938 C 271.753906 186.09375 271.746094 185.59375 271.753906 185.09375 C 271.765625 184.550781 271.773438 184.007812 271.636719 183.476562 C 271.601562 183.242188 271.566406 183.011719 271.53125 182.777344 C 271.734375 182.597656 271.722656 182.332031 271.621094 182.15625 C 271.53125 181.984375 271.296875 182.054688 271.132812 182.164062 C 270.648438 182.203125 270.410156 181.917969 270.324219 181.5 C 270.292969 181.347656 270.203125 181.269531 270.136719 181.15625 C 270.128906 181.09375 270.117188 181.039062 270.039062 181.03125 L 270.046875 181.039062 C 270.015625 181.003906 269.984375 180.972656 269.953125 180.9375 L 269.953125 180.941406 C 269.933594 180.726562 269.851562 180.535156 269.734375 180.351562 C 269.003906 179.195312 268.109375 178.175781 267.046875 177.335938 C 266.222656 176.6875 265.207031 176.351562 264.191406 176.070312 C 264.074219 176.019531 263.953125 175.972656 263.832031 175.925781 C 263.652344 175.84375 263.476562 175.757812 263.292969 175.683594 C 262.0625 175.207031 260.839844 174.714844 259.601562 174.265625 C 258.734375 173.953125 257.847656 173.699219 256.96875 173.417969 C 256.375 173.152344 255.75 172.996094 255.097656 172.9375 C 254.976562 172.617188 254.65625 172.667969 254.414062 172.582031 C 253.875 172.394531 253.277344 172.3125 252.785156 172.042969 C 252.125 171.6875 251.433594 171.65625 250.726562 171.617188 C 249.574219 171.441406 248.40625 171.417969 247.242188 171.378906 C 246.941406 171.332031 246.636719 171.277344 246.328125 171.304688 C 246.253906 171.3125 246.160156 171.316406 246.109375 171.355469 C 245.769531 171.632812 245.347656 171.613281 244.957031 171.71875 C 244.644531 171.800781 244.304688 171.835938 244.054688 172.082031 C 242.441406 172.40625 240.828125 172.730469 239.214844 173.054688 C 239.023438 173.121094 238.832031 172.839844 238.679688 172.996094 C 238.394531 173.296875 238.0625 173.5625 237.863281 173.9375 C 237.589844 173.957031 237.417969 174.167969 237.285156 174.347656 C 236.644531 175.203125 235.792969 175.742188 234.804688 176.097656 C 234.394531 176.191406 234.054688 176.398438 233.765625 176.703125 C 233.550781 176.925781 233.320312 177.0625 232.96875 177.019531 C 232.652344 176.980469 232.402344 177.234375 232.199219 177.457031 C 231.734375 177.96875 231.117188 178.28125 230.59375 178.71875 C 230.117188 179.117188 229.605469 178.808594 229.121094 178.761719 C 229.042969 178.75 228.835938 178.371094 228.761719 178.136719 C 228.683594 177.90625 228.671875 177.636719 228.796875 177.386719 C 229.179688 176.609375 229.515625 175.808594 229.945312 175.058594 C 230.1875 174.632812 230.4375 174.207031 230.742188 173.8125 C 231.292969 173.105469 231.566406 172.246094 231.839844 171.40625 C 231.992188 170.941406 232.148438 170.496094 232.390625 170.070312 C 232.492188 169.894531 232.648438 169.730469 232.636719 169.496094 C 232.632812 169.429688 232.6875 169.320312 232.738281 169.300781 C 233.617188 168.980469 233.070312 168.292969 233.007812 167.859375 C 232.921875 167.277344 232.925781 166.707031 232.910156 166.132812 C 232.890625 165.355469 233.007812 164.582031 233.160156 163.832031 C 233.222656 163.527344 233.386719 163.199219 233.53125 162.890625 C 234.058594 161.765625 234.648438 160.703125 235.972656 160.339844 C 236.289062 160.25 236.492188 159.988281 236.738281 159.804688 C 237.285156 159.394531 237.953125 159.382812 238.550781 159.15625 C 238.773438 159.070312 238.917969 158.992188 238.972656 158.757812 C 239.070312 158.34375 239.339844 158.140625 239.75 157.980469 C 240.519531 157.679688 241.214844 157.277344 241.800781 156.617188 C 242.441406 155.890625 243.238281 155.28125 244.105469 154.796875 C 245.277344 154.140625 246.464844 153.5 247.757812 153.101562 C 248.894531 152.75 250.039062 152.472656 251.238281 152.800781 C 251.578125 152.894531 251.9375 152.828125 252.289062 152.894531 C 252.59375 152.957031 252.882812 153.027344 253.148438 153.183594 C 253.871094 153.613281 254.683594 153.582031 255.476562 153.660156 C 256.921875 153.796875 258.351562 153.996094 259.773438 154.316406 C 260.796875 154.546875 261.816406 154.808594 262.816406 155.105469 C 264.21875 155.519531 265.660156 155.820312 266.984375 156.527344 C 267.902344 157.019531 268.960938 157.238281 269.945312 157.605469 C 270.992188 158 272.023438 158.414062 272.976562 159.023438 C 273.488281 159.347656 274.03125 159.617188 274.515625 159.988281 C 275.089844 160.425781 275.46875 161.007812 275.828125 161.613281 C 276.296875 162.410156 276.78125 163.199219 277.296875 163.96875 C 277.644531 164.480469 277.921875 165.042969 278.144531 165.621094 C 278.199219 165.761719 278.269531 165.945312 278.222656 166.066406 C 277.945312 166.757812 278.457031 167.128906 278.800781 167.578125 C 279.410156 168.371094 279.960938 169.1875 279.910156 170.253906 C 279.910156 170.316406 279.933594 170.394531 279.90625 170.433594 C 279.527344 170.976562 279.722656 171.601562 279.625 172.1875 C 279.542969 172.679688 279.171875 172.929688 278.699219 172.796875 C 278.589844 172.765625 278.464844 172.753906 278.398438 172.832031 C 278.304688 172.941406 278.441406 173.023438 278.5 173.097656 C 279.222656 174.0625 279.925781 175.035156 280.476562 176.105469 C 280.917969 176.960938 281.460938 177.78125 281.492188 178.785156 C 281.503906 179.140625 281.867188 179.269531 281.933594 179.609375 C 282.113281 180.472656 282.234375 181.335938 282.28125 182.222656 C 282.335938 183.246094 282.507812 184.269531 282.621094 185.289062 C 282.808594 186.980469 282.988281 188.671875 282.960938 190.378906 C 282.949219 191.214844 282.921875 192.054688 282.945312 192.890625 C 282.96875 193.648438 283.1875 194.382812 283.191406 195.152344 C 283.195312 195.492188 283.1875 195.839844 283.183594 196.175781 C 283.164062 197.1875 283.152344 198.203125 283.15625 199.21875 C 283.15625 199.703125 283.34375 200.222656 283.296875 200.648438 C 283.226562 201.3125 283.363281 201.933594 283.375 202.570312 C 283.390625 203.371094 283.566406 204.15625 283.539062 204.964844 C 283.515625 205.65625 283.570312 206.355469 283.40625 207.035156 C 283.117188 208.226562 283.066406 209.441406 282.960938 210.65625 C 282.902344 211.367188 282.808594 212.074219 282.742188 212.785156 C 282.675781 213.460938 282.695312 214.148438 282.691406 214.828125 C 282.6875 215.691406 282.636719 216.558594 282.722656 217.414062 C 282.800781 218.179688 283.179688 218.890625 283.300781 219.660156 C 283.402344 220.285156 283.648438 220.886719 283.691406 221.523438 C 283.726562 222.078125 284.035156 222.558594 284.101562 223.105469 C 284.15625 223.542969 284.28125 223.972656 284.375 224.402344 C 284.535156 225.167969 284.445312 225.355469 283.753906 225.695312 C 282.964844 225.082031 281.980469 224.738281 281.390625 223.828125 C 281.167969 223.484375 280.648438 223.332031 280.277344 223.070312 C 279.691406 222.652344 278.992188 222.453125 278.394531 222.066406 C 278.332031 222.027344 278.222656 222.007812 278.203125 221.953125 C 278.015625 221.335938 277.40625 221.324219 276.953125 221.074219 C 276.082031 220.597656 275.085938 220.445312 274.207031 220.003906 C 273.675781 219.738281 273.199219 219.351562 272.714844 218.996094 C 272.554688 218.878906 272.4375 218.761719 272.242188 218.898438 C 272.210938 218.859375 272.171875 218.835938 272.132812 218.875 C 272.121094 218.886719 272.132812 218.929688 272.136719 218.957031 C 272.070312 218.964844 272.003906 218.972656 271.9375 218.984375 C 271.9375 218.984375 271.949219 218.984375 271.949219 218.984375 C 271.9375 218.960938 271.925781 218.9375 271.910156 218.921875 C 271.816406 218.710938 271.691406 218.535156 271.425781 218.539062 C 271.425781 218.539062 271.417969 218.53125 271.417969 218.53125 C 270.820312 217.648438 270.222656 216.765625 269.789062 215.785156 Z M 266.3125 166.546875 C 266.496094 166.804688 266.6875 167.003906 266.917969 167.171875 C 267.417969 167.539062 267.929688 167.90625 268.394531 168.316406 C 268.746094 168.628906 269.140625 168.882812 269.480469 169.199219 C 269.847656 169.539062 270.378906 169.714844 270.644531 170.105469 C 270.96875 170.578125 271.503906 170.894531 271.609375 171.585938 C 271.691406 171.433594 271.746094 171.378906 271.742188 171.328125 C 271.667969 170.445312 272.070312 169.617188 272.007812 168.71875 C 271.976562 168.285156 271.914062 168.125 271.515625 168.0625 C 271.382812 168.042969 271.265625 167.953125 271.140625 167.894531 C 270.042969 167.375 268.894531 166.96875 267.824219 166.398438 C 267.699219 166.335938 267.59375 166.359375 267.472656 166.398438 C 267.105469 166.519531 266.734375 166.675781 266.3125 166.546875 Z M 276.21875 170.769531 C 276.191406 170.792969 276.164062 170.820312 276.136719 170.847656 C 276.402344 171.316406 276.757812 171.722656 277.132812 172.105469 C 277.265625 172.238281 277.550781 172.246094 277.773438 172.265625 C 277.894531 172.277344 277.875 172.144531 277.847656 172.058594 C 277.785156 171.863281 277.648438 171.71875 277.488281 171.605469 C 277.070312 171.320312 276.644531 171.046875 276.21875 170.769531 Z M 276.21875 170.769531 " fill-opacity="1" fill-rule="nonzero"/></g><path fill="#fec199" d="M 271.871094 187.5 C 271.921875 188.171875 271.984375 188.847656 272.015625 189.519531 C 272.023438 189.65625 272.042969 189.785156 272.054688 189.917969 C 272.09375 190.292969 272.085938 190.652344 271.890625 191.023438 C 271.660156 191.453125 271.40625 191.902344 271.425781 192.429688 C 271.4375 192.644531 271.195312 192.746094 271.15625 192.945312 C 271.007812 193.726562 270.824219 194.527344 270.515625 195.226562 C 270.15625 196.050781 270.050781 196.90625 269.863281 197.746094 C 269.710938 198.417969 269.617188 199.113281 269.445312 199.789062 C 269.171875 200.839844 269.007812 201.925781 268.953125 202.988281 C 268.882812 204.273438 268.574219 205.53125 268.617188 206.832031 C 268.640625 207.503906 268.519531 208.191406 268.5625 208.882812 C 268.65625 210.289062 268.699219 211.703125 268.933594 213.097656 C 268.9375 213.140625 268.917969 213.1875 268.910156 213.234375 C 268.929688 213.371094 268.949219 213.511719 268.96875 213.648438 C 268.988281 213.710938 269.007812 213.773438 269.03125 213.839844 C 269.027344 214.109375 269.125 214.410156 268.988281 214.644531 C 268.832031 214.914062 268.957031 215.046875 269.128906 215.203125 C 268.828125 215.160156 268.570312 215.296875 268.34375 215.457031 C 268.179688 215.578125 268.027344 215.59375 267.847656 215.585938 C 267.140625 215.976562 266.273438 215.988281 265.617188 216.488281 C 265.320312 216.714844 264.871094 216.761719 264.738281 217.1875 C 264.144531 217.558594 263.449219 217.679688 262.816406 217.953125 C 261.886719 218.351562 260.929688 218.695312 259.953125 218.960938 C 259.382812 219.113281 258.800781 219.265625 258.214844 219.332031 C 257.84375 219.375 257.519531 219.542969 257.152344 219.585938 C 256.90625 219.617188 256.65625 219.667969 256.421875 219.605469 C 255.972656 219.488281 255.589844 219.65625 255.195312 219.8125 C 254.953125 219.90625 254.6875 219.9375 254.433594 219.980469 C 253.523438 220.132812 252.605469 220.300781 251.6875 220.332031 C 250.5625 220.375 249.429688 220.542969 248.3125 220.128906 C 247.871094 219.964844 247.855469 219.648438 247.730469 219.335938 C 247.996094 218.671875 248.226562 218 248.3125 217.289062 C 248.449219 216.160156 248.523438 215.035156 248.417969 213.882812 C 248.339844 213.042969 248.003906 212.253906 248.027344 211.402344 C 248.035156 211 247.675781 210.863281 247.367188 210.820312 C 246.371094 210.675781 245.382812 210.460938 244.421875 210.210938 C 243.472656 209.960938 242.464844 209.699219 241.683594 208.964844 C 241.058594 208.375 240.289062 207.945312 239.683594 207.324219 C 239.003906 206.621094 238.378906 205.871094 238.039062 204.925781 C 237.96875 204.734375 237.914062 204.53125 237.953125 204.339844 C 238.054688 203.867188 237.882812 203.453125 237.632812 203.097656 C 237.125 202.378906 236.988281 201.527344 236.695312 200.734375 C 236.351562 199.792969 236.28125 198.792969 236.167969 197.824219 C 235.960938 196.144531 235.886719 194.449219 236.171875 192.746094 C 236.390625 191.445312 236.445312 190.117188 236.582031 188.800781 C 236.613281 188.503906 236.679688 188.203125 236.734375 187.90625 C 236.761719 187.75 236.808594 187.59375 236.589844 187.542969 C 236.800781 187.394531 236.964844 187.214844 237.011719 186.945312 C 237.085938 186.566406 237.164062 186.183594 237.238281 185.800781 C 237.695312 185.136719 237.761719 184.433594 237.441406 183.695312 C 237.320312 183.253906 237.492188 182.824219 237.484375 182.382812 C 237.46875 181.773438 237.308594 181.179688 237.304688 180.578125 C 237.296875 178.972656 237.402344 177.367188 237.613281 175.773438 C 237.886719 175.363281 238.058594 174.902344 238.230469 174.441406 C 238.433594 173.894531 238.449219 173.210938 239.210938 173.054688 C 240.824219 172.730469 242.4375 172.40625 244.054688 172.082031 C 245.132812 171.925781 246.171875 171.585938 247.238281 171.375 C 248.402344 171.417969 249.570312 171.4375 250.722656 171.617188 C 251.402344 171.78125 251.980469 172.140625 252.546875 172.523438 C 252.851562 172.730469 253.210938 172.925781 253.546875 172.890625 C 254.074219 172.835938 254.578125 172.878906 255.09375 172.9375 C 255.746094 172.996094 256.371094 173.152344 256.96875 173.417969 C 257.132812 173.636719 257.410156 173.699219 257.632812 173.792969 C 258.285156 174.078125 258.902344 174.429688 259.589844 174.65625 C 260.4375 174.9375 261.417969 174.972656 262.074219 175.714844 C 262.101562 175.742188 262.1875 175.722656 262.242188 175.722656 C 262.78125 175.710938 263.449219 176.390625 263.285156 176.898438 C 263.175781 177.238281 263.257812 177.550781 263.207031 177.863281 C 263.039062 178.835938 262.964844 179.8125 262.902344 180.792969 C 262.824219 181.96875 262.628906 183.136719 262.679688 184.320312 C 262.6875 184.457031 262.609375 184.640625 262.820312 184.710938 C 262.90625 184.886719 262.832031 185.035156 262.75 185.1875 C 262.53125 185.339844 262.554688 185.558594 262.628906 185.757812 C 262.773438 186.160156 262.820312 186.585938 262.910156 187.066406 C 263.039062 186.851562 263.132812 186.6875 263.230469 186.519531 C 263.570312 186.589844 263.730469 186.304688 263.964844 186.164062 C 263.996094 186.136719 264.023438 186.105469 264.054688 186.078125 C 264.054688 186.078125 264.035156 186.074219 264.035156 186.074219 C 264.324219 186.144531 264.40625 186.429688 264.589844 186.613281 C 264.859375 187.878906 264.542969 189.140625 264.558594 190.410156 C 264.574219 191.507812 264.332031 192.601562 264.332031 193.703125 C 264.332031 193.96875 264.421875 194.210938 264.699219 194.261719 C 264.980469 194.3125 265.195312 194.144531 265.308594 193.886719 C 265.398438 193.679688 265.464844 193.460938 265.539062 193.25 C 265.621094 193.242188 265.667969 193.195312 265.71875 193.132812 C 266.023438 192.78125 266.238281 192.339844 266.695312 192.132812 C 266.960938 192.1875 267.210938 192.136719 267.453125 192.035156 C 267.484375 191.984375 267.519531 191.933594 267.550781 191.882812 L 267.558594 191.867188 C 268.140625 191.421875 268.515625 190.835938 268.746094 190.148438 C 269.535156 188.949219 270.484375 187.894531 271.609375 186.996094 C 271.671875 187.003906 271.726562 187.007812 271.785156 187.015625 C 271.792969 187.050781 271.796875 187.082031 271.800781 187.117188 C 271.851562 187.246094 271.773438 187.390625 271.871094 187.5 Z M 269.660156 215.496094 C 269.667969 215.421875 269.660156 215.355469 269.570312 215.335938 C 269.601562 215.386719 269.628906 215.441406 269.660156 215.496094 Z M 269.660156 215.496094 " fill-opacity="1" fill-rule="nonzero"/><path fill="#61381f" d="M 237.242188 185.804688 C 237.167969 186.183594 237.089844 186.566406 237.019531 186.949219 C 236.96875 187.214844 236.804688 187.398438 236.59375 187.546875 C 236.144531 187.609375 235.992188 187.3125 235.957031 186.960938 C 235.851562 185.871094 235.664062 184.773438 235.726562 183.6875 C 235.769531 183.011719 235.246094 182.65625 235.1875 182.074219 C 235.132812 181.542969 234.820312 181.0625 234.667969 180.554688 C 234.472656 179.878906 234.433594 179.15625 234.382812 178.445312 C 234.328125 177.636719 234.429688 176.839844 234.808594 176.101562 C 235.796875 175.746094 236.648438 175.207031 237.285156 174.351562 C 237.421875 174.171875 237.59375 173.960938 237.867188 173.941406 C 238 174.109375 238.023438 174.289062 237.9375 174.484375 C 237.753906 174.894531 237.710938 175.339844 237.617188 175.773438 C 237.410156 177.371094 237.304688 178.972656 237.3125 180.582031 C 237.316406 181.179688 237.472656 181.777344 237.488281 182.382812 C 237.5 182.824219 237.328125 183.253906 237.449219 183.695312 C 237.3125 184.394531 237.261719 185.097656 237.242188 185.804688 Z M 262.785156 185.578125 C 262.664062 186.011719 262.851562 186.320312 263.230469 186.527344 C 263.570312 186.597656 263.734375 186.308594 263.96875 186.167969 C 263.996094 186.140625 264.023438 186.113281 264.054688 186.082031 C 264.054688 186.082031 264.035156 186.082031 264.035156 186.082031 C 264.097656 185.820312 264.289062 185.652344 264.5 185.390625 C 264.535156 185.859375 264.5625 186.238281 264.589844 186.617188 C 264.859375 187.886719 264.542969 189.148438 264.558594 190.417969 C 264.574219 191.515625 264.332031 192.605469 264.332031 193.710938 C 264.332031 193.972656 264.421875 194.21875 264.699219 194.269531 C 264.980469 194.316406 265.195312 194.152344 265.308594 193.894531 C 265.398438 193.6875 265.464844 193.46875 265.539062 193.253906 C 265.746094 192.847656 265.785156 192.367188 266.179688 192.035156 C 266.457031 191.804688 266.574219 191.851562 266.699219 192.144531 C 266.960938 192.195312 267.210938 192.144531 267.453125 192.042969 C 267.488281 191.992188 267.519531 191.941406 267.550781 191.890625 C 267.550781 191.890625 267.558594 191.875 267.558594 191.875 C 267.730469 191.148438 268.257812 190.667969 268.75 190.160156 C 269.535156 188.957031 270.488281 187.902344 271.613281 187.003906 C 271.746094 186.78125 271.796875 186.558594 271.601562 186.339844 C 271.464844 186.183594 271.519531 185.996094 271.542969 185.816406 C 271.636719 185.039062 271.613281 184.257812 271.636719 183.476562 C 271.601562 183.242188 271.566406 183.011719 271.53125 182.78125 C 271.457031 182.535156 271.332031 182.324219 271.132812 182.164062 C 270.648438 182.203125 270.410156 181.917969 270.328125 181.5 C 270.296875 181.351562 270.203125 181.273438 270.140625 181.160156 C 270.105469 181.121094 270.074219 181.078125 270.039062 181.035156 C 270.039062 181.035156 270.046875 181.042969 270.046875 181.042969 C 270.015625 181.007812 269.984375 180.972656 269.953125 180.941406 C 269.953125 180.941406 269.957031 180.945312 269.957031 180.945312 C 269.285156 180.195312 268.542969 179.503906 267.808594 178.824219 C 267.023438 178.09375 266.28125 177.308594 265.421875 176.660156 C 265.15625 176.457031 264.847656 176.308594 264.5 176.332031 C 264.289062 176.347656 264.238281 176.226562 264.195312 176.074219 C 264.074219 176.023438 263.953125 175.976562 263.835938 175.925781 C 263.621094 176.011719 263.5 176.132812 263.480469 176.394531 C 263.371094 177.839844 263.269531 179.285156 263.109375 180.726562 C 262.964844 182.050781 263.015625 183.390625 262.824219 184.714844 C 262.90625 184.890625 262.835938 185.042969 262.753906 185.191406 C 262.765625 185.320312 262.828125 185.4375 262.785156 185.578125 Z M 262.785156 185.578125 " fill-opacity="1" fill-rule="nonzero"/><g clip-path="url(#aeec78b92b)"><path fill="#ffce45" d="M 283.75 225.695312 C 284.105469 225.882812 284.449219 226.113281 284.824219 226.25 C 286.171875 226.734375 287.328125 227.527344 288.414062 228.425781 C 290.523438 230.167969 292.398438 232.15625 294.253906 234.152344 C 295.097656 235.0625 295.765625 236.128906 296.515625 237.125 C 296.941406 237.679688 297.46875 238.144531 297.882812 238.714844 C 299.109375 240.378906 300.386719 242.007812 301.398438 243.820312 C 302.03125 244.949219 302.640625 246.089844 303.3125 247.191406 C 303.757812 247.917969 304.125 248.679688 304.519531 249.429688 C 304.800781 249.96875 304.839844 250.570312 305.066406 251.121094 C 305.078125 251.144531 305.074219 251.183594 305.066406 251.210938 C 304.703125 252.261719 305.453125 253.058594 305.734375 253.945312 C 306.226562 255.511719 306.863281 257.035156 307.011719 258.695312 C 307.070312 259.335938 307.316406 259.9375 307.484375 260.550781 C 307.667969 261.226562 307.941406 261.878906 307.917969 262.59375 C 307.90625 262.929688 308.097656 263.203125 308.179688 263.507812 C 308.734375 265.570312 309.6875 267.476562 310.492188 269.445312 C 310.914062 270.476562 311.335938 271.527344 311.511719 272.636719 C 311.585938 273.085938 311.789062 273.453125 312.015625 273.796875 C 312.515625 274.550781 312.976562 275.332031 313.394531 276.128906 C 314.019531 277.316406 314.683594 278.488281 315.144531 279.769531 C 315.457031 280.644531 315.941406 281.453125 316.355469 282.289062 C 316.855469 283.292969 317.183594 284.335938 317.429688 285.433594 C 317.605469 286.203125 317.671875 286.976562 317.828125 287.742188 C 318.0625 288.855469 317.703125 289.175781 316.613281 289.257812 C 316.304688 289.28125 315.992188 289.28125 315.707031 289.371094 C 314.539062 289.738281 313.328125 289.863281 312.125 289.980469 C 311.273438 290.066406 310.40625 290.027344 309.546875 290.078125 C 308.632812 290.128906 307.730469 290.285156 306.816406 290.328125 C 306.039062 290.363281 305.273438 290.492188 304.503906 290.570312 C 302.417969 290.777344 300.296875 290.761719 298.265625 291.335938 C 296.808594 291.746094 295.300781 291.886719 293.839844 292.261719 C 293.179688 292.429688 292.496094 292.4375 291.832031 292.597656 C 291.0625 292.785156 290.367188 293.167969 289.605469 293.378906 C 288.40625 293.703125 287.265625 294.210938 286.109375 294.664062 C 285.128906 295.046875 284.179688 295.542969 283.179688 295.871094 C 282.714844 296.023438 282.289062 296.261719 281.820312 296.386719 C 281.492188 296.476562 281.199219 296.6875 280.929688 296.859375 C 280.363281 297.222656 279.71875 297.382812 279.136719 297.714844 C 278.398438 298.136719 277.554688 298.453125 276.742188 298.773438 C 275.777344 299.15625 274.863281 299.679688 273.878906 299.972656 C 272.84375 300.28125 271.832031 300.660156 270.738281 300.824219 C 269.617188 300.996094 268.488281 301.144531 267.382812 301.464844 C 266.574219 301.703125 265.679688 301.632812 264.839844 301.800781 C 263.671875 302.035156 262.492188 301.960938 261.320312 301.992188 C 260.042969 302.03125 258.765625 301.9375 257.488281 301.953125 C 256.433594 301.964844 255.402344 301.710938 254.359375 301.710938 C 252.984375 301.707031 251.660156 301.339844 250.308594 301.195312 C 248.96875 301.054688 247.648438 300.8125 246.371094 300.394531 C 245.597656 300.140625 244.804688 299.882812 244.015625 299.925781 C 243.140625 299.976562 242.40625 299.515625 241.5625 299.523438 C 240.492188 299.527344 239.464844 299.191406 238.429688 298.972656 C 237.59375 298.792969 236.757812 298.550781 235.921875 298.351562 C 234.914062 298.113281 233.960938 297.726562 232.976562 297.433594 C 231.996094 297.144531 231.027344 296.75 230.0625 296.378906 C 229.386719 296.121094 228.710938 295.769531 227.953125 295.707031 C 227.222656 295.652344 226.617188 295.214844 225.949219 294.96875 C 224.921875 294.589844 223.917969 294.148438 222.886719 293.777344 C 222.296875 293.566406 221.761719 293.25 221.171875 293.042969 C 220.265625 292.722656 219.363281 292.359375 218.496094 291.941406 C 217.976562 291.691406 217.382812 291.617188 216.902344 291.320312 C 215.964844 290.75 214.867188 290.539062 213.941406 289.957031 C 213.667969 289.785156 213.347656 289.722656 213.0625 289.613281 C 212.304688 289.324219 211.714844 288.800781 211.082031 288.355469 C 210.503906 287.953125 209.882812 287.785156 209.230469 287.636719 C 208.488281 287.472656 207.730469 287.144531 207.238281 286.679688 C 206.414062 285.890625 205.398438 285.777344 204.4375 285.429688 C 204.183594 285.339844 203.921875 285.246094 203.6875 285.109375 C 203.339844 284.90625 203.035156 284.671875 202.566406 284.753906 C 202.355469 284.789062 202.089844 284.554688 201.863281 284.417969 C 201.808594 284.382812 201.769531 284.195312 201.800781 284.171875 C 202.078125 283.945312 202.027344 283.5625 202.308594 283.289062 C 202.835938 282.78125 203.113281 282.058594 203.296875 281.363281 C 203.730469 279.707031 204.253906 278.082031 205.007812 276.546875 C 205.632812 275.285156 206.101562 273.976562 206.390625 272.609375 C 206.558594 271.824219 206.597656 271.011719 206.820312 270.234375 C 207.078125 269.34375 207.390625 268.464844 207.621094 267.566406 C 207.765625 267 207.800781 266.402344 207.890625 265.824219 C 208.058594 264.757812 208.359375 263.71875 208.75 262.71875 C 209.214844 261.53125 209.609375 260.324219 210.144531 259.160156 C 210.613281 258.148438 211.003906 257.082031 211.253906 255.980469 C 211.359375 255.535156 211.5625 255.09375 211.804688 254.699219 C 212.328125 253.847656 212.640625 252.894531 213.128906 252.027344 C 214.050781 250.398438 214.660156 248.601562 215.949219 247.183594 C 216.335938 246.753906 216.355469 246.136719 216.535156 245.609375 C 216.890625 244.5625 217.253906 243.519531 217.636719 242.480469 C 218.246094 240.816406 219.003906 239.210938 219.777344 237.617188 C 220.386719 236.367188 221.242188 235.285156 222.054688 234.175781 C 223.269531 232.523438 224.753906 231.117188 226.207031 229.691406 C 226.515625 229.386719 226.878906 229.148438 227.351562 229.066406 C 227.679688 229.007812 227.988281 228.78125 228.28125 228.59375 C 229.265625 227.953125 230.339844 227.496094 231.40625 227.011719 C 232.222656 226.640625 232.972656 226.132812 233.800781 225.78125 C 234.570312 225.453125 235.34375 225.132812 236.101562 224.777344 C 236.667969 224.515625 237.21875 224.21875 237.761719 223.910156 C 238.894531 223.261719 240.011719 222.609375 241.324219 222.351562 C 241.863281 222.246094 242.355469 221.914062 242.917969 221.808594 C 243.148438 221.765625 243.28125 221.507812 243.4375 221.351562 C 243.789062 220.988281 244.207031 220.714844 244.574219 220.375 C 245.285156 219.71875 246.074219 219.203125 247.105469 219.265625 C 247.316406 219.277344 247.527344 219.3125 247.738281 219.339844 C 247.863281 219.648438 247.9375 219.722656 248.378906 219.886719 C 249.496094 220.300781 250.796875 220.070312 251.921875 220.027344 C 252.84375 219.992188 253.46875 219.78125 254.378906 219.625 C 254.628906 219.585938 254.976562 219.511719 255.214844 219.414062 C 255.613281 219.257812 255.9375 219.183594 256.386719 219.304688 C 256.621094 219.367188 257.121094 219.113281 257.367188 219.082031 C 257.730469 219.035156 258.136719 218.984375 258.511719 218.941406 C 259.097656 218.875 259.398438 218.789062 259.96875 218.632812 C 260.945312 218.367188 261.890625 218.355469 262.820312 217.957031 C 263.457031 217.6875 264.148438 217.5625 264.742188 217.191406 C 265.378906 216.988281 266.035156 216.832031 266.644531 216.566406 C 267.117188 216.359375 267.632812 216.136719 267.851562 215.589844 C 268.03125 215.597656 268.183594 215.582031 268.347656 215.464844 C 268.570312 215.304688 268.828125 215.167969 269.132812 215.207031 C 269.222656 215.214844 269.3125 215.21875 269.402344 215.222656 C 269.417969 215.28125 269.460938 215.304688 269.519531 215.292969 C 269.539062 215.304688 269.558594 215.320312 269.574219 215.339844 C 269.605469 215.394531 269.632812 215.445312 269.664062 215.5 C 269.707031 215.597656 269.75 215.695312 269.792969 215.792969 C 269.738281 215.929688 269.707031 216.078125 269.632812 216.203125 C 269.5 216.433594 269.457031 216.617188 269.769531 216.730469 C 269.824219 216.75 269.839844 216.855469 269.886719 216.914062 C 270.324219 217.523438 270.792969 218.101562 271.417969 218.539062 L 271.425781 218.546875 C 271.507812 218.773438 271.714844 218.839844 271.910156 218.925781 C 271.925781 218.945312 271.9375 218.964844 271.949219 218.988281 L 271.9375 219.019531 L 271.9375 218.988281 C 272.003906 218.980469 272.070312 218.972656 272.136719 218.964844 C 272.171875 218.945312 272.207031 218.925781 272.242188 218.90625 C 272.4375 218.769531 272.554688 218.886719 272.714844 219.003906 C 273.199219 219.363281 273.675781 219.746094 274.207031 220.015625 C 275.085938 220.453125 276.082031 220.605469 276.953125 221.082031 C 277.40625 221.328125 278.015625 221.339844 278.203125 221.964844 C 278.21875 222.015625 278.332031 222.035156 278.394531 222.074219 C 278.992188 222.460938 279.691406 222.664062 280.277344 223.078125 C 280.644531 223.339844 281.167969 223.492188 281.390625 223.839844 C 281.972656 224.738281 282.960938 225.082031 283.75 225.695312 Z M 269.492188 215.132812 C 269.460938 215.160156 269.429688 215.191406 269.398438 215.222656 C 269.433594 215.21875 269.464844 215.210938 269.5 215.207031 C 269.496094 215.183594 269.496094 215.15625 269.492188 215.132812 Z M 269.492188 215.132812 " fill-opacity="1" fill-rule="nonzero"/></g><g clip-path="url(#7ecbabf60b)"><path fill="#000000" d="M 236.445312 171.503906 C 236.054688 172.035156 235.605469 172.519531 235.183594 173.023438 C 235.125 172.988281 235.066406 172.949219 235.011719 172.914062 C 235.15625 172.621094 235.289062 172.316406 235.449219 172.03125 C 236.535156 170.117188 237.679688 168.234375 238.703125 166.289062 C 239.371094 165.019531 240.382812 164.457031 241.75 164.300781 C 243.539062 164.097656 245.304688 163.757812 246.992188 163.105469 C 247.515625 162.902344 248.011719 162.636719 248.527344 162.410156 C 248.667969 162.34375 248.824219 162.3125 248.972656 162.265625 C 249.007812 162.300781 249.046875 162.335938 249.082031 162.375 C 249.007812 162.507812 248.964844 162.6875 248.851562 162.765625 C 248.402344 163.074219 247.957031 163.394531 247.464844 163.621094 C 246.140625 164.234375 244.800781 164.8125 243.453125 165.382812 C 242.96875 165.585938 242.449219 165.71875 241.953125 165.902344 C 240.796875 166.328125 240.015625 167.230469 239.144531 168.039062 C 238.050781 169.054688 237.316406 170.324219 236.445312 171.503906 Z M 286.484375 238.566406 C 287.042969 237.519531 287.546875 236.441406 288.0625 235.371094 C 288.171875 235.152344 288.253906 234.90625 287.917969 234.710938 C 287.839844 234.808594 287.746094 234.902344 287.683594 235.011719 C 286.238281 237.578125 284.78125 240.136719 283.355469 242.710938 C 282.558594 244.144531 281.785156 245.589844 281.066406 247.0625 C 280.429688 248.375 279.871094 249.726562 279.300781 251.070312 C 278.417969 253.144531 277.820312 255.300781 277.4375 257.511719 C 277.160156 259.121094 276.945312 260.746094 276.777344 262.371094 C 276.597656 264.0625 276.417969 265.761719 276.402344 267.457031 C 276.378906 269.898438 276.257812 272.324219 275.949219 274.746094 C 275.667969 276.964844 275.234375 279.144531 274.449219 281.234375 C 273.691406 283.242188 273.066406 285.277344 272.78125 287.398438 C 272.589844 288.839844 272.492188 290.292969 272.363281 291.742188 C 272.230469 293.199219 272.109375 294.660156 271.996094 296.121094 C 271.984375 296.28125 272.070312 296.453125 272.113281 296.617188 C 272.167969 296.617188 272.21875 296.613281 272.273438 296.613281 C 272.332031 296.480469 272.410156 296.351562 272.4375 296.210938 C 272.566406 295.589844 272.722656 294.964844 272.792969 294.335938 C 273.03125 292.191406 273.28125 290.046875 273.441406 287.894531 C 273.605469 285.78125 274.257812 283.796875 274.953125 281.828125 C 275.546875 280.15625 276.121094 278.480469 276.363281 276.730469 C 276.667969 274.554688 276.878906 272.367188 277.035156 270.179688 C 277.171875 268.3125 277.121094 266.429688 277.25 264.5625 C 277.367188 262.820312 277.546875 261.082031 277.8125 259.355469 C 278.128906 257.3125 278.464844 255.261719 279.238281 253.320312 C 279.96875 251.488281 280.625 249.625 281.453125 247.835938 C 282.296875 246.027344 283.296875 244.289062 284.253906 242.535156 C 284.980469 241.199219 285.765625 239.902344 286.484375 238.566406 Z M 298.644531 266.585938 C 298.191406 268.261719 297.628906 269.890625 296.742188 271.394531 C 295.984375 272.683594 295.25 273.996094 294.40625 275.230469 C 293.125 277.117188 291.445312 278.675781 289.90625 280.351562 C 289.542969 280.746094 289.222656 281.179688 288.882812 281.59375 C 288.929688 281.644531 288.976562 281.691406 289.023438 281.742188 C 289.214844 281.632812 289.429688 281.550781 289.589844 281.402344 C 290.4375 280.613281 291.28125 279.824219 292.105469 279.011719 C 293.417969 277.714844 294.617188 276.308594 295.574219 274.734375 C 296.488281 273.234375 297.378906 271.707031 298.121094 270.117188 C 298.617188 269.046875 298.851562 267.851562 299.160156 266.703125 C 299.214844 266.511719 299.0625 266.265625 299.003906 266.046875 C 298.882812 266.222656 298.699219 266.386719 298.644531 266.585938 Z M 293.203125 268.328125 C 293.9375 266.832031 294.578125 265.28125 295.207031 263.734375 C 295.710938 262.492188 296.21875 261.242188 296.5625 259.953125 C 297.019531 258.246094 297.328125 256.503906 297.667969 254.769531 C 297.84375 253.894531 297.945312 253.003906 298.089844 252.023438 C 298.03125 251.933594 297.9375 251.796875 297.84375 251.660156 C 297.738281 251.785156 297.617188 251.898438 297.53125 252.035156 C 297.480469 252.121094 297.464844 252.234375 297.445312 252.335938 C 297.027344 254.480469 296.707031 256.652344 296.15625 258.765625 C 295.671875 260.613281 294.953125 262.40625 294.289062 264.207031 C 293.390625 266.636719 292.269531 268.96875 290.847656 271.128906 C 289.371094 273.375 287.78125 275.550781 286.171875 277.703125 C 284.898438 279.40625 283.515625 281.023438 282.1875 282.679688 C 281.96875 282.953125 281.722656 283.214844 281.550781 283.515625 C 281.472656 283.652344 281.546875 283.875 281.554688 284.054688 C 281.722656 284.023438 281.894531 284.007812 282.054688 283.957031 C 282.117188 283.9375 282.160156 283.847656 282.207031 283.789062 C 283.269531 282.457031 284.34375 281.136719 285.390625 279.789062 C 286.613281 278.21875 287.816406 276.636719 289.011719 275.050781 C 290.605469 272.929688 292.03125 270.703125 293.203125 268.328125 Z M 259.230469 159.785156 C 259.886719 159.789062 260.542969 159.785156 261.199219 159.785156 C 261.210938 159.75 261.214844 159.71875 261.222656 159.683594 C 260.371094 159.515625 259.519531 159.34375 258.578125 159.15625 C 258.777344 159.078125 258.902344 159.03125 259.027344 158.980469 C 260.65625 158.292969 262.355469 158.179688 264.089844 158.40625 C 264.613281 158.476562 265.132812 158.605469 265.65625 158.675781 C 265.78125 158.691406 265.917969 158.585938 266.050781 158.535156 C 265.96875 158.421875 265.898438 158.292969 265.800781 158.199219 C 265.742188 158.140625 265.636719 158.113281 265.550781 158.097656 C 264.625 157.949219 263.703125 157.722656 262.773438 157.679688 C 261.953125 157.640625 261.09375 157.707031 260.304688 157.925781 C 259.261719 158.210938 258.269531 158.683594 257.265625 159.105469 C 257.128906 159.164062 257.074219 159.402344 256.980469 159.554688 C 257.144531 159.621094 257.304688 159.734375 257.472656 159.742188 C 258.054688 159.773438 258.640625 159.777344 259.230469 159.785156 Z M 318.328125 289.109375 C 318.304688 289.277344 318.046875 289.511719 317.863281 289.550781 C 317.085938 289.710938 316.285156 289.78125 315.503906 289.941406 C 313.21875 290.40625 310.894531 290.4375 308.582031 290.578125 C 306.632812 290.699219 304.6875 290.886719 302.738281 291.023438 C 300.417969 291.183594 298.171875 291.722656 295.910156 292.195312 C 293.457031 292.703125 291.046875 293.359375 288.703125 294.210938 C 286.257812 295.097656 283.867188 296.128906 281.472656 297.148438 C 279.402344 298.03125 277.382812 299.03125 275.304688 299.894531 C 273.355469 300.703125 271.324219 301.25 269.222656 301.503906 C 267.203125 301.746094 265.191406 302.0625 263.167969 302.195312 C 261.53125 302.304688 259.878906 302.21875 258.234375 302.160156 C 256.675781 302.101562 255.117188 301.996094 253.5625 301.859375 C 252.03125 301.722656 250.492188 301.566406 248.972656 301.332031 C 246.613281 300.96875 244.253906 300.589844 241.917969 300.113281 C 240.191406 299.765625 238.492188 299.289062 236.796875 298.8125 C 234.742188 298.230469 232.699219 297.589844 230.65625 296.960938 C 229.222656 296.515625 227.804688 296.015625 226.363281 295.589844 C 223.613281 294.777344 221.066406 293.472656 218.414062 292.421875 C 217.355469 292.003906 216.277344 291.628906 215.246094 291.15625 C 214.003906 290.589844 212.804688 289.929688 211.574219 289.324219 C 209.269531 288.195312 207.074219 286.851562 204.613281 286.042969 C 203.628906 285.71875 202.707031 285.195312 201.757812 284.757812 C 201.445312 284.617188 201.398438 284.398438 201.527344 284.085938 C 201.980469 283.007812 202.421875 281.921875 202.855469 280.832031 C 203.578125 279.023438 204.308594 277.214844 205.003906 275.394531 C 205.417969 274.304688 205.820312 273.203125 206.140625 272.082031 C 207.097656 268.730469 207.976562 265.359375 208.957031 262.011719 C 209.441406 260.359375 210.042969 258.742188 210.644531 257.128906 C 211.148438 255.78125 211.671875 254.4375 212.28125 253.136719 C 212.867188 251.890625 213.597656 250.714844 214.222656 249.488281 C 215.058594 247.835938 215.859375 246.175781 216.363281 244.378906 C 216.664062 243.320312 217.113281 242.300781 217.496094 241.269531 C 218.203125 239.375 219.101562 237.570312 220.253906 235.917969 C 221.136719 234.648438 222.140625 233.464844 223.144531 232.285156 C 224.300781 230.929688 225.59375 229.695312 227.113281 228.746094 C 228.15625 228.09375 229.222656 227.460938 230.332031 226.929688 C 231.683594 226.273438 233.105469 225.761719 234.476562 225.136719 C 235.957031 224.464844 237.410156 223.734375 238.878906 223.03125 C 239.933594 222.527344 240.988281 222.03125 242.039062 221.519531 C 243.523438 220.792969 245.007812 220.066406 246.234375 218.917969 C 246.511719 218.660156 246.792969 218.390625 247.113281 218.195312 C 247.992188 217.660156 247.96875 216.757812 247.996094 215.941406 C 248.042969 214.410156 247.96875 212.875 247.945312 211.285156 C 247.128906 211.105469 246.453125 210.949219 245.773438 210.804688 C 244.734375 210.582031 243.679688 210.378906 242.777344 209.773438 C 242.359375 209.496094 241.984375 209.164062 241.589844 208.855469 C 240.824219 208.257812 240.050781 207.667969 239.292969 207.058594 C 238.375 206.320312 237.847656 205.304688 237.453125 204.234375 C 236.933594 202.8125 236.425781 201.375 236.054688 199.90625 C 235.667969 198.382812 235.597656 196.800781 235.667969 195.226562 C 235.726562 194.007812 235.753906 192.789062 235.851562 191.578125 C 235.921875 190.730469 236.097656 189.890625 236.214844 189.046875 C 236.234375 188.90625 236.269531 188.710938 236.195312 188.621094 C 235.566406 187.835938 235.664062 186.910156 235.621094 186 C 235.589844 185.3125 235.574219 184.605469 235.414062 183.9375 C 235.316406 183.523438 234.992188 183.144531 234.71875 182.792969 C 233.847656 181.664062 232.605469 181.085938 231.324219 180.574219 C 230.519531 180.253906 229.707031 179.957031 228.917969 179.609375 C 228.730469 179.523438 228.554688 179.289062 228.488281 179.082031 C 228.226562 178.292969 228.457031 177.535156 228.8125 176.84375 C 229.488281 175.519531 230.300781 174.261719 230.917969 172.917969 C 231.496094 171.675781 231.898438 170.351562 232.367188 169.0625 C 232.457031 168.820312 232.449219 168.546875 232.550781 168.3125 C 232.757812 167.84375 232.703125 167.378906 232.667969 166.886719 C 232.558594 165.257812 232.589844 163.617188 233.382812 162.132812 C 234.125 160.75 235.316406 159.84375 236.828125 159.386719 C 237.21875 159.269531 237.644531 159.246094 238.011719 159.082031 C 238.300781 158.953125 238.574219 158.710938 238.777344 158.460938 C 239.496094 157.574219 240.503906 157.066406 241.394531 156.40625 C 241.773438 156.125 242.203125 155.882812 242.5 155.53125 C 243.628906 154.195312 245.183594 153.628906 246.742188 153.046875 C 248.121094 152.539062 249.546875 152.316406 251.007812 152.398438 C 251.773438 152.441406 252.535156 152.636719 253.296875 152.769531 C 255.347656 153.125 257.402344 153.488281 259.453125 153.839844 C 261.671875 154.21875 263.835938 154.761719 265.921875 155.617188 C 267.480469 156.261719 269.066406 156.835938 270.605469 157.519531 C 271.808594 158.050781 273.015625 158.617188 274.109375 159.335938 C 275.183594 160.035156 275.8125 161.171875 276.40625 162.296875 C 277.1875 163.785156 277.953125 165.285156 278.804688 166.730469 C 279.519531 167.949219 280.050781 169.234375 280.039062 170.628906 C 280.027344 171.957031 280.40625 173.160156 280.765625 174.390625 C 281.328125 176.335938 281.964844 178.265625 282.398438 180.238281 C 282.796875 182.027344 283.0625 183.859375 283.203125 185.6875 C 283.394531 188.195312 283.433594 190.71875 283.492188 193.234375 C 283.535156 194.953125 283.449219 196.675781 283.515625 198.394531 C 283.570312 199.910156 283.722656 201.429688 283.890625 202.941406 C 284.117188 204.960938 284.050781 206.964844 283.738281 208.96875 C 283.410156 211.078125 282.984375 213.1875 283.171875 215.335938 C 283.304688 216.878906 283.519531 218.414062 283.742188 219.949219 C 283.914062 221.105469 284.171875 222.25 284.351562 223.40625 C 284.449219 224.035156 284.492188 224.675781 284.503906 225.3125 C 284.507812 225.648438 284.621094 225.8125 284.902344 225.984375 C 285.984375 226.636719 287.085938 227.265625 288.097656 228.019531 C 289.265625 228.894531 290.363281 229.871094 291.464844 230.839844 C 292.386719 231.652344 293.304688 232.484375 294.164062 233.367188 C 294.925781 234.152344 295.664062 234.976562 296.316406 235.855469 C 298.007812 238.132812 299.699219 240.417969 301.289062 242.769531 C 302.765625 244.953125 303.898438 247.328125 304.792969 249.804688 C 305.269531 251.128906 305.746094 252.460938 306.132812 253.8125 C 306.769531 256.007812 307.320312 258.226562 307.929688 260.429688 C 308.332031 261.902344 308.742188 263.375 309.207031 264.832031 C 309.859375 266.863281 310.527344 268.894531 311.25 270.90625 C 312.285156 273.765625 313.808594 276.398438 315.152344 279.113281 C 316.105469 281.039062 317.015625 282.988281 317.59375 285.074219 C 317.847656 285.988281 318.101562 286.902344 318.300781 287.832031 C 318.390625 288.246094 318.386719 288.691406 318.328125 289.109375 Z M 278.691406 173.867188 C 277.753906 172.535156 276.425781 171.628906 275.175781 170.621094 C 275.179688 170.75 275.222656 170.855469 275.257812 170.964844 C 275.683594 172.207031 275.96875 173.480469 276.03125 174.792969 C 276.140625 177.222656 275.699219 179.613281 275.449219 182.015625 C 275.316406 183.285156 275.242188 184.558594 275.199219 185.832031 C 275.148438 187.429688 275.160156 189.03125 275.132812 190.628906 C 275.117188 191.664062 275.101562 192.699219 275.058594 193.734375 C 275.011719 194.804688 274.9375 195.875 274.867188 196.945312 C 274.816406 197.6875 274.679688 198.429688 274.691406 199.167969 C 274.707031 200.09375 274.886719 201.019531 274.902344 201.945312 C 274.921875 203.371094 274.875 204.800781 274.820312 206.222656 C 274.800781 206.765625 274.691406 207.304688 274.625 207.84375 C 274.574219 207.839844 274.523438 207.835938 274.472656 207.832031 C 274.113281 205.9375 274.398438 204.007812 274.203125 202.09375 C 273.28125 205.476562 273.207031 208.96875 272.832031 212.4375 C 272.691406 212.027344 272.5625 211.609375 272.570312 211.191406 C 272.59375 209.683594 272.601562 208.167969 272.734375 206.667969 C 272.859375 205.253906 273.050781 203.835938 273.363281 202.449219 C 273.933594 199.9375 274.242188 197.390625 274.472656 194.835938 C 274.59375 193.542969 274.496094 192.234375 274.503906 190.933594 C 274.507812 190.144531 274.527344 189.359375 274.523438 188.574219 C 274.519531 187.375 274.402344 186.167969 274.496094 184.980469 C 274.6875 182.617188 275.023438 180.269531 275.238281 177.90625 C 275.347656 176.691406 275.410156 175.453125 275.339844 174.238281 C 275.261719 172.824219 274.847656 171.464844 274.347656 170.136719 C 274.253906 169.890625 274.097656 169.617188 273.890625 169.472656 C 273.339844 169.082031 272.742188 168.753906 272.164062 168.398438 C 272.164062 169.375 272.273438 170.320312 272.140625 171.226562 C 271.871094 173.054688 271.792969 174.863281 272.109375 176.691406 C 272.21875 177.3125 272.25 177.953125 272.226562 178.582031 C 272.183594 179.691406 271.984375 180.800781 272.003906 181.910156 C 272.03125 183.511719 272.140625 185.113281 272.300781 186.710938 C 272.460938 188.292969 272.410156 189.871094 272.085938 191.414062 C 271.800781 192.773438 271.304688 194.085938 270.953125 195.433594 C 270.605469 196.765625 270.300781 198.109375 270.015625 199.457031 C 269.84375 200.261719 269.742188 201.085938 269.621094 201.902344 C 269.441406 203.074219 269.253906 204.242188 269.105469 205.414062 C 268.972656 206.449219 268.824219 207.488281 268.796875 208.527344 C 268.761719 209.734375 268.71875 210.96875 268.921875 212.152344 C 269.121094 213.332031 269.546875 214.496094 269.996094 215.617188 C 270.542969 216.984375 271.519531 218.046875 272.839844 218.71875 C 274.195312 219.414062 275.59375 220.027344 276.984375 220.65625 C 278.375 221.289062 279.714844 221.996094 280.914062 222.953125 C 281.445312 223.378906 281.984375 223.804688 282.515625 224.226562 C 282.554688 224.210938 282.59375 224.195312 282.632812 224.179688 C 282.558594 223.65625 282.445312 223.140625 282.414062 222.613281 C 282.324219 221.195312 282.199219 219.769531 282.222656 218.351562 C 282.25 216.597656 282.359375 214.84375 282.53125 213.097656 C 282.699219 211.34375 283.050781 209.609375 283.203125 207.855469 C 283.328125 206.464844 283.339844 205.0625 283.28125 203.667969 C 283.222656 202.300781 282.96875 200.945312 282.878906 199.578125 C 282.808594 198.476562 282.867188 197.367188 282.847656 196.261719 C 282.808594 193.761719 282.761719 191.261719 282.707031 188.761719 C 282.683594 187.699219 282.6875 186.625 282.566406 185.570312 C 282.273438 182.996094 281.90625 180.429688 281.121094 177.945312 C 280.824219 177.007812 280.484375 176.09375 279.804688 175.289062 C 279.773438 175.425781 279.734375 175.527344 279.722656 175.625 C 279.59375 177.160156 279.5 178.695312 279.328125 180.226562 C 279.058594 182.613281 279.371094 184.957031 279.757812 187.296875 C 280.027344 188.9375 280.207031 190.574219 279.992188 192.234375 C 279.921875 192.785156 279.832031 193.339844 279.816406 193.894531 C 279.800781 194.546875 279.902344 195.203125 279.871094 195.855469 C 279.824219 196.960938 279.722656 198.066406 279.621094 199.167969 C 279.527344 200.242188 279.46875 201.324219 279.292969 202.386719 C 278.921875 204.648438 278.613281 206.90625 278.683594 209.207031 C 278.742188 211.089844 278.730469 212.972656 278.691406 214.851562 C 278.675781 215.761719 278.535156 216.667969 278.429688 217.574219 C 278.414062 217.71875 278.289062 217.847656 278.214844 217.988281 C 278.171875 217.972656 278.128906 217.957031 278.082031 217.945312 C 278.050781 217.632812 277.992188 217.320312 277.996094 217.007812 C 278.003906 216.261719 278.0625 215.515625 278.0625 214.773438 C 278.0625 212.300781 277.992188 209.832031 278.050781 207.363281 C 278.085938 205.972656 278.3125 204.589844 278.46875 203.207031 C 278.632812 201.761719 278.9375 200.316406 278.960938 198.867188 C 278.988281 197.21875 278.777344 195.566406 278.660156 193.914062 C 278.566406 192.601562 278.414062 191.289062 278.351562 189.972656 C 278.300781 188.828125 278.332031 187.679688 278.335938 186.53125 C 278.339844 185.109375 278.253906 183.679688 278.390625 182.269531 C 278.582031 180.214844 278.96875 178.179688 279.207031 176.128906 C 279.269531 175.550781 279.605469 174.910156 279.082031 174.351562 C 278.945312 174.199219 278.808594 174.039062 278.691406 173.867188 Z M 270.914062 187.136719 C 271.234375 186.914062 271.277344 186.75 271.230469 186.414062 C 271.09375 185.457031 270.976562 184.492188 270.882812 183.527344 C 270.820312 182.871094 270.875 182.21875 270.328125 181.671875 C 269.394531 180.742188 268.523438 179.746094 267.621094 178.78125 C 266.75 177.847656 265.734375 177.117188 264.527344 176.667969 C 264.292969 176.582031 264.0625 176.484375 263.769531 176.371094 C 263.585938 179.722656 262.964844 182.96875 263.265625 186.410156 C 263.5625 186.054688 263.753906 185.769531 264 185.542969 C 264.144531 185.410156 264.386719 185.277344 264.5625 185.304688 C 264.691406 185.328125 264.84375 185.597656 264.867188 185.773438 C 264.917969 186.160156 264.902344 186.554688 264.898438 186.941406 C 264.894531 188.511719 264.886719 190.082031 264.882812 191.652344 C 264.878906 192.402344 264.882812 193.148438 264.882812 193.96875 C 265.179688 193.371094 265.464844 192.824219 265.722656 192.269531 C 266.113281 191.429688 266.523438 191.289062 267.175781 191.789062 C 267.195312 191.804688 267.234375 191.789062 267.351562 191.789062 C 267.789062 191.082031 268.265625 190.347656 268.710938 189.59375 C 269.28125 188.625 269.992188 187.773438 270.914062 187.136719 Z M 256 172.894531 C 257.671875 173.445312 259.339844 174.003906 260.996094 174.585938 C 262.214844 175.011719 263.4375 175.425781 264.613281 175.941406 C 265.476562 176.316406 266.378906 176.730469 267.074219 177.339844 C 267.160156 177.414062 267.242188 177.492188 267.328125 177.566406 C 267.703125 177.882812 268.054688 178.222656 268.382812 178.582031 C 269.109375 179.316406 269.808594 180.082031 270.535156 180.824219 C 270.535156 179.695312 270.441406 178.554688 270.558594 177.4375 C 270.742188 175.6875 271.070312 173.957031 271.324219 172.214844 C 271.390625 171.765625 271.339844 171.40625 270.964844 170.996094 C 269.875 169.808594 268.601562 168.84375 267.394531 167.792969 C 265.863281 166.460938 264.125 165.601562 262.105469 165.308594 C 260.941406 165.136719 259.78125 164.941406 258.621094 164.769531 C 257.492188 164.601562 256.363281 164.453125 255.238281 164.300781 C 253.953125 164.125 252.660156 163.992188 251.386719 163.769531 C 250.292969 163.578125 249.230469 163.582031 248.3125 164.238281 C 247.191406 165.039062 246.089844 165.886719 245.070312 166.816406 C 243.484375 168.261719 241.96875 169.785156 240.4375 171.292969 C 240.027344 171.699219 239.679688 172.167969 239.300781 172.605469 C 239.519531 172.574219 239.695312 172.492188 239.867188 172.40625 C 240.964844 171.859375 242.175781 171.929688 243.339844 171.746094 C 244.480469 171.566406 245.660156 171.5 246.742188 171.144531 C 248.1875 170.667969 249.546875 170.890625 250.910156 171.273438 C 252.621094 171.757812 254.308594 172.335938 256 172.894531 Z M 239.117188 158.890625 C 239.398438 158.953125 239.621094 158.917969 239.84375 158.914062 C 240.882812 158.898438 241.921875 158.875 242.960938 158.886719 C 244.453125 158.90625 245.949219 158.890625 247.4375 159.011719 C 249.097656 159.144531 250.761719 159.339844 252.402344 159.644531 C 254.324219 160.003906 256.230469 160.46875 258.125 160.96875 C 259.644531 161.371094 261.003906 162.15625 262.320312 163.003906 C 263.324219 163.652344 264.222656 164.414062 264.96875 165.355469 C 265.027344 165.429688 265.121094 165.511719 265.214844 165.53125 C 266.269531 165.773438 267.316406 166.082031 268.382812 166.214844 C 269.636719 166.375 270.757812 166.871094 271.859375 167.40625 C 273.5625 168.238281 275.042969 169.40625 276.445312 170.679688 C 277.148438 171.320312 277.882812 171.933594 278.644531 172.59375 C 278.703125 171.953125 278.832031 171.355469 278.789062 170.777344 C 278.671875 169.179688 278.578125 167.59375 277.664062 166.152344 C 276.824219 164.828125 276.1875 163.371094 275.441406 161.984375 C 274.914062 161.011719 274.273438 160.101562 273.273438 159.574219 C 272.050781 158.929688 270.800781 158.332031 269.527344 157.800781 C 266.875 156.6875 264.21875 155.574219 261.394531 154.960938 C 260.132812 154.6875 258.847656 154.507812 257.574219 154.28125 C 256.238281 154.046875 254.894531 153.863281 253.578125 153.550781 C 251.394531 153.035156 249.246094 152.804688 247.078125 153.625 C 245.777344 154.121094 244.46875 154.570312 243.425781 155.539062 C 242.964844 155.964844 242.515625 156.402344 242.015625 156.769531 C 241.359375 157.257812 240.652344 157.675781 239.980469 158.144531 C 239.671875 158.363281 239.40625 158.640625 239.117188 158.890625 Z M 232.882812 169.96875 C 232.425781 171.066406 232 172.257812 231.445312 173.386719 C 230.851562 174.601562 230.125 175.746094 229.488281 176.941406 C 229.285156 177.316406 229.195312 177.753906 229.054688 178.160156 C 229.109375 178.179688 229.160156 178.195312 229.214844 178.214844 C 231.820312 176.054688 232.878906 173.207031 232.882812 169.96875 Z M 234.445312 175.929688 C 235.578125 175.378906 236.539062 174.59375 237.40625 173.710938 C 238.175781 172.917969 238.832031 172.015625 239.605469 171.222656 C 241.175781 169.613281 242.75 168 244.394531 166.46875 C 245.425781 165.511719 246.554688 164.652344 247.703125 163.832031 C 248.613281 163.183594 249.648438 162.886719 250.808594 163.089844 C 251.8125 163.269531 252.832031 163.355469 253.84375 163.484375 C 254.75 163.601562 255.660156 163.722656 256.5625 163.84375 C 257.46875 163.96875 258.375 164.085938 259.277344 164.222656 C 260.40625 164.394531 261.53125 164.574219 262.652344 164.769531 C 263.042969 164.835938 263.429688 164.953125 263.871094 165.0625 C 263.808594 164.957031 263.796875 164.90625 263.761719 164.878906 C 262.628906 163.9375 261.394531 163.136719 260.078125 162.480469 C 258.164062 161.527344 256.113281 160.949219 254.027344 160.582031 C 251.789062 160.1875 249.523438 159.894531 247.257812 159.71875 C 244.066406 159.46875 240.867188 159.410156 237.6875 159.894531 C 236.167969 160.128906 234.976562 160.960938 234.132812 162.234375 C 233.378906 163.375 233.316406 164.695312 233.335938 165.996094 C 233.359375 167.613281 233.542969 169.234375 233.515625 170.851562 C 233.484375 172.449219 233.160156 174.015625 232.339844 175.429688 C 231.910156 176.171875 231.433594 176.882812 230.929688 177.679688 C 231.332031 177.511719 231.722656 177.378906 232.089844 177.1875 C 232.882812 176.785156 233.644531 176.324219 234.445312 175.929688 Z M 236.300781 185.386719 C 236.304688 186.082031 236.300781 186.777344 236.300781 187.472656 C 236.359375 187.464844 236.417969 187.460938 236.472656 187.453125 C 236.523438 187.171875 236.578125 186.890625 236.625 186.605469 C 236.839844 185.304688 237.222656 184.019531 237.136719 182.679688 C 237.082031 181.824219 236.921875 180.972656 236.941406 180.117188 C 236.972656 178.824219 237.09375 177.535156 237.226562 176.25 C 237.285156 175.679688 237.460938 175.125 237.570312 174.628906 C 236.753906 175.195312 235.910156 175.769531 235.085938 176.359375 C 234.9375 176.464844 234.769531 176.640625 234.746094 176.804688 C 234.46875 178.757812 234.585938 180.664062 235.578125 182.421875 C 236.105469 183.355469 236.300781 184.34375 236.300781 185.386719 Z M 247.84375 219.488281 C 248.183594 219.535156 248.511719 219.632812 248.839844 219.625 C 250.269531 219.585938 251.710938 219.589844 253.136719 219.441406 C 254.769531 219.269531 256.398438 219.015625 258.007812 218.679688 C 259.613281 218.347656 261.195312 217.890625 262.773438 217.449219 C 264.828125 216.875 266.691406 215.878906 268.511719 214.796875 C 268.769531 214.640625 268.765625 214.476562 268.703125 214.191406 C 268.445312 212.976562 268.089844 211.753906 268.046875 210.523438 C 267.957031 207.878906 268.410156 205.265625 268.804688 202.65625 C 268.910156 201.953125 269.007812 201.246094 269.097656 200.621094 C 268.574219 200.621094 268.078125 200.652344 267.589844 200.613281 C 266.332031 200.507812 265.210938 199.15625 265.335938 197.910156 C 265.34375 197.796875 265.464844 197.699219 265.53125 197.59375 C 265.640625 197.667969 265.792969 197.714844 265.84375 197.8125 C 265.949219 198.03125 265.976562 198.285156 266.082031 198.503906 C 266.292969 198.953125 266.332031 199.550781 266.914062 199.730469 C 267.550781 199.933594 268.203125 200.089844 268.851562 200.242188 C 268.953125 200.265625 269.171875 200.1875 269.183594 200.121094 C 269.277344 199.730469 269.324219 199.332031 269.40625 198.820312 C 268.578125 199.242188 267.859375 199.105469 267.363281 198.472656 C 266.925781 197.910156 266.386719 197.324219 266.613281 196.480469 C 267.226562 196.390625 267.296875 196.894531 267.488281 197.210938 C 268.054688 198.167969 268.371094 198.339844 269.472656 198.195312 C 269.777344 197.046875 270.078125 195.902344 270.382812 194.753906 C 269.800781 194.644531 269.3125 194.75 268.949219 195.285156 C 268.871094 195.402344 268.65625 195.433594 268.507812 195.507812 C 268.46875 195.335938 268.40625 195.167969 268.398438 195 C 268.394531 194.90625 268.464844 194.800781 268.519531 194.710938 C 268.921875 194.027344 269.554688 193.871094 270.289062 193.921875 C 270.433594 193.929688 270.683594 193.886719 270.707031 193.8125 C 270.996094 192.925781 271.246094 192.027344 271.507812 191.132812 C 271.457031 191.089844 271.410156 191.050781 271.359375 191.003906 C 271.09375 191.117188 270.761719 191.164062 270.578125 191.351562 C 270.027344 191.925781 269.542969 192.566406 269 193.152344 C 268.851562 193.3125 268.523438 193.519531 268.398438 193.457031 C 268.066406 193.300781 268.21875 192.996094 268.386719 192.761719 C 268.714844 192.308594 269.054688 191.863281 269.390625 191.414062 C 269.917969 190.710938 270.566406 190.246094 271.574219 190.351562 C 271.523438 189.457031 271.476562 188.605469 271.429688 187.753906 C 271.382812 187.742188 271.335938 187.730469 271.292969 187.714844 C 270.9375 188.039062 270.515625 188.316406 270.242188 188.699219 C 269.519531 189.710938 268.835938 190.753906 268.1875 191.8125 C 267.628906 192.722656 267.257812 192.859375 266.589844 192.257812 C 266.449219 192.492188 266.296875 192.71875 266.167969 192.953125 C 265.796875 193.601562 265.445312 194.257812 265.066406 194.902344 C 264.941406 195.125 264.789062 195.371094 264.453125 195.25 C 264.148438 195.132812 264.125 194.871094 264.144531 194.601562 C 264.191406 193.875 264.285156 193.144531 264.289062 192.417969 C 264.296875 190.636719 264.261719 188.851562 264.25 187.066406 C 264.246094 186.878906 264.25 186.695312 264.25 186.46875 C 263.976562 186.6875 263.785156 186.859375 263.574219 187.007812 C 263.121094 187.328125 262.71875 187.1875 262.679688 186.644531 C 262.652344 186.3125 262.625 185.980469 262.597656 185.644531 C 262.582031 185.585938 262.574219 185.523438 262.582031 185.460938 C 262.523438 184.714844 262.480469 183.964844 262.527344 183.222656 C 262.675781 180.917969 262.933594 178.621094 263.15625 176.285156 C 263.085938 176.179688 263 176.085938 262.90625 176.003906 C 262.652344 175.914062 262.402344 175.824219 262.148438 175.734375 C 262.117188 175.738281 262.089844 175.734375 262.078125 175.722656 C 262.070312 175.714844 262.066406 175.710938 262.0625 175.703125 C 260.75 175.238281 259.4375 174.769531 258.113281 174.320312 C 256.742188 173.855469 255.363281 173.421875 253.984375 172.992188 C 253.871094 172.957031 253.761719 172.921875 253.648438 172.886719 C 253.617188 172.890625 253.582031 172.890625 253.550781 172.894531 C 253.230469 172.929688 252.890625 172.753906 252.597656 172.558594 C 251.722656 172.289062 250.847656 172.023438 249.964844 171.796875 C 249.210938 171.605469 248.433594 171.40625 247.625 171.621094 C 245.902344 172.082031 244.148438 172.378906 242.371094 172.546875 C 242.082031 172.578125 241.789062 172.570312 241.503906 172.609375 C 240.554688 172.738281 239.742188 173.15625 238.953125 173.679688 C 238.554688 173.941406 238.300781 174.183594 238.21875 174.664062 C 238.039062 175.753906 237.773438 176.828125 237.613281 177.917969 C 237.53125 178.476562 237.597656 179.054688 237.597656 179.640625 C 237.917969 179.625 238.238281 179.574219 238.546875 179.597656 C 239.742188 179.695312 240.890625 179.996094 241.984375 180.484375 C 242.621094 180.769531 243.238281 181.097656 243.851562 181.4375 C 243.953125 181.496094 244.011719 181.695312 244.023438 181.839844 C 244.027344 181.882812 243.796875 182.007812 243.699219 181.988281 C 243.164062 181.878906 242.628906 181.765625 242.117188 181.589844 C 240.675781 181.105469 239.203125 180.910156 237.640625 181.042969 C 237.648438 181.191406 237.664062 181.335938 237.667969 181.476562 C 237.691406 182.371094 237.820312 183.28125 237.710938 184.160156 C 237.6875 184.332031 237.664062 184.507812 237.640625 184.679688 C 237.632812 184.824219 237.613281 184.964844 237.574219 185.105469 C 237.371094 186.371094 237.09375 187.628906 236.894531 188.898438 C 236.558594 191.03125 236.269531 193.167969 236.292969 195.335938 C 236.3125 197.101562 236.390625 198.867188 236.890625 200.566406 C 237.304688 201.976562 237.816406 203.367188 238.402344 204.71875 C 238.757812 205.542969 239.28125 206.300781 240.105469 206.804688 C 240.738281 207.195312 241.296875 207.703125 241.894531 208.152344 C 242.449219 208.574219 242.960938 209.125 243.589844 209.367188 C 244.671875 209.785156 245.835938 210 246.957031 210.320312 C 248.230469 210.679688 249.46875 210.515625 250.683594 210.09375 C 251.761719 209.722656 252.824219 209.304688 253.898438 208.917969 C 255.457031 208.363281 256.886719 207.542969 258.097656 206.453125 C 259.1875 205.476562 260.082031 204.285156 261.070312 203.195312 C 261.175781 203.078125 261.347656 203.019531 261.488281 202.933594 C 261.488281 203.109375 261.492188 203.289062 261.484375 203.464844 C 261.484375 203.507812 261.457031 203.554688 261.433594 203.589844 C 260.542969 205.0625 259.550781 206.445312 258.152344 207.503906 C 255.808594 209.285156 253.089844 210.226562 250.324219 211.058594 C 249.707031 211.246094 249.035156 211.25 248.421875 211.335938 C 249.066406 214.082031 248.878906 216.769531 247.84375 219.488281 Z M 245.894531 220.015625 C 246.269531 220.402344 246.554688 220.828125 246.953125 221.074219 C 248.011719 221.738281 249.203125 222.050781 250.445312 221.902344 C 252.242188 221.691406 254.039062 221.453125 255.808594 221.085938 C 257.726562 220.6875 259.628906 220.191406 261.503906 219.617188 C 263.140625 219.117188 264.734375 218.476562 266.332031 217.851562 C 267.40625 217.429688 268.457031 216.933594 269.53125 216.464844 C 269.53125 216.429688 269.535156 216.394531 269.550781 216.359375 C 269.375 215.953125 269.226562 215.609375 269.101562 215.320312 C 268.519531 215.613281 267.9375 215.90625 267.355469 216.195312 C 267.136719 216.351562 266.882812 216.460938 266.640625 216.566406 C 266.597656 216.589844 266.550781 216.605469 266.507812 216.625 C 266.234375 216.761719 265.960938 216.898438 265.691406 217.035156 C 264.285156 217.75 262.792969 218.21875 261.269531 218.589844 C 259.632812 218.988281 257.996094 219.382812 256.335938 219.664062 C 254.71875 219.941406 253.074219 220.101562 251.4375 220.261719 C 250.660156 220.339844 249.871094 220.339844 249.089844 220.292969 C 248.207031 220.234375 247.28125 220.210938 246.644531 219.398438 C 246.429688 219.574219 246.207031 219.757812 245.894531 220.015625 Z M 317.695312 288.269531 C 317.371094 287.011719 317.125 285.722656 316.679688 284.507812 C 316.054688 282.804688 315.3125 281.140625 314.5625 279.488281 C 313.96875 278.191406 313.242188 276.957031 312.652344 275.660156 C 311.8125 273.816406 310.988281 271.957031 310.253906 270.066406 C 309.585938 268.34375 308.980469 266.59375 308.460938 264.820312 C 307.539062 261.679688 306.75 258.503906 305.828125 255.363281 C 305.183594 253.167969 304.476562 250.984375 303.679688 248.839844 C 302.839844 246.566406 301.671875 244.4375 300.292969 242.449219 C 298.765625 240.25 297.167969 238.101562 295.550781 235.96875 C 294.882812 235.089844 294.113281 234.273438 293.320312 233.5 C 292.144531 232.351562 290.933594 231.230469 289.679688 230.167969 C 288.574219 229.222656 287.414062 228.328125 286.222656 227.488281 C 285.390625 226.90625 284.421875 226.515625 283.597656 225.925781 C 282.277344 224.984375 281.042969 223.921875 279.742188 222.957031 C 278.316406 221.894531 276.726562 221.109375 275.089844 220.410156 C 274.207031 220.035156 273.3125 219.683594 272.449219 219.273438 C 272.269531 219.1875 272.101562 219.09375 271.941406 218.992188 L 271.933594 219.015625 C 271.933594 219.015625 271.933594 218.996094 271.933594 218.988281 C 271.832031 218.925781 271.730469 218.863281 271.632812 218.789062 C 271.605469 218.773438 271.574219 218.75 271.550781 218.726562 C 270.914062 218.257812 270.390625 217.671875 269.976562 217.046875 C 267.992188 217.875 266.042969 218.691406 264.132812 219.488281 C 264.222656 219.734375 264.359375 219.980469 264.410156 220.246094 C 264.777344 222.085938 265.164062 223.925781 265.46875 225.777344 C 265.800781 227.796875 266.082031 229.824219 266.328125 231.855469 C 266.535156 233.558594 266.683594 235.269531 266.8125 236.980469 C 266.910156 238.296875 266.960938 239.621094 266.988281 240.941406 C 267.019531 242.402344 267.007812 243.867188 266.988281 245.328125 C 266.984375 245.660156 266.867188 245.988281 266.804688 246.316406 C 266.757812 246.304688 266.710938 246.296875 266.664062 246.289062 C 266.597656 245.5625 266.511719 244.835938 266.472656 244.109375 C 266.394531 242.640625 266.363281 241.164062 266.265625 239.699219 C 266.101562 237.191406 265.9375 234.683594 265.707031 232.183594 C 265.554688 230.515625 265.324219 228.847656 265.058594 227.191406 C 264.714844 225.046875 264.296875 222.914062 263.921875 220.777344 C 263.851562 220.386719 263.820312 219.988281 263.769531 219.574219 C 263.492188 219.675781 263.15625 219.816406 262.804688 219.914062 C 262.542969 219.988281 262.40625 220.089844 262.363281 220.394531 C 262.175781 221.78125 261.945312 223.160156 261.738281 224.542969 C 261.492188 226.222656 261.214844 227.902344 261.023438 229.59375 C 260.796875 231.597656 260.636719 233.609375 260.46875 235.621094 C 260.355469 237.015625 260.261719 238.414062 260.195312 239.8125 C 260.117188 241.488281 260.0625 243.167969 260.015625 244.84375 C 259.96875 246.398438 259.921875 247.953125 259.921875 249.507812 C 259.921875 251.695312 259.953125 253.886719 259.996094 256.074219 C 260.027344 257.707031 260.078125 259.335938 260.140625 260.964844 C 260.195312 262.339844 260.269531 263.71875 260.351562 265.09375 C 260.46875 267.003906 260.605469 268.910156 260.730469 270.820312 C 260.792969 271.730469 260.847656 272.644531 260.914062 273.554688 C 261.03125 275.148438 261.179688 276.742188 261.269531 278.335938 C 261.355469 279.917969 261.394531 281.5 261.441406 283.085938 C 261.453125 283.429688 261.40625 283.777344 261.386719 284.125 C 261.335938 284.125 261.285156 284.125 261.234375 284.125 C 261.183594 283.558594 261.140625 282.988281 261.085938 282.421875 C 260.953125 281.035156 260.808594 279.648438 260.6875 278.257812 C 260.558594 276.714844 260.460938 275.164062 260.339844 273.621094 C 260.210938 271.992188 260.058594 270.363281 259.933594 268.734375 C 259.839844 267.523438 259.773438 266.308594 259.699219 265.097656 C 259.582031 263.242188 259.433594 261.386719 259.367188 259.535156 C 259.292969 257.464844 259.25 255.398438 259.269531 253.328125 C 259.300781 249.570312 259.363281 245.808594 259.453125 242.046875 C 259.496094 240.28125 259.621094 238.519531 259.726562 236.757812 C 259.804688 235.449219 259.890625 234.140625 260.015625 232.835938 C 260.171875 231.226562 260.359375 229.617188 260.566406 228.011719 C 260.746094 226.625 260.957031 225.246094 261.175781 223.871094 C 261.367188 222.679688 261.589844 221.492188 261.792969 220.324219 C 260.472656 220.648438 259.160156 220.964844 257.851562 221.300781 C 257.730469 221.332031 257.585938 221.476562 257.558594 221.597656 C 257.226562 223.03125 256.871094 224.460938 256.597656 225.90625 C 256.253906 227.742188 255.976562 229.585938 255.671875 231.425781 C 255.445312 232.777344 255.222656 234.128906 254.996094 235.480469 C 254.664062 237.4375 254.332031 239.398438 253.988281 241.355469 C 253.9375 241.640625 253.808594 241.910156 253.714844 242.191406 C 253.664062 242.175781 253.613281 242.164062 253.5625 242.152344 C 254.34375 235.246094 255.296875 228.367188 256.90625 221.570312 C 255.925781 221.773438 254.929688 221.976562 253.921875 222.1875 C 253.304688 224.644531 252.671875 227.105469 252.070312 229.578125 C 251.621094 231.4375 251.175781 233.304688 250.796875 235.179688 C 250.484375 236.742188 250.269531 238.328125 250.019531 239.898438 C 249.777344 241.445312 249.527344 242.988281 249.308594 244.535156 C 249.066406 246.238281 248.871094 247.945312 248.640625 249.644531 C 248.371094 251.632812 248.097656 253.617188 247.804688 255.597656 C 247.546875 257.328125 247.257812 259.046875 246.972656 260.773438 C 246.941406 260.972656 246.855469 261.164062 246.792969 261.363281 C 246.714844 261.1875 246.703125 261.027344 246.714844 260.867188 C 246.839844 259.410156 246.949219 257.949219 247.101562 256.492188 C 247.253906 255.046875 247.441406 253.601562 247.628906 252.15625 C 247.808594 250.753906 248.019531 249.355469 248.199219 247.949219 C 248.339844 246.882812 248.429688 245.8125 248.589844 244.75 C 248.839844 243.039062 249.113281 241.332031 249.398438 239.628906 C 249.6875 237.910156 249.976562 236.191406 250.308594 234.484375 C 250.585938 233.027344 250.902344 231.578125 251.25 230.140625 C 251.703125 228.285156 252.199219 226.441406 252.6875 224.597656 C 252.894531 223.8125 253.121094 223.035156 253.339844 222.257812 C 252.519531 222.355469 251.734375 222.457031 250.949219 222.53125 C 250.675781 222.558594 250.511719 222.644531 250.410156 222.917969 C 250.085938 223.785156 249.714844 224.636719 249.394531 225.507812 C 248.769531 227.203125 248.144531 228.898438 247.558594 230.609375 C 246.984375 232.292969 246.429688 233.980469 245.925781 235.683594 C 245.445312 237.292969 245.015625 238.917969 244.617188 240.550781 C 244.324219 241.746094 244.085938 242.953125 243.871094 244.167969 C 243.585938 245.785156 243.339844 247.40625 243.089844 249.027344 C 242.863281 250.484375 242.648438 251.941406 242.445312 253.402344 C 242.308594 254.410156 242.195312 255.421875 242.066406 256.429688 C 241.875 257.953125 241.667969 259.472656 241.484375 260.996094 C 241.351562 262.148438 241.253906 263.300781 241.132812 264.453125 C 241.027344 265.480469 240.910156 266.507812 240.808594 267.535156 C 240.707031 268.550781 240.628906 269.566406 240.519531 270.578125 C 240.347656 272.191406 240.160156 273.804688 239.976562 275.417969 C 239.871094 276.324219 239.757812 277.226562 239.644531 278.132812 C 239.476562 279.425781 239.320312 280.71875 239.132812 282.007812 C 238.992188 282.921875 238.804688 283.828125 238.636719 284.734375 C 238.566406 284.214844 238.585938 283.714844 238.628906 283.214844 C 238.800781 281.324219 238.980469 279.433594 239.15625 277.542969 C 239.351562 275.492188 239.539062 273.4375 239.742188 271.382812 C 239.90625 269.757812 240.097656 268.136719 240.265625 266.515625 C 240.398438 265.21875 240.492188 263.914062 240.628906 262.617188 C 240.804688 260.976562 241 259.339844 241.195312 257.703125 C 241.386719 256.109375 241.566406 254.511719 241.789062 252.921875 C 242.070312 250.9375 242.375 248.949219 242.691406 246.96875 C 242.910156 245.59375 243.125 244.214844 243.410156 242.851562 C 243.707031 241.425781 244.03125 240.003906 244.425781 238.601562 C 245.121094 236.121094 245.847656 233.648438 246.617188 231.191406 C 247.027344 229.875 247.546875 228.59375 248.03125 227.304688 C 248.371094 226.402344 248.738281 225.507812 249.089844 224.605469 C 249.351562 223.941406 249.613281 223.277344 249.867188 222.636719 C 249.269531 222.515625 248.695312 222.417969 248.132812 222.273438 C 247.898438 222.214844 247.78125 222.238281 247.652344 222.453125 C 246.542969 224.296875 245.332031 226.089844 244.324219 227.992188 C 243.128906 230.242188 242.070312 232.5625 241.023438 234.882812 C 240.15625 236.800781 239.367188 238.753906 238.59375 240.707031 C 237.605469 243.207031 236.667969 245.722656 235.707031 248.230469 C 235.5625 248.617188 235.402344 249 235.25 249.382812 C 235.214844 249.371094 235.175781 249.359375 235.140625 249.347656 C 235.203125 248.984375 235.226562 248.605469 235.335938 248.257812 C 238.242188 239.042969 241.84375 230.140625 247.117188 222.046875 C 246.601562 221.515625 246.050781 220.949219 245.542969 220.429688 C 244.539062 220.953125 243.453125 221.527344 242.359375 222.089844 C 241.105469 222.734375 239.847656 223.382812 238.578125 224 C 237.429688 224.5625 236.292969 225.164062 235.101562 225.609375 C 232.898438 226.429688 230.753906 227.371094 228.730469 228.558594 C 227.027344 229.558594 225.46875 230.734375 224.136719 232.21875 C 222.59375 233.941406 221.082031 235.671875 219.941406 237.695312 C 218.722656 239.867188 217.78125 242.15625 217.046875 244.523438 C 216.492188 246.300781 215.78125 248 214.886719 249.636719 C 214.089844 251.09375 213.261719 252.535156 212.582031 254.050781 C 211.824219 255.738281 211.152344 257.476562 210.566406 259.230469 C 209.859375 261.347656 209.261719 263.5 208.652344 265.648438 C 208.1875 267.28125 207.839844 268.949219 207.339844 270.570312 C 206.769531 272.410156 206.136719 274.234375 205.445312 276.035156 C 204.429688 278.660156 203.34375 281.257812 202.285156 283.863281 C 202.152344 284.183594 202.1875 284.386719 202.558594 284.523438 C 203.910156 285.03125 205.273438 285.515625 206.589844 286.105469 C 208.085938 286.777344 209.542969 287.539062 211.003906 288.289062 C 213.109375 289.371094 215.207031 290.46875 217.429688 291.300781 C 218.597656 291.738281 219.726562 292.269531 220.886719 292.726562 C 223.09375 293.597656 225.292969 294.5 227.527344 295.285156 C 229.460938 295.964844 231.445312 296.519531 233.414062 297.101562 C 235.632812 297.757812 237.847656 298.4375 240.089844 299 C 242.136719 299.511719 244.214844 299.925781 246.292969 300.304688 C 247.871094 300.589844 249.46875 300.785156 251.066406 300.945312 C 253.367188 301.175781 255.675781 301.378906 257.984375 301.503906 C 259.625 301.589844 261.273438 301.59375 262.910156 301.5 C 264.792969 301.398438 266.675781 301.21875 268.535156 300.933594 C 270.089844 300.695312 271.648438 300.355469 273.144531 299.871094 C 274.890625 299.304688 276.589844 298.570312 278.277344 297.847656 C 279.925781 297.144531 281.523438 296.332031 283.164062 295.617188 C 284.34375 295.101562 285.550781 294.636719 286.761719 294.195312 C 288.246094 293.652344 289.730469 293.078125 291.25 292.660156 C 293.535156 292.035156 295.839844 291.472656 298.160156 291.003906 C 299.835938 290.667969 301.550781 290.5 303.253906 290.3125 C 304.378906 290.1875 305.511719 290.171875 306.640625 290.089844 C 308.058594 289.992188 309.476562 289.894531 310.890625 289.765625 C 312.332031 289.636719 313.773438 289.476562 315.210938 289.308594 C 315.960938 289.222656 316.707031 289.105469 317.453125 288.980469 C 317.546875 288.960938 317.664062 288.828125 317.695312 288.722656 C 317.730469 288.582031 317.730469 288.410156 317.695312 288.269531 Z M 260.234375 171.992188 C 260.246094 171.941406 260.261719 171.886719 260.273438 171.832031 C 260.21875 171.785156 260.171875 171.71875 260.109375 171.6875 C 258.425781 170.917969 256.753906 170.128906 255.058594 169.386719 C 254.351562 169.078125 253.613281 168.695312 252.871094 168.660156 C 251.339844 168.59375 249.800781 168.757812 248.265625 168.78125 C 247.492188 168.792969 246.71875 168.714844 245.945312 168.640625 C 245.753906 168.621094 245.535156 168.453125 245.488281 168.746094 C 245.46875 168.875 245.644531 169.136719 245.765625 169.160156 C 246.398438 169.285156 247.042969 169.429688 247.683594 169.429688 C 249.140625 169.425781 250.601562 169.34375 252.0625 169.296875 C 252.730469 169.277344 253.386719 169.304688 254.015625 169.605469 C 255.34375 170.238281 256.671875 170.878906 258.035156 171.433594 C 258.734375 171.714844 259.5 171.8125 260.234375 171.992188 Z M 247.300781 201.875 C 247.148438 201.75 246.882812 201.6875 246.6875 201.71875 C 245.902344 201.847656 245.144531 201.816406 244.40625 201.488281 C 244.296875 201.4375 244.167969 201.378906 244.058594 201.390625 C 243.890625 201.414062 243.691406 201.457031 243.582031 201.570312 C 243.515625 201.640625 243.535156 201.886719 243.609375 201.984375 C 244.089844 202.644531 244.6875 203.128906 245.769531 203.195312 C 246.121094 203.074219 246.675781 202.917969 247.195312 202.6875 C 247.667969 202.480469 247.699219 202.203125 247.300781 201.875 Z M 261.148438 184.210938 C 261.109375 183.558594 260.738281 183.132812 260.191406 182.863281 C 259.300781 182.425781 258.398438 181.996094 257.488281 181.597656 C 257.101562 181.429688 256.683594 181.304688 256.269531 181.242188 C 254.535156 180.980469 252.851562 181.265625 251.203125 181.785156 C 251.0625 181.828125 250.980469 182.039062 250.867188 182.171875 C 251.011719 182.253906 251.15625 182.410156 251.292969 182.40625 C 252.445312 182.355469 253.574219 182.46875 254.707031 182.675781 C 256.75 183.054688 258.835938 183.277344 260.636719 184.46875 C 260.894531 184.636719 261.160156 184.480469 261.148438 184.210938 Z M 251.554688 200.429688 C 251.277344 199.972656 250.996094 199.53125 251.03125 198.953125 C 251.039062 198.84375 250.839844 198.71875 250.738281 198.597656 C 250.625 198.714844 250.445312 198.816406 250.421875 198.953125 C 250.367188 199.199219 250.40625 199.464844 250.40625 199.796875 C 249.152344 199.992188 247.90625 200.167969 246.632812 199.933594 C 245.632812 199.75 244.625 199.488281 243.601562 199.863281 C 243.515625 199.894531 243.332031 199.765625 243.246094 199.664062 C 242.957031 199.335938 242.59375 199.265625 242.207031 199.378906 C 242.046875 199.425781 241.925781 199.605469 241.789062 199.726562 C 241.933594 199.816406 242.082031 199.972656 242.226562 199.972656 C 242.53125 199.972656 242.734375 200.058594 242.910156 200.316406 C 243.101562 200.589844 243.375 200.648438 243.722656 200.554688 C 244.140625 200.4375 244.585938 200.320312 245.007812 200.351562 C 245.898438 200.421875 246.777344 200.671875 247.667969 200.695312 C 248.703125 200.730469 249.742188 200.601562 250.78125 200.542969 C 250.890625 200.546875 250.980469 200.703125 251.113281 200.785156 C 251.257812 200.875 251.441406 200.894531 251.609375 200.945312 C 251.59375 200.773438 251.636719 200.566406 251.554688 200.429688 Z M 256.082031 185.648438 C 255.109375 185.773438 254.339844 186.1875 254.375 187.226562 C 254.378906 187.914062 254.96875 188.464844 255.679688 188.445312 C 256.328125 188.429688 257.179688 187.65625 257.195312 187.070312 C 257.214844 186.445312 256.570312 185.585938 256.082031 185.648438 Z M 261.925781 194.046875 C 261.9375 193.949219 261.820312 193.777344 261.730469 193.753906 C 261.636719 193.726562 261.464844 193.8125 261.402344 193.902344 C 260.921875 194.59375 260.453125 195.289062 260.003906 195.996094 C 259.871094 196.210938 259.8125 196.46875 259.71875 196.707031 C 259.792969 196.75 259.871094 196.796875 259.949219 196.839844 C 260.546875 196.136719 261.164062 195.445312 261.738281 194.726562 C 261.875 194.554688 261.902344 194.28125 261.925781 194.046875 Z M 246.746094 204.570312 C 246.347656 204.449219 245.925781 204.402344 245.523438 204.328125 C 245.046875 204.414062 244.59375 204.472656 244.15625 204.589844 C 244.011719 204.632812 243.910156 204.828125 243.789062 204.953125 C 243.941406 205.035156 244.117188 205.210938 244.246094 205.183594 C 245.054688 205.003906 245.863281 205.074219 246.671875 205.097656 C 246.820312 205.097656 246.96875 205.007812 247.117188 204.960938 C 246.996094 204.824219 246.898438 204.613281 246.746094 204.570312 Z M 242.554688 185.988281 C 242.546875 185.355469 242.210938 184.902344 241.242188 184.882812 C 240.582031 184.871094 240.070312 185.535156 240.097656 186.347656 C 240.113281 186.886719 240.746094 187.480469 241.285156 187.464844 C 241.996094 187.4375 242.496094 186.734375 242.554688 185.988281 Z M 227.222656 235.359375 C 225.980469 237.226562 225.070312 239.265625 224.238281 241.335938 C 223.148438 244.027344 222.089844 246.726562 221.429688 249.5625 C 220.996094 251.421875 220.4375 253.257812 220.105469 255.136719 C 219.613281 257.914062 219.3125 260.726562 218.851562 263.511719 C 218.371094 266.394531 217.789062 269.261719 217.269531 272.136719 C 216.804688 274.703125 216.34375 277.273438 215.914062 279.847656 C 215.660156 281.386719 215.457031 282.9375 215.253906 284.484375 C 215.042969 286.105469 214.855469 287.734375 214.640625 289.5 C 214.707031 289.601562 214.835938 289.785156 214.960938 289.96875 C 215.085938 289.800781 215.28125 289.648438 215.316406 289.464844 C 215.433594 288.875 215.5 288.277344 215.570312 287.683594 C 215.734375 286.304688 215.859375 284.921875 216.058594 283.546875 C 216.390625 281.234375 216.757812 278.921875 217.140625 276.613281 C 217.425781 274.894531 217.75 273.1875 218.074219 271.472656 C 218.253906 270.523438 218.480469 269.582031 218.660156 268.632812 C 218.925781 267.269531 219.191406 265.90625 219.417969 264.535156 C 219.628906 263.246094 219.78125 261.945312 219.96875 260.648438 C 220.082031 259.855469 220.214844 259.058594 220.34375 258.265625 C 220.601562 256.652344 220.777344 255.023438 221.144531 253.433594 C 221.652344 251.238281 222.246094 249.058594 222.917969 246.910156 C 223.445312 245.207031 224.132812 243.546875 224.777344 241.878906 C 225.164062 240.878906 225.5625 239.875 226.027344 238.910156 C 226.632812 237.652344 227.3125 236.425781 227.949219 235.183594 C 228.003906 235.078125 227.984375 234.9375 228 234.816406 C 227.863281 234.84375 227.691406 234.828125 227.59375 234.90625 C 227.445312 235.023438 227.328125 235.195312 227.222656 235.359375 Z M 242.777344 196.863281 C 243.519531 196.820312 244.253906 196.558594 244.988281 196.378906 C 245.355469 196.289062 245.640625 196.074219 246.105469 196.316406 C 246.859375 196.710938 247.722656 196.722656 248.550781 196.441406 C 248.707031 196.390625 248.90625 196.191406 248.914062 196.050781 C 248.917969 195.917969 248.714844 195.746094 248.566406 195.652344 C 248.449219 195.574219 248.273438 195.582031 248.125 195.558594 C 247.859375 195.519531 247.566406 195.542969 247.320312 195.445312 C 246.636719 195.171875 245.992188 195.296875 245.332031 195.511719 C 244.667969 195.730469 244.011719 196.007812 243.328125 196.117188 C 242.300781 196.28125 241.726562 195.988281 241.84375 194.859375 C 241.886719 194.441406 241.980469 194.007812 242.15625 193.628906 C 242.804688 192.207031 243.464844 190.789062 244.179688 189.398438 C 244.824219 188.148438 245.234375 186.847656 245.34375 185.410156 C 245.1875 184.761719 245.046875 184.113281 244.867188 183.472656 C 244.832031 183.359375 244.632812 183.289062 244.511719 183.203125 C 244.453125 183.34375 244.382812 183.488281 244.339844 183.632812 C 244.324219 183.679688 244.375 183.746094 244.390625 183.804688 C 244.785156 185.296875 244.617188 186.765625 244.019531 188.15625 C 243.476562 189.421875 242.78125 190.617188 242.175781 191.855469 C 241.664062 192.910156 241.179688 193.976562 241.179688 195.1875 C 241.179688 196.152344 241.820312 196.917969 242.777344 196.863281 Z M 242.777344 196.863281 " fill-opacity="1" fill-rule="nonzero"/></g><g clip-path="url(#26d83d6286)"><path fill="#b5faff" d="M 187.496094 9.542969 C 89.191406 9.542969 9.542969 89.261719 9.542969 187.496094 C 9.542969 285.730469 89.191406 365.453125 187.496094 365.453125 C 285.804688 365.453125 365.453125 285.730469 365.453125 187.496094 C 365.453125 89.261719 285.804688 9.542969 187.496094 9.542969 Z M 187.496094 354.1875 C 95.433594 354.1875 20.808594 279.558594 20.808594 187.496094 C 20.808594 95.433594 95.433594 20.808594 187.496094 20.808594 C 279.558594 20.808594 354.1875 95.433594 354.1875 187.496094 C 354.1875 279.558594 279.558594 354.1875 187.496094 354.1875 Z M 187.496094 354.1875 " fill-opacity="1" fill-rule="nonzero"/></g></svg>