<svg xmlns="http://www.w3.org/2000/svg" xmlns:xlink="http://www.w3.org/1999/xlink" width="500" zoomAndPan="magnify" viewBox="0 0 375 374.999991" height="500" preserveAspectRatio="xMidYMid meet" version="1.0"><defs><clipPath id="a2868f0c42"><path d="M 12.378906 12.378906 L 362.628906 12.378906 L 362.628906 362.628906 L 12.378906 362.628906 Z M 12.378906 12.378906 " clip-rule="nonzero"/></clipPath><clipPath id="70b6046217"><path d="M 8.59375 9.734375 L 364.09375 9.734375 L 364.09375 365.234375 L 8.59375 365.234375 Z M 8.59375 9.734375 " clip-rule="nonzero"/></clipPath><clipPath id="d704ae1390"><path d="M 199.824219 72.734375 L 314.574219 72.734375 L 314.574219 196.484375 L 199.824219 196.484375 Z M 199.824219 72.734375 " clip-rule="nonzero"/></clipPath><clipPath id="9a733c5823"><path d="M 50 55 L 184.863281 55 L 184.863281 213 L 50 213 Z M 50 55 " clip-rule="nonzero"/></clipPath><clipPath id="e687e04f3f"><path d="M 54 55 L 189.410156 55 L 189.410156 213 L 54 213 Z M 54 55 " clip-rule="nonzero"/></clipPath><clipPath id="225ce73a68"><path d="M 117.667969 78.824219 L 146.167969 78.824219 L 146.167969 107.324219 L 117.667969 107.324219 Z M 117.667969 78.824219 " clip-rule="nonzero"/></clipPath><clipPath id="dc997927fb"><path d="M 53 58 L 183.222656 58 L 183.222656 210 L 53 210 Z M 53 58 " clip-rule="nonzero"/></clipPath><clipPath id="443b78bfdd"><path d="M 91.917969 196.378906 L 286.167969 196.378906 L 286.167969 315.628906 L 91.917969 315.628906 Z M 91.917969 196.378906 " clip-rule="nonzero"/></clipPath></defs><g clip-path="url(#a2868f0c42)"><path fill="#0040ff" d="M 362.613281 187.496094 C 362.613281 190.359375 362.542969 193.226562 362.402344 196.085938 C 362.261719 198.949219 362.050781 201.808594 361.769531 204.660156 C 361.488281 207.511719 361.136719 210.355469 360.714844 213.191406 C 360.296875 216.023438 359.804688 218.847656 359.246094 221.660156 C 358.6875 224.46875 358.058594 227.265625 357.363281 230.046875 C 356.667969 232.824219 355.902344 235.585938 355.070312 238.328125 C 354.238281 241.070312 353.339844 243.792969 352.375 246.488281 C 351.410156 249.1875 350.378906 251.863281 349.28125 254.507812 C 348.183594 257.15625 347.023438 259.777344 345.796875 262.367188 C 344.574219 264.957031 343.285156 267.515625 341.933594 270.042969 C 340.582031 272.570312 339.171875 275.066406 337.699219 277.523438 C 336.222656 279.980469 334.691406 282.402344 333.097656 284.785156 C 331.507812 287.167969 329.855469 289.511719 328.148438 291.8125 C 326.441406 294.113281 324.679688 296.371094 322.863281 298.585938 C 321.042969 300.804688 319.171875 302.972656 317.246094 305.097656 C 315.324219 307.21875 313.347656 309.292969 311.320312 311.320312 C 309.292969 313.347656 307.21875 315.324219 305.097656 317.246094 C 302.972656 319.171875 300.804688 321.042969 298.585938 322.863281 C 296.371094 324.679688 294.113281 326.441406 291.8125 328.148438 C 289.511719 329.855469 287.167969 331.507812 284.785156 333.097656 C 282.402344 334.691406 279.980469 336.222656 277.523438 337.699219 C 275.066406 339.171875 272.570312 340.582031 270.042969 341.933594 C 267.515625 343.285156 264.957031 344.574219 262.367188 345.796875 C 259.777344 347.023438 257.15625 348.183594 254.507812 349.28125 C 251.863281 350.378906 249.1875 351.410156 246.488281 352.375 C 243.792969 353.339844 241.070312 354.238281 238.328125 355.070312 C 235.585938 355.902344 232.824219 356.667969 230.046875 357.363281 C 227.265625 358.058594 224.46875 358.6875 221.660156 359.246094 C 218.847656 359.804688 216.023438 360.296875 213.191406 360.714844 C 210.355469 361.136719 207.511719 361.488281 204.660156 361.769531 C 201.808594 362.050781 198.949219 362.261719 196.085938 362.402344 C 193.226562 362.542969 190.359375 362.613281 187.496094 362.613281 C 184.628906 362.613281 181.765625 362.542969 178.902344 362.402344 C 176.039062 362.261719 173.183594 362.050781 170.332031 361.769531 C 167.480469 361.488281 164.636719 361.136719 161.800781 360.714844 C 158.964844 360.296875 156.140625 359.804688 153.332031 359.246094 C 150.519531 358.6875 147.726562 358.058594 144.945312 357.363281 C 142.164062 356.667969 139.402344 355.902344 136.660156 355.070312 C 133.917969 354.238281 131.199219 353.339844 128.5 352.375 C 125.800781 351.410156 123.128906 350.378906 120.480469 349.28125 C 117.832031 348.183594 115.214844 347.023438 112.625 345.796875 C 110.03125 344.574219 107.472656 343.285156 104.945312 341.933594 C 102.417969 340.582031 99.925781 339.171875 97.46875 337.699219 C 95.007812 336.222656 92.589844 334.691406 90.207031 333.097656 C 87.824219 331.507812 85.480469 329.855469 83.179688 328.148438 C 80.875 326.441406 78.617188 324.679688 76.402344 322.863281 C 74.1875 321.042969 72.019531 319.171875 69.894531 317.246094 C 67.769531 315.324219 65.695312 313.347656 63.667969 311.320312 C 61.640625 309.292969 59.667969 307.21875 57.742188 305.097656 C 55.816406 302.972656 53.945312 300.804688 52.128906 298.585938 C 50.308594 296.371094 48.546875 294.113281 46.839844 291.8125 C 45.132812 289.511719 43.484375 287.167969 41.890625 284.785156 C 40.300781 282.402344 38.765625 279.980469 37.292969 277.523438 C 35.820312 275.066406 34.40625 272.570312 33.054688 270.042969 C 31.707031 267.515625 30.417969 264.957031 29.191406 262.367188 C 27.964844 259.777344 26.804688 257.15625 25.707031 254.507812 C 24.613281 251.863281 23.582031 249.1875 22.617188 246.488281 C 21.648438 243.792969 20.75 241.070312 19.917969 238.328125 C 19.085938 235.585938 18.324219 232.824219 17.625 230.046875 C 16.929688 227.265625 16.300781 224.46875 15.742188 221.660156 C 15.183594 218.847656 14.695312 216.023438 14.273438 213.191406 C 13.851562 210.355469 13.503906 207.511719 13.222656 204.660156 C 12.941406 201.808594 12.730469 198.949219 12.589844 196.085938 C 12.449219 193.226562 12.378906 190.359375 12.378906 187.496094 C 12.378906 184.628906 12.449219 181.765625 12.589844 178.902344 C 12.730469 176.039062 12.941406 173.183594 13.222656 170.332031 C 13.503906 167.480469 13.851562 164.636719 14.273438 161.800781 C 14.695312 158.964844 15.183594 156.140625 15.742188 153.332031 C 16.300781 150.519531 16.929688 147.726562 17.625 144.945312 C 18.324219 142.164062 19.085938 139.402344 19.917969 136.660156 C 20.75 133.917969 21.648438 131.199219 22.617188 128.5 C 23.582031 125.800781 24.613281 123.128906 25.707031 120.480469 C 26.804688 117.832031 27.964844 115.214844 29.191406 112.625 C 30.417969 110.03125 31.707031 107.472656 33.054688 104.945312 C 34.40625 102.417969 35.820312 99.925781 37.292969 97.46875 C 38.765625 95.007812 40.300781 92.589844 41.890625 90.207031 C 43.484375 87.824219 45.132812 85.480469 46.839844 83.179688 C 48.546875 80.875 50.308594 78.617188 52.128906 76.402344 C 53.945312 74.1875 55.816406 72.019531 57.742188 69.894531 C 59.667969 67.769531 61.640625 65.695312 63.667969 63.667969 C 65.695312 61.640625 67.769531 59.667969 69.894531 57.742188 C 72.019531 55.816406 74.1875 53.945312 76.402344 52.128906 C 78.617188 50.308594 80.875 48.546875 83.179688 46.839844 C 85.480469 45.132812 87.824219 43.484375 90.207031 41.890625 C 92.589844 40.300781 95.007812 38.765625 97.46875 37.292969 C 99.925781 35.820312 102.417969 34.40625 104.945312 33.054688 C 107.472656 31.707031 110.03125 30.417969 112.625 29.191406 C 115.214844 27.964844 117.832031 26.804688 120.480469 25.707031 C 123.128906 24.613281 125.800781 23.582031 128.5 22.617188 C 131.199219 21.648438 133.917969 20.75 136.660156 19.917969 C 139.402344 19.085938 142.164062 18.324219 144.945312 17.625 C 147.726562 16.929688 150.519531 16.300781 153.332031 15.742188 C 156.140625 15.183594 158.964844 14.695312 161.800781 14.273438 C 164.636719 13.851562 167.480469 13.503906 170.332031 13.222656 C 173.183594 12.941406 176.039062 12.730469 178.902344 12.589844 C 181.765625 12.449219 184.628906 12.378906 187.496094 12.378906 C 190.359375 12.378906 193.226562 12.449219 196.085938 12.589844 C 198.949219 12.730469 201.808594 12.941406 204.660156 13.222656 C 207.511719 13.503906 210.355469 13.851562 213.191406 14.273438 C 216.023438 14.695312 218.847656 15.183594 221.660156 15.742188 C 224.46875 16.300781 227.265625 16.929688 230.046875 17.625 C 232.824219 18.324219 235.585938 19.085938 238.328125 19.917969 C 241.070312 20.75 243.792969 21.648438 246.488281 22.617188 C 249.1875 23.582031 251.863281 24.613281 254.507812 25.707031 C 257.15625 26.804688 259.777344 27.964844 262.367188 29.191406 C 264.957031 30.417969 267.515625 31.707031 270.042969 33.054688 C 272.570312 34.40625 275.066406 35.820312 277.523438 37.292969 C 279.980469 38.765625 282.402344 40.300781 284.785156 41.890625 C 287.167969 43.484375 289.511719 45.132812 291.8125 46.839844 C 294.113281 48.546875 296.371094 50.308594 298.585938 52.128906 C 300.804688 53.945312 302.972656 55.816406 305.097656 57.742188 C 307.21875 59.667969 309.292969 61.640625 311.320312 63.667969 C 313.347656 65.695312 315.324219 67.769531 317.246094 69.894531 C 319.171875 72.019531 321.042969 74.1875 322.863281 76.402344 C 324.679688 78.617188 326.441406 80.875 328.148438 83.179688 C 329.855469 85.480469 331.507812 87.824219 333.097656 90.207031 C 334.691406 92.589844 336.222656 95.007812 337.699219 97.46875 C 339.171875 99.925781 340.582031 102.417969 341.933594 104.945312 C 343.285156 107.472656 344.574219 110.03125 345.796875 112.625 C 347.023438 115.214844 348.183594 117.832031 349.28125 120.480469 C 350.378906 123.128906 351.410156 125.800781 352.375 128.5 C 353.339844 131.199219 354.238281 133.917969 355.070312 136.660156 C 355.902344 139.402344 356.667969 142.164062 357.363281 144.945312 C 358.058594 147.726562 358.6875 150.519531 359.246094 153.332031 C 359.804688 156.140625 360.296875 158.964844 360.714844 161.800781 C 361.136719 164.636719 361.488281 167.480469 361.769531 170.332031 C 362.050781 173.183594 362.261719 176.039062 362.402344 178.902344 C 362.542969 181.765625 362.613281 184.628906 362.613281 187.496094 Z M 362.613281 187.496094 " fill-opacity="1" fill-rule="nonzero"/></g><path fill="#231f20" d="M 187.5 0 C 83.921875 0 0 83.996094 0 187.5 C 0 291.003906 83.921875 375 187.5 375 C 291.078125 375 375 291.003906 375 187.5 C 375 83.996094 291.078125 0 187.5 0 Z M 187.5 363.128906 C 90.5 363.128906 11.871094 284.5 11.871094 187.5 C 11.871094 90.5 90.5 11.871094 187.5 11.871094 C 284.5 11.871094 363.128906 90.5 363.128906 187.5 C 363.128906 284.5 284.5 363.128906 187.5 363.128906 Z M 187.5 363.128906 " fill-opacity="1" fill-rule="nonzero"/><g clip-path="url(#70b6046217)"><path fill="#3266ff" d="M 186.355469 9.734375 C 88.15625 9.734375 8.59375 89.371094 8.59375 187.496094 C 8.59375 285.625 88.15625 365.257812 186.355469 365.257812 C 284.554688 365.257812 364.117188 285.625 364.117188 187.496094 C 364.117188 89.371094 284.554688 9.734375 186.355469 9.734375 Z M 186.355469 354.003906 C 94.390625 354.003906 19.847656 279.460938 19.847656 187.496094 C 19.847656 95.535156 94.390625 20.988281 186.355469 20.988281 C 278.316406 20.988281 352.863281 95.535156 352.863281 187.496094 C 352.863281 279.460938 278.316406 354.003906 186.355469 354.003906 Z M 186.355469 354.003906 " fill-opacity="1" fill-rule="nonzero"/></g><g clip-path="url(#d704ae1390)"><path fill="#ffa808" d="M 314.519531 161.40625 L 314.519531 129.292969 C 314.519531 98.054688 289.214844 72.734375 258.003906 72.734375 L 256.347656 72.734375 C 225.136719 72.734375 199.832031 98.054688 199.832031 129.292969 L 199.832031 167.269531 L 199.878906 167.269531 L 199.878906 183.382812 C 199.878906 190.617188 205.742188 196.484375 212.972656 196.484375 L 215.640625 196.484375 C 222.125 196.484375 227.511719 191.765625 228.550781 185.570312 C 229.589844 191.765625 234.972656 196.484375 241.460938 196.484375 L 244.128906 196.484375 C 251.359375 196.484375 257.222656 190.617188 257.222656 183.382812 C 257.222656 190.617188 263.082031 196.484375 270.3125 196.484375 L 272.980469 196.484375 C 279.46875 196.484375 284.851562 191.765625 285.894531 185.570312 C 286.933594 191.765625 292.316406 196.484375 298.800781 196.484375 L 301.472656 196.484375 C 308.703125 196.484375 314.5625 190.617188 314.5625 183.382812 L 314.5625 162.484375 C 314.5625 162.121094 314.546875 161.761719 314.519531 161.40625 Z M 314.519531 161.40625 " fill-opacity="1" fill-rule="nonzero"/></g><path fill="#ffffff" d="M 248.050781 128.460938 C 248.050781 129.15625 248.027344 129.851562 247.976562 130.542969 C 247.925781 131.234375 247.847656 131.921875 247.746094 132.601562 C 247.644531 133.285156 247.519531 133.960938 247.367188 134.625 C 247.21875 135.289062 247.042969 135.945312 246.84375 136.585938 C 246.644531 137.226562 246.421875 137.855469 246.175781 138.46875 C 245.929688 139.082031 245.664062 139.679688 245.375 140.257812 C 245.085938 140.835938 244.777344 141.390625 244.445312 141.929688 C 244.117188 142.46875 243.769531 142.980469 243.402344 143.472656 C 243.03125 143.964844 242.648438 144.429688 242.246094 144.871094 C 241.84375 145.3125 241.425781 145.726562 240.992188 146.113281 C 240.5625 146.5 240.117188 146.855469 239.65625 147.183594 C 239.199219 147.511719 238.730469 147.808594 238.25 148.074219 C 237.769531 148.339844 237.277344 148.574219 236.78125 148.777344 C 236.285156 148.980469 235.78125 149.148438 235.269531 149.285156 C 234.757812 149.417969 234.246094 149.519531 233.726562 149.589844 C 233.210938 149.65625 232.691406 149.691406 232.171875 149.691406 C 231.652344 149.691406 231.132812 149.65625 230.613281 149.589844 C 230.097656 149.519531 229.582031 149.417969 229.074219 149.285156 C 228.5625 149.148438 228.058594 148.980469 227.5625 148.777344 C 227.0625 148.574219 226.574219 148.339844 226.09375 148.074219 C 225.613281 147.808594 225.144531 147.511719 224.683594 147.183594 C 224.226562 146.855469 223.78125 146.5 223.347656 146.113281 C 222.914062 145.726562 222.5 145.3125 222.097656 144.871094 C 221.695312 144.429688 221.308594 143.964844 220.941406 143.472656 C 220.574219 142.980469 220.226562 142.46875 219.894531 141.929688 C 219.566406 141.390625 219.253906 140.835938 218.96875 140.257812 C 218.679688 139.679688 218.410156 139.082031 218.164062 138.46875 C 217.921875 137.855469 217.699219 137.226562 217.5 136.585938 C 217.300781 135.945312 217.125 135.289062 216.972656 134.625 C 216.824219 133.960938 216.695312 133.285156 216.59375 132.601562 C 216.496094 131.921875 216.417969 131.234375 216.367188 130.542969 C 216.316406 129.851562 216.289062 129.15625 216.289062 128.460938 C 216.289062 127.765625 216.316406 127.074219 216.367188 126.382812 C 216.417969 125.6875 216.496094 125.003906 216.59375 124.320312 C 216.695312 123.636719 216.824219 122.964844 216.972656 122.300781 C 217.125 121.632812 217.300781 120.980469 217.5 120.335938 C 217.699219 119.695312 217.921875 119.066406 218.164062 118.453125 C 218.410156 117.839844 218.679688 117.246094 218.96875 116.667969 C 219.253906 116.089844 219.566406 115.53125 219.894531 114.992188 C 220.226562 114.457031 220.574219 113.941406 220.941406 113.449219 C 221.308594 112.957031 221.695312 112.492188 222.097656 112.050781 C 222.5 111.609375 222.914062 111.195312 223.347656 110.808594 C 223.78125 110.425781 224.226562 110.066406 224.683594 109.738281 C 225.144531 109.410156 225.613281 109.113281 226.09375 108.847656 C 226.574219 108.582031 227.0625 108.347656 227.5625 108.148438 C 228.058594 107.945312 228.5625 107.777344 229.074219 107.640625 C 229.582031 107.503906 230.097656 107.402344 230.613281 107.335938 C 231.132812 107.265625 231.652344 107.234375 232.171875 107.234375 C 232.691406 107.234375 233.210938 107.265625 233.726562 107.335938 C 234.246094 107.402344 234.757812 107.503906 235.269531 107.640625 C 235.78125 107.777344 236.285156 107.945312 236.78125 108.148438 C 237.277344 108.347656 237.769531 108.582031 238.25 108.847656 C 238.730469 109.113281 239.199219 109.410156 239.65625 109.738281 C 240.117188 110.066406 240.5625 110.425781 240.992188 110.808594 C 241.425781 111.195312 241.84375 111.609375 242.246094 112.050781 C 242.648438 112.492188 243.03125 112.957031 243.402344 113.449219 C 243.769531 113.941406 244.117188 114.457031 244.445312 114.992188 C 244.777344 115.53125 245.085938 116.089844 245.375 116.667969 C 245.664062 117.246094 245.929688 117.839844 246.175781 118.453125 C 246.421875 119.066406 246.644531 119.695312 246.84375 120.335938 C 247.042969 120.980469 247.21875 121.632812 247.367188 122.300781 C 247.519531 122.964844 247.644531 123.636719 247.746094 124.320312 C 247.847656 125.003906 247.925781 125.6875 247.976562 126.382812 C 248.027344 127.074219 248.050781 127.765625 248.050781 128.460938 Z M 248.050781 128.460938 " fill-opacity="1" fill-rule="nonzero"/><path fill="#ffffff" d="M 298.101562 128.460938 C 298.101562 129.15625 298.078125 129.851562 298.027344 130.542969 C 297.976562 131.234375 297.898438 131.921875 297.796875 132.601562 C 297.695312 133.285156 297.570312 133.960938 297.417969 134.625 C 297.269531 135.289062 297.09375 135.945312 296.894531 136.585938 C 296.695312 137.226562 296.472656 137.855469 296.226562 138.46875 C 295.980469 139.082031 295.714844 139.679688 295.425781 140.257812 C 295.136719 140.835938 294.828125 141.390625 294.496094 141.929688 C 294.167969 142.46875 293.820312 142.980469 293.449219 143.472656 C 293.082031 143.964844 292.699219 144.429688 292.296875 144.871094 C 291.894531 145.3125 291.476562 145.726562 291.042969 146.113281 C 290.613281 146.5 290.167969 146.855469 289.707031 147.183594 C 289.25 147.511719 288.78125 147.808594 288.300781 148.074219 C 287.820312 148.339844 287.328125 148.574219 286.832031 148.777344 C 286.332031 148.980469 285.828125 149.148438 285.320312 149.285156 C 284.808594 149.417969 284.296875 149.519531 283.777344 149.589844 C 283.261719 149.65625 282.742188 149.691406 282.222656 149.691406 C 281.703125 149.691406 281.183594 149.65625 280.664062 149.589844 C 280.148438 149.519531 279.632812 149.417969 279.125 149.285156 C 278.613281 149.148438 278.109375 148.980469 277.613281 148.777344 C 277.113281 148.574219 276.625 148.339844 276.144531 148.074219 C 275.664062 147.808594 275.195312 147.511719 274.734375 147.183594 C 274.277344 146.855469 273.832031 146.5 273.398438 146.113281 C 272.964844 145.726562 272.550781 145.3125 272.148438 144.871094 C 271.746094 144.429688 271.359375 143.964844 270.992188 143.472656 C 270.625 142.980469 270.277344 142.46875 269.945312 141.929688 C 269.617188 141.390625 269.304688 140.835938 269.015625 140.257812 C 268.726562 139.679688 268.460938 139.082031 268.214844 138.46875 C 267.972656 137.855469 267.75 137.226562 267.550781 136.585938 C 267.351562 135.945312 267.175781 135.289062 267.023438 134.625 C 266.875 133.960938 266.746094 133.285156 266.644531 132.601562 C 266.542969 131.921875 266.46875 131.234375 266.417969 130.542969 C 266.367188 129.851562 266.339844 129.15625 266.339844 128.460938 C 266.339844 127.765625 266.367188 127.074219 266.417969 126.382812 C 266.46875 125.6875 266.542969 125.003906 266.644531 124.320312 C 266.746094 123.636719 266.875 122.964844 267.023438 122.300781 C 267.175781 121.632812 267.351562 120.980469 267.550781 120.335938 C 267.75 119.695312 267.972656 119.066406 268.214844 118.453125 C 268.460938 117.839844 268.726562 117.246094 269.015625 116.667969 C 269.304688 116.089844 269.617188 115.53125 269.945312 114.992188 C 270.277344 114.457031 270.625 113.941406 270.992188 113.449219 C 271.359375 112.957031 271.746094 112.492188 272.148438 112.050781 C 272.550781 111.609375 272.964844 111.195312 273.398438 110.808594 C 273.832031 110.425781 274.277344 110.066406 274.734375 109.738281 C 275.195312 109.410156 275.664062 109.113281 276.144531 108.847656 C 276.625 108.582031 277.113281 108.347656 277.613281 108.148438 C 278.109375 107.945312 278.613281 107.777344 279.125 107.640625 C 279.632812 107.503906 280.148438 107.402344 280.664062 107.335938 C 281.183594 107.265625 281.703125 107.234375 282.222656 107.234375 C 282.742188 107.234375 283.261719 107.265625 283.777344 107.335938 C 284.296875 107.402344 284.808594 107.503906 285.320312 107.640625 C 285.828125 107.777344 286.332031 107.945312 286.832031 108.148438 C 287.328125 108.347656 287.820312 108.582031 288.300781 108.847656 C 288.78125 109.113281 289.25 109.410156 289.707031 109.738281 C 290.167969 110.066406 290.613281 110.425781 291.042969 110.808594 C 291.476562 111.195312 291.894531 111.609375 292.296875 112.050781 C 292.699219 112.492188 293.082031 112.957031 293.449219 113.449219 C 293.820312 113.941406 294.167969 114.457031 294.496094 114.992188 C 294.828125 115.53125 295.136719 116.089844 295.425781 116.667969 C 295.714844 117.246094 295.980469 117.839844 296.226562 118.453125 C 296.472656 119.066406 296.695312 119.695312 296.894531 120.335938 C 297.09375 120.980469 297.269531 121.632812 297.417969 122.300781 C 297.570312 122.964844 297.695312 123.636719 297.796875 124.320312 C 297.898438 125.003906 297.976562 125.6875 298.027344 126.382812 C 298.078125 127.074219 298.101562 127.765625 298.101562 128.460938 Z M 298.101562 128.460938 " fill-opacity="1" fill-rule="nonzero"/><path fill="#2b3159" d="M 286.742188 130.722656 C 286.742188 131.601562 286.675781 132.464844 286.550781 133.324219 C 286.421875 134.183594 286.234375 135.015625 285.980469 135.824219 C 285.730469 136.632812 285.425781 137.402344 285.058594 138.128906 C 284.695312 138.859375 284.28125 139.53125 283.820312 140.152344 C 283.355469 140.769531 282.851562 141.324219 282.308594 141.808594 C 281.765625 142.296875 281.191406 142.707031 280.585938 143.039062 C 279.980469 143.375 279.355469 143.628906 278.714844 143.800781 C 278.070312 143.96875 277.421875 144.054688 276.769531 144.054688 C 276.113281 144.054688 275.464844 143.96875 274.824219 143.800781 C 274.179688 143.628906 273.558594 143.375 272.953125 143.039062 C 272.347656 142.707031 271.773438 142.296875 271.226562 141.808594 C 270.683594 141.324219 270.179688 140.769531 269.71875 140.152344 C 269.253906 139.53125 268.839844 138.859375 268.476562 138.128906 C 268.113281 137.402344 267.804688 136.632812 267.554688 135.824219 C 267.304688 135.015625 267.117188 134.183594 266.988281 133.324219 C 266.859375 132.464844 266.796875 131.601562 266.796875 130.722656 C 266.796875 129.847656 266.859375 128.980469 266.988281 128.125 C 267.117188 127.265625 267.304688 126.433594 267.554688 125.621094 C 267.804688 124.8125 268.113281 124.046875 268.476562 123.316406 C 268.839844 122.589844 269.253906 121.917969 269.71875 121.296875 C 270.179688 120.679688 270.683594 120.125 271.226562 119.640625 C 271.773438 119.152344 272.347656 118.742188 272.953125 118.410156 C 273.558594 118.074219 274.179688 117.820312 274.824219 117.648438 C 275.464844 117.480469 276.113281 117.394531 276.769531 117.394531 C 277.421875 117.394531 278.070312 117.480469 278.714844 117.648438 C 279.355469 117.820312 279.980469 118.074219 280.585938 118.410156 C 281.191406 118.742188 281.765625 119.152344 282.308594 119.640625 C 282.851562 120.125 283.355469 120.679688 283.820312 121.296875 C 284.28125 121.917969 284.695312 122.589844 285.058594 123.316406 C 285.425781 124.046875 285.730469 124.8125 285.980469 125.621094 C 286.234375 126.433594 286.421875 127.265625 286.550781 128.125 C 286.675781 128.980469 286.742188 129.847656 286.742188 130.722656 Z M 286.742188 130.722656 " fill-opacity="1" fill-rule="nonzero"/><path fill="#2b3159" d="M 236.691406 130.722656 C 236.691406 131.601562 236.628906 132.464844 236.5 133.324219 C 236.371094 134.183594 236.183594 135.015625 235.933594 135.824219 C 235.679688 136.632812 235.375 137.402344 235.011719 138.128906 C 234.644531 138.859375 234.234375 139.53125 233.769531 140.152344 C 233.308594 140.769531 232.804688 141.324219 232.257812 141.808594 C 231.714844 142.296875 231.140625 142.707031 230.535156 143.039062 C 229.929688 143.375 229.304688 143.628906 228.664062 143.800781 C 228.023438 143.96875 227.375 144.054688 226.71875 144.054688 C 226.0625 144.054688 225.414062 143.96875 224.773438 143.800781 C 224.128906 143.628906 223.507812 143.375 222.902344 143.039062 C 222.296875 142.707031 221.722656 142.296875 221.179688 141.808594 C 220.632812 141.324219 220.128906 140.769531 219.667969 140.152344 C 219.203125 139.53125 218.789062 138.859375 218.425781 138.128906 C 218.0625 137.402344 217.757812 136.632812 217.503906 135.824219 C 217.253906 135.015625 217.066406 134.183594 216.9375 133.324219 C 216.808594 132.464844 216.746094 131.601562 216.746094 130.722656 C 216.746094 129.847656 216.808594 128.980469 216.9375 128.125 C 217.066406 127.265625 217.253906 126.433594 217.503906 125.621094 C 217.757812 124.8125 218.0625 124.046875 218.425781 123.316406 C 218.789062 122.589844 219.203125 121.917969 219.667969 121.296875 C 220.128906 120.679688 220.632812 120.125 221.179688 119.640625 C 221.722656 119.152344 222.296875 118.742188 222.902344 118.410156 C 223.507812 118.074219 224.128906 117.820312 224.773438 117.648438 C 225.414062 117.480469 226.0625 117.394531 226.71875 117.394531 C 227.375 117.394531 228.023438 117.480469 228.664062 117.648438 C 229.304688 117.820312 229.929688 118.074219 230.535156 118.410156 C 231.140625 118.742188 231.714844 119.152344 232.257812 119.640625 C 232.804688 120.125 233.308594 120.679688 233.769531 121.296875 C 234.234375 121.917969 234.644531 122.589844 235.011719 123.316406 C 235.375 124.046875 235.679688 124.8125 235.933594 125.621094 C 236.183594 126.433594 236.371094 127.265625 236.5 128.125 C 236.628906 128.980469 236.691406 129.847656 236.691406 130.722656 Z M 236.691406 130.722656 " fill-opacity="1" fill-rule="nonzero"/><g clip-path="url(#9a733c5823)"><path fill="#000000" d="M 131.675781 81.644531 C 131.019531 81.644531 130.367188 81.710938 129.722656 81.839844 C 129.078125 81.964844 128.453125 82.15625 127.847656 82.40625 C 127.242188 82.660156 126.664062 82.96875 126.117188 83.332031 C 125.574219 83.695312 125.066406 84.109375 124.601562 84.574219 C 124.140625 85.039062 123.722656 85.546875 123.359375 86.089844 C 122.996094 86.636719 122.6875 87.214844 122.433594 87.820312 C 122.183594 88.425781 121.996094 89.050781 121.867188 89.695312 C 121.738281 90.339844 121.675781 90.992188 121.675781 91.648438 C 121.675781 92.304688 121.738281 92.953125 121.867188 93.597656 C 121.996094 94.242188 122.183594 94.867188 122.433594 95.472656 C 122.6875 96.082031 122.996094 96.65625 123.359375 97.203125 C 123.722656 97.75 124.140625 98.253906 124.601562 98.71875 C 125.066406 99.183594 125.574219 99.597656 126.117188 99.964844 C 126.664062 100.328125 127.242188 100.636719 127.847656 100.886719 C 128.453125 101.136719 129.078125 101.328125 129.722656 101.457031 C 130.367188 101.585938 131.019531 101.648438 131.675781 101.648438 C 132.332031 101.648438 132.980469 101.585938 133.625 101.457031 C 134.269531 101.328125 134.894531 101.136719 135.503906 100.886719 C 136.109375 100.636719 136.683594 100.328125 137.230469 99.964844 C 137.777344 99.597656 138.28125 99.183594 138.746094 98.71875 C 139.210938 98.253906 139.625 97.75 139.992188 97.203125 C 140.355469 96.65625 140.664062 96.082031 140.914062 95.472656 C 141.167969 94.867188 141.355469 94.242188 141.484375 93.597656 C 141.613281 92.953125 141.675781 92.304688 141.675781 91.648438 C 141.675781 90.992188 141.613281 90.339844 141.484375 89.695312 C 141.355469 89.050781 141.167969 88.425781 140.914062 87.820312 C 140.664062 87.214844 140.355469 86.636719 139.992188 86.089844 C 139.625 85.546875 139.210938 85.039062 138.746094 84.574219 C 138.28125 84.109375 137.777344 83.695312 137.230469 83.332031 C 136.683594 82.96875 136.109375 82.660156 135.503906 82.40625 C 134.894531 82.15625 134.269531 81.964844 133.625 81.839844 C 132.980469 81.710938 132.332031 81.644531 131.675781 81.644531 Z M 126.375 137.101562 L 180.878906 192.558594 C 179.933594 193.410156 178.964844 194.234375 177.976562 195.039062 C 176.992188 195.839844 175.984375 196.621094 174.957031 197.375 C 173.933594 198.128906 172.890625 198.855469 171.828125 199.558594 C 170.769531 200.261719 169.691406 200.9375 168.597656 201.589844 C 167.503906 202.242188 166.394531 202.863281 165.269531 203.460938 C 164.144531 204.058594 163.007812 204.625 161.855469 205.167969 C 160.703125 205.707031 159.539062 206.222656 158.359375 206.707031 C 157.183594 207.191406 155.996094 207.644531 154.796875 208.074219 C 153.597656 208.5 152.390625 208.898438 151.171875 209.265625 C 149.953125 209.632812 148.726562 209.96875 147.488281 210.277344 C 146.253906 210.585938 145.011719 210.863281 143.765625 211.113281 C 142.515625 211.359375 141.261719 211.578125 140.003906 211.761719 C 138.746094 211.949219 137.480469 212.105469 136.214844 212.230469 C 134.949219 212.355469 133.679688 212.449219 132.40625 212.511719 C 131.136719 212.574219 129.863281 212.609375 128.589844 212.609375 C 127.320312 212.609375 126.046875 212.582031 124.773438 212.519531 C 123.503906 212.460938 122.234375 212.367188 120.96875 212.246094 C 119.699219 212.125 118.4375 211.96875 117.179688 211.785156 C 115.917969 211.601562 114.664062 211.386719 113.414062 211.140625 C 112.167969 210.898438 110.925781 210.621094 109.6875 210.316406 C 108.453125 210.011719 107.226562 209.675781 106.007812 209.308594 C 104.789062 208.945312 103.578125 208.550781 102.378906 208.125 C 101.175781 207.703125 99.988281 207.246094 98.8125 206.765625 C 97.632812 206.285156 96.46875 205.773438 95.3125 205.234375 C 94.160156 204.695312 93.023438 204.128906 91.894531 203.535156 C 90.769531 202.941406 89.660156 202.316406 88.566406 201.667969 C 87.46875 201.019531 86.390625 200.347656 85.328125 199.644531 C 84.265625 198.945312 83.222656 198.21875 82.195312 197.464844 C 81.167969 196.714844 80.160156 195.9375 79.171875 195.136719 C 78.179688 194.335938 77.210938 193.511719 76.261719 192.664062 C 75.3125 191.816406 74.386719 190.945312 73.480469 190.050781 C 72.574219 189.15625 71.6875 188.242188 70.828125 187.304688 C 69.964844 186.371094 69.125 185.414062 68.308594 184.433594 C 67.496094 183.457031 66.703125 182.460938 65.9375 181.445312 C 65.167969 180.429688 64.429688 179.394531 63.710938 178.34375 C 62.996094 177.292969 62.304688 176.222656 61.640625 175.136719 C 60.976562 174.050781 60.335938 172.949219 59.726562 171.835938 C 59.117188 170.71875 58.53125 169.585938 57.976562 168.441406 C 57.421875 167.296875 56.894531 166.140625 56.394531 164.96875 C 55.894531 163.796875 55.421875 162.617188 54.980469 161.421875 C 54.539062 160.226562 54.125 159.023438 53.742188 157.8125 C 53.359375 156.597656 53.007812 155.375 52.683594 154.144531 C 52.359375 152.914062 52.066406 151.675781 51.800781 150.429688 C 51.539062 149.183594 51.304688 147.933594 51.101562 146.675781 C 50.902344 145.417969 50.730469 144.160156 50.589844 142.894531 C 50.445312 141.628906 50.335938 140.363281 50.257812 139.089844 C 50.179688 137.820312 50.128906 136.550781 50.113281 135.277344 C 50.09375 134.003906 50.109375 132.730469 50.152344 131.460938 C 50.195312 130.1875 50.273438 128.917969 50.378906 127.648438 C 50.484375 126.378906 50.621094 125.117188 50.789062 123.855469 C 50.957031 122.59375 51.15625 121.335938 51.386719 120.082031 C 51.617188 118.832031 51.875 117.585938 52.164062 116.347656 C 52.453125 115.105469 52.773438 113.875 53.125 112.652344 C 53.472656 111.425781 53.851562 110.210938 54.261719 109.007812 C 54.671875 107.800781 55.109375 106.609375 55.578125 105.421875 C 56.042969 104.238281 56.539062 103.066406 57.0625 101.90625 C 57.585938 100.746094 58.140625 99.601562 58.71875 98.46875 C 59.300781 97.335938 59.90625 96.21875 60.542969 95.113281 C 61.175781 94.011719 61.835938 92.921875 62.523438 91.851562 C 63.210938 90.78125 63.925781 89.726562 64.664062 88.691406 C 65.402344 87.652344 66.167969 86.636719 66.953125 85.636719 C 67.742188 84.636719 68.554688 83.65625 69.390625 82.699219 C 70.226562 81.738281 71.085938 80.800781 71.96875 79.882812 C 72.851562 78.964844 73.753906 78.066406 74.679688 77.195312 C 75.605469 76.320312 76.550781 75.46875 77.515625 74.640625 C 78.484375 73.8125 79.46875 73.011719 80.476562 72.230469 C 81.484375 71.449219 82.507812 70.695312 83.550781 69.964844 C 84.59375 69.234375 85.652344 68.53125 86.730469 67.851562 C 87.804688 67.175781 88.898438 66.523438 90.007812 65.898438 C 91.117188 65.273438 92.238281 64.675781 93.378906 64.105469 C 94.515625 63.535156 95.667969 62.992188 96.832031 62.476562 C 97.996094 61.964844 99.171875 61.476562 100.359375 61.019531 C 101.546875 60.5625 102.746094 60.136719 103.953125 59.738281 C 105.164062 59.339844 106.382812 58.96875 107.609375 58.628906 C 108.835938 58.292969 110.070312 57.980469 111.3125 57.703125 C 112.550781 57.421875 113.800781 57.175781 115.054688 56.957031 C 116.308594 56.738281 117.566406 56.550781 118.828125 56.394531 C 120.09375 56.234375 121.359375 56.109375 122.628906 56.011719 C 123.898438 55.917969 125.167969 55.851562 126.441406 55.820312 C 127.714844 55.785156 128.984375 55.785156 130.257812 55.8125 C 131.53125 55.839844 132.800781 55.898438 134.070312 55.988281 C 135.339844 56.078125 136.609375 56.199219 137.871094 56.351562 C 139.136719 56.503906 140.394531 56.6875 141.648438 56.902344 C 142.902344 57.113281 144.152344 57.359375 145.394531 57.632812 C 146.640625 57.90625 147.875 58.210938 149.101562 58.542969 C 150.332031 58.878906 151.550781 59.242188 152.761719 59.636719 C 153.972656 60.027344 155.171875 60.453125 156.359375 60.902344 C 157.550781 61.355469 158.730469 61.835938 159.894531 62.347656 C 161.0625 62.855469 162.214844 63.394531 163.355469 63.957031 C 164.496094 64.523438 165.621094 65.117188 166.734375 65.738281 C 167.84375 66.359375 168.941406 67.003906 170.019531 67.679688 C 171.097656 68.351562 172.164062 69.050781 173.207031 69.777344 C 174.253906 70.503906 175.28125 71.253906 176.289062 72.03125 C 177.300781 72.804688 178.289062 73.605469 179.261719 74.429688 C 180.230469 75.253906 181.179688 76.101562 182.109375 76.96875 C 183.039062 77.839844 183.945312 78.730469 184.832031 79.644531 Z M 126.375 137.101562 " fill-opacity="1" fill-rule="evenodd"/></g><g clip-path="url(#e687e04f3f)"><path fill="#000000" d="M 136.21875 81.644531 C 135.5625 81.644531 134.914062 81.710938 134.269531 81.839844 C 133.625 81.964844 133 82.15625 132.394531 82.40625 C 131.785156 82.660156 131.210938 82.96875 130.664062 83.332031 C 130.117188 83.695312 129.613281 84.109375 129.148438 84.574219 C 128.683594 85.039062 128.269531 85.546875 127.90625 86.089844 C 127.539062 86.636719 127.230469 87.214844 126.980469 87.820312 C 126.730469 88.425781 126.539062 89.050781 126.410156 89.695312 C 126.28125 90.339844 126.21875 90.992188 126.21875 91.648438 C 126.21875 92.304688 126.28125 92.953125 126.410156 93.597656 C 126.539062 94.242188 126.730469 94.867188 126.980469 95.472656 C 127.230469 96.082031 127.539062 96.65625 127.90625 97.203125 C 128.269531 97.75 128.683594 98.253906 129.148438 98.71875 C 129.613281 99.183594 130.117188 99.597656 130.664062 99.964844 C 131.210938 100.328125 131.785156 100.636719 132.394531 100.886719 C 133 101.136719 133.625 101.328125 134.269531 101.457031 C 134.914062 101.585938 135.5625 101.648438 136.21875 101.648438 C 136.875 101.648438 137.527344 101.585938 138.171875 101.457031 C 138.816406 101.328125 139.441406 101.136719 140.046875 100.886719 C 140.652344 100.636719 141.230469 100.328125 141.777344 99.964844 C 142.320312 99.597656 142.828125 99.183594 143.292969 98.71875 C 143.757812 98.253906 144.171875 97.75 144.535156 97.203125 C 144.898438 96.65625 145.207031 96.082031 145.460938 95.472656 C 145.710938 94.867188 145.902344 94.242188 146.027344 93.597656 C 146.15625 92.953125 146.222656 92.304688 146.222656 91.648438 C 146.222656 90.992188 146.15625 90.339844 146.027344 89.695312 C 145.902344 89.050781 145.710938 88.425781 145.460938 87.820312 C 145.207031 87.214844 144.898438 86.636719 144.535156 86.089844 C 144.171875 85.546875 143.757812 85.039062 143.292969 84.574219 C 142.828125 84.109375 142.320312 83.695312 141.777344 83.332031 C 141.230469 82.96875 140.652344 82.660156 140.046875 82.40625 C 139.441406 82.15625 138.816406 81.964844 138.171875 81.839844 C 137.527344 81.710938 136.875 81.644531 136.21875 81.644531 Z M 130.917969 137.101562 L 185.425781 192.558594 C 184.476562 193.410156 183.511719 194.234375 182.523438 195.039062 C 181.535156 195.839844 180.527344 196.621094 179.503906 197.375 C 178.476562 198.128906 177.433594 198.855469 176.375 199.558594 C 175.3125 200.261719 174.234375 200.9375 173.140625 201.589844 C 172.046875 202.242188 170.9375 202.863281 169.8125 203.460938 C 168.691406 204.058594 167.550781 204.625 166.398438 205.167969 C 165.246094 205.707031 164.082031 206.222656 162.90625 206.707031 C 161.730469 207.191406 160.539062 207.644531 159.339844 208.074219 C 158.140625 208.5 156.933594 208.898438 155.714844 209.265625 C 154.496094 209.632812 153.269531 209.96875 152.035156 210.277344 C 150.800781 210.585938 149.558594 210.863281 148.308594 211.113281 C 147.0625 211.359375 145.808594 211.578125 144.546875 211.761719 C 143.289062 211.949219 142.027344 212.105469 140.757812 212.230469 C 139.492188 212.355469 138.222656 212.449219 136.953125 212.511719 C 135.679688 212.574219 134.410156 212.609375 133.136719 212.609375 C 131.863281 212.609375 130.589844 212.582031 129.320312 212.519531 C 128.050781 212.460938 126.78125 212.367188 125.511719 212.246094 C 124.246094 212.125 122.984375 211.96875 121.722656 211.785156 C 120.464844 211.601562 119.210938 211.386719 117.960938 211.140625 C 116.710938 210.898438 115.46875 210.621094 114.234375 210.316406 C 113 210.011719 111.769531 209.675781 110.550781 209.308594 C 109.332031 208.945312 108.121094 208.550781 106.921875 208.125 C 105.722656 207.703125 104.535156 207.246094 103.355469 206.765625 C 102.175781 206.285156 101.011719 205.773438 99.859375 205.234375 C 98.707031 204.695312 97.566406 204.128906 96.441406 203.535156 C 95.316406 202.941406 94.207031 202.316406 93.109375 201.667969 C 92.015625 201.019531 90.9375 200.347656 89.875 199.644531 C 88.8125 198.945312 87.765625 198.21875 86.738281 197.464844 C 85.710938 196.714844 84.703125 195.9375 83.714844 195.136719 C 82.726562 194.335938 81.757812 193.511719 80.808594 192.664062 C 79.859375 191.816406 78.929688 190.945312 78.023438 190.050781 C 77.117188 189.15625 76.234375 188.242188 75.371094 187.304688 C 74.507812 186.371094 73.671875 185.414062 72.855469 184.433594 C 72.039062 183.457031 71.25 182.460938 70.480469 181.445312 C 69.714844 180.429688 68.972656 179.394531 68.257812 178.34375 C 67.539062 177.292969 66.847656 176.222656 66.183594 175.136719 C 65.519531 174.050781 64.882812 172.949219 64.269531 171.835938 C 63.660156 170.71875 63.078125 169.585938 62.519531 168.441406 C 61.964844 167.296875 61.4375 166.140625 60.9375 164.96875 C 60.4375 163.796875 59.96875 162.617188 59.527344 161.421875 C 59.085938 160.226562 58.671875 159.023438 58.289062 157.8125 C 57.90625 156.597656 57.550781 155.375 57.226562 154.144531 C 56.90625 152.914062 56.609375 151.675781 56.347656 150.429688 C 56.082031 149.183594 55.851562 147.933594 55.648438 146.675781 C 55.445312 145.417969 55.273438 144.160156 55.132812 142.894531 C 54.992188 141.628906 54.882812 140.363281 54.800781 139.089844 C 54.722656 137.820312 54.675781 136.550781 54.65625 135.277344 C 54.640625 134.003906 54.652344 132.730469 54.699219 131.460938 C 54.742188 130.1875 54.816406 128.917969 54.925781 127.648438 C 55.03125 126.378906 55.167969 125.117188 55.335938 123.855469 C 55.503906 122.59375 55.703125 121.335938 55.929688 120.082031 C 56.160156 118.832031 56.417969 117.585938 56.710938 116.347656 C 57 115.105469 57.320312 113.875 57.667969 112.652344 C 58.019531 111.425781 58.398438 110.210938 58.808594 109.007812 C 59.214844 107.800781 59.65625 106.609375 60.121094 105.421875 C 60.589844 104.238281 61.085938 103.066406 61.609375 101.90625 C 62.132812 100.746094 62.683594 99.601562 63.265625 98.46875 C 63.84375 97.335938 64.453125 96.21875 65.085938 95.113281 C 65.722656 94.011719 66.382812 92.921875 67.070312 91.851562 C 67.757812 90.78125 68.46875 89.726562 69.210938 88.691406 C 69.949219 87.652344 70.710938 86.636719 71.5 85.636719 C 72.289062 84.636719 73.101562 83.65625 73.9375 82.699219 C 74.773438 81.738281 75.632812 80.800781 76.511719 79.882812 C 77.394531 78.964844 78.296875 78.066406 79.222656 77.195312 C 80.148438 76.320312 81.09375 75.46875 82.0625 74.640625 C 83.027344 73.8125 84.015625 73.011719 85.023438 72.230469 C 86.027344 71.449219 87.050781 70.695312 88.09375 69.964844 C 89.136719 69.234375 90.195312 68.53125 91.273438 67.851562 C 92.351562 67.175781 93.445312 66.523438 94.554688 65.898438 C 95.660156 65.273438 96.785156 64.675781 97.921875 64.105469 C 99.0625 63.535156 100.210938 62.992188 101.375 62.476562 C 102.539062 61.964844 103.714844 61.476562 104.90625 61.019531 C 106.09375 60.5625 107.289062 60.136719 108.5 59.738281 C 109.707031 59.339844 110.925781 58.96875 112.152344 58.628906 C 113.378906 58.292969 114.613281 57.980469 115.855469 57.703125 C 117.097656 57.421875 118.34375 57.175781 119.597656 56.957031 C 120.851562 56.738281 122.113281 56.550781 123.375 56.394531 C 124.636719 56.234375 125.902344 56.109375 127.171875 56.011719 C 128.441406 55.917969 129.714844 55.851562 130.984375 55.820312 C 132.257812 55.785156 133.53125 55.785156 134.804688 55.8125 C 136.074219 55.839844 137.347656 55.898438 138.617188 55.988281 C 139.886719 56.078125 141.152344 56.199219 142.417969 56.351562 C 143.679688 56.503906 144.9375 56.6875 146.195312 56.902344 C 147.449219 57.113281 148.699219 57.359375 149.941406 57.632812 C 151.183594 57.90625 152.417969 58.210938 153.648438 58.542969 C 154.875 58.878906 156.09375 59.242188 157.304688 59.636719 C 158.515625 60.027344 159.714844 60.453125 160.90625 60.902344 C 162.09375 61.355469 163.273438 61.835938 164.441406 62.347656 C 165.605469 62.855469 166.761719 63.394531 167.898438 63.957031 C 169.039062 64.523438 170.167969 65.117188 171.277344 65.738281 C 172.390625 66.359375 173.484375 67.003906 174.566406 67.679688 C 175.644531 68.351562 176.707031 69.050781 177.753906 69.777344 C 178.796875 70.503906 179.828125 71.253906 180.835938 72.03125 C 181.84375 72.804688 182.835938 73.605469 183.804688 74.429688 C 184.773438 75.253906 185.726562 76.101562 186.652344 76.96875 C 187.582031 77.839844 188.488281 78.730469 189.375 79.644531 Z M 130.917969 137.101562 " fill-opacity="1" fill-rule="evenodd"/></g><g clip-path="url(#225ce73a68)"><path fill="#000000" d="M 146.003906 92.992188 C 146.003906 93.921875 145.914062 94.84375 145.730469 95.753906 C 145.550781 96.667969 145.28125 97.554688 144.925781 98.414062 C 144.570312 99.273438 144.132812 100.089844 143.617188 100.863281 C 143.101562 101.636719 142.511719 102.351562 141.855469 103.007812 C 141.195312 103.667969 140.480469 104.253906 139.707031 104.769531 C 138.933594 105.289062 138.117188 105.722656 137.257812 106.078125 C 136.398438 106.4375 135.511719 106.703125 134.601562 106.886719 C 133.6875 107.066406 132.765625 107.160156 131.835938 107.160156 C 130.90625 107.160156 129.984375 107.066406 129.074219 106.886719 C 128.160156 106.703125 127.273438 106.4375 126.414062 106.078125 C 125.554688 105.722656 124.738281 105.289062 123.964844 104.769531 C 123.191406 104.253906 122.476562 103.667969 121.816406 103.007812 C 121.160156 102.351562 120.574219 101.636719 120.054688 100.863281 C 119.539062 100.089844 119.101562 99.273438 118.746094 98.414062 C 118.390625 97.554688 118.121094 96.667969 117.941406 95.753906 C 117.757812 94.84375 117.667969 93.921875 117.667969 92.992188 C 117.667969 92.058594 117.757812 91.140625 117.941406 90.226562 C 118.121094 89.3125 118.390625 88.429688 118.746094 87.570312 C 119.101562 86.710938 119.539062 85.894531 120.054688 85.121094 C 120.574219 84.347656 121.160156 83.628906 121.816406 82.972656 C 122.476562 82.316406 123.191406 81.726562 123.964844 81.210938 C 124.738281 80.695312 125.554688 80.257812 126.414062 79.902344 C 127.273438 79.546875 128.160156 79.277344 129.074219 79.09375 C 129.984375 78.914062 130.90625 78.824219 131.835938 78.824219 C 132.765625 78.824219 133.6875 78.914062 134.601562 79.09375 C 135.511719 79.277344 136.398438 79.546875 137.257812 79.902344 C 138.117188 80.257812 138.933594 80.695312 139.707031 81.210938 C 140.480469 81.726562 141.195312 82.316406 141.855469 82.972656 C 142.511719 83.628906 143.101562 84.347656 143.617188 85.121094 C 144.132812 85.894531 144.570312 86.710938 144.925781 87.570312 C 145.28125 88.429688 145.550781 89.3125 145.730469 90.226562 C 145.914062 91.140625 146.003906 92.058594 146.003906 92.992188 Z M 146.003906 92.992188 " fill-opacity="1" fill-rule="nonzero"/></g><g clip-path="url(#dc997927fb)"><path fill="#ffeb34" d="M 132.066406 83.539062 C 131.429688 83.539062 130.804688 83.601562 130.183594 83.726562 C 129.5625 83.851562 128.960938 84.03125 128.375 84.273438 C 127.789062 84.515625 127.234375 84.8125 126.707031 85.167969 C 126.179688 85.519531 125.691406 85.917969 125.246094 86.367188 C 124.796875 86.8125 124.398438 87.300781 124.046875 87.828125 C 123.695312 88.351562 123.398438 88.910156 123.15625 89.496094 C 122.914062 90.078125 122.730469 90.683594 122.605469 91.304688 C 122.484375 91.925781 122.421875 92.550781 122.421875 93.183594 C 122.421875 93.816406 122.484375 94.445312 122.605469 95.066406 C 122.730469 95.6875 122.914062 96.289062 123.15625 96.875 C 123.398438 97.460938 123.695312 98.015625 124.046875 98.542969 C 124.398438 99.070312 124.796875 99.554688 125.246094 100.003906 C 125.691406 100.453125 126.179688 100.851562 126.707031 101.203125 C 127.234375 101.554688 127.789062 101.851562 128.375 102.09375 C 128.960938 102.335938 129.5625 102.519531 130.183594 102.644531 C 130.804688 102.765625 131.429688 102.828125 132.066406 102.828125 C 132.699219 102.828125 133.324219 102.765625 133.945312 102.644531 C 134.566406 102.519531 135.171875 102.335938 135.753906 102.09375 C 136.339844 101.851562 136.894531 101.554688 137.421875 101.203125 C 137.949219 100.851562 138.4375 100.453125 138.882812 100.003906 C 139.332031 99.554688 139.730469 99.070312 140.082031 98.542969 C 140.433594 98.015625 140.730469 97.460938 140.972656 96.875 C 141.214844 96.289062 141.398438 95.6875 141.523438 95.066406 C 141.648438 94.445312 141.707031 93.816406 141.707031 93.183594 C 141.707031 92.550781 141.648438 91.925781 141.523438 91.304688 C 141.398438 90.683594 141.214844 90.078125 140.972656 89.496094 C 140.730469 88.910156 140.433594 88.351562 140.082031 87.828125 C 139.730469 87.300781 139.332031 86.8125 138.882812 86.367188 C 138.4375 85.917969 137.949219 85.519531 137.421875 85.167969 C 136.894531 84.8125 136.339844 84.515625 135.753906 84.273438 C 135.171875 84.03125 134.566406 83.851562 133.945312 83.726562 C 133.324219 83.601562 132.699219 83.539062 132.066406 83.539062 Z M 126.953125 137.015625 L 179.511719 190.492188 C 178.597656 191.308594 177.664062 192.105469 176.714844 192.882812 C 175.761719 193.65625 174.789062 194.40625 173.800781 195.132812 C 172.8125 195.859375 171.808594 196.5625 170.785156 197.242188 C 169.761719 197.917969 168.722656 198.570312 167.667969 199.199219 C 166.613281 199.828125 165.542969 200.429688 164.457031 201.003906 C 163.375 201.578125 162.277344 202.128906 161.164062 202.648438 C 160.054688 203.171875 158.933594 203.664062 157.796875 204.132812 C 156.664062 204.601562 155.515625 205.039062 154.359375 205.449219 C 153.203125 205.863281 152.039062 206.246094 150.863281 206.601562 C 149.6875 206.953125 148.503906 207.28125 147.3125 207.578125 C 146.125 207.875 144.925781 208.140625 143.722656 208.382812 C 142.519531 208.621094 141.308594 208.828125 140.09375 209.007812 C 138.882812 209.1875 137.664062 209.339844 136.441406 209.460938 C 135.21875 209.582031 133.996094 209.671875 132.769531 209.730469 C 131.546875 209.792969 130.320312 209.824219 129.089844 209.824219 C 127.863281 209.828125 126.636719 209.796875 125.410156 209.738281 C 124.183594 209.679688 122.960938 209.59375 121.738281 209.472656 C 120.519531 209.355469 119.300781 209.207031 118.085938 209.03125 C 116.871094 208.855469 115.660156 208.648438 114.457031 208.410156 C 113.253906 208.175781 112.054688 207.910156 110.863281 207.613281 C 109.671875 207.320312 108.488281 206.996094 107.3125 206.644531 C 106.136719 206.292969 104.972656 205.910156 103.8125 205.5 C 102.65625 205.09375 101.511719 204.65625 100.375 204.191406 C 99.238281 203.726562 98.113281 203.234375 97.003906 202.714844 C 95.890625 202.195312 94.792969 201.648438 93.707031 201.074219 C 92.621094 200.5 91.550781 199.902344 90.496094 199.277344 C 89.4375 198.652344 88.398438 198 87.375 197.324219 C 86.347656 196.648438 85.34375 195.949219 84.351562 195.222656 C 83.363281 194.496094 82.390625 193.75 81.4375 192.976562 C 80.480469 192.203125 79.546875 191.410156 78.632812 190.589844 C 77.71875 189.773438 76.824219 188.933594 75.949219 188.074219 C 75.074219 187.210938 74.222656 186.328125 73.390625 185.425781 C 72.558594 184.523438 71.75 183.601562 70.964844 182.65625 C 70.175781 181.714844 69.414062 180.753906 68.675781 179.773438 C 67.933594 178.796875 67.21875 177.796875 66.527344 176.785156 C 65.839844 175.769531 65.171875 174.738281 64.53125 173.691406 C 63.890625 172.644531 63.277344 171.582031 62.6875 170.507812 C 62.097656 169.429688 61.535156 168.339844 61 167.234375 C 60.460938 166.132812 59.953125 165.015625 59.472656 163.886719 C 58.992188 162.757812 58.535156 161.617188 58.109375 160.464844 C 57.683594 159.316406 57.285156 158.15625 56.917969 156.984375 C 56.546875 155.8125 56.207031 154.636719 55.894531 153.449219 C 55.582031 152.261719 55.300781 151.066406 55.046875 149.867188 C 54.792969 148.664062 54.566406 147.460938 54.371094 146.246094 C 54.175781 145.035156 54.011719 143.820312 53.875 142.601562 C 53.738281 141.378906 53.632812 140.160156 53.554688 138.933594 C 53.480469 137.707031 53.433594 136.480469 53.414062 135.253906 C 53.398438 134.027344 53.410156 132.800781 53.453125 131.574219 C 53.496094 130.347656 53.570312 129.121094 53.671875 127.898438 C 53.777344 126.675781 53.90625 125.457031 54.070312 124.242188 C 54.230469 123.023438 54.421875 121.8125 54.644531 120.605469 C 54.863281 119.398438 55.117188 118.195312 55.394531 117 C 55.675781 115.804688 55.984375 114.617188 56.320312 113.4375 C 56.65625 112.257812 57.023438 111.085938 57.417969 109.925781 C 57.8125 108.761719 58.234375 107.609375 58.683594 106.46875 C 59.136719 105.328125 59.613281 104.195312 60.117188 103.078125 C 60.625 101.960938 61.15625 100.855469 61.714844 99.761719 C 62.273438 98.667969 62.859375 97.589844 63.472656 96.527344 C 64.085938 95.464844 64.722656 94.414062 65.386719 93.382812 C 66.046875 92.347656 66.734375 91.332031 67.449219 90.332031 C 68.160156 89.335938 68.894531 88.351562 69.65625 87.390625 C 70.417969 86.425781 71.199219 85.480469 72.007812 84.554688 C 72.8125 83.628906 73.640625 82.726562 74.492188 81.839844 C 75.339844 80.953125 76.210938 80.089844 77.105469 79.246094 C 77.996094 78.40625 78.910156 77.585938 79.839844 76.785156 C 80.773438 75.988281 81.726562 75.214844 82.695312 74.460938 C 83.664062 73.710938 84.652344 72.980469 85.660156 72.277344 C 86.664062 71.574219 87.6875 70.894531 88.722656 70.242188 C 89.761719 69.585938 90.816406 68.957031 91.886719 68.355469 C 92.957031 67.753906 94.039062 67.175781 95.136719 66.625 C 96.234375 66.078125 97.34375 65.554688 98.464844 65.058594 C 99.589844 64.5625 100.722656 64.09375 101.867188 63.652344 C 103.011719 63.210938 104.167969 62.800781 105.335938 62.414062 C 106.5 62.03125 107.675781 61.675781 108.855469 61.347656 C 110.039062 61.019531 111.230469 60.722656 112.429688 60.453125 C 113.625 60.183594 114.828125 59.945312 116.039062 59.734375 C 117.246094 59.523438 118.460938 59.339844 119.679688 59.191406 C 120.894531 59.039062 122.117188 58.917969 123.339844 58.824219 C 124.566406 58.730469 125.789062 58.667969 127.015625 58.636719 C 128.246094 58.605469 129.472656 58.601562 130.699219 58.628906 C 131.925781 58.65625 133.152344 58.714844 134.375 58.800781 C 135.597656 58.886719 136.820312 59.003906 138.039062 59.152344 C 139.257812 59.296875 140.472656 59.472656 141.683594 59.679688 C 142.890625 59.886719 144.097656 60.121094 145.296875 60.382812 C 146.492188 60.648438 147.683594 60.941406 148.871094 61.265625 C 150.054688 61.585938 151.230469 61.9375 152.398438 62.316406 C 153.5625 62.695312 154.722656 63.105469 155.867188 63.539062 C 157.015625 63.976562 158.152344 64.4375 159.277344 64.929688 C 160.402344 65.421875 161.511719 65.941406 162.613281 66.484375 C 163.710938 67.03125 164.796875 67.601562 165.871094 68.199219 C 166.941406 68.800781 167.996094 69.421875 169.039062 70.074219 C 170.082031 70.722656 171.105469 71.398438 172.113281 72.097656 C 173.121094 72.796875 174.113281 73.519531 175.085938 74.269531 C 176.058594 75.015625 177.015625 75.785156 177.949219 76.582031 C 178.886719 77.375 179.800781 78.191406 180.695312 79.03125 C 181.59375 79.871094 182.46875 80.730469 183.320312 81.613281 Z M 126.953125 137.015625 " fill-opacity="1" fill-rule="evenodd"/></g><path fill="#fcfcfc" d="M 96.824219 236.324219 L 98.804688 236.324219 L 98.804688 241.214844 L 121.882812 241.214844 L 121.882812 236.324219 L 126.773438 236.324219 L 126.773438 218.121094 L 108.65625 218.121094 L 108.65625 226.433594 L 118.492188 226.433594 L 118.492188 232.902344 L 102.191406 232.902344 L 102.191406 206.675781 L 121.882812 206.675781 L 121.882812 198.363281 L 98.804688 198.363281 L 98.804688 203.269531 L 93.910156 203.269531 L 93.910156 236.324219 Z M 96.824219 236.324219 " fill-opacity="1" fill-rule="nonzero"/><path fill="#fcfcfc" d="M 150.609375 226.433594 L 166.90625 226.433594 L 166.90625 241.195312 L 175.171875 241.195312 L 175.171875 203.269531 L 170.28125 203.269531 L 170.28125 198.363281 L 147.21875 198.363281 L 147.21875 203.269531 L 142.328125 203.269531 L 142.328125 241.214844 L 150.59375 241.214844 Z M 150.609375 210.078125 L 150.609375 206.675781 L 166.90625 206.675781 L 166.90625 218.105469 L 150.628906 218.105469 Z M 150.609375 210.078125 " fill-opacity="1" fill-rule="nonzero"/><path fill="#fcfcfc" d="M 200.527344 221.523438 L 205.402344 221.523438 L 205.402344 236.324219 L 213.753906 236.324219 L 213.753906 221.523438 L 218.644531 221.523438 L 218.644531 211.652344 L 220.199219 211.652344 L 220.199219 241.214844 L 228.480469 241.214844 L 228.480469 198.363281 L 220.199219 198.363281 L 220.199219 203.34375 L 215.253906 203.34375 L 215.253906 208.25 L 210.363281 208.25 L 210.363281 218.121094 L 208.808594 218.121094 L 208.808594 208.25 L 203.917969 208.25 L 203.917969 203.34375 L 198.957031 203.34375 L 198.957031 198.363281 L 190.675781 198.363281 L 190.675781 241.214844 L 198.957031 241.214844 L 198.957031 211.652344 L 200.527344 211.652344 Z M 200.527344 221.523438 " fill-opacity="1" fill-rule="nonzero"/><path fill="#fcfcfc" d="M 276.898438 239.726562 L 276.898438 232.902344 L 252.316406 232.902344 L 252.316406 221.523438 L 267.0625 221.523438 L 267.0625 213.214844 L 252.316406 213.214844 L 252.316406 206.675781 L 276.898438 206.675781 L 276.898438 198.363281 L 244.035156 198.363281 L 244.035156 241.214844 L 276.898438 241.214844 Z M 276.898438 239.726562 " fill-opacity="1" fill-rule="nonzero"/><path fill="#fcfcfc" d="M 126.773438 264.960938 L 98.734375 264.960938 L 98.734375 269.871094 L 93.859375 269.871094 L 93.859375 302.921875 L 98.734375 302.921875 L 98.734375 307.832031 L 126.773438 307.832031 L 126.773438 302.921875 L 131.664062 302.921875 L 131.664062 269.886719 L 126.773438 269.886719 Z M 102.140625 276.675781 L 102.140625 273.273438 L 123.382812 273.273438 L 123.382812 299.484375 L 102.15625 299.484375 Z M 102.140625 276.675781 " fill-opacity="1" fill-rule="nonzero"/><path fill="#fcfcfc" d="M 176.671875 274.78125 L 171.800781 274.78125 L 171.800781 284.652344 L 166.90625 284.652344 L 166.90625 294.523438 L 165.214844 294.523438 L 165.214844 284.652344 L 160.320312 284.652344 L 160.320312 274.78125 L 155.429688 274.78125 L 155.429688 264.960938 L 147.148438 264.960938 L 147.148438 278.183594 L 152.039062 278.183594 L 152.039062 288.054688 L 156.929688 288.054688 L 156.929688 297.941406 L 161.824219 297.941406 L 161.824219 307.8125 L 170.296875 307.8125 L 170.296875 297.941406 L 175.1875 297.941406 L 175.1875 288.054688 L 180.082031 288.054688 L 180.082031 278.183594 L 184.972656 278.183594 L 184.972656 264.960938 L 176.671875 264.960938 Z M 176.671875 274.78125 " fill-opacity="1" fill-rule="nonzero"/><path fill="#fcfcfc" d="M 200.527344 307.8125 L 233.371094 307.8125 L 233.371094 299.5 L 208.808594 299.5 L 208.808594 288.125 L 223.535156 288.125 L 223.535156 279.8125 L 208.808594 279.8125 L 208.808594 273.273438 L 233.371094 273.273438 L 233.371094 264.960938 L 200.527344 264.960938 Z M 200.527344 307.8125 " fill-opacity="1" fill-rule="nonzero"/><path fill="#fcfcfc" d="M 276.898438 269.871094 L 276.898438 264.960938 L 248.925781 264.960938 L 248.925781 307.8125 L 257.207031 307.8125 L 257.207031 293.035156 L 268.613281 293.035156 L 268.613281 298.011719 L 273.507812 298.011719 L 273.507812 307.796875 L 281.769531 307.796875 L 281.769531 294.609375 L 276.878906 294.609375 L 276.878906 288.140625 L 281.769531 288.140625 L 281.769531 269.886719 L 276.894531 269.886719 L 276.894531 269.871094 Z M 257.207031 273.273438 L 273.507812 273.273438 L 273.507812 284.722656 L 257.226562 284.722656 Z M 257.207031 273.273438 " fill-opacity="1" fill-rule="nonzero"/><g clip-path="url(#443b78bfdd)"><path fill="#5c5e90" d="M 144.765625 249.011719 L 154.988281 249.011719 L 154.988281 234.214844 L 164.984375 234.214844 L 164.984375 243.164062 L 169.34375 243.164062 L 169.34375 249.011719 L 179.570312 249.011719 L 179.570312 209.101562 L 177.132812 209.101562 L 177.132812 201.304688 L 172.242188 201.304688 L 172.242188 196.394531 L 145.277344 196.394531 L 145.277344 201.304688 L 140.386719 201.304688 L 140.386719 243.144531 L 144.746094 243.144531 L 144.746094 248.039062 Z M 142.328125 203.269531 L 147.21875 203.269531 L 147.21875 198.363281 L 170.296875 198.363281 L 170.296875 203.269531 L 175.1875 203.269531 L 175.1875 241.214844 L 166.925781 241.214844 L 166.925781 226.453125 L 150.628906 226.453125 L 150.628906 241.230469 L 142.347656 241.230469 Z M 203.316406 249.011719 L 203.316406 229.324219 L 203.476562 229.324219 L 203.476562 238.273438 L 207.839844 238.273438 L 207.839844 244.121094 L 218.132812 244.121094 L 218.132812 229.324219 L 218.292969 229.324219 L 218.292969 243.179688 L 222.652344 243.179688 L 222.652344 249.011719 L 232.875 249.011719 L 232.875 204.210938 L 230.441406 204.210938 L 230.441406 196.414062 L 218.273438 196.414062 L 218.273438 201.394531 L 213.3125 201.394531 L 213.3125 206.300781 L 205.84375 206.300781 L 205.84375 201.394531 L 200.882812 201.394531 L 200.882812 196.414062 L 188.714844 196.414062 L 188.714844 243.164062 L 193.09375 243.164062 L 193.09375 249.011719 Z M 190.675781 198.363281 L 198.957031 198.363281 L 198.957031 203.34375 L 203.917969 203.34375 L 203.917969 208.25 L 208.808594 208.25 L 208.808594 218.121094 L 210.363281 218.121094 L 210.363281 208.25 L 215.253906 208.25 L 215.253906 203.34375 L 220.214844 203.34375 L 220.214844 198.363281 L 228.496094 198.363281 L 228.496094 241.214844 L 220.214844 241.214844 L 220.214844 211.652344 L 218.660156 211.652344 L 218.660156 221.523438 L 213.753906 221.523438 L 213.753906 236.304688 L 205.4375 236.304688 L 205.4375 221.542969 L 200.546875 221.542969 L 200.546875 211.671875 L 198.992188 211.671875 L 198.992188 241.25 L 190.675781 241.25 Z M 246.472656 249.011719 L 281.277344 249.011719 L 281.277344 238.75 L 278.839844 238.75 L 278.839844 230.953125 L 256.679688 230.953125 L 256.679688 229.304688 L 271.40625 229.304688 L 271.40625 219.0625 L 268.96875 219.0625 L 268.96875 214.453125 L 281.238281 214.453125 L 281.238281 204.191406 L 278.804688 204.191406 L 278.804688 196.394531 L 242.09375 196.394531 L 242.09375 243.144531 L 246.453125 243.144531 L 246.453125 248.039062 Z M 244.035156 198.363281 L 276.898438 198.363281 L 276.898438 206.675781 L 252.316406 206.675781 L 252.316406 213.214844 L 267.042969 213.214844 L 267.042969 221.507812 L 252.316406 221.507812 L 252.316406 232.886719 L 276.878906 232.886719 L 276.878906 241.195312 L 244.054688 241.195312 Z M 133.589844 275.703125 L 133.589844 267.902344 L 128.695312 267.902344 L 128.695312 262.996094 L 96.789062 262.996094 L 96.789062 267.902344 L 91.917969 267.902344 L 91.917969 304.855469 L 96.277344 304.855469 L 96.277344 310.703125 L 101.167969 310.703125 L 101.167969 315.609375 L 131.152344 315.609375 L 131.152344 310.703125 L 136.042969 310.703125 L 136.042969 275.703125 Z M 93.859375 269.871094 L 98.75 269.871094 L 98.75 264.960938 L 126.789062 264.960938 L 126.789062 269.871094 L 131.679688 269.871094 L 131.679688 302.90625 L 126.789062 302.90625 L 126.789062 307.8125 L 98.734375 307.8125 L 98.734375 302.90625 L 93.859375 302.90625 Z M 186.894531 270.808594 L 186.894531 263.011719 L 174.730469 263.011719 L 174.730469 272.832031 L 169.839844 272.832031 L 169.839844 282.71875 L 164.664062 282.71875 L 164.664062 280.628906 L 162.230469 280.628906 L 162.230469 272.832031 L 159.757812 272.832031 L 159.757812 270.792969 L 157.320312 270.792969 L 157.320312 262.996094 L 145.152344 262.996094 L 145.152344 280.113281 L 149.515625 280.113281 L 149.515625 285.960938 L 150.046875 285.960938 L 150.046875 290.003906 L 154.40625 290.003906 L 154.40625 295.851562 L 154.9375 295.851562 L 154.9375 299.890625 L 159.296875 299.890625 L 159.296875 305.722656 L 159.828125 305.722656 L 159.828125 309.761719 L 164.1875 309.761719 L 164.1875 315.609375 L 174.605469 315.609375 L 174.605469 305.722656 L 179.496094 305.722656 L 179.496094 295.832031 L 184.390625 295.832031 L 184.390625 285.960938 L 189.28125 285.960938 L 189.28125 270.792969 L 188.308594 270.792969 Z M 161.824219 305.722656 L 161.824219 297.941406 L 156.949219 297.941406 L 156.949219 288.070312 L 152.058594 288.070312 L 152.058594 278.199219 L 147.167969 278.199219 L 147.167969 264.980469 L 155.449219 264.980469 L 155.449219 274.78125 L 160.320312 274.78125 L 160.320312 284.652344 L 165.195312 284.652344 L 165.195312 294.523438 L 166.890625 294.523438 L 166.890625 284.652344 L 171.78125 284.652344 L 171.78125 274.78125 L 176.671875 274.78125 L 176.671875 264.960938 L 184.972656 264.960938 L 184.972656 278.164062 L 180.082031 278.164062 L 180.082031 288.035156 L 175.1875 288.035156 L 175.1875 297.925781 L 170.296875 297.925781 L 170.296875 307.796875 L 161.839844 307.796875 Z M 235.3125 270.808594 L 235.3125 263.011719 L 198.585938 263.011719 L 198.585938 309.761719 L 202.945312 309.761719 L 202.945312 315.609375 L 237.75 315.609375 L 237.75 305.351562 L 235.3125 305.351562 L 235.3125 297.550781 L 213.171875 297.550781 L 213.171875 295.90625 L 227.898438 295.90625 L 227.898438 285.644531 L 225.460938 285.644531 L 225.460938 281.035156 L 237.730469 281.035156 L 237.730469 270.773438 L 236.761719 270.773438 Z M 223.535156 281.054688 L 223.535156 288.125 L 208.808594 288.125 L 208.808594 299.5 L 233.371094 299.5 L 233.371094 307.8125 L 200.546875 307.8125 L 200.546875 264.960938 L 233.40625 264.960938 L 233.40625 273.273438 L 208.808594 273.273438 L 208.808594 279.8125 L 223.535156 279.8125 Z M 285.179688 275.703125 L 283.710938 275.703125 L 283.710938 267.902344 L 278.820312 267.902344 L 278.820312 262.996094 L 246.984375 262.996094 L 246.984375 309.746094 L 251.363281 309.746094 L 251.363281 315.59375 L 261.585938 315.59375 L 261.585938 300.796875 L 271.050781 300.796875 L 271.050781 305.777344 L 271.582031 305.777344 L 271.582031 309.746094 L 275.941406 309.746094 L 275.941406 315.59375 L 286.167969 315.59375 L 286.167969 300.421875 L 283.730469 300.421875 L 283.730469 295.886719 L 286.167969 295.886719 L 286.167969 275.683594 Z M 281.789062 295.90625 L 281.789062 307.796875 L 273.523438 307.796875 L 273.523438 298.011719 L 268.632812 298.011719 L 268.632812 293.035156 L 257.226562 293.035156 L 257.226562 307.8125 L 248.945312 307.8125 L 248.945312 264.960938 L 276.914062 264.960938 L 276.914062 269.871094 L 281.804688 269.871094 L 281.804688 288.125 L 276.914062 288.125 L 276.914062 294.59375 L 281.804688 294.59375 L 281.804688 295.40625 Z M 96.347656 238.253906 L 96.347656 244.101562 L 101.238281 244.101562 L 101.238281 249.011719 L 126.261719 249.011719 L 126.261719 244.101562 L 131.152344 244.101562 L 131.152344 223.96875 L 128.714844 223.96875 L 128.714844 216.171875 L 106.714844 216.171875 L 106.714844 228.382812 L 111.074219 228.382812 L 111.074219 230.972656 L 106.554688 230.972656 L 106.554688 214.472656 L 126.242188 214.472656 L 126.242188 204.210938 L 123.804688 204.210938 L 123.804688 196.414062 L 96.859375 196.414062 L 96.859375 201.320312 L 91.96875 201.320312 L 91.96875 238.273438 L 93.910156 238.273438 Z M 93.910156 203.269531 L 98.804688 203.269531 L 98.804688 198.363281 L 121.882812 198.363281 L 121.882812 206.675781 L 102.191406 206.675781 L 102.191406 232.902344 L 118.457031 232.902344 L 118.457031 226.433594 L 108.671875 226.433594 L 108.671875 218.121094 L 126.808594 218.121094 L 126.808594 236.304688 L 121.917969 236.304688 L 121.917969 241.214844 L 98.804688 241.214844 L 98.804688 236.304688 L 93.910156 236.304688 Z M 154.496094 218.121094 L 166.90625 218.121094 L 166.90625 206.691406 L 150.609375 206.691406 L 150.609375 218.140625 L 154 218.140625 Z M 164.964844 216.191406 L 154.972656 216.191406 L 154.972656 214.472656 L 164.964844 214.472656 Z M 106.007812 299.5 L 123.363281 299.5 L 123.363281 273.292969 L 102.140625 273.292969 L 102.140625 299.519531 L 105.53125 299.519531 Z M 121.441406 297.570312 L 106.484375 297.570312 L 106.484375 281.070312 L 121.441406 281.070312 Z M 257.207031 284.722656 L 273.488281 284.722656 L 273.488281 273.292969 L 257.191406 273.292969 Z M 271.5625 282.773438 L 261.570312 282.773438 L 261.570312 281.054688 L 271.5625 281.054688 Z M 271.5625 282.773438 " fill-opacity="1" fill-rule="nonzero"/></g></svg>